<?xml version="1.0" encoding="UTF-8"?><svg id="Capa_1" xmlns="http://www.w3.org/2000/svg" viewBox="0 0 1200 1200"><defs><style>.cls-1{fill:#FFD7D9;stroke-width:0px;}</style></defs><path class="cls-1" d="M493.22,968.91c-5.41-19.5-9.64-39.15-9.86-59.48-.02-1.97.25-3.93.49-7.35,5.49,8.33,10.21,15.48,15.68,23.78,0-15.72,2.16-29.6,8.66-42.1,6.06,19.38,12.08,38.62,17.95,57.37,5.21-5.99,11.08-12.74,16.96-19.49-1.81,26.57-9.3,49.83-33.09,65.17,12.33,15.1,27.54,28.51,37.89,45.81-.38.53-.76,1.07-1.13,1.6-1.81-1.21-3.95-2.11-5.37-3.67-12.55-13.84-25.37-27.47-37.29-41.85-6.64-8.01-14.92-10.1-24.27-10.1-8.96,0-17.92.99-26.87.97-18.19-.03-32.83-8.76-46.38-19.82-.22-.18-.15-.7-.24-1.19.36-.31.83-1.01,1.15-.95,10.01,2.02,19.64-.57,29.41-2.1,14.2-2.22,27.85.51,41.42,6.18-4.74-7.04-6.66-8.53-21.24-12.07-13.05-3.17-26.33-5.4-39.5-8.11-7.93-1.63-15.15.18-22.06,4.07-7.8,4.4-15.34,9.53-23.61,12.74-6.76,2.62-14.43,2.9-21.69,4.19-2.18.39-4.38.71-6.57,1-4.24.54-8.5,1.44-12.73,1.36-1.87-.04-3.71-2.1-5.56-3.24,1.52-1.79,2.82-4.83,4.59-5.13,4.07-.69,8.87-1.23,12.48.29,9.88,4.16,19.25,2.6,28.21-1.53,8.75-4.03,16.93-9.28,25.36-13.99-.04-.55-.08-1.1-.12-1.64-9.48-.27-18.97-.83-28.45-.73-7.44.08-14.87,1.11-22.31,1.45-4.35.2-7.49-2.05-7.4-6.54.08-4.21,3.66-5.52,7.23-5.35,5.19.25,10.94-.17,15.42,1.91,11.98,5.56,24.6,5.91,37.24,6.46,22.55.98,44.5,5,65.92,12.04.84.28,1.76.31,2.84.5-4.3-7.49-10.8-10.23-18.75-10.19-30.67.16-56.87-12.36-81.68-28.8-.96-.64-1.64-1.69-3.48-3.63,21.43,2.16,41.38,4.18,58.62,5.92-8.4-7.73-18.42-18.14-29.77-26.82-4.71-3.6-12.33-5.05-18.5-4.76-18.45.87-36.83,3.08-55.24,4.79-1.92.18-3.82.53-5.77.52,18.59-6.51,55.87-9.42,73.4-6.02.31-.4.61-.8.92-1.21-10.19-7.65-19.88-16.13-30.82-22.49-3.91-2.28-11-.15-16.31,1.24-13.8,3.62-26.87,9.03-38.4,17.79-10.41,7.91-22.39,12-35.37,12.68-8.45.44-16.95.08-26.76.08,6.84-3.72,12.84-6.74,18.58-10.17,5.7-3.41,11.14-7.24,16.57-11.81-22.02,6.04-40.99-3.55-60.52-10.23.17-.55.29-1.18.37-1.17,14.24,1.03,26.12-6.44,38.91-10.67,10.09-3.34,20.07-7.32,30.43-9.45,17.5-3.6,34.56,0,51.19,5.84,1.85.65,3.69,1.32,5.53,1.98.19-.43.37-.85.56-1.28-3.26-1.67-6.37-3.78-9.81-4.94-14.86-5.05-29.82-9.76-44.71-14.73-3.55-1.18-5.88-.91-8.59,2.35-12.32,14.75-41.13,20.2-57.53,10.27-6.37-3.86-11.98-9.7-16.49-15.72-6.57-8.77-3.32-18.3,6.9-22.92,4.39-1.98,9.05-3.37,13.41-4.96-.43-1.75-.87-3.54-1.31-5.33,2.12-.38,4.33-1.35,6.36-1.05,19.51,2.87,36.7,10.21,48.78,26.65,2.9,3.95,6.31,6.42,11.1,7.74,11.85,3.26,23.57,7,35.92,9.79-1.94-1.96-3.89-3.9-5.81-5.87-8.94-9.23-17.33-19.11-26.98-27.52-8.06-7.02-17.09-13.38-26.66-18.08-8.58-4.21-18.49-5.65-27.76-8.52-4.27-1.32-7.25-.25-10.24,3.11-10.06,11.27-21.52,9.19-31.68,2.62-.54-.35-.81-1.11-1.49-2.09,1.86-.61,3.33-1.1,5.18-1.71-2.08-1.65-3.79-3.01-5.82-4.62,2.71-1.05,5.02-1.95,8.26-3.21-3.55-1.78-6.25-3.14-8.99-4.51,5.49-7.39,20.19-8.92,28.55-3.09,1.83,1.28,4.02,2.54,5.04,4.38,3.15,5.67,8.38,6.31,13.99,7.34,14.22,2.6,28.01,6.61,39.91,15.36.51.37,1.12.61,1.69.91.4-.44.8-.87,1.2-1.31-11.43-12.46-22.86-24.93-34.29-37.39-.74.35-1.49.71-2.23,1.06.79,5.1,1.59,10.19,2.46,15.81-10.7-9.7-21.23-19.24-31.68-28.71-5.71,8.04-15.05,8.8-24.31,6.9-7.91-1.62-15.4-5.26-23.33-8.09-.08,6.79-4.5,10.72-9.64,14.53-6.05,4.48-11.61,9.64-16.85,14.05-2.8-9.15-6.56-19.02-8.66-29.24-1.35-6.53-.25-13.56-.25-20.47-25.84-1.76-51.35-35.69-44.88-61.75-5.05.24-10.05.88-15.01.64-13.2-.64-24.7-5.92-34.4-14.62-8.05-7.23-15.34-15.3-23.17-22.79C11.06,606.77,5.52,602.17,0,597.28c24.37-10.42,63.64-25.1,83.44-11.36-.45-5.22-1.58-10.67-1.2-16.01.47-6.47,4.64-8.59,12.72-7.31,0-2.08-.1-4.09.02-6.08.7-11.77,11.47-17.5,21.58-11.5.32.19.61.62.91.63,10.55.05,15.17,7.93,20.36,15.19-7.23-21.27-16.78-40.33-41.45-45.99-5.44-1.25-10.66-3.47-16.04-5.02-3.7-1.07-7.45-1.38-10.28,2.09-8.06,9.88-19.07,12.46-31.07,12.54-8.65.06-17.3.01-25.95.01-.46-.52-.93-1.03-1.39-1.55,2.5-1.95,5.17-3.71,7.47-5.87,9.55-8.98,19.77-16.59,33.59-17.02,2.94-.09,6.05-.14,8.83.66,14.12,4.1,28.26,8.21,42.18,12.94,5.13,1.74,9.68,5.19,15.91,7.12-5.45-11.1-10.9-22.2-16.69-34-16.19,11.96-29.17,4.54-43.39-4.92,5.11-.88,9.07-1.56,13.67-2.35-9.56-11.2-18.74-21.96-28.23-33.07.9-.2,1.72-.64,2.46-.52,5.14.85,10.22,2.13,15.39,2.68,14.53,1.57,24.94,8.62,31.82,21.66,3.64,6.9,8.64,13.08,13.03,19.59.48-.24.96-.48,1.43-.72-.83-6.57-1.85-13.12-2.44-19.71-.76-8.54-1.16-17.11-1.77-25.66-.07-1.06-.15-2.29-.71-3.12-3.65-5.47-7.43-10.85-11.3-16.45-11.25,4.92-18.23,3.89-22.88-3.96-6.08-10.25-3.44-19.73,7.75-27.9-8.88-13.22-6.47-21.74,7.25-26.49-1.3-3.8-3.58-7.58-3.61-11.37-.03-3.55,2.33-7.11,3.81-11.15-4.53-2.87-8.81-7.09-6.01-14.07,3.18-7.93,9.92-8.67,17.18-7.49,2.6-8.02,8.38-12.07,23.85-6.88.48-1.92.94-3.8,1.42-5.72-13.43-2.03-17.83-6.07-17.2-15.46.69-10.31,7.14-16.07,18.87-16.51-.95-7.37-.65-14.32,7.97-17.28,6.42-2.21,12.15-.05,17.61,6.91,1.44-1.97,2.71-3.96,4.25-5.71,1.56-1.77,3.4-3.31,5.05-4.88-8.02-3.12-15.63-6.01-23.17-9.06-2.41-.98-4.57-2.57-6.97-3.6-10.96-4.69-14.17-14.03-14.82-24.79-.48-7.93,3.85-13.1,11.74-14.42,2.76-.46,5.54-.77,8.33-1.01,2.78-.24,5.57-.3,10.04-.52-10.56-7.64-13.02-18.05-13.9-28.96-.86-10.64,2.14-19.76,9.3-28.31,14.03-16.74,31.6-13.26,48.91-9.56,11.74,2.51,11.52,3.51,18.07,11.53,1.71-4.96,3.18-9.81,5.04-14.5,4.1-10.31,11.61-17.87,20.78-23.63,9.23-5.8,19.49-2.79,26.49,6.56,9.7,12.95,13.66,27.2,10.36,44.06,3.06-1.66,5.36-2.99,7.73-4.18,4.94-2.47,9.29-.75,10.94,4.38,1.48,4.6,2.8,9.25,4.6,15.25,7.92-2.15,16.17-4.39,25.29-6.87-11.06-9.08-12.95-18.24-7.52-30.23,1.87-4.14,3.22-8.51,5.35-14.25,5.85,13.43,9.98,25.64,7.9,40.95,5.6-4.63,10.25-8,14.21-12.05,1.1-1.13.98-4.82-.03-6.41-10.67-16.81-6.24-31.51,6.44-46.37,1.86,14.84,7.69,28.38,2.89,43,5.46-4.73,11-9.38,16.31-14.27.88-.81,1.04-2.68,1.1-4.07.21-4.67-.42-9.47.43-14,2.77-14.76,12.21-23.91,25.94-29.04.41-.15,1.02.24,1.16.28-2.38,6.69-4.46,13.4-7.15,19.86-2.62,6.28-5.86,12.3-8.67,18.1,6.83-4,14.3-8.7,22.08-12.82,6.4-3.39,13.19-6.04,19.76-9.12,1.63-.77,3.36-1.67,4.56-2.96,5.85-6.32,13.16-8.79,21.58-9.04,4.41-.13,8.8-.95,14.42-1.61-2.83,2.64-4.97,4.91-7.38,6.86-8.46,6.83-17.31,12.22-29.11,10.2-3.17-.54-6.97.97-10.14,2.33-7.12,3.06-14.02,6.62-22.22,10.56,14.57,1.52,27.56,2.87,41.29,4.29-16.71,13.58-33.38,16.29-49.6,1.05-4.94,3.4-9.97,6.85-15.39,10.58,6.32,1.95,12.05,3.69,17.75,5.49,5.59,1.77,11.16,3.61,17.48,5.66-7.17,4.47-14.63,8.2-22.99,8.18-8.58-.02-15.48-4.87-21.7-11.24-5.15,5.45-9.97,10.56-15.89,16.83,13.83-5.98,24.21,2.59,36.05,6.31-5.78,2.01-11.55,4.02-17.33,6.03.04.52.07,1.04.11,1.56,7.82,0,15.64.15,23.45-.13,1.57-.06,3.86-1.4,4.49-2.76,3.93-8.55,10.84-13.71,19.05-17.35,12.8-5.67,25.59-11.41,38.6-16.55,13.77-5.44,25.13-13.79,34.08-25.54,1.99-2.61,4.23-5.03,6.35-7.53.47.26.95.53,1.42.79-3.97,11.29-7.94,22.58-11.99,34.11,11.75-1.31,19.83-9.89,29.56-16.2-5.1,21.6-9.9,26.94-44.06,48.9,16.71.9,32.07,1.73,47.44,2.55.2.4.4.79.61,1.19-8.49,3.9-16.68,8.79-25.55,11.42-8.79,2.6-18.26,2.92-26.59,4.12,14.48,7.02,29.78,14.43,45.45,22.02,10.87-10.71,25.07-13.18,39.82-14.46,2.99-.26,5.76-2.54,8.76-3.44,4.12-1.23,8.35-2.24,12.59-2.87.98-.15,3.22,1.67,3.17,2.48-.08,1.36-1.28,3.46-2.45,3.81-3.5,1.06-7.18,1.68-10.83,2.01-15.94,1.42-32.08,1.92-45.91,11.6-.87.61-1.57,1.46-2.59,2.43,7.29,4.51,14.22,8.79,20.77,12.84,6.19-3.94,11.88-8.82,18.47-11.48,12.28-4.96,24.72-3.14,36.25,3.03,7.27,3.88,14.05,8.66,22.37,13.86-20.19,2.79-39.44,5.45-57.13,7.89,7.7,7.2,16.93,16,26.42,24.52,1.77,1.59,4.55,2.8,6.89,2.86,27.61.74,47.49,18.04,51.87,45.46,1.3,8.1-.28,16.85,5.37,24.57-1.08-.26-2.37-.22-3.22-.82-12.05-8.5-23.93-17.26-36.09-25.59-9.82-6.72-15.4-16.1-18.28-27.29-1.46-5.68-4.05-10.11-8.3-14.55-14.16-14.81-30.21-27.2-46.7-39.12-3.29-2.38-6.91-4.29-11.05-5.75,2.42,4.18,5.17,8.21,7.21,12.57,5.3,11.3,10.13,22.81,15.48,34.09,1.88,3.97,4.72,7.49,6.73,12.17-5.76-3.39-11.52-6.79-17.28-10.18-.31.21-.62.42-.93.62,2.52,3.29,5.04,6.57,8.37,10.91-2.29-.24-3.84.07-4.73-.56-22.31-15.68-36.15-36.04-34.55-64.45.27-4.84-.78-7.45-5.44-9.2-21.11-7.92-42.12-16.09-63.18-24.16-.67-.25-1.43-.26-2.52-.44,4.52,6.29,8,13.14,13.35,17.89,3.79,3.36,10.02,5.03,15.31,5.42,10.65.78,21.18,1.23,30.81,6.49.65.36,1.64.46,1.96.99,1.4,2.29,2.8,4.62,3.76,7.11.2.5-2.01,2.63-2.23,2.5-2.27-1.32-5.56-2.54-6.28-4.58-2.21-6.25-7.3-7.89-12.58-8.63-8.65-1.21-17.41-1.59-28.09-2.48,8.81,10.01,16.46,19.24,24.71,27.91,7.66,8.05,16.45,14.67,27.68,17.23,1.36.31,3.1,1.26,3.62,2.4.83,1.83,1.52,4.36.84,6.01-.43,1.04-3.46,1.33-5.32,1.33-1.11,0-2.72-.94-3.24-1.91-4.89-9.11-15.27-11.99-21.71-19.39-4.27-4.9-9.44-9.01-14.69-13.92,1.45,11.65,8.02,19.81,15.01,27.7.61.69,1.94.75,2.95,1.06.88.26,2.1.16,2.62.73,1.8,1.95,3.5,4.03,4.88,6.29.25.42-1.65,2.8-1.82,2.72-2.42-1.13-5.24-2.07-6.92-3.97-3.48-3.94-6.84-8.16-9.31-12.77-3.75-6.98-6.69-14.39-10.01-21.6-1.23-2.67-2.25-5.48-3.84-7.92-5.4-8.3-11.14-16.38-16.49-24.71-7.74-12.03-18.91-17.42-32.91-18.02-16.02-.69-32.03-1.96-48.05-2.31-10.22-.23-20.46.73-30.83,1.83,27.67,5.29,46.08,24.07,64.45,42.9,5.51,5.65,10.97,11.34,16.86,17.44-1.37.08-2.42.39-3.32.15-14.38-3.85-28.57-8.66-43.15-11.45-16.6-3.18-29.2-11.57-39.66-24.32-5.52-6.74-11.62-13-17.45-19.48-5.65,9.44-10.5,17.98-15.77,26.25-5.59,8.76-12.45,16.34-21.9,21.21-1.17.6-2.68,1.86-2.81,2.96-1.69,14.5-11.71,21.76-23.87,26.18-11.6,4.22-23.89,6.66-36.33,5.04-5.55-.72-10.94-3.23-16.21-5.38-4.28-1.74-8.01-1.4-11.33,1.63-2.7,2.46-5.09,5.26-8.56,8.9,8.96.67,13.89,5.13,17.37,11.46,4.95,9,3.76,13.14-5.49,18.38,5.42,5.48,8.42,12.14,6.58,19.62-.9,3.65-3.74,7.34-6.68,9.86-5.95,5.11-10.96,3.65-17.12-3.76-2.57,3.72-5.2,7.53-8.18,11.85,4.07,12.78,1.27,17.76-11.5,18.44,4.34,5.51,3.96,11.06.07,16.87,6.72,5.28,4.86,11.02,1.28,15.71,4.93,4,10.13,7.25,14.05,11.63,5.06,5.67,4.66,14.62.23,20.85-4.16,5.86-7.88,6.5-16.2,3.4-1.25,5.04-1.28,11.03-4.13,14.99-2.83,3.93-8.5,5.81-14.3,9.46-.69,23.79,4.15,48.52,13.72,72.52-.68-12.58,4.65-23.3,9.98-33.95,2.17-4.34,3.32-8.43,1.97-13.36-3.78-13.81.52-25.77,9.22-36.52,4.7-5.81,9.44-11.6,14.23-17.35.77-.93,1.87-1.58,4.39-2.03-.45,6.72-.59,13.47-1.41,20.14-1.67,13.64-7.05,25.42-17.96,34.37-1.88,1.54-3.14,4.06-4.18,6.36-3.62,7.98-7.19,16-10.47,24.13-7.07,17.5-1.78,32.73,8.86,47.14,2.05-5.55,4.47-10.67,5.74-16.06.87-3.67.49-7.77.05-11.6-2.2-19.2,4.84-34.61,18.7-47.51,3.73-3.47,6.85-7.6,10.9-11.06,2.62,17.89-1.89,33.85-11.56,48.21,5.7-.41,11.32-.81,18.24-1.31-3.58,8.25-8.46,13.38-14.73,17.19-3.66,2.22-7.62,3.94-11.48,5.83-10.77,5.27-15.3,16.36-11.24,27.64.88,2.44,1.7,4.91,2.9,8.39,2.86-4.32,5.48-7.82,7.62-11.58,7.29-12.84,18.69-19.6,32.84-21.77,2.36-.36,5.56,2.05,7.73,3.93,1.7,1.46,2.4,4.07,3.33,5.77,6.22-2.15,12.39-4.58,18.74-6.4,7.52-2.16,13.89-.03,19.06,6.03,7.46,8.76,14.33,17.61,13.28,30.2-1.07,12.85-4.4,24.98-10.25,36.45-.58,1.14-1.07,2.34-1.83,4,8.01-.95,15.58-1.6,23.07-2.82,5.61-.92,9.99.26,14.33,4.18,3.01,2.72,7.13,4.58,11.08,5.8,9.45,2.91,13.78,10.13,10.06,18.84-4.97,11.66-10.2,23.22-15.7,34.64-4.17,8.67-10.85,14.1-20.62,16.56-5.92,1.49-11.16,5.67-16.92,8.75,6.46,11.11,8.03,22.48,6.67,34.5-.21,1.81,1.21,4.18,2.54,5.72,7.82,9.05,15.95,17.83,23.76,26.89,10.36,12.02,20.52,24.21,30.35,35.83-1.11-7.74-2.37-15.94-3.45-24.16-.5-3.84-1.93-6.61-5.13-9.3-7.79-6.57-14.22-14.91-22.48-20.7-10.45-7.33-12.9-18.27-16.63-28.93-.24-.69-.46-1.43-.49-2.15-.02-.72.21-1.46.33-2.2,11.91,3.4,20.64,16.38,19.51,28.32-.19,1.98.53,4.68,1.85,6.05,6.57,6.76,13.48,13.18,20.28,19.72.69-.47,1.38-.94,2.07-1.41-2.1-8.03-3.93-16.15-6.47-24.04-.84-2.62-3.22-4.99-5.41-6.87-7.62-6.54-11.29-14.67-10.98-24.69.13-4.2.02-8.41.51-12.76,7.95,11.53,19.79,21.2,16.85,37.65-.24,1.36.17,3.04.79,4.32,5.6,11.54,6.81,23.99,7.68,36.51.07,1.04.21,2.08.44,4.27,5.11-6.81,6.02-13.83,6.09-20.72.07-6.97-.74-14-1.8-20.91-1.26-8.2.03-15.69,4.25-23.85,6.05,10.03,9.74,19.06,4.16,29.67-1.76,3.34-2.24,7.37-3.19,11.11-2.04,8.1-3.32,16.48-6.16,24.28-4.56,12.5.21,22.83,7.55,31.62,7.45,8.93,16.89,16.2,26.26,23.65-5.41-14.93-8.41-29.9-8.09-45.54,5.25,22.47,5.76,46.97,27.76,61.98-3.58-5.7-7.41-11.26-10.69-17.13-10.95-19.53-15.79-40.28-14.54-62.9.67-12.14-1.84-24.47-3.07-36.69-1.51-14.86-2.99-29.72-4.91-44.53-.63-4.82-2.42-9.52-3.99-14.18-2.66-7.88-5.71-15.63-8.29-23.53-1.08-3.3-2.01-6.89-1.8-10.28.12-1.94,2.65-3.74,4.09-5.6,1.06,1.97,2.25,3.89,3.1,5.95.31.74.01,1.91-.35,2.74-5.46,12.53,1.47,22.19,7.59,33.48,1.54-5.75,2.69-10.31,3.99-14.83,2.36-8.18,4.75-16.36,7.27-24.49.99-3.18,2.21-7.19,6.35-5.98,1.17.34,1.14,5.44,1.26,8.37.04,1.15-.82,2.51-1.62,3.5-12.7,15.85-14.3,34.82-13.56,53.74.69,17.81,3.75,35.52,5.77,53.28.51.01,1.02.02,1.53.03,2.48-7.56,4.95-15.13,7.45-22.69,1.11-3.36,2.51-6.65,3.35-10.08,1-4.09,1.47-8.31,2.31-12.45.89-4.34,1.51-8.82,3.14-12.87.67-1.66,3.69-3.15,5.67-3.18,1.11-.01,3.29,3.2,3.17,4.83-.27,3.56-.97,7.47-2.76,10.47-15.91,26.67-24.11,55.32-21.68,86.42.68,8.72,3.8,17.24,5.89,26.21,4.19-12.65,7.9-24.4,11.98-36.01,3.06-8.71,3.71-17.43,1.86-26.46-.42-2.06-.44-4.95.7-6.37,1.35-1.68,4.17-2.2,6.35-3.22.74,1.87,2.49,4.04,2.05,5.57-4.55,15.75-8.69,31.7-14.53,46.98-3.91,10.24-4.76,19.57-.9,29.77,6.16,16.32,16.92,29.47,33.45,39.29-10.25-19.02-9.49-39.05-9.12-59.08,1.83,25.46.74,51.75,20.71,71.91-1.58-7.86-3.74-15.53-4.51-23.35-.78-7.89-.17-15.92.07-23.88,1.51,13.41,3.01,26.82,4.52,40.23.67-.07,1.33-.14,2-.2-.73-8.9-1.46-17.8-2.19-26.7.39-.29.77-.57,1.16-.86,2.3,2.85,4.6,5.71,7.09,8.8,1.51-9.2,3-18.23,4.49-27.26.75.02,1.5.04,2.25.06.53,2.34.89,4.73,1.61,7.01,2.24,7.12,4.79,14.14,6.91,21.3,4.3,14.53,2.85,28.43-5.85,42.37,7.28,5.55,14.61,11.13,23.07,17.58-7.12-21.47-7.7-42.12-3.27-62.99.06,25.92-2.22,52.3,15.21,75.08-2.65-13.4-5.19-26.19-7.72-38.99.87-.39,1.74-.78,2.61-1.16,3.75,5.5,8.28,10.63,11.05,16.59,3.26,7.03,6.58,14.68,7.04,22.23.82,13.46,8.45,21.82,17.88,29.98-2.62-8.49-5.66-16.57-7.59-24.91-5.32-22.94-3.44-45.81,3.34-68.06,1.67-5.47,1.06-8.45-1.32-13.24-6.29-12.69-7.45-26.12-1.31-39.5.16-.34.29-.73.55-.97,2.36-2.26,4.46-5.16,7.29-6.37.93-.4,3.74,3.57,5.75,5.6,9.44-6.64,12.3-7.04,15.57,6.8.34,0,.69.06,1.01-.01,3.63-.88,7.26-1.78,10.89-2.68.08,3.56.88,7.29.12,10.66-3.62,16.06-12.98,28.26-27.9,34.85-5.28,2.33-7.55,4.93-8.57,9.85-3.84,18.55-6.64,37.24-3.94,56.17,2.16,15.16,8.05,29.01,17.23,41.48ZM468.27,973.23c.27.88.52,2.51.81,2.52,6.38.15,12.77.11,19.16.11-6-1.79-11.08-7.38-18.29-4.47-.25-4.99-3.95-2.75-6.21-2.66-2.28.09-4.52,1.13-6.78,1.76.95-.86,1.91-1.71,3.5-3.14h-37.76c7.15,3.64,14.47,9.01,23.95,6.61,3.56-.9,6.98-2.4,10.45-3.62-2.83,1.93-5.66,3.85-8.62,5.87,6.93.68,13.7,1.18,19.8-2.98ZM449.97,960.13c7.67,7.5,18.19,5.97,27.65,9.2-.48-1.63-.78-2.66-1.08-3.69,4.55,3.29,9.11,6.58,13.66,9.88.53-.9,1.06-1.8,1.6-2.7-5.09-2.39-10.17-4.78-15.26-7.17-7.73-2.51-15.44-5.12-23.24-7.42-1.07-.32-2.59.86-3.9,1.34-3-.33-6.03-4.62-9.01.04-2.49-.36-5.04-1.24-7.46-.96-5.44.62-10.81,1.81-16.21,2.76-.14.48-.27.97-.41,1.45,5.97,1.28,11.9,3.12,17.94,3.65,4.39.38,8.94-.96,13.41-1.54,1.87.12,3.74.24,6.07.39-1.54-2.14-2.65-3.68-3.76-5.22ZM172.75,635.48c1.67.71,3.96,1.68,7.5,3.17,5.12-24.38,19.07-42.99,37.12-58.96-17.72,18.25-30.02,39.63-37.23,64.04,2.91,2.11,5.06,5.8,10.52,3.45,29.7-12.78,48.22-34.31,54.03-66.48,2.79-15.48-3.05-27.29-14.41-37.1-3.91-3.37-8.31-4.61-13.53-3.48-8.73,1.89-17.02,4.4-22.91,11.77-.49.61-1.54.78-3.7,1.8,1.21-2.8,2.01-4.34,2.55-5.96,1.66-4.97-1.26-11.7-5.16-11.01-7.42,1.31-15.61,2.14-19.99,9.58-3.48,5.92-7.52,12.03-8.91,18.56-3.35,15.64-8.91,30.41-14.66,45.22-3.2,8.24-4.22,16.85-.9,25.38,4.87-2.46,9.51-4.82,14.3-7.24-.47-5.84-.99-12.29-1.52-18.74.46-.04.92-.08,1.39-.12.89,6.19,1.78,12.37,2.6,18.13,3.88.76,7.09,1.38,10.6,2.06,1.56-11.86,2.75-23.87,4.8-35.73,2.1-12.2,7.66-23.1,14.63-33.3-.33,2.38-1.22,4.52-2.22,6.62-6.97,14.62-12,29.76-12.94,46.1-.41,7.19-1.24,14.35-1.95,22.24ZM185.65,662.13c-.02.42-.04.83-.07,1.25,6.5,6.16,13.41,11.94,19.35,18.59,4.64,5.19,9.62,6.4,15.96,4.91,9.58-2.26,19.2-2.51,28.9-.55,6.44,1.3,13.3,1.3,18.03-3.51,5.14-5.22,9.68-11.36,13.17-17.81,4.14-7.66,6.77-16.12,10.27-24.14,3.4-7.8.63-13.75-7.35-16.7-4.41-1.63-8.3-4.63-12.61-6.6-3.4-1.54-7.06-3.32-10.65-3.42-5.36-.15-10.75,1.13-16.13,1.72-6.66.72-11.94,3-16.58,8.6-8.38,10.14-18.9,18.05-30.94,23.66-2.55,1.19-5.22,2.13-7.84,3.19,13.79.09,25.87-5.52,38.02-10.89.28.8.56,1.6.84,2.4-12.3,4.59-24.59,9.18-36.89,13.77,19.87,1.96,38.13-3.14,55.45-12.56-15.5,12.76-33.96,16.33-53.33,17.52,17.87,9.82,36.24,10.74,55.29,3.38-.74,1.14-1.51,1.88-2.43,2.27-18.62,8.01-36.75,6.43-54.52-2.77-1.88-.97-3.97-1.55-5.96-2.3ZM168.72,135.91c0,.52.01,1.03.02,1.55-14.51-3.26-24.06,4.38-31.24,14.97-7.75,11.44-5.15,34.23,3.86,44.95,11.68,13.9,28.28,16.3,44.69,18.86,1.36.21,4.51-2.9,4.68-4.67.97-9.9,6.3-15.23,15.55-18.22,4.39-1.42,8.41-4.46,6.46-10.94-1.76-5.84-2.58-12-3.47-18.07-1.79-12.15-7.92-20.77-19.93-24.2-6.73-1.92-13.74-2.85-20.63-4.23ZM239.02,200.49c8.08-11.49,15.95-22.55,23.65-33.72,1.35-1.96,2.41-4.3,2.93-6.62,4.05-17.87-.92-33.19-13.86-45.86-5.51-5.4-12.07-6.01-18.46-1.86-14.57,9.47-23.54,22.84-22.88,40.47.42,11.18,3.62,22.25,5.41,32.45,5.54.98,11.43.57,15.35,3.15,3.75,2.47,5.45,8.06,7.86,11.98ZM98.28,567.31c-4.13-.67-8.84-2.6-9.93-1.36-2.26,2.57-3.59,6.88-3.42,10.38.17,3.44,2.08,7.24,4.29,10.03,3.22,4.05,7.19,7.6,11.21,10.9,7.07,5.81,12.36,12.45,15.52,21.38,4.38,12.37,10.67,23.8,25.27,27.98.16-1.27.46-2.15.33-2.96-1.64-10.5-3.85-20.95-4.84-31.51-.64-6.77-1.06-14.26,1.14-20.46,4.43-12.47.55-22.62-5.67-32.78-3.31-5.41-7.01-10.24-14.28-10.19-.99,0-2.03-.8-2.97-1.36-7.1-4.24-15.63-.25-16.58,8.06-.48,4.16-.08,8.42-.08,11.88ZM165.75,673.17c-.24,1.17-.33,2.49-.77,3.67-3.07,8.14-5.64,16.55-9.62,24.22-1.62,3.13-2.8,5.35-1.17,8.42,1.3,2.46,2.52,5.05,4.28,7.15,9.17,10.94,21.44,17.04,35.07,19.33,12.32,2.06,20.03-.19,22.06-10.89,1-5.28.81-11.1-.25-16.39-3.56-17.85-16.1-29.39-29.61-40.03-1.59-1.25-3.56-2.03-5.35-3.03-.48.47-.97.93-1.45,1.4,5.05,7.89,10.09,15.78,15.14,23.67-.46.31-.92.62-1.37.94-5.56-7.48-11.13-14.95-16.69-22.43-.54.15-1.07.3-1.61.45-1.63,9.57,5.78,17.77,5.21,27.29-3.02-6.57-5.62-13.27-7.77-20.11-1.01-3.22-2.36-4.88-6.09-3.66ZM204.32,230.83c-2.43-.88-4.53-1.32-6.31-2.34-2.77-1.59-6.57-3.02-7.66-5.51-1.61-3.7-4-4.02-7.14-4.82-9.18-2.32-18.94-3.74-27.2-7.99-10.73-5.52-21.21-5.27-32-2.69-3.06.73-6.46,3.98-7.86,6.95-2.64,5.58,1.34,18.04,6.26,21.84,10.99,8.49,23.45,13.79,37.15,15.93,2.78.44,6.16-1.41,8.56-.45,3.79,1.52,4.54-.59,6.58-2.7,3.01-3.1,6.76-7.15,10.51-7.5,7.82-.74,13.37-4.27,19.1-10.72ZM143.21,656.46c-1.8-3-2.83-7.12-5.32-8.4-7.68-3.95-16.06-6.51-23.9-10.18-8.42-3.94-18.78,1.77-18.11,10.82,1.41,19.16,10.79,33.76,27.05,43.75,4.51,2.77,9.04,4.93,11.27,10.27.6,1.43,3.8,3.06,5.19,2.62,4.08-1.28,8.71-2.7,11.58-5.59,8.33-8.41,10.17-19.72,12.47-30.48-3.71-.81-6.66-1.46-9.59-2.11-7.09,14.87-11.92,20.21-17.87,19.45,6.06-6.31,12-12.57,14.53-21.6-2.43,1.37-4.26,2.41-6.24,3.52.77-3.08,1.35-5.41,2.24-8.95-16.44,8.49-25.85,7.19-32.99-4.95,10.09,7.22,19.27,10.97,29.71,1.83ZM228.25,223.99c.67,1.03,1.33,2.05,2,3.08,5.46-2.05,11.06-3.79,16.32-6.24,4.16-1.94,9-3.94,11.63-7.37,7.01-9.14,13.3-18.89,19.23-28.78,2.82-4.71,4.89-10.15,5.95-15.53.67-3.36-1.16-7.22-1.87-10.85-3.43,1.46-7.85,2.03-10.1,4.54-7.57,8.46-14.8,17.29-21.3,26.59-4.7,6.72-10.53,13.1-11.14,22.14-.12,1.81-2.46,3.54-3.92,5.18-2.2,2.47-4.53,4.83-6.81,7.24ZM388.87,168.97c6.66-1.47,12.96-2.96,19.3-4.23,15.24-3.05,29.96-7.49,43.76-14.87,15.38-8.23,22.96-21.74,27.55-39.28-9.99,12.22-21.63,19.62-34.87,24.91-11.76,4.7-23.33,9.89-34.95,14.93-8.91,3.86-16.89,8.83-20.78,18.55ZM237.15,206.07c-1.54-3.68-2.9-8.86-5.71-13.08-3.34-5.03-13.56-4.77-18.85-.43-1.35,1.1-3.09,1.71-4.6,2.62-4.05,2.46-9.51,4.08-11.74,7.68-2.95,4.76-3.44,11.07-4.76,16.76-.2.87.67,2.1,1.26,3.02,1.95,3.04,16.18,8.37,19.71,7.39,3.05-.84,6.05-1.9,9.12-2.68,4.73-1.2,5.58-4.51,6.81-8.86.94-3.32,5.63-5.53,8.5-8.39.49-.49.16-1.8.27-4.04ZM266.09,815.9c.04-.25.07-.51.11-.76-1.67-.53-3.3-1.18-5-1.56-10.85-2.45-20.39-7.74-28.37-15.14-5.41-5.02-10.29-4.9-16.14-2.2-2.2,1.02-4.53,1.82-6.62,3.02-6.83,3.91-8.66,9.28-5.64,16.03,3.09,6.89,10.71,10.83,17,9.09,8.99-2.48,17.98-5.09,27.11-6.95,5.72-1.17,11.69-1.06,17.55-1.52ZM16.4,608.04c7.87,7.87,15.81,15.96,23.97,23.84,1.28,1.23,3.87,2.48,5.26,2,11.14-3.84,18.8-12.37,28.3-20.58-10.58-3.29-19.69-5.91-28.65-8.96-10.17-3.45-19.92-4.5-28.88,3.7ZM499.39,126.25c-8.73,3.47-17.65,6.97-26.51,10.6-1.3.53-2.46,1.61-3.46,2.65-8.2,8.47-17.84,14.79-28.89,18.75-9.86,3.53-19.9,6.56-28.92,9.5,16.85,2.94,34.13,2.16,50.91-6,16.64-8.09,30.44-18.52,36.87-35.5ZM242.13,232.53c-14.27-7.58-26.98.72-40.13,3.98-1.12.28-1.86,1.85-2.97,2.48-2.63,1.48-5.25,3.22-8.11,4-5.16,1.4-10.69,1.82-13.42,7.56,24.28,11.65,56.21-1.26,64.63-18.02ZM506.27,894.49c-.9,3.55-2.11,7.06-2.65,10.67-1.76,11.84-2.64,23.38,2.79,34.98,4.27,9.13,5.7,19.27,3.46,29.53-.77,3.53-1.23,7.13-1.93,11.25,1.16-.65,1.86-.9,2.38-1.37.83-.74,1.63-1.55,2.26-2.46,5.89-8.47,8.92-17.81,9.51-28.18,1.15-19.9-10.45-36.09-15.83-54.41ZM453.97,936.41c-11.27-9.79-23.7-17.43-38-20.41-13.32-2.78-27.11-3.28-42.15-4.94,24.67,17.82,50.75,26.11,80.15,25.35ZM95.44,620.35c-3.13-8.61-6.62-18.3-10.21-27.95-.43-1.15-1.23-2.33-2.18-3.1-9.78-8.05-20.99-6.14-32.26-5.27,4.77,7.91,9.15,15.22,13.61,22.49.44.72,1.27,1.35,2.05,1.68,10.21,4.32,20.44,8.58,28.97,12.15ZM498.01,171.63c-10.22-.79-20.43-1.61-30.65-2.36-4.59-.34-9.6-1.89-13.7-.6-11.48,3.6-22.96,4.45-34.78,3.21-2.74-.29-5.53-.04-9.76-.04,12.63,3.29,23.66,6.83,34.95,8.97,18.83,3.56,36.98.83,53.94-9.17ZM484.31,859.07c8.21-2.38,14.19-5.82,16.69-13.96,3.14-10.2,2.57-20.19-.77-30.14-1.54-4.58-3.73-5.09-7.11-1.45-1.86,2.01-3.51,4.42-4.6,6.93-5.27,12.08-6.47,24.66-4.21,38.61ZM335.62,846.07c-17.12-4.42-35.02-2.23-52.89,2.51-12.59,3.34-25.21,6.66-37.95,9.33-4.86,1.02-10.11.17-15.18.17,12.01,6.29,24.39,8.75,37.52,6.84,6.93-1,13.23-2.74,18.72-7.67,6.11-5.47,13.81-8.11,21.99-8.9,9.58-.92,19.19-1.58,27.79-2.28ZM485.71,911.37c2.41,24.87,6.77,47.69,17.42,69.57,10.32-15.45,3-44.65-17.42-69.57ZM105.49,410.15c-6.19.49-6.52.94-8.06,5.95-2.07,6.74,1.34,12.04,4.33,17.37,4.42,7.87,16.15,7.9,20.96.23,3.36-5.36,2.28-12.71-3.38-19.58-2.28-2.77-5.3-4.92-7.99-7.35-.44.45-.88.91-1.32,1.36.96,1.41,1.92,2.82,3.37,4.95-2.32-1.42-3.81-2.33-5.86-3.58v9.75c-.12,0-.24,0-.35,0-.57-3.05-1.14-6.1-1.69-9.09ZM112.48,401.71c-.15.55-.31,1.1-.46,1.65,2.36,1.7,4.93,3.17,7.01,5.16,2.12,2.04,3.51,4.85,5.64,6.89,4.71,4.51,12.42,5.4,15.82,2.14,4.47-4.3,5.54-12.23,2.35-17.55-6.89-11.51-19.42-11.59-29.7-.19,2.06.67,4.15,1.35,6.24,2.02-.08.18-.15.37-.23.55-2.22-.22-4.44-.45-6.66-.67ZM102.51,393.85c.97.72,1.99,1.47,3.49,2.58,1.07-16.61-2.6-22.81-14.87-26.32-5.39-1.54-11.68,1.09-14.3,5.98-2.55,4.76-1.34,9.07,3,13.5,5.23,5.35,11.98,5.95,19.05,7.11-.78-1.75-1.4-3.15-2.02-4.55.19-.1.37-.2.56-.3,1.34,1.48,2.68,2.97,4.23,4.68.37-1.14.64-1.96.87-2.68ZM100.51,401.48c-4.37-.9-6.92-1.25-9.35-1.98-2.65-.8-5.14-2.16-7.8-2.93-4.3-1.25-10.14,1.67-12.15,5.83-2.62,5.42-.93,14.48,3.5,18.72,5.31,5.1,17,3.25,20-3.3,1.79-3.9,3.16-7.99,4.84-12.29-1.86.92-3.69,1.83-6.8,3.38,2.99-2.86,4.78-4.56,7.77-7.42ZM229.54,854.99c.06.6.11,1.2.17,1.8,7.57-.79,15.25-1.03,22.69-2.49,8.76-1.72,17.43-4.14,25.92-6.89,14.89-4.83,30.18-6.12,45.73-6.36-11-3.7-22.23-5.43-33.83-4.56-21.66,1.61-40.39,12.56-60.69,18.51ZM275.11,820.52c-20.06-3.23-38.33,2.41-56.98,8.66,13.26,11.11,47.03,5.93,56.98-8.66ZM253.05,885.01c10.54-2.06,21.22-5.73,30.55-13.18,14.43-11.54,30.75-18.86,49.44-20.19,1.21-.09,2.39-.59,3.59-.9-17.66-2.49-34.9-3.14-49.9,8.36-11.35,8.71-22.68,17.45-33.68,25.91ZM141.84,305.38c-1.91-.65-3.98-1.01-5.69-2-3.15-1.83-5.63-1.62-8.3,1-5.18,5.08-4.96,11.3-4.23,17.68.63,5.46,4.69,8.79,10.81,9.05,4.76.2,9.18-3.05,10.3-7.71,1.56-6.5,1.54-12.88-2.89-18.02ZM495.27,212.29c-2.56,22.39,7.15,44.67,23.71,56.62-6.7-19.58-6.15-41.45-23.71-56.62ZM145.31,300.83c1.3,5.21,2.66,9.6,3.47,14.08,1.5,8.29,8.57,12.9,14.75,9.33,5.71-3.29,7.89-8.62,6.26-15.33-1.65-6.78-5.91-10.64-12.43-10.86-3.31-.12-6.64.26-10.47.44.82,1.26,1.33,2.03,1.92,2.94-1.37-.23-2.51-.43-3.49-.6ZM258.89,885.72c14.06.52,25.04-1.85,36.56-9.95,15.77-11.09,32.64-19.05,51.62-23-3.21-.52-6.29-.2-9.38,0-17.72,1.17-34.13,6.35-48.3,17.13-9.29,7.07-18.64,13.6-30.5,15.81ZM141.96,293.14c9.7-13.01,9.65-19.24,1.77-27.21-3.76-3.8-9.38-4.58-13.8-1.83-4.75,2.96-5.91,7.61-3.57,12.12,2.7,5.21,6.66,9.78,10.07,14.62.62-.36,1.25-.71,1.87-1.07-.68-3.13-1.36-6.26-2.25-10.4,2.25,5.23,4.08,9.49,5.91,13.76ZM136.17,295.17c-4.45-5.06-7.63-9.12-11.28-12.7-3.1-3.04-8.99-2.7-12.29.33-3.95,3.62-5.72,8.23-5.29,13.55.39,4.9,4.19,7.81,9.05,9.16,8.33,2.31,11.42-5.66,17.32-8.09-2.16-.12-4.32-.24-6.48-.36,0-.18,0-.37,0-.55,2.57-.38,5.14-.77,8.98-1.34ZM112.56,393.23c4-1.92,7.32-3.58,10.7-5.12,5.01-2.3,8.63-10.18,6.23-13.74-4.11-6.11-15.59-10.34-22.26-7.54-1.72.72-3.78,4.29-3.34,5.91,1.9,6.89,4.67,13.53,6.97,19.84.3-.59,1.09-2.16,1.88-3.72.19.05.38.1.58.15-.24,1.33-.48,2.65-.76,4.23ZM88.74,594.41c4.93,19.67,20.2,39.27,33.31,43.51-2.96-5.73-6.95-11.17-8.66-17.25-3.25-11.56-11.76-18.33-20.28-25.31-.91-.75-2.57-.59-4.37-.95ZM134.19,706.07c-3.5-3.48-5.81-7.19-9.13-8.83-12.73-6.27-21.21-16.19-26.89-28.86-2.13-4.76-4.23-9.54-6.75-15.23-2.68,24.13,21.75,54.84,42.77,52.92ZM148.7,293.19c3.72.48,8.77,2.2,13.36,1.36,3.54-.65,8.25-3.91,9.31-7.07,1.88-5.58-7.48-16.7-13.4-16.82-1.87-.04-4.95,2.13-5.46,3.88-1.72,5.89-2.54,12.05-3.81,18.65ZM598.33,285.06c9.89,12.2,18.79,23.18,28.47,35.13-.75-11.62-1.73-21.92-7.6-31.01-1.05-1.62-2.75-3.78-4.32-3.93-5.22-.49-10.52-.19-16.56-.19ZM226.9,787.89c7.84,11.77,31.15,24.54,47.21,25.7-12.29-15.62-28.14-23.22-47.21-25.7ZM108.08,339.2c-1.63-3.48-2.77-6.65-4.51-9.45-3.71-5.97-12.55-7.94-18.06-3.63-2.19,1.71-4.24,5.23-4.1,7.8.14,2.49,2.69,5.85,5.06,6.95,3.3,1.54,7.46,1.94,11.17,1.69,3.28-.22,6.45-2.01,10.44-3.36ZM95.2,345.82c-6.74-.4-11.16,2.5-11.6,7.61-.54,6.31,5.07,13.07,11.06,13.33,6.11.26,10.85-6.35,10.69-16.61-.12-7.61-6.53-3.33-10.15-4.32ZM107.22,632.26c-5.83-3.95-10.98-7.45-15.37-10.42-6.74,8.49-13.03,16.41-20,25.19,6.08-.56,11.72-1.01,17.34-1.69.9-.11,1.94-1.12,2.46-1.98,3.38-5.66,8.19-9.37,15.57-11.09ZM112.86,342.66c.63.21,1.27.43,1.9.64,3.26,1.62,6.38,3.84,9.83,4.7,3.88.97,8.47,1.82,11.95.54,1.81-.66,2.49-6,2.62-9.27.2-4.99-3.98-4.76-7.51-5.24-1.79-.24-3.74-.88-5.15-1.96-2.96-2.26-5.41-1.3-7.28,1.04-2.38,2.98-4.26,6.35-6.36,9.55ZM58.66,643.93c2.48,0,7.93,1.68,10.96-.32,8.4-5.53,14.81-13.37,19.16-23.35-2.64-1.17-5.06-2.24-7.48-3.32.3.57.59,1.14.89,1.7-7.8,8.39-15.61,16.77-23.53,25.29ZM540.64,928.79c-8.74,8.67-14.66,17.42-16.62,28.86-.98,5.74-3.83,11.18-5.97,16.7-.66,1.72-1.77,3.27-2.67,4.89,14.64-13.31,22.91-29.72,25.26-50.46ZM54.38,603.31c-5.31-5.32-9.83-9.91-14.43-14.42-.75-.74-2.04-1.76-2.77-1.56-8.39,2.37-16.72,4.95-25.07,7.47.16.4.33.79.49,1.19,13.29,2.33,26.58,4.65,41.78,7.31ZM127.8,366.19c5.16-7.28-.61-16.49-12.19-19.16-2.25,1.35-3.98,2.21-5.51,3.34-2.43,1.8-4.85,3.85-3.42,7.35.68,1.68,1.73,4.07,3.09,4.46,5.79,1.65,11.77,2.68,18.03,4.01ZM238.8,226.95c5.55,2.46,15.42-1.17,22.9-8.62,13.14-13.06,30.39-38.11,24.9-47.41q-21.85,42.49-47.81,56.02ZM110.84,336.34c2.55-2.33,6.72-4.69,8.55-8.25,1.41-2.74,1-7.66-.64-10.4-2.25-3.78-14.16-3.65-17.07-.15-1.11,1.34-1.1,4.81-.14,6.44,2.41,4.07,5.66,7.64,9.29,12.35ZM589.26,226.08c-14.42-4.28-27.57-5.92-41.29-3.62,4.23,10.43,4.39,10.61,14.42,8.84,8.52-1.51,17-3.29,26.87-5.23ZM402.1,856.24c.47,18.72,4.69,34.3,10.51,39.65,5.69-10.98,3.51-20.98-10.51-39.65ZM376.54,221.91c-10.81-12.89-22.1-23.42-39.41-23.85,12.31,8.66,22.93,20.11,39.41,23.85ZM213.16,690.54c-.31.68-.63,1.36-.94,2.05,4.73,2.22,9.37,6.03,14.21,6.31,8.47.49,16.51-2.71,24.19-8.09-13.03-5.1-25.25-.02-37.46-.27ZM157.57,557.92c-10.87,10.23-19.95,38.48-16.24,52.22,5.41-17.41,10.82-34.81,16.24-52.22ZM512.42,226.67c-.44.21-.88.42-1.33.63,2.37,9.09,5.42,18.08,6.93,27.31,1.4,8.56,7.02,12.39,13.42,16.07.59-.31,1.17-.63,1.76-.94-6.93-14.36-13.85-28.71-20.78-43.07ZM347.45,195.94c-6.84-8.83-29.53-18.25-41.5-17.17,7.76,4.86,16.35,10.3,25.01,15.61,1.32.81,2.96,1.41,4.48,1.49,4,.21,8.02.07,12,.07ZM485.01,808.55c-12.25,5.13-12.71,32.27-5.62,42.14.17-.9.45-1.61.4-2.29-.7-10.24.95-19.98,5.03-29.49,1.19-2.77.18-6.49.18-10.36ZM447.78,896.87c1.98,16.4,5.35,30.67,15.55,42.4-1.58-14.93-4.95-29.2-15.55-42.4ZM79,616.75c-.23-.55-.45-1.1-.68-1.65-1.54.45-3.4.49-4.57,1.41-8.77,6.8-17.4,13.78-26.69,21.2,2.38.58,5.92,2.69,7.7,1.68,9.84-5.56,17.65-13.53,24.24-22.63ZM228.74,716.52c-1.03,7.3-1.98,13.95-3.12,22.02,4.86,3.7,10.87,8.27,17.5,13.32-5.05-12.41-9.64-23.68-14.38-35.34ZM599.86,304.47c0-5.05,1.41-10-.34-13.25-2.45-4.56-7.25-7.85-11.45-12.1-3.66,13.14-1.46,17.9,11.79,25.35ZM197.3,766.59c11.11,7.53,22.65,6.93,28.6-1.01-9.64-7.96-18.76-3.02-28.6,1.01ZM419.69,883.58c3.01-10.35-.4-30.88-6.91-38.86-3.9,14.15,1.12,26.95,6.91,38.86ZM246.86,232.02c-17.48,23.16-40.14,29.93-67.39,24.12,1.97,1.43,3.8,2.69,5.71,2.83,18.08,1.31,35.77-.07,51.42-10.35,5.42-3.56,9.4-8.82,10.26-16.6ZM320.74,207.61c-4.39-19.69-12.41-28.37-23.8-27.62,7.9,9.16,15.85,18.39,23.8,27.62ZM348.59,219.72c-2.36-11.92-10.68-18.53-20.12-23.92,3.43,15.03,10.31,23.4,20.12,23.92ZM579.07,268.08c7.01,10.68,16.98,11.32,28.49,9.13-9-5.72-17.7-10.37-28.49-9.13ZM150.37,724.19c1.08,7.88,2.03,14.88,2.99,21.87.79.19,1.57.38,2.36.56,2.16-2.66,6.24-5.42,6.11-7.98-.31-6.15-3.21-11.72-11.45-14.46ZM148.84,708.16c-11.15,3.67-15.29,10.76-12.4,19.52,1.89-1.56,3.96-3.87,6.52-5.24,6.04-3.24,7.32-8.12,5.88-14.28ZM150.26,729c-1-.39-2-.78-3-1.17-2.58,4.27-6.69,8.33-7.31,12.86-.58,4.23,2.54,8.97,4.03,13.48.58.07,1.16.14,1.74.22,1.51-8.47,3.02-16.93,4.53-25.4ZM247.06,721.84c-1.61-4.26-1.92-8.79-4.01-9.87-5.5-2.84-11.78-4.17-18.09-6.22,3.99,9.41,11.68,13.07,22.1,16.09ZM335.41,216.09c-1.97-3.75-3.86-7.14-5.56-10.63-1.62-3.34-2.6-7.07-4.65-10.09-1.98-2.92-4.97-5.14-7.52-7.67,8.15,20.44,8.63,26.24,17.73,28.4ZM380.89,227.36c-11.24-5.65-22.54-11.32-35.09-17.62,3.12,4.26,5.06,9.8,8.59,11.13,8.55,3.23,17.84,4.51,26.5,6.49ZM217.68,702.3c.71,2.69,1.53,4.75,1.76,6.88.58,5.28,1.88,10.77,1,15.85-.72,4.13-.08,6.67,2.65,9.34,5.62-9.03,3.15-24.79-5.4-32.07ZM530.36,224.21q19.57-3.84,25.16-11.92c-9.83-.24-18.3,3.68-25.16,11.92ZM40.42,586.92c8.44,5.22,12,15.02,21,19.19-2.91-6.2-6.67-11.66-10.27-17.23-2.5-3.87-5.52-5.27-10.74-1.96ZM221.64,759.27c-6.67-6.57-16.47-7.57-26.54-.84,4.51.93,7.9,2.21,11.28,2.2,5.22,0,10.45-.89,15.27-1.37ZM515.33,819.27c-.77-.48-1.53-.96-2.3-1.44-2.53,2.41-6.61,4.47-7.24,7.31-1.17,5.27-.34,10.99-.34,16.53.64.15,1.27.31,1.91.46,2.65-7.62,5.31-15.24,7.96-22.86ZM333.26,160.39c-4.59,2.87-8.91,5.58-14.43,9.03,9.75-.6,18.07-1.11,26.88-1.66-4.39-2.6-8.32-4.92-12.45-7.37ZM150.59,712.77c.49,3.38-.11,7.99,1.52,9,6.19,3.85,10.42,8.83,13.17,15.77.63-3.43,1.2-7.22-.42-9.36-4.06-5.36-9.11-9.96-14.28-15.42ZM585.8,222.65c.13-.24.26-.48.38-.71-4.55-2.43-8.99-5.14-13.69-7.23-5.38-2.39-7.96-1.07-10.57,4.37,7.91,1.18,15.9,2.38,23.88,3.58ZM242.48,744.77c4.15-11.49,3.98-11.9-7.71-19.28,2.9,7.25,5.31,13.26,7.71,19.28ZM148.43,720.99c-5.1,3.87-11.46,6.83-10.23,14.76,2.67-5.49,11.24-6.86,10.23-14.76ZM226.23,703.99c5.59,1.8,11.18,3.6,17.16,5.52-2.5-13.16-11.1-5.39-17.16-5.52ZM25.23,600.29c-6.69-.63-12.19-1.14-19.09-1.79,8.46,8.57,8.93,8.6,19.09,1.79ZM606.84,309.43q.62-11.39-4.42-14.45c-2.12,9.62-1.56,11.64,4.42,14.45ZM592.5,280.38c7.24,6.61,14.07,1.3,20.47,1.93-6.17-3.84-12.65-3.33-20.47-1.93ZM198.73,772.69c8.89,6.21,14.95,6.14,20.74,1.55-6.43-.48-13.59-1.02-20.74-1.55ZM543.11,232.23c-1.12-3.55-1.81-5.76-2.67-8.5-3.59.99-6.94,1.91-10.28,2.83-.07.44-.14.89-.22,1.33,4.03,1.33,8.07,2.66,13.17,4.34ZM233.27,720.62c4.03,3.24,8.07,6.48,12.33,9.91,2-7.02,2.61-5.3-12.33-9.91ZM577.56,271.03c2.05,5.69,3.68,10.21,5.82,16.16q3.13-10.22-5.82-16.16ZM610.74,302.68c-3.2,8.54-2.91,9.16,5.05,11.12-1.97-4.35-3.51-7.74-5.05-11.12ZM160.45,648.97c1.75-2.18,3.58-3.49,3.72-4.97.1-1.04-2.64-3.49-3.18-3.24-1.76.79-3.09,2.54-4.59,3.91,1.09,1.16,2.18,2.31,4.05,4.3ZM151.85,644.23c.6-1.01,1.19-2.02,1.79-3.03-2.16-1.32-4.32-2.64-6.48-3.95-.7,1.53-1.4,3.06-2.09,4.59,2.26.8,4.53,1.6,6.79,2.4ZM175.5,645.1c-.45-5.51-2.59-7.3-6.02-5.81-1.04.45-1.35,2.59-2,3.96,2.67.62,5.35,1.23,8.02,1.85ZM170.08,635.15c-3.03-1.91-4.67-3.34-6.57-3.92-.59-.18-1.88,1.92-2.85,2.98,1.32,1.19,2.47,2.9,4.01,3.38,1.04.32,2.62-1.1,5.41-2.44ZM552.48,217.88c6.57,3.61,7.55-2.29,10.97-4.29-.35-.57-.69-1.15-1.04-1.72-3.31,2-6.62,4-9.93,6ZM173.4,655.9c.71,1.56,1.03,3.19,2.01,4.17.96.96,2.59,1.69,3.92,1.67.76,0,2.31-2.18,2.09-2.55-.66-1.11-1.88-2.14-3.11-2.59-1.47-.55-3.18-.48-4.92-.69ZM175.68,646.97c-.53.88-1.06,1.77-1.59,2.65,1.6,1.17,3.21,2.35,4.81,3.52.82-1.25,1.63-2.51,2.45-3.76-1.89-.8-3.79-1.61-5.68-2.41ZM142.4,648.53c1.96,2.55,3.14,4.09,4.32,5.62,1.29-1.88,2.58-3.76,4.7-6.85-3.6.49-5.49.75-9.01,1.23Z"/><path class="cls-1" d="M756.27,829.88c8.06,2.89,16.12,5.79,24.19,8.66.99.35,2.06.49,3.03.71-3.44-7.88-6.77-15.52-10.1-23.16.44-.19.89-.38,1.33-.57,3.68,9.92,8.08,19.4,15.83,28.11-.9-10.45-1.7-19.65-2.49-28.85.55-.05,1.1-.11,1.65-.16.9,7.33,1.8,14.66,2.7,21.98.44.02.89.04,1.33.06,1.44-6.31,2.89-12.62,4.33-18.93.34.07.68.15,1.01.22-1.14,5.77-2.28,11.55-3.42,17.32,4.3-12.7,17.36-17.07,24.83-27.62,2.96,12.05,5.68,23.13,8.71,35.45,1.91-7.21,3.56-13.41,5.21-19.6.2.03.39.07.59.1-.69,4.28-1.37,8.55-2.19,13.66,14.06-14.32,22.33-29.87,19.5-49.77-1.98-13.94-3.84-27.91-5.57-40.48,5.98,11.4,6.25,25.74,8.53,40.5,5.77-18.98,11.3-36.93,16.64-54.94.96-3.25.02-5.89-2.35-9-2.57-3.37-3.76-8.5-3.85-12.89-.23-11.17,5.42-19.17,14.68-22.56,7.6-2.78,13.48.54,15.38,8.68,3.29,14.08-6.57,29.22-21.01,31.81-6.37,24.1-12.78,48.35-19.18,72.6.5.18,1,.36,1.5.54,9.87-21.49,24.63-39.53,39.94-57.16,4.04-4.65,8.76-8.73,12.62-13.51,1.76-2.18,2.78-5.34,3.17-8.19,2.5-18.27-8.86-32.87-13.9-49.06-6.93-22.25-12.42-44.27-8.78-67.63,1.21-7.77,3.48-15.37,6.14-22.99-13.61,40.14.05,76.56,15.02,112.92-9.19-40.78-3.59-78.13,24.27-109.52,2.11,10.12,4.3,20.59,6.48,31.05.38.1.76.2,1.14.3,1.31-5.55,2.81-11.06,3.89-16.65,1.17-6.05,2.3-12.14,2.8-18.27.47-5.87.1-11.8.1-17.71.55-.24,1.1-.47,1.65-.71,1.29,1.23,3.11,2.22,3.78,3.72,12.85,29,18.19,58.81,8.38,89.87-1.81,5.74-5.12,11-7.9,16.82.98-.1,1.45-.01,1.56-.17,11.08-15.46,22.24-30.86,33.13-46.45,5.33-7.63,3.73-15.11-1.54-22.23-1.88-2.54-3.8-5.13-5.22-7.94-6.27-12.31-4.13-22.1,6.47-31.14,5.08-4.34,10.03-8.83,15.73-13.86-10.74-5.3-8.18-12.38-4.06-21.04,3.55-7.45,4.71-16.07,6.7-24.23,1.78-7.31,6.82-11.68,12.75-15.59,2.11-1.39,4.19-3.5,5.22-5.76,5-11.01,9.93-22.07,14.28-33.35,1.99-5.17,4.2-11.13,3.39-16.27-.92-5.83-4.26-11.82-8.03-16.57-11.03-13.9-27.49-18.47-43.48-23.64-4.25-1.38-8.62-2.58-12.61-4.54-4.21-2.07-4.41-4.96-1.34-8.55,3.01-3.53,6.26-6.22,11.48-5.65,1.79.2,4.18-.83,5.58-2.1,9.91-8.93,21.36-13.43,34.14-12.29.47-2.57.62-6.2,1.23-6.28,3.49-.46,7.35-.88,10.6.18,7.21,2.34,14.13,5.58,21.18,8.42.85.34,1.78.47,4.21,1.1-1.8-6.08-2.73-11.57-5.01-16.42-5.54-11.8-11.43-23.45-17.72-34.86-4.29-7.77-9.99-9.45-17.76-4.96-6.68,3.85-12.82,8.74-18.77,13.7-4.84,4.03-10.22,3.96-15.28,2.29-6.25-2.06-12.05-5.48-19.31-8.9,9.9-4.87,18.39-4.44,26.4-.11,4.32,2.34,7.47,1.96,11.22-.59,4.42-3.01,9.11-5.65,14.69-9.06-4.65-.77-8.2-1.44-11.78-1.94-12.46-1.75-23.24-6.81-31.84-16.13-2.49-2.7-5.17-4.07-9.14-4.26-11.31-.54-20.31-5.8-26.72-15.21-3.44-5.04-6.7-10.2-10.67-16.27,15.73,5.69,31.06,8.36,39.95,24.84,5.99,11.1,17.78,18.07,30.99,21.09-3.54-7.27-5.03-15.69-14.86-18.28-7.28-1.91-10.73-8.27-12.98-15.09-.86-2.59-1.66-5.2-2.82-8.83,6.34,3.66,12.01,6.42,17.02,10.07,2.29,1.67,4.44,5.04,4.61,7.77.27,4.43,1.66,7.71,4.63,10.82,1.63,1.71,3.03,3.96,3.69,6.21,2.2,7.53,7.33,10.54,14.8,10.91,5.75.28,11.47,1.04,18.69,1.73-3.84-4.53-6.86-8.2-10-11.77-3.33-3.79-7.35-7.1-10.08-11.26-8.15-12.46-17.53-23.77-29.28-32.92-3.53-2.75-7.74-5.07-12.01-6.33-9.03-2.67-18.2-3.29-27.54-.3-3.9,1.25-8.42.86-12.63.67-1.45-.07-2.82-1.8-4.22-2.77,1.24-1.52,2.45-4.29,3.72-4.32,3.93-.1,7.88.84,11.83,1.39,2.79.39,5.57,1.04,8.37,1.17,7.74.34,15.48.47,22.54.67-7.68-12.59-24.3-18.68-40.69-13.94-5.24,1.51-10.45,2.35-11.37,9.89-.64,5.24-4.86,9.08-10.51,9.15-1-1.59-1.93-2.68-2.43-3.95-.63-1.6-.92-3.33-1.39-5.13-1.39-.2-2.98-.43-4.63-.68,2.57-6.92,8.28-9.88,15.61-8.94,2.75.35,5.72-.19,8.47-.85,6.68-1.59,13.28-3.49,20.82-5.51-8.48-4.91-16.84-9.75-26.26-15.22-1.71,11.28-5.65,21.04-16.66,22.17-9.28.95-18.94-1.74-28.18-2.8-.43,4.83-.58,11.16-1.63,17.34-1.34,7.91-5.91,14.11-12.39,18.67-5.46,3.84-11.49,2.35-17.28.65-15.25-4.46-18.71-10.2-16-26.15.25-1.44.47-2.89.79-4.83-3.69,2.73-6.82,5.3-10.19,7.51-9.12,6-19.02,3.84-25.05-5.25-1.13-1.71-2.58-3.2-3.79-4.86-5.93-8.09-5.56-18.07,1.84-24.83,5.31-4.85,11.59-8.64,18-13.32-5.8-1.42-11.55-2.96-17.37-4.12-1.16-.23-2.82.76-3.91,1.61-10.64,8.35-16.68,20.01-22.25,31.87-1.14,2.43-.15,5.86-.12,8.84.06,5.29-2.54,9.03-7.24,10.93-1.73.7-4.58.51-5.99-.53-1-.74-1.12-3.89-.43-5.44,1.34-3.02,3.46-5.71,5.37-8.46,2.85-4.1,6.53-7.81,8.54-12.27,4.76-10.57,10.8-20.01,19.95-27.81-14.35.93-27.05,7.6-40.78,10.35,4.63,15.74-.72,29.36-14.32,37.5-3.84,2.3-7.93,4.23-11.62,6.74-3.64,2.48-6.93,5.48-10,7.96-1.42-2.84,11.17-33.67,20.07-46.16-.29-.46-.59-.92-.88-1.38-6.65,4.49-13.33,8.94-19.91,13.54-.52.37-.6,1.71-.51,2.56,1.85,17.07-6.02,29.35-19.86,37.83-7.88,4.82-16.76,8.04-25.28,11.8-5.84,2.58-11.81,4.85-18.01,7.38.79-1.7,1.66-3.84,2.73-5.86,5.95-11.22,11.98-22.4,17.92-33.62,5.49-10.38,14.27-16.73,25.25-19.95,8.57-2.51,16.27-5.89,23.87-11.02,7.42-5.01,17.23-6.48,26.01-9.47,6.24-2.12,12.51-4.19,18.79-7.08-13.27-.62-21.35-10.3-31.46-16.28-7.13-4.21-15.13-6.94-22.74-10.34-1.07-.48-2.13-1-3.39-1.6.63-.9.89-1.65,1.25-1.72,14.51-2.45,28.91-5.81,43.51.29,11.83,4.94,20.2,12.52,22.92,25.96,10.31-4.7,20.27-2.73,30.43.52-6.02-8.08-10.94-16.28-8-26.53,2.18-7.62,6.77-13.82,13.77-17.72,10.89-6.07,23.45,1.51,33.58,20.22,3.39-12,8.98-22.11,20.15-28.24,10.86-5.96,22.59-4.22,29.43,5.54,2.32,3.31,2.79,8.22,3.17,12.48.41,4.54.23,9.29-.64,13.76-.95,4.9-2.98,9.58-4.32,13.68,6.03.31,13.17-.09,20.01,1.19,10.87,2.03,16.8,10.85,16.35,21.98-.05,1.36,1.28,3.31,2.54,4.1,8.69,5.48,17.61,10.6,26.28,16.11,5.03,3.2,9.75,6.89,14.64,10.39-5.53-18.04-5.84-37.8-17.09-53.87-6.92-9.88-14.66-19.21-22.4-28.48-1.59-1.91-4.69-2.91-7.28-3.57-18.22-4.6-26.15-17.93-28.18-34.33-.24-1.97.7-4.08.8-4.55,4.22-.27,7.07-.49,9.92-.63,4.97-.25,9.94-.46,15.51-.71-.22-2.32-.51-5.5-.81-8.7,10.16-.04,17.85,7.63,18.89,18.68.89,9.48-.97,18.56-4.46,27.4-.6,1.52-.7,4.36.22,5.18,8.92,7.95,15.85,17.32,21.16,27.96.3.61.9,1.07,2.66,1.42-.56-9.28-1.25-18.55-1.62-27.84-.2-4.98-.22-10.02.44-14.94.23-1.69,2.69-4.2,4.23-4.27,1.58-.07,3.8,2.07,4.83,3.78,2.67,4.45,1.05,14.75-3.53,18.07-3.31,2.4-3.23,5.02-3.14,8.1.13,4.02.4,8.03.62,12.05.52.23,1.03.47,1.55.7,4.02-5.47,8.32-10.76,11.9-16.51,1.31-2.1.47-5.43,1.39-7.92.77-2.08,2.55-3.86,4.15-5.5.32-.33,2.75.58,2.75.9-.04,2.49.41,5.6-.88,7.35-5.15,6.96-10.46,13.9-16.52,20.05-4.47,4.53-4.36,8.96-2.85,14.29,2.23,7.86,4.56,15.71,6.23,23.69,3.63,17.37,8.8,33.63,24.89,44.01,3.66,2.36,6.47,6.05,10.11,9.54-2.69-7.67-3.48-15.18-9.89-21.14-3.65-3.4-5.16-9.82-6.17-15.15-1.19-6.26-.79-12.82-1.11-19.76,12.67,7.52,18.38,22.12,15.75,38.23-.31,1.89-.26,4.04.33,5.84,3.43,10.43,5.72,21.59,13.79,29.69,9.83,9.86,20.62,18.79,27.32,31.67-.09-15.46,2.96-31.16-5.76-45.2-5.87-9.45-6.94-19.01-3.02-29.4,2.2-5.84,3.76-11.93,5.6-17.89.52.05,1.14.01,1.18.14,3.66,12.91,12.46,25.45,7.7,39.18-3.86,11.14-3.8,21.63-2.17,32.71.43,2.93.48,6.03.07,8.96-2.27,16.29,4.68,29.76,13.38,44.08.56-17.16,11.38-29.23,16.71-43.54,1.97-5.29,2.97-10.48,1.1-16.5-3.13-10.04-1.63-20.2,4.21-29.04,6.59-9.97,13.87-19.48,20.9-29.17.39-.54,1.13-.81,1.77-1.25.49.62,1.12,1.05,1.12,1.47-.06,12.71.1,25.44-.38,38.14-.38,10-7.31,16.55-13.98,22.83-4.01,3.77-6.81,7.85-9.12,12.95-4.14,9.15-9.94,17.53-14.58,26.47-5.64,10.87-6.32,22.25-2.87,32.86,7.77-14.1,15.76-28.61,23.74-43.12.52.11,1.04.22,1.56.32v20.85c13.18-11.76,26.47-23.63,40.29-35.96.38,16.58.13,32.81-7.12,47.4-8.71,17.53-23.98,27.04-44.74,30.25,16.55,14.74,15.31,33.13,11.4,52.68,14.34-3.13,24.3,3.27,33.51,11.88,1.18,1.11,3.32,1.54,5.06,1.67,15.54,1.14,28.97,12.13,32.02,27.52,1.45,7.33,5,12.07,11.33,15.54,3.39,1.86,6.58,4.32,9.33,7.05,1.33,1.33,2.53,5.09,1.89,5.67-1.86,1.69-4.59,2.73-7.14,3.22-1.36.26-3.4-.76-4.53-1.83-4.87-4.67-10.91-3.96-17.09-3.59.97.56,1.87,1.3,2.91,1.66,10.61,3.68,20.03,9.55,27.89,17.34,4.03,4,6.68,9.66,9.03,14.99,1.75,3.97.5,8.05-3.34,10.94-3.76,2.82-7.64,3.8-12.02,1.58-.64-.33-1.35-.53-1.93-.75-.45.38-.86.56-.98.85-4.02,9.39-11.73,10.79-17.44,2.26-4.5-6.73-10.43-10.61-17.12-14.49-5.22-3.03-9.56-7.68-13.98-11.93-1.67-1.6-2.49-4.08-4.48-5.52-5.79,20.18-14.87,36.4-32.67,48.17,7.86-.76,14.11-1.89,20.36-1.86,20.29.11,30.78,7.03,37.22,24.51,3.19,8.67,3.1,18.66,3.83,28.1.45,5.92-.83,11.97-.48,17.92,1.22,20.47-18.9,27.9-31.95,24.4-2.07-.56-4.16-1.08-7.28-1.89,3.32,4.79,6.32,8.37,8.49,12.41,3.77,7,5.05,18.3-2.69,25.34-4.86,4.43-10.84,5.22-16.77,4.93-8.41-.4-16.04,1.58-24.03,3.98-6.4,1.92-13.84.39-21.73.39.56-19.53-8.77-34.25-17.81-48.48-9.21-.99-18.35-1.55-27.34-3.06-9.75-1.63-15.59-8.15-17.92-16.61-9.62,13.18-19.33,26.51-29.31,40.18,20.21-9.74,41.26-15.66,65.08-15.07-.69,2.5-.76,5.3-2.1,7.24-11.13,16.22-25.41,28.85-43.96,35.86-14.12,5.34-28.46,10.13-42.85,14.68-11.36,3.6-20.85,9.71-29.16,19.09,12.34-2.07,24.06-4.03,35.94-6.02.04.44.32,1.22.11,1.39-9.16,7.33-17.72,15.78-29.36,19-4.87,1.35-10.31,1.54-15.36,1-4.19-.45-7.15.07-9.87,3.32-12.1,14.48-24.84,28.46-32.58,46.05-1.7,3.86-4.28,7.33-5.74,11.84,7.06-4.55,13.73-9.94,21.27-13.44,9.19-4.26,13.57-10.4,14.52-20.49.64-6.86,4.34-13.14,10.2-17.48,2.52-1.87,5.81-4.51,8.33-1.24,1.49,1.94,1.81,6.22.68,8.44-3.18,6.22-7.38,11.91-11.36,18.08,8.51-2.66,16.88-5.11,25.08-8.03,1.15-.41,2.05-3.18,2.06-4.87.06-9.02,2.42-17.04,9.56-22.99,1.41-1.18,4.29-2.51,5.26-1.88,1.5.98,2.91,3.73,2.65,5.47-.64,4.34-1.92,8.67-3.56,12.75-1.15,2.87-3.33,5.33-5.52,8.7,14.22-2.5,25.45-9.01,35.83-18.21-3.77-5.28-5.69-10.92-3.32-17.26.45-1.22.61-2.94,1.5-3.53,2.91-1.93,6.26-5.01,9.15-4.73,4.19.41,3.74,5.22,2.89,8.34-1.13,4.16-3.24,8.05-5.47,13.34,5.23-6.09,11.63-8.88,14.13-16.66,1.49-4.65,7.03-8.42,11.53-11.43,1.52-1.02,6.09.82,7.96,2.67,1.02,1.01.2,5.91-1.32,7.09-4.47,3.46-9.43,6.85-14.74,8.47-3.43,1.04-5.96,2.19-8.17,4.83-5.63,6.71-11.37,13.32-17.07,19.97-.57-.4-1.15-.81-1.72-1.21,1,.09,2.24-.16,2.97.33,2.91,1.94,5.67,4.11,8.49,6.2-2.43,2.57-4.39,6.21-7.37,7.49-6.4,2.76-12.7.38-18.86-2.31-2.41-1.05-5.58-1.39-8.16-.86-6.74,1.37-13.35,3.4-20.08,5.19,3.77,2.36,7.51,4.18,10.55,6.8,1.72,1.48,3.52,4.61,3.05,6.41-.51,1.94-3.4,3.8-5.65,4.62-5.39,1.96-9.92-.64-13.76-4.15-2.86-2.62-5.24-5.78-8.29-9.22-19.28,7.18-36.54,18.5-53.27,30.99,21.89-8.92,44.74-5.25,67.1-7.18.19.68.37,1.36.56,2.04-1.47.9-3,1.72-4.39,2.73-7.95,5.81-15.98,11.53-23.76,17.55-16.41,12.7-33.47,23.85-55.06,25.15-.91.05-1.81.22-4.34.53,9.86,3.7,18.29,6.86,27.59,10.35-10.41,5.35-19.48,10.01-29.94,15.39,7.27,3.13,12.63,5.43,19.26,8.28-10.71-2.62-20.01-4.89-29.31-7.16-.3.59-.59,1.18-.89,1.78,6.09,6.62,11.04,13.81,12.8,24.27-4.08-6.86-7.43-12.48-10.78-18.1-.5.23-1,.47-1.5.7,2.1,5.52,4.2,11.03,6.3,16.55-.16.06-.32.12-.48.19-.93-1.55-1.87-3.09-3.59-5.94-1.79,9.63-9,16.6-6.4,26.67-7.43-8.11-14.86-16.22-23.16-25.29.89,6.51,1.65,12,2.4,17.5-.4.06-.8.12-1.19.18-1.38-8.44-2.76-16.87-4.14-25.31-.33-.13-.65-.25-.98-.38-2.36,10.32-4.71,20.64-7.07,30.97-.27-.02-.53-.05-.8-.07,1.08-9.73,2.17-19.47,3.25-29.2-.28-.24-.57-.48-.85-.72-3.47,4.92-6.93,9.84-11.33,16.08,1.21-3.43,1.93-5.5,3.18-9.05-5.97,5.63-9.79,10.36-12.14,17.25-2.75,8.04-8.36,15.11-12.68,22.53,3.25.74,8.56.66,12.3,3.04,9.55,6.08,19.17,12.48,27.15,20.39,3.34,3.31,4.6,11.27,3.33,16.22-4.37,16.95-15.8,25.92-32.73,26.07-7.46.07-14.99-5.86-22.47-9.12-.82-.36-1.49-1.05-2.92-2.08,4.37,17.39,5.97,33.94-11.5,44.27-12.88,7.61-26.46,8.9-39.18-1.62-2.91,5.79-8.2,7.02-14.11,6.83-2.04-.07-4.09-.43-6.11-.82-4.15-.8-8.79-3.34-12.31-2.25-7.69,2.4-14.8,6.62-21.28,9.69,9.44,3.73,18.82,7.55,28.31,11.11,3.09,1.16,6.54,1.34,9.63,2.49,3.01,1.13,6.4,3.01,4.2,6.97-1.96,3.53-5.25,1.87-7.85.38-1.75-1-3.48-2.32-4.68-3.91-4.87-6.39-11.67-8.87-19.21-10.13-2.58-.43-5.1-1.18-7.69-1.56-6.77-1-13.02-.43-19.38,3.13-23.25,12.99-43.5,28.97-56.38,52.92-.15.28-.6.39-2.19,1.36.19-2.71-.03-4.72.51-6.49,3.68-11.96,10.81-21.73,20.23-29.71,8.55-7.25,17.38-14.21,26.47-20.76,5.38-3.88,8.24-8.58,7.86-15.06-.33-5.58-.79-11.19-1.75-16.69-2.73-15.65.96-29.98,7.9-43.89,1.25-2.51,1.06-5.84,1.15-8.81.24-7.76-.43-15.62.58-23.27.88-6.65,5.62-9.51,12.3-9.62,1.66-.03,3.33-.35,4.97-.68,8-1.57,15.99-3.18,23.08-4.6-2.64-7.53-6.07-15.75-8.4-24.26-6.46-23.61,9.83-34.11,29.56-34.28,9.19-.08,14.45,8.02,18.74,15.3,3.06,5.19,4.89,11.11,7.7,17.7,1.7-4.22,3.69-7.52,4.32-11.07,1.29-7.26,7.04-12.94,6.24-21.08-.51-5.21-1.49-9.76-4.38-14.09-6.57-9.84-7.6-20.03-1.54-30.6,2.37-4.14,4.45-8.45,6.66-12.68.54-.05,1.08-.1,1.62-.15,1.48,6.93,2.96,13.86,4.45,20.78.42.1.84.21,1.27.31,3.03-7.27,6.27-14.47,8.94-21.87.73-2.03.09-4.75-.48-7.01-3.42-13.64,1.33-26,13.63-34.55-1.04,9.1-2.06,18-3.08,26.91.44.25.87.49,1.31.74,3.54-6.69,8.24-13.02,10.38-20.13,4.14-13.76,15.18-20.52,25.48-29.27.53,14.21-9.81,30.55-21.7,35.46-1.33.55-2.93,1.2-3.66,2.3-5.85,8.84-11.51,17.79-16.46,27.46,7.7-3.96,15.4-7.93,24.52-12.63-4.87,7.04-8.7,12.58-12.52,18.13-4.68,3.53-8.92,8.69-14.18,10.15-6.67,1.85-10.26,4.88-11.82,11.28-1.01,4.15-2.95,8.11-3.65,12.3-1.12,6.61-1.55,13.34-2.43,21.42,13.94-8.13,25.54-5.03,36.82,2.49,1.88-4.04,3.5-7.51,5.17-11.09-2.73-.12-5.14-.23-8.1-.36,5.64-1.81,10.58-3.39,15.52-4.97-8.44-4.06-16.95-6.17-21.99-12.86,7.88,3.08,16.26,6.35,24.64,9.63.25-.5.51-.99.76-1.49-5.87-4.61-12.43-7.99-13.4-17.14-.71-6.7-4.85-13.03-7.46-19.53ZM935.04,614.88c3.49-7.2.46-13.77-2.48-20.5-1.52,8.37-3.03,16.74-4.8,26.47,3.35-2.76,5.41-4.46,7.47-6.16-1.18,1.62-2.04,3.7-3.6,4.76-5.05,3.45-4.71,8.51-4.49,13.53.03.62,1.55,1.17,2.37,1.75-6.1,6.56-1.06,14.09-2.48,21.67,2.08-.7,3.43-1.16,4.78-1.62-.88.89-1.73,1.82-2.65,2.66-2.96,2.72-2.05,11.73,1.39,13.5-.8,1.35-2.18,2.64-2.3,4.05-.9,11.07-1.57,22.16-2.26,32.56,7.59-11.88,12.87-25.54,14.35-40.57.08-.79-.86-1.69-1.33-2.54.91-5.01,1.87-10.02,2.6-15.05.05-.35-1.58-.94-2.44-1.42,4.43-7.24,1.73-14.63.95-22.87-1.9,1.68-3.08,2.73-4.27,3.79,3.35-5.11,4.76-10.39,1.54-16.23-.86.81-1.61,1.51-2.36,2.22ZM1129.82,330.6c1.35-5.81,2.7-11.63,4.05-17.44-5.62,6.27-10.15,12.78-14.52,19.41-.35.53.52,1.85.82,2.81-3.92,4.04-7.84,8.07-11.76,12.11.44.51.88,1.03,1.32,1.54,4.42-1.06,8.85-2.12,13.27-3.17-2.71,1.07-5.37,2.93-8.13,3.08-9.49.51-12.49,9.22-19.77,13.53,13.77,4.95,25.42-3.82,30.45-16.51-.9,0-1.78,0-2.64-.02,5.95-3.46,7.99-8.69,6.91-15.33ZM860.83,836.1c-1.27,0-2.86-.51-3.76.07-7.93,5.08-15.73,10.35-23.58,15.56.34.57.67,1.14,1.01,1.71,12.82-2.11,26.62-.42,37.64-9.31-4.1-2.93-7.8-5.56-11.48-8.2,1.65.72,3.4,1.28,4.95,2.19,8.78,5.16,19.33,2.61,25.27-5.97-3.79-1.27-7.65-2.57-11.51-3.87-4.34-1.46-16.31,3.59-18.53,7.83ZM826.18,192.82c.79-4.04-2.2-2.11-3.29-1.75-9.15,3.05-17.42,7.7-23.55,15.28-1.75,2.16-2.28,5.37-3.12,8.18-.12.39,1.19,1.21,1.84,1.84.6,2.9.74,6.01,1.93,8.65,1.03,2.27,3.4,3.9,4.92,5.99,4.45,6.14,11.53,7.75,18.09,4.03,14.76-8.35,20.82-24,32.04-36.96-4.84.4-8.28.78-11.73.89-.89.03-2.04-.58-2.64-1.27-.41-.48-.37-2.14-.03-2.33.8-.43,1.92-.41,2.9-.35,2.2.14,4.39.41,6.58.62.03-.58.06-1.15.09-1.73-7.79-3.48-15.88-2.9-24.05-1.1ZM702.35,969.31v.02c.82-4.33-2.73-5.48-5.34-7.22-7.36-4.91-14.61-10.01-22.22-14.5-3.76-2.22-8.34-4.86-12.33-4.54-10.69.86-21.27,3.17-31.87,5.04-.94.17-2.15,1.19-2.41,2.07-.28.93.42,2.15.73,3.39-5.32,2.01-6.77,12.93-2.07,22.91,1.33-1.25,2.65-2.49,5.1-4.79,0,3.52-.49,5.51.1,7.1,1.49,4.05,2.37,9.54,5.42,11.57,12.39,8.25,40.32,5.07,51.19-5.12,5.13-4.82,9.82-10.11,14.66-15.24.18-.19-.23-.94-.37-1.42-.19.25-.39.5-.58.74ZM1032.92,587.4c1.76,1.21,2.55,2.19,3.44,2.29,33.13,3.86,65.11-2.1,96.7-11.56-22.75,11.42-47.55,14.37-72.46,16.86.04.52.08,1.03.12,1.55,7.79,1.53,15.57,3.07,23.36,4.6-.06.3-.12.6-.18.89-15.89-2.6-31.78-5.2-47.66-7.79,1.48,2.14,3.53,3.74,5.74,3.99,29.43,3.33,52.01,18.25,68.01,42.37,5.31,8.01,11.36,10.32,19.62,10.73,12.47.62,21.21-7.12,21.73-19.5.43-10.07,1.19-20.19.64-30.23-1.52-27.66-17.37-43-46.33-37.95-13.42,2.34-26.74,5.06-38.93,11.66-1.81.98-4.14,1.02-6.23,1.5,1.65-1.86,3.51-2.65,5.39-3.38,24.98-9.61,45.77-23.74,54.44-50.78,2.72-8.48,6.73-17.57-1.27-25.03-4.75-4.42-11.01-7.28-16.76-10.54-4.69-2.66-9.63-4.88-14.46-7.3-2.28-1.14-4.55-2.28-6.97-3.49-7.67,22.06-19.73,40.64-34.59,57.67-3.37,3.87-6.31,9.36-6.68,14.31-.58,7.76,1.21,15.7,2.15,25.15,4.47-4.58,8.89-8.62,12.71-13.15,3.97-4.7,7.39-9.85,11-14.85,3.45-4.79,6.83-9.64,10.24-14.47.42.29.83.59,1.25.88-7.82,11.65-15.65,23.29-23.93,35.62,2.72-.63,5.06-1.17,7.29-1.68-.39,5.13-3.05,8.1-8.43,7.81,2.38,3.03,4.91,4.97,8.78,5.12,1.42.05,3.39,2.06,3.97,3.61.59,1.6-.2,3.71-.39,5.6-1.5-.21-3.04-.28-4.5-.67-1.35-.36-2.63-1.6-3.89-1.53-7.22.38-14.43,1.03-22.9,1.68ZM1084.94,675.08c-11.51-19.6-19.06-41.69-34.91-58.92.9,3.81,2.44,7.37,3.42,11.08,1.79,6.8,2.2,13.64-4.52,18.17-4.21,2.84-3.47,5.7-1.15,8.88,8.96,12.32,15.37,25.58,15.14,42.43,6.01,0,12.29,1.68,16.96-.34,10.36-4.5,20.91-4.98,31.76-5.24,6.55-.16,11.86-3.76,12.29-9.41.38-4.89-.77-10.32-2.73-14.86-2.4-5.55-6.72-10.23-9.57-15.62-11.57-21.88-28.35-37.85-51.89-46.09-5.96-2.09-12.27-3.18-18.41-4.73-.41.81-.82,1.63-1.22,2.44,13.9,5.1,26.15,12.08,35.05,24.21,8.67,11.81,17.05,23.57,21.32,37.74-12.98-21.66-24.19-44.73-49.2-55.82,19.41,18.07,27.51,42.59,37.67,66.09ZM1006.51,556.11c-6.95,7.34-13.79,13.67-19.48,20.9-3.87,4.91-5.41,11.1-1.23,17.19,3.15,4.59,6.89,8.98,9.04,14.02,2.46,5.76,3.56,12.13,5.07,18.28,1.9,7.74,4.68,15.28,13.28,17.14,8.85,1.91,18.03,3.11,27.06,3.13,7.22.01,13.04-7.87,11.27-14.98-1.92-7.69-5.5-14.97-8.56-22.97-3.4,4.07-5.68,6.8-7.96,9.53,6.66-8.57,6.88-10.89,1.42-16.53-8.57,2.54-16.65,4.93-24.72,7.32-.2-.65-.4-1.3-.59-1.95,8.48-1.26,16.92-2.63,23.53-8.24-5.35-19.61-19.46-13.34-32.14-11.7,7.96-6.8,17.16-4.78,27.24-3.09-1.15-2.54-1.55-4.46-2.69-5.73-6.3-7.05-12.79-13.94-20.53-22.32ZM713.13,962.78c-.02.56-.05,1.13-.07,1.69.99.93,1.83,2.24,3,2.73,7.43,3.1,11.81,9.15,14.88,16.03,4.69,10.53,13.12,16.06,23.34,20.32,10.91,4.54,20.72,4.34,30.48-2.72,10.62-7.68,17.5-26.39,3.4-35.81-3.24-2.16-6.1-4.9-9.34-7.08-8.92-6.02-18.18-11.37-29.59-8.56-5.73,1.41-11.26,3.61-16.94,5.27-2.61.77-5.34,1.12-9.14,1.88,1.92,2.2,3.15,3.6,4.41,5.05-4.64.38-9.54.78-14.44,1.18ZM686.01,1018.36c0,2.13-.24,4.96.04,7.73,1.02,9.93,5.56,14.72,15.36,16.2,4.24.64,8.52,1.18,12.8,1.29,11.74.28,19.51-5.43,23.34-16.78,5.52-16.37-7.14-47.65-22.64-55.94-.66-.35-1.32-.74-2.03-.93-.7-.19-1.62-.45-2.17-.17-6.75,3.51-14.07,6.7-16.92,14.43-3.99,10.8-8.68,21.53-7.77,34.17ZM715.81,956.67c6.12-2.21,11.51-4.11,16.87-6.09,5.31-1.96,11.23-3.05,15.78-6.15,13.09-8.93,19.1-22.55,22.13-37.59.39-1.93-.46-4.58-1.64-6.27-6.32-9.02-14.55-14.99-25.78-17.05-6.88-1.26-12.54.39-16.78,5.16-7.77,8.74-11.74,19.77-13.47,30.94-1.55,10.02-.33,20.47-.33,30.74.28.13.56.26.84.4,1.91-3.9,3.81-7.8,6.26-12.82,1.55,2.45,2.83,4.46,4.11,6.48-.77-.09-1.54-.17-2.31-.26-1.29,1.73-2.58,3.45-3.87,5.18,4.17,3.05.52,4.76-1.8,7.33ZM1075.29,477.13c3.85-6.11,8.37-3,12.62-1.12,7.15,3.17,14.23,6.48,21.29,9.83,2.01.95,3.75,2.53,5.8,3.3,3.17,1.19,6.47,2.24,9.8,2.76,2.33.37,4.81-.38,7.23-.39,11.66-.05,23.33-.02,34.47-.02-1.6-6.44-3.19-14.07-5.4-21.53-5.06-17.11-19.28-25.95-36.94-23.27-13.8,2.09-26.64,6.64-38.9,13.5-7.09,3.97-8.35,10.2-9.97,16.93ZM1057.3,473.68c5.15-2.64,10.57-5.37,15.92-8.22.63-.34.95-1.36,1.28-2.12,1.07-2.49,1.79-5.18,3.16-7.48,10.27-17.27,18.13-35,15.26-56.02-1.14-8.37-5.37-14.35-11.25-19.23-4.65-3.86-10.2-6.83-15.7-9.43-8.71-4.11-17.71-7.64-26.64-11.27-1.29-.52-2.89-.27-4.35-.38-.13.5-.27.99-.4,1.49,2.82,1.65,5.55,3.5,8.49,4.92,6.68,3.22,10.7,8.65,12.97,15.43,3.97,11.9,5.35,24.11,2.56,36.43-2.29,10.09-5.83,20-1.39,30.36.21.48.1,1.11.1,1.67,0,7.76,0,15.51,0,23.86ZM704.13,949.64c-.85-2.14-3.32-5.07,1.79-6.02.94,2.76,1.79,5.25,2.65,7.74.75-2.18.52-4.21.79-6.17,2.76-20.26-1.21-38.77-13.42-55.49-4.78-6.56-10.85-8.36-18.12-6.5-7.9,2.02-15.7,4.91-18.29,13.8-3.03,10.42-2.3,20.71,3.11,30.36,7.88,14.04,21.39,22.08,33.77,31.28.95.71,2.88.09,5.1.09-1.86-2.66-3.09-4.42-4.62-6.6,2.77-.95,4.96-1.71,7.23-2.49ZM1052.63,430.48c4.49-9.92,5.73-29.71,2.4-41.64-1.12-4.01-2.35-9.11-5.32-11.31-17.61-13.06-28.9-15.19-48.43-2.15-4.5,3-8.49,6.65-14.46,6.37-1.31-.06-2.92.83-3.97,1.76-1.32,1.16-3.12,2.91-2.99,4.23.12,1.2,2.39,2.66,3.98,3.18,8.13,2.67,16.41,4.89,24.52,7.62,10,3.36,19.27,8.05,26.32,16.25,3.35,3.9,6.68,7.82,10.26,12.02.78-1.75,1.48-3.34,2.57-5.81,1.93,3.58,3.43,6.36,5.11,9.47ZM1018.45,533.92c7.05-2.18,10.37-.75,18.4,7.21,8.63-10.34,9.86-22.11,6.77-34.72-1.35-5.52-4.37-9.45-10.22-10.65-6.1-1.25-11.85-.41-15.65,4.84-2.89,4-5.35,8.51-7.04,13.15-3.44,9.42-6.27,19.07-9.2,28.67-.3.98.06,2.6.74,3.37,10.29,11.56,20.68,23.02,31.11,34.58.38-.86,1.13-2.5,1.82-4.16,3.46-8.29,2.73-16.57,1.22-25.27-1.05-6.08-3.12-10.73-8.23-13.72-2.61-1.53-5.82-2.02-9.72-3.3ZM881.91,185.15c4.78-.51,8.63-1.06,12.5-1.28,3.5-.2,7.03-.04,10.54-.04-13.57.01-26.49,2.24-39.11,8.61,1.09,1.41,1.77,2.28,2.81,3.61-2.12-.84-3.61-1.42-5.1-2.01-.41.53-.83,1.06-1.24,1.59,6.8,7.17,12.83,15.41,20.68,21.14,5.67,4.14,13.64,5.54,20.81,7.09,9.06,1.95,16.93-4.01,19.02-13.16.53-2.33,1.08-4.8,2.28-6.82,5.16-8.7,2.63-18.53-6.32-23.64-9.59-5.48-27.68-3.39-36.86,4.91ZM857.34,190.17c3.56-.86,6.22-1.03,8.42-2.12,10.82-5.36,22.3-9.98,28.55-21.38.91-1.66,1.07-3.85,1.19-5.82.26-4.22-.44-8.62.55-12.63,1.46-5.95-.48-10.17-4.65-13.93-5.78-5.23-14.21-6.07-21.9-2.19-18.11,9.14-25.05,33.74-14.36,52.7-.11-1.66-.29-2.71-.23-3.75.08-1.27.29-2.54.63-3.76.04-.13,1.86-.05,1.92.16.32,1.27.51,2.61.46,3.92-.12,3.11-.4,6.22-.58,8.79ZM1124.16,496.58c1.17,4.11,1.15,9.22,3.7,11.93,7.09,7.55,15.22,14.11,22.97,21.03,4.09,3.66,8.27,7.23,12.32,10.93,2.32,2.12,4.24,4.73,6.75,6.55,3.06,2.21,6.03,1.41,6.79-2.48,1.14-5.86,3.64-6.29,8.88-4.19,6.48,2.6,12.12-2.36,10.19-9.04-1.32-4.56-4.19-9.03-7.39-12.63-9.83-11.05-23.8-14.28-37.22-18.08-8.78-2.49-17.2-8.23-26.98-4.02ZM860.23,198.96c-7.74,3.36-9.93,12.08-15,18.5-4.92,6.24-6.51,13.36-6.76,20.9-.44,13.05-.31,13.05,11.44,17.69,12.21,4.82,19.77,2.03,25.89-9.54,6.23-11.79,4.04-28.45-4.37-35.88-3.93-3.48-7.32-7.58-11.2-11.66ZM850.78,187.09c-1.75-7.99-2.71-14.83-4.82-21.3-1.94-5.95-4.54-11.87-7.91-17.13-4.79-7.46-15.46-11.03-21.98-8.38-11.27,4.6-16.55,19.9-10.69,30.63,8.07,14.76,22.28,17.08,37.44,17.75-1.94-1.18-3.88-2.36-7.3-4.43,3.35-.96,5.6-1.61,7.79-2.24.16-2.98-7.64-4.15-1.53-8.53,2.79,4.22,5.61,8.49,9,13.62ZM937.14,695.96c29.11-29.16,37.51-92.89,17.89-120.33-3.35,15.25-7,31.72-10.56,48.21-.39,1.8-.63,3.72-.43,5.53,2.55,22.33,1.03,44.25-6.89,66.59ZM687.12,994.86c-.5-.35-1.01-.7-1.51-1.05-9.22,8.53-18.59,16.9-27.61,25.64-8.3,8.05-16.16,16.55-24.32,24.74-4.9,4.92-10.02,9.63-15.04,14.43,1.79.09,3.04-.6,4.33-1.18,10.69-4.82,21.37-9.66,32.1-14.38,2.52-1.11,5.6-1.22,7.79-2.72,6.89-4.7,13.68-9.03,22.97-4.49-5.11-14.47-3.26-27.77,1.29-40.99ZM1027.39,663.1c-32.92,15.42-67.12,28.12-94.89,52.34,17.98-5.96,36.11-11.53,53.58-18.7,16.96-6.96,31.27-17.96,41.31-33.64ZM804.59,838.19c.33.05.66.11.99.16-.41,7.05-.91,14.09-1.2,21.15-.09,2.23-.12,4.8,3.63,3.64,9.84-3.03,17.42-13.5,16.05-23.74-1.05-7.84-3.34-15.51-5.11-23.39-21.27,12.87-24.48,25.74-16.57,44.5.76-7.65,1.49-14.98,2.22-22.32ZM1025.89,659.33c-28.53-3.57-77.95,23.55-86.93,46.03,14.23-8.32,29.09-17.62,44.53-25.84,10.84-5.77,22.49-9.98,33.71-15.05,2.79-1.26,5.3-3.11,8.68-5.14ZM1075.56,466.8c-14.12,7.64-27.67,13.62-36.88,23.85,4.11,6.55,7.54,12.03,11.03,17.59,16.37-7.75,21.29-23.47,25.84-41.44ZM807.31,871.83c4.43,6.26,10.85,9.3,17.99,10.45,3.41.55,7.61.27,10.58-1.3,7.43-3.92,14.36-8.79,21.47-13.27-14.24-5.37-28.69-12.55-44.36-3.15,5.19-.35,10.45-.71,15.71-1.06-.03.21-.05.43-.08.64-6.7,1.35-13.4,2.71-21.6,4.36,10.22,5.6,19.61,5.37,29.04,5.09-9.76,3.32-19.19.85-28.76-1.76ZM817.65,921.64c9.67-21.65,4.86-38.99-11.81-44.61,1.85,5.18,3.71,10.4,5.58,15.61-.27.1-.54.2-.81.29-1.84-4.16-3.69-8.32-5.53-12.48-.62.11-1.24.22-1.86.33.27,6.1.53,12.2.85,19.53-1.31-4.67-2.32-8.26-3.67-13.08-4.25,17.3,8.46,24.47,17.26,34.41ZM1029.2,491.98c3.15-1.04,5.75-1.27,7.51-2.6,4.88-3.7,9.45-7.82,14.05-11.87,1.17-1.03,2.53-2.29,2.93-3.69,3.14-10.93,1.9-21.75-1.38-32.44-.7-2.28-1.69-4.48-2.17-5.75-6.78,18.25-13.6,36.6-20.94,56.34ZM798.03,859.67c-4.01-19.88-22.8-18.02-36.17-25.25,7.18,28.35,16.24,33.63,34.06,32.54-5.02-1.56-9.16-2.85-13.31-4.14.07-.26.14-.52.21-.78,4.86.86,9.72,1.71,14.57,2.57.3-.72.59-1.45.89-2.17-7.46-4.92-14.92-9.84-22.38-14.75.23-.34.45-.68.68-1.02,6.93,4.2,13.85,8.4,21.45,13.01ZM795.04,872.01c-15.11-3.77-24.86.7-30.41,14.81-1.31,3.32,3.41,9.86,7.16,10.12,12.48.88,25.28-9.35,26.98-22.1-9.92.75-15.47,8.64-22.68,13.54-.32-.44-.64-.88-.96-1.32,6.81-5.15,13.62-10.3,19.91-15.06ZM637.58,997.58c2.65,13.07-1.53,26.01-7.15,39.64,14.55-14.03,28.2-27.18,41.13-39.64h-33.98ZM913.94,634.15c-6.89,23.14-2.68,45.56,9.85,52.97,0-12.42.02-25.02-.05-37.63,0-.82-.57-1.7-1.05-2.43-2.86-4.28-5.77-8.52-8.75-12.9ZM1121.38,441.24c-4.07-9.08-19.58-10.93-26.24-9.11-.64.17-1.37.75-1.67,1.34-4.05,8.02-8.03,16.07-11.98,24.02,13.36-5.44,26.49-10.79,39.9-16.26ZM932.37,139.01c4.51-8.45,2.75-21.14-3.75-28.95-4.2-5.04-9.6-6.29-17.52-3.78,1.33,14.65,12.21,22.97,21.27,32.73ZM888.77,693.02c-8.94,4.76-15.4,18.04-13.65,26.99.69,3.52,2.19,4.42,5.36,3.1,9.87-4.11,14.75-21.06,8.29-30.09ZM619.83,1046.7c9.36-19.59,1.38-39.59,5.25-58.52-11.93,18.19-8.33,37.8-5.25,58.52ZM683.86,254.36c14.96-5.05,19.69-10.95,15.46-30.24-6.15,10.31-19.55,15.5-15.46,30.24ZM941.1,732.99c-12.32-1.66-31.76,4.57-36.9,11.84,9.73,4.89,26.12-.37,36.9-11.84ZM629.35,983.42c-3.77,16.18-.94,32.56-1.54,48.83,8.76-15.92,8.59-32.23,1.54-48.83ZM769.07,180.09c-8.82-11.67-28.26-21.55-40.37-20.05,13.94,6.63,23.25,21.03,40.37,20.05ZM918.54,715.99c.42.06.84.13,1.26.19,1.47-7.99,2.96-15.97,4.37-23.97.12-.67,0-1.61-.4-2.12-4.25-5.46-8.58-10.87-13.52-17.09,2.87,14.91,5.58,28.94,8.28,42.98ZM922.66,645.36c1.76-14.97,3.39-28.85,5.02-42.73-4.28,6.48-7.85,13.33-10.8,20.45-3.53,8.52.99,15.16,5.78,22.29ZM867.84,827.35c14.12-4.85,27.95-9.6,42.93-14.74-5.16.28-9.06.54-12.98.68-4.1.15-8.21.22-12.31.27-9.64.12-14.67,4.01-17.64,13.79ZM1091.82,329.3c-5.19,13.05-10.37,26.06-15.8,39.72,13.9-8.1,18.72-20.84,15.8-39.72ZM677.43,232.45c15.16,1.54,21.45-11.38,31.02-19.06-12.57,2.93-24.12,7.45-31.02,19.06ZM938.31,130.42c6.07-18.04,1.26-32.6-10.2-33.49-.61,5.22.81,9.5,4.3,13.71,2.47,2.98,3.5,7.27,4.74,11.12.76,2.36.7,4.98,1.16,8.66ZM1113.18,339.4c5.42-12.17,15.95-19.85,18.45-33.51-9.36,9.76-22.85,15.66-18.45,33.51ZM904.31,105.32c-.58.24-1.15.49-1.73.73-.19,14.48,12.28,30.8,22.53,31.09-4.46-6.36-9.46-13.25-14.19-20.33-2.45-3.67-4.42-7.65-6.61-11.49ZM825.83,851.78c.47.38.93.76,1.4,1.14,10.82-6.42,20.39-13.84,21.1-28.38-7.5,9.08-15,18.16-22.49,27.24ZM685.23,239.04c-12.05,1.24-20.2,9.88-21.63,23.1,7.21-7.7,14.42-15.4,21.63-23.1ZM1088.34,332.61c-.5-.26-1.01-.53-1.51-.79-7.58,10.97-14.22,22.3-13.43,37.65,5.28-13.02,10.11-24.94,14.94-36.86ZM871.15,816.18c-9.19.76-16.35,8.36-16.54,19.04,3.83-2.7,7.85-4.59,10.5-7.66,2.69-3.12,4.01-7.41,6.04-11.39ZM1105.69,328.31c-7.14,4.7-8.78,15.56-2.73,25.44,1.47-2.73,3.74-5.05,3.8-7.43.16-6.1-.66-12.23-1.07-18.01ZM871.05,718.58c1.35-4.68,2.26-9.83,4.34-14.46,2.03-4.53,5.25-8.52,7.85-12.6-11.49,1.56-18.2,16.94-12.18,27.06ZM1079.71,373.68c12.11-.12,21-2.93,26.42-7.86-9.86-3.18-18.63,0-26.42,7.86ZM1097.43,339.67c-3.17,9.01-6.1,17.37-8.87,25.25,2.88-2.19,6.51-4.75,9.87-7.63,1-.86,1.85-2.71,1.68-3.96-.59-4.36-1.66-8.65-2.68-13.66ZM703.27,241.2c6.4-6.6,7.41-14.39,2.46-23.29-1.5,2.48-3.71,4.48-3.74,6.51-.08,5.48.77,10.97,1.28,16.78ZM740.31,208.64c-.57-.4-1.13-.8-1.7-1.19-9.85,6.34-10.04,17.92-14.48,27.19.55.3,1.1.6,1.65.9,4.84-8.97,9.68-17.93,14.53-26.9ZM1049.25,519.24c6.59-1.4,11.45-7.42,14.98-18.35-3.9,6.77-16.18,6.46-14.98,18.35ZM750.32,199.66c-7.18,4.8-7.64,7.54-3.47,19.56,4.2-6.06,4.99-12.47,3.47-19.56ZM879.92,826.49c11.22,5.32,14.44,5.22,18.19-.79-6.21-1.09-12.35-5-18.19.79ZM1169.67,486.26c1.62,6.42,8.43,12.57,12.55,12.73.83.03,2.4-.51,2.4-.76-.03-1.17-.1-2.9-.85-3.39-4.19-2.78-8.57-5.27-14.09-8.58ZM753.06,163.45c-4.48-7.11-12.08-9.26-22.73-6.86,7.27,2.19,14.69,4.44,22.73,6.86ZM1107.87,344.77c.71.03,1.42.06,2.13.09.63-7.08,1.26-14.16,2.04-22.91-4.95,8.14-6.72,15.14-4.16,22.83ZM680.85,247.7c-4.3,4.71-8.4,9.22-11.78,12.93,12.08-2.8,13.17-3.86,11.78-12.93ZM890.31,821.58c9.35,5.51,14.67-.19,21.08-5.9-7.53,2.11-14.06,3.93-21.08,5.9ZM730.28,232.13c10.02-4.26,11.73-7.6,8.55-16.14-2.81,5.3-5.42,10.23-8.55,16.14ZM847.73,837.9c7.31-3.31,4.25-12.39,9.7-16.84-7.45,3.14-7.51,10.56-9.7,16.84ZM771.95,180.47c.67-.57,1.34-1.13,2.02-1.7-3.44-4.77-6.87-9.54-10.31-14.31-.74.54-1.48,1.08-2.22,1.63,3.5,4.79,7,9.59,10.5,14.38ZM802.12,863.08c-1.95,2.64-3.93,4.16-3.79,5.44.15,1.41,2.07,3.17,3.59,3.67.74.25,3.2-1.96,3.28-3.16.1-1.48-1.48-3.07-3.07-5.96ZM736,205.47c8.64,1.15,8.78-5.9,12.9-8.32-.38-.46-.77-.92-1.15-1.37-3.58,2.95-7.16,5.91-11.75,9.69ZM674.31,236.86c.19.54.39,1.08.58,1.62,10.82-1.45,12.21-2.05,14.51-6.95-5.49,1.93-10.29,3.63-15.1,5.32ZM925.58,231.55c-.85-.81-1.69-1.62-2.54-2.42-2.54,2.88-5.08,5.75-7.62,8.63.71.65,1.42,1.31,2.13,1.96,2.67-2.72,5.35-5.45,8.02-8.17ZM742.14,224.64c.34,0,.68.02,1.02.02v-14.11c-.75.02-1.51.05-2.26.07.41,4.67.82,9.34,1.24,14.01Z"/><path class="cls-1" d="M222.12,208.17c-1.37.34-2.9,1.25-4.07.92-3.9-1.12-5.89.81-7.78,3.75-.65,1.01-2.23,1.43-3.38,2.13-.47-1.43-1.43-2.9-1.33-4.29.41-6.04,5.79-6.33,9.84-7.28,2.13-.5,4.83,1.37,7.27,2.17-.18.87-.36,1.74-.54,2.61Z"/><path class="cls-1" d="M1094.22,536.29c-4.76,4.31-9.52,8.63-14.28,12.94.08.08.16.16.23.24,4.65-4.43,9.3-8.85,13.95-13.28.03.03.07.07.1.1Z"/><path class="cls-1" d="M702.35,969.31h-35.86c0-.23-.01-.47-.02-.7,8.33,0,16.65-.07,24.98.03,3.64.05,7.27.45,10.9.69,0,0,0-.02,0-.02Z"/></svg>