<svg id="Capa_1" xmlns="http://www.w3.org/2000/svg" viewBox="0 0 24 24"><defs><style>.cls-100,.cls-102,.cls-15,.cls-18,.cls-28,.cls-32,.cls-33,.cls-35,.cls-41,.cls-42,.cls-43,.cls-45,.cls-5,.cls-51,.cls-52,.cls-55,.cls-57,.cls-61,.cls-63,.cls-67,.cls-7,.cls-77,.cls-79,.cls-8,.cls-84,.cls-88,.cls-90,.cls-92,.cls-95,.cls-96,.cls-97,.cls-99{stroke-width:0}.cls-5{fill:#f8e6e5}.cls-7{fill:#f2dcde}.cls-8{fill:#f5dad8}.cls-15{fill:#edc6cc}.cls-18{fill:#fbf8f4}.cls-28{fill:#fbebea}.cls-32{fill:#eecbcf}.cls-33{fill:#ead0d4}.cls-35{fill:#faf0ef}.cls-41{fill:#f9efec}.cls-42{fill:#f9f0ef}.cls-43{fill:#f4ccd4}.cls-45{fill:#f6e4e2}.cls-51{fill:#fbfaf6}.cls-52{fill:#f0bbc3}.cls-55{fill:#f9d7e2}.cls-57{fill:#f0d8d9}.cls-61{fill:#fbf2f0}.cls-63{fill:#f6ced2}.cls-67{fill:#f3e0e1}.cls-77{fill:#e2a7b0}.cls-79{fill:#e8bfc4}.cls-84{fill:#eea7b6}.cls-88{fill:#f6d8d7}.cls-90{fill:#f5ddde}.cls-92{fill:#faefec}.cls-95{fill:#fbf0ef}.cls-96{fill:#f3c9ce}.cls-97{fill:#fefefe}.cls-99{fill:#edb9c4}.cls-100{fill:#f2ced4}.cls-102{fill:#f9efeb}</style></defs><path class="cls-61" d="M2.37 15.34c.14-.25.33-.46.57-.63.13-.03.22-.12.34-.19.05-.03.1-.11.17-.08.08.04.01.13.02.2.09-.02.18-.04.27-.03.08 0 .1-.06.13-.11.08-.13.16-.25.34-.19.03 0 .06 0 .08-.03.07-.12.19-.17.3-.24.04-.02.1-.05.06-.1-.06-.09-.01-.16.01-.24.02-.06.04-.13 0-.19-.06-.11-.01-.18.07-.24.13-.1.24-.21.24-.39 0-.02.01-.05 0-.06-.11-.13.01-.18.08-.26.11-.12.25-.19.37-.31.05-.05.17-.11.16-.14-.04-.09-.05-.19-.09-.28-.02-.05-.06-.09-.12-.04-.14.11-.29.21-.4.35-.06.08-.06.13.04.18.17.07.15.11.03.25-.34.39-.79.68-1.08 1.12-.02.04-.05.08-.1.06-.11-.1-.18-.24-.28-.35-.04-.05-.06-.11-.11-.15-.04-.03-.06-.07-.02-.13.09-.15.04-.31.04-.47 0-.05-.02-.1-.09-.1-.07 0-.05.06-.05.11s-.02.1-.06.15c-.04-.11-.1-.2.02-.28.04-.03.04-.08.04-.12 0-.08 0-.14.11-.13.09.01.22-.05.22.12 0 .05 0 .09.07.09.06 0 .09-.03.1-.07 0-.1.06-.14.15-.15.06 0 .11-.05.1-.13 0-.12.06-.14.16-.12.2.04.27-.01.32-.21.04-.15 0-.32.15-.44.06-.05-.02-.09-.07-.09-.11-.02-.21-.03-.31-.09-.06-.04-.11.02-.14.08-.07.13-.15.24-.32.21h-.03c-.14.18-.37.15-.54.24-.09.05-.16.07-.25.03-.18-.09-.34-.22-.55-.27-.01 0-.02-.03-.06-.07.15.07.3.03.39.17.01.02.04.06.07.03a.38.38 0 0 0 .09-.13c.01-.03-.03-.05-.05-.06-.06-.03-.14-.04-.17-.12.05 0 .1 0 .14-.06.04-.05.1-.14.19-.05.02.01.05.01.07 0 .02-.04 0-.05-.03-.07q-.18-.14-.39 0c-.08.05-.15.08-.24 0-.04-.03-.1-.1-.17-.03-.06.07 0 .1.05.14.03.02.02.06-.02.06-.06 0-.11 0-.17-.04-.05-.04-.1-.11-.17-.02-.04.05-.06-.02-.06-.04 0-.08-.07-.1-.11-.14-.06-.06-.11-.05-.16 0-.12.11-.25.16-.41.09-.06-.03-.1-.02-.13.05-.09.2-.28.22-.46.24-.07 0-.1.03-.13.07-.18.25-.2.26-.5.19h-.1v-1.8c.11-.08.24-.05.36-.03.22.02.44.03.65 0 .14-.02.28.02.42.02h1.35c.12 0 .24-.07.35 0 .07.05.07.19.19.18.09-.01.07-.15.16-.19.04-.01.07-.01.11 0 .05.08-.02.13-.04.19-.02.04-.03.07.03.09.1.03.13.04.27 0 .07-.02.13 0 .15.08 0 .03.04.05.07.02.02-.02 0-.05-.01-.07-.09-.08-.16-.16-.28-.2-.05-.02-.11-.03-.08-.11.03-.02.07-.02.11-.02.16 0 .28.08.41.16.09.06.18.12.31.1 0-.07-.06-.1-.09-.15-.04-.06-.06-.11.03-.14.13-.02.27-.01.4 0 .44.02.87-.04 1.31-.03.13 0 .26-.01.39 0 .07.02.15.03.22.03.05 0 .12 0 .14.06.03.06 0 .12-.05.16-.04.04-.08.09-.13.12-.07.05-.07.1.01.13.1.04.19.09.23.2.02.04.06.04.1.05.07.02.1.08.05.12-.12.1-.22.25-.41.23.02.13.07.23.16.32v.04c-.16.09-.34.15-.5.24-.08.05-.14.1-.17.18-.04.05-.1.08-.15.13-.04.02-.08.01-.12 0-.09-.01-.13-.08-.08-.16.03-.05.06-.09.07-.15 0 .02 0 .05-.02.07-.08.09-.15.17-.02.28.04.03 0 .08-.05.11l-.14-.03c.08.08.09.08.16.02.07-.07.15-.12.24-.18.35-.28.76-.43 1.18-.55.04.05.05.05.11 0 .09-.06.22-.05.29-.17.24-.14.5-.24.76-.33.28-.1.56-.16.83-.28.04-.02.08-.04.13-.03.04.02.06.05.05.1-.05.1-.13.14-.24.16-.22.04-.38.14-.47.36-.04.1-.09.21-.21.26-.04.01-.08.01-.12.02-.05.01-.14-.04-.15.08 0 .06-.11.07-.17.04-.11-.05-.25-.05-.34-.14-.02-.01-.04-.03-.05-.02-.13.08-.3.09-.38.24-.02.05-.05.1-.08.15-.1.15-.14.16-.29.07-.05-.03-.09-.03-.14 0-.03.02-.05.04-.05.07 0 .04.04.04.06.05.25.07.46.21.65.38.14.12.29.17.46.18.15 0 .31.02.46-.03.07-.03.08-.02.19.14.06-.09.16-.1.26-.11.17-.02.24-.08.25-.24.01-.24.18-.33.36-.4.04-.02.09-.02.12-.05.12-.1.25-.16.41-.13.06.01.09-.03.1-.09.02-.1.06-.19.15-.23.15-.07.19-.19.16-.34.08-.1.13-.21.28-.23.07 0 .09-.14.19-.14.09 0 .16-.06.24-.06.05.06 0 .1-.04.14-.03.04-.09.06-.13.11.06-.03.09-.08.13-.11.06-.04.09-.01.09.06 0 .01 0 .03-.02.04-.18.24-.34.49-.54.72-.23.26-.52.45-.78.67-.19 0-.22.18-.34.26-.2.13-.4.26-.61.37.07 0 .11-.06.17-.09.55-.31 1.02-.71 1.48-1.12.04-.03.07-.07.13-.05.19.15.42.14.64.15.16 0 .19.03.2.19.03.1-.03.18-.07.27-.09.21-.34.29-.4.52-.02.07-.13.12-.22.13a.98.98 0 0 0-.45.21c-.09.07-.2.11-.27.22-.03.04-.07.03-.11 0-.03-.03-.06-.06-.1-.06-.06 0-.12-.03-.17.03-.04.06.02.1.05.14.01.01.02.03.03.06-.11.03-.17-.04-.23-.11-.05-.06-.09-.1-.17-.07a.35.35 0 0 1-.31-.07c-.12-.08-.2-.06-.26.07-.07.15-.31.28-.47.26-.1-.01-.17.06-.25.09-.15.07-.18.24-.3.34-.04.03.02.09.06.14.12.13.24.26.25.45-.06.01-.07-.06-.11-.07-.1-.02-.18-.1-.29.01-.05.06-.18.06-.27.04-.04 0-.08-.03-.11.02-.03.04 0 .08.01.13.04.08.13.12.19.18.02.02.08.03.05.07-.02.04-.08.04-.1.01-.1-.14-.25-.25-.26-.44 0-.06.02-.14-.05-.16-.08-.02-.17-.04-.24.02-.18.13-.26.12-.44 0-.11-.07-.25-.07-.36-.14-.05-.03-.06.02-.08.06-.05.08-.11.13-.18.02a.068.068 0 0 0-.06-.04c-.03 0-.02.04-.03.06-.04.29-.04.27-.32.29-.16.01-.29-.04-.44-.06-.35-.04-.58.1-.81.32-.03.02 0 .08-.07.06-.07-.15-.07-.16-.18-.04-.11.11-.26.12-.4.15-.08.02-.16.02-.18.14-.01.09-.1.1-.18.1-.07 0-.11.03-.12.1 0 .05-.04.1-.09.11-.14.02-.24.09-.3.22-.17.08-.29.22-.44.32-.03.02-.05.05-.08.07-.03.02-.05.03-.08.02-.04-.02-.03-.06-.02-.09.04-.14.12-.26.19-.38.02-.04.06-.08.05-.13z"/><path d="M0 7.33c.22.06.18.03.32-.22.05-.1.2-.14.28-.07.04.04 0 .06-.02.08-.05.05-.08.1-.01.16.06.05 0 .1-.03.14-.05.07-.05.14.02.2s.1-.03.14-.06c.06-.05.11-.1.16-.16.06-.07.12-.1.21-.06.07.03.15-.04.22-.02.18.07.38 0 .56.08.09.04.17.02.23-.07.06-.11.15-.19.29-.14.06.02.1-.03.11-.08.05-.21.24-.21.39-.25.17-.05.36.05.55-.04.04-.02.12.04.17.08.09.08.17.17.25.25l.02.02c-.11.21.12.21.2.29.08.07.11.12.06.21-.02.04-.04.08-.02.13.02.03 0 .09.06.1.05.01.06-.04.09-.06.05-.04.06-.11.13-.12 0 0 .03.03.03.05 0 .08-.07.1-.12.13-.16.09-.1.26-.12.39-.01.05.03.11 0 .17-.02.06.04.07.08.09.11.05.22 0 .32-.03.08-.02 0-.13.06-.18.01 0 .02 0 .03.01.03.05-.02.16.07.16.1 0 .06-.11.06-.17 0-.12.09-.11.17-.11.06 0 .1.03.15.06.08.04.16.1.24 0 .07-.09.06-.19.02-.28-.04-.07-.08-.14-.13-.2-.07-.08-.01-.1.04-.13.06.06.11.14.17.21.06.06.07.13.06.21-.03.14-.04.28.04.42.02.03.03.08 0 .11-.05.03-.11.03-.17.05-.41.01-.82.01-1.23 0-.29.02-.58-.04-.87-.03-.09 0-.19-.01-.28.02-.15.03-.3.01-.44.01-.07 0-.13.02-.16.08-.03.02-.06.05-.09.02-.06-.1-.15-.09-.25-.09-.23.02-.47.06-.7.04C.97 8.7.59 8.7.2 8.7c-.06 0-.11 0-.15-.04V7.28z" style="fill:#faf0ed;stroke-width:0"/><path class="cls-102" d="M24 11.65c-.13.03-.23.17-.37.12a9.73 9.73 0 0 0-.77-.22c-.07-.01-.15-.09-.17-.16-.05-.14-.17-.17-.28-.22-.06-.03-.1-.06-.1-.15 0-.08-.03-.19-.15-.2-.05 0-.06-.04-.08-.08-.01-.04-.02-.09-.06-.12-.03.04.02.11-.06.12-.06 0-.09-.03-.11-.08-.03-.07-.07-.14-.14-.25-.03.17-.19.25-.12.42.02.06-.03.1-.09.09-.17-.01-.25.09-.31.22-.02.05-.05.09-.11.09-.1-.06-.18 0-.28.04.12.03.19-.07.28-.04.02.09-.04.13-.11.15-.18.05-.36.07-.54.08-.05 0-.11-.02-.11-.08 0-.07-.02-.15.05-.19.05-.04.1 0 .15.04.02.02.03.04.06.05.03-.05.03-.14.12-.14.03 0 .05-.02.03-.05-.08-.11-.07-.22.03-.32q-.08.02-.1.12s-.01.09-.07.08c-.05 0-.06-.05-.06-.09 0-.13.03-.25 0-.39-.02-.06.04-.05.08-.02.04.03.06.08.11.11.06.04.13.08.21.04.04-.02.07-.04.08-.08 0-.05-.04-.06-.08-.08-.12-.06-.24-.12-.38-.08-.09.02-.19 0-.28-.02-.09-.02-.13.02-.14.1-.01.06.03.13-.04.18-.02.02.02.05.04.07.05.05.1.08.15.13.04.04.08.09.03.14-.05.05-.1.04-.15 0-.05-.03-.09-.08-.13-.12-.05-.04-.09-.08-.11.03 0 .08-.06.12-.12.16-.03.02-.09.03-.06.1.01.03-.03.04-.05.04-.1-.02-.23-.01-.26-.15 0-.02 0-.03-.03-.03-.09 0-.15-.04-.14-.13 0-.08.15-.17.23-.16q.12.01.27-.04c-.07-.05-.14-.08-.22-.06-.1.03-.16 0-.21-.09-.02-.07 0-.15-.02-.22.08-.11.23-.06.33-.13.12-.07.22-.11.36-.01.08.05.14-.08.21-.12.06-.04-.01-.09-.05-.11-.07-.05-.09-.14-.18-.17-.06-.02-.03-.06 0-.09.02-.02.05-.02.07-.02.08-.01.16 0 .23.05.04-.11.14-.07.22-.08.26 0 .52-.02.79.01.03.02.06.04.05.08-.06.14 0 .26.05.39-.03-.08-.06-.16-.07-.24 0-.06 0-.14.08-.16.07-.01.1.05.13.1.04.1.08.21.2.24.01 0 .03.01.04.02.18.1.26.1.38-.05.12-.17.33-.21.47-.35.25-.02.5 0 .75-.02.04 0 .12.05.12-.05.03-.07.05-.17.15-.14.07.02.16.05.14.16-.02.02-.06.01-.06.05 0 .03.06.03.08.05.07.09-.02.13-.06.18-.04.05-.12.07-.09.15.03.08.1.08.17.09.07 0 .15.01.21.07v1.47z"/><path d="M0 9.76v-.9c.05-.08.14-.08.22-.07.16 0 .32 0 .48-.04.16-.03.31.03.47.04.08 0 .1.1.11.16.02.1.08.13.17.11.1-.03.23.02.27-.14.01-.06.06-.03.1-.02.05.01.1.02.11.08.01.06 0 .1-.05.13-.13.07-.25.14-.4.15-.09 0-.19 0-.29-.01.14.15.17.15.32.07.1-.05.2-.09.3-.13.08-.03.14-.02.13.09v.01c-.07.06-.14.12-.16.23 0 .05-.07.18-.16.04-.02-.03-.07 0-.1 0-.14.06-.26 0-.35-.1-.06-.07-.1-.09-.17-.02-.02.02-.06.04-.09 0s0-.06.02-.09c.05-.06.05-.12 0-.18C.88 9.1.8 9.05.71 9.06c-.05 0-.08.03-.03.08.03.03.06.07.1.09.11.05.1.11.03.19-.08.09-.21.15-.21.31 0 .05-.07.05-.11.05H.21c-.07 0-.15.01-.21-.04z" style="fill:#f7ebeb;stroke-width:0"/><path class="cls-7" d="M23.73 9.59c-.12-.15-.12-.15-.27 0-.14.09-.29.02-.44.04-.05-.01-.11-.03-.12-.08-.04-.18-.2-.21-.33-.28q.01-.07.14-.08s.07 0 .11-.01h.09c.04.01.11.02.11-.03 0-.07-.06-.03-.1-.04-.08-.01-.05-.06-.04-.11 0-.01 0-.03.01-.04-.01-.18.1-.22.25-.25.14-.03.28 0 .41 0 .11 0 .02.1.06.14 0-.05.02-.08.06-.11.07-.05.13-.08.17.03.03.08.11-.05.14.03v.12s-.04.04-.06.07c-.04.05-.16.08-.14.11.05.1.05.22.1.32.02.04.08.04.11.08v.15c-.1.02-.2.05-.27-.06z"/><path d="M1.92 9.28c0-.06-.01-.11-.08-.06-.12.07-.28.05-.36.2-.02.04-.08 0-.12 0-.12-.03-.21-.09-.24-.23.25.09.48.07.7-.06.04-.03.1-.03.09-.11 0-.11-.07-.01-.1-.05-.01-.02-.03-.04-.07-.03.04.18-.1.14-.2.16-.23.05-.26.05-.3-.16-.04-.18-.17-.1-.24-.11-.07 0-.14-.04-.22-.02-.04.01-.13-.09-.11.05 0 .02-.03 0-.05 0-.1-.04-.18-.02-.28.02-.05.02-.12-.09-.18 0C.1 8.82.05 8.9 0 8.9v-.15c.3 0 .6-.02.9 0 .4.04.78 0 1.18-.04.11 0 .22-.02.21.15.04.02.05.05.06.09v.06c.01.03-.09.02-.03.08.04.04.1.08.07.15-.02.03-.06.03-.09.04-.09 0-.1-.06-.12-.12-.05.02-.1.04-.15.08.13.05.21.18.37.14.03 0 .06.01.06.05 0 .03-.03.05-.05.06 0 .01-.05-.01-.03.02.04.08 0 .13-.06.16-.07.03-.17 0-.17-.06 0-.13-.09-.17-.17-.23-.02-.02-.02-.04-.04-.06z" style="fill:#e8c4cb;stroke-width:0"/><path d="M0 9.76h.24c.14.02.28.03.42-.02.06-.02.13-.01.19-.01.31.02.63.02.94 0 .12 0 .24.05.37.04.08 0 .17 0 .25-.02.26 0 .52 0 .78.05.02.02.02.04 0 .07-.01.02-.03.04-.06.03-.05-.09-.13-.06-.2-.05-.56.04-1.11.04-1.67 0-.15-.01-.3.02-.45.03-.28.02-.56-.05-.83-.03v-.09z" style="fill:#e3c2c7;stroke-width:0"/><path d="m24 10.18-.31-.03c-.08 0-.11-.07-.13-.13-.03-.07.03-.1.07-.13.06-.05.16-.07.13-.18.08-.07.16-.05.24 0v.48z" style="fill:#f6d3d9;stroke-width:0"/><path d="M24 9.49c-.06 0-.09-.04-.14-.09-.08-.08.02-.23-.12-.26.01-.04.03-.11.04-.1.11.02.13-.12.23-.12v.57z" style="fill:#edb5c1;stroke-width:0"/><path d="M24 8.8s-.07 0-.09.03c-.05.07-.08.03-.09-.03 0-.15-.07-.06-.12-.04-.04-.03-.06-.07-.04-.12.07-.05.14-.07.21-.02.03.08.09-.02.12.03v.15z" style="fill:#e4b3be;stroke-width:0"/><path d="M24 9.7H23.72c-.04 0-.1 0-.1-.06 0-.08.07-.04.11-.05l.27.06v.06z" style="fill:#e09dac;stroke-width:0"/><path class="cls-7" d="M24 8.65s-.08.11-.12 0c-.02-.06.02-.09.06-.12H24v.12z"/><path class="cls-55" d="M15.84 12.16c-.16-.02-.32.03-.48-.03-.03-.07-.11-.07-.16-.12q.03-.13.25-.14c-.16-.13-.29-.25-.44-.34-.03-.02-.07 0-.1.02-.06.02-.11 0-.14-.05-.05-.1-.13-.13-.23-.15-.04-.03-.09-.03-.14-.05-.11-.03-.14-.1-.08-.2.06-.1.15-.16.26-.19-.13-.03-.24 0-.3.12-.04.07-.08.13-.17.12-.09 0-.14-.07-.17-.15-.07-.15-.07-.31-.07-.47 0-.16-.06-.3-.15-.43-.12-.17-.04-.34.17-.35.04 0 .07.02.09.04.06.05.11.11.15.14-.03-.02-.08-.08-.13-.12-.06-.05-.1-.07-.18-.04-.12.05-.2-.07-.25-.15a.407.407 0 0 0-.22-.19c-.08-.06-.17-.07-.25-.11-.01 0-.03-.01-.04-.02-.05-.03-.11-.06-.09-.12.03-.06.1-.02.15-.01.27.07.5.21.75.32.11.05.23.1.33.16.03.02.04 0 .06-.02.07-.02.12.02.18.05.04.03.09.04.09.11 0 .02-.1 0-.01.03.14.07.29.13.38.27-.07.07-.08.13.02.18.1.05.13.16.19.24.16.19.33.37.47.58.11.16.16.15.37.09.16-.05.33-.07.45-.22.07-.09.16-.18.25-.26.04-.04.08-.08.11-.12.06-.08.13-.09.19 0 .04.05.06.06.12.02.09-.06.16-.03.18.08 0 .03 0 .06.04.07.01 0 .02 0 .03-.01.02-.04-.02-.04-.03-.05a.048.048 0 0 1 0-.07c.04-.05.08-.04.13-.02.01 0 .02.01.03.02.01.02 0 0 .01.01.12.2.15.2.29.01.04-.01.07 0 .09.03.02.07-.03.14.03.21.02-.04 0-.11.07-.09.06 0 .11.03.14.08.03.05.03.1.06.15.05.07.1.1.16.02.04-.05.09-.06.13-.01.06.08.11.04.18.01.19-.07.4.06.41.23-.11.16-.14.18-.31.19 0 .08.04.15.05.23.03.13-.02.25-.12.3-.11.05-.22-.02-.3-.06-.09-.05-.15-.04-.24 0-.2.08-.41.17-.65.1-.1-.03-.2.01-.29.03-.08.01-.14.01-.17-.08s-.12-.09-.19-.06c-.08.02-.14 0-.22-.05-.16-.11-.35-.15-.53-.04-.08.05-.14.07-.2-.01-.03-.04-.07-.02-.12 0 .13 0 .19.08.17.18-.01.08 0 .09.07.1.02 0 .03.02.04.04-.03.06-.09.04-.14.04h-.02z"/><path class="cls-35" d="M22.8 15.28s.04.08.03.13c-.04.2.06.32.24.4.1.04.09.09.02.14-.03.02-.07.04-.1.07-.08.08-.15.16-.11.3.05.16-.04.32 0 .49.02.06-.05.1-.14.07-.16-.06-.19-.04-.26.11-.06.13-.13.26-.24.36 0 0-.02.01-.02.02-.1.29-.39.34-.61.49-.15.1-.29.23-.45.33-.1.07-.19.12-.31.05-.04-.02-.1-.04-.13-.01-.11.12-.25.07-.38.07-.06 0-.13-.02-.17-.07-.05-.05-.09-.1-.16-.14-.08-.04-.06-.17 0-.22.13-.12.09-.28.09-.42 0-.19-.02-.39.01-.58.03-.14-.02-.29-.02-.43 0-.21.01-.43-.03-.64-.01-.08-.02-.14-.09-.19-.06-.05-.09-.13-.13-.2.06-.06.14-.02.2 0 .41.14.71.41.91.79 0 .07.03.12.06.18.08.22.11.45.13.69 0 .06-.02.12-.05.17-.04.1.04.15.1.19.08.05.11-.03.16-.08.08-.09.16-.15.29-.07.07.04.13 0 .17-.07.02-.04.03-.08.02-.12-.01-.14.05-.24.16-.32.1-.07.15-.16.19-.27-.04-.03-.05 0-.07 0-.04.02-.07.04-.11.01-.04-.03-.03-.08-.01-.12.05-.11.08-.22.11-.34.03-.15.17-.16.28-.19.1-.03.14.04.19.12.05.1.13.09.22.04.1-.06.13-.15.06-.24-.1-.13-.16-.27-.09-.43.01-.03.01-.07.06-.06z"/><path d="m4.2 14.77.06-.06c-.09.37-.17.73-.15 1.12.02.27.1.51.24.73.11.16.11.17-.06.26-.33.16-.68.32-.97.56-.4.34-.78.7-.95 1.22-.02.05-.02.12-.09.12-.04 0-.02-.05-.03-.07.02-.22.11-.42.24-.6.18-.26.4-.48.65-.68.25-.2.5-.39.76-.49-.14.06-.31.16-.51.13-.18-.03-.37-.07-.55-.13-.11-.04-.15-.14-.2-.23-.02-.03-.03-.07-.07-.07-.04 0-.04.05-.05.08-.03.09-.08.16-.14.23-.07.09-.16.11-.27.05a.405.405 0 0 0-.09-.05c-.08-.03-.13-.02-.13.08 0 .27 0 .54.06.8.06.27.09.55.23.8.01.03.02.06 0 .09 0 .02 0 .05-.03.04a.254.254 0 0 1-.12-.13c-.14-.51-.27-1.02-.28-1.55 0-.39.13-.74.28-1.09.08-.2.19-.39.32-.57.06.05.01.08-.01.12-.09.14-.18.29-.2.47.11-.14.31-.17.41-.34.04-.07.12-.04.17-.07h.03c.17-.17.4-.16.61-.2.09-.02.14.02.15.1.04.19.16.29.34.33.08.02.12.06.12.14 0-.06 0-.12-.08-.16-.09-.05-.15-.15-.23-.23-.05-.06-.02-.12.05-.13.23-.03.32-.18.36-.38.02-.08 0-.19.12-.22z" style="fill:#f3dee0;stroke-width:0"/><path class="cls-35" d="M19.74 15.37c-.15.02-.22-.05-.24-.2-.02-.13-.1-.2-.21-.26-.15-.07-.18-.24-.26-.37-.01-.02 0-.06.03-.08.11-.09.09-.23.12-.35.04-.18.04-.37.12-.55.05-.1.12-.14.22-.14h.21c.08 0 .15.03.17.1.04.13.16.17.22.27.06.08.1-.02.16 0 .08.13.04.28.03.42 0 .14-.05.28-.07.43-.03.18-.13.33-.23.48-.03.06-.08.08-.11.09.15.02.33-.03.51.03.1.04.21 0 .3-.05.1-.06.17-.04.24.05.17.24.27.25.52.01.15-.14.22-.29.28-.47.01-.04.04-.07.09-.07.05 0 .04.04.05.08.16.82 0 1.57-.49 2.25-.01.02-.03.04-.05.06-.05.05-.09.13-.17.11-.07-.02-.04-.1-.04-.16-.04-.29-.07-.57-.18-.84-.24-.43-.56-.76-1.07-.83-.04 0-.09-.02-.13-.03-.02 0-.04 0-.06-.01.02.01.05.02.03.05z"/><path d="M20.97 16.18c.14.17.13.38.17.57.03.13.03.28.04.45.34-.34.53-.74.64-1.17.12-.43.09-.87.02-1.31-.05-.01-.07.02-.07.05 0 .13-.11.22-.1.34 0 .01-.01.04-.02.04-.19.04-.24.29-.46.31-.06 0-.08.01-.13-.04-.06-.08-.14-.13-.19-.22-.03-.05-.07-.05-.1-.02-.16.13-.33.1-.52.05-.11-.03-.25 0-.38-.01h-.06c.04-.07.13-.04.16-.11.21-.22.29-.5.31-.79 0-.04.02-.08.03-.11.04-.04.08-.02.12-.01.12.03.19-.02.22-.14 0-.03.02-.06.03-.08.17-.26.1-.49-.07-.72-.04-.05-.04-.32-.01-.37.02-.03.05-.04.08-.03.08.02.19.02.24.08.11.14.3.2.37.38.02.04.03.1.09.08.06-.02.08-.08.04-.15-.25-.52-.68-.88-1.14-1.2a10.8 10.8 0 0 0-.72-.45c-.06-.03-.11-.07-.12-.14 0-.01 0-.03.01-.04.2.06.36.17.51.3l.06.03c.12.03.23.1.3.21.17.14.37.25.54.4.49.45.82.99.96 1.64.09.15.1.32.12.49.06.59.04 1.18-.06 1.76-.01.07-.04.14-.08.21-.09.2-.21.39-.33.57-.06.09-.12.17-.22.22-.07.03-.15.08-.22 0 .1-.32 0-.62-.11-.92-.02-.05-.03-.09 0-.13 0-.01.02-.01.03 0z" style="fill:#f5d6e1;stroke-width:0"/><path class="cls-79" d="M15.21 12.01c.06.03.2-.04.15.12-.53-.12-1.05-.3-1.54-.53-.18-.08-.33-.2-.46-.34l-.21-.21c-.23-.15-.4-.35-.56-.58-.12-.17-.22-.34-.28-.54-.02-.08-.08-.1-.16-.1h-.4c-.06 0-.12 0-.18-.02a.63.63 0 0 1 0-.36c.04-.16.03-.16.19-.24-.16.04-.27-.05-.38-.12-.02.1-.09.13-.18.13a.755.755 0 0 0-.21-.26c-.15-.11-.25-.1-.37.04-.04.05-.08.11-.14.13-.04 0-.04-.05-.07-.07-.08-.04-.06-.08 0-.13.08-.07.07-.11-.03-.14a.771.771 0 0 1-.25-.1c-.09-.05-.06-.16-.13-.21 0 0 0-.03.01-.04.1-.09.11-.26.26-.31 0 0 .02-.01.03-.01.19.08.42.09.58.24.09-.24-.01-.4-.18-.54-.25-.22-.48-.45-.77-.61-.04-.02-.09-.04-.1-.1 0-.03.03-.05.07-.05.14.02.23.13.35.18.35.26.65.55.88.92.07.11.13.16.26.08.12-.07.26-.06.39-.06.05 0 .12 0 .14.05.02.06-.02.11-.06.16a.7.7 0 0 1-.1.08c-.1.04-.2.02-.3-.02-.08-.03-.12-.03-.11.07.01.11.01.22.07.31v.01c.01 0 .01-.02.02-.03.09-.06.22-.02.21.08 0 .07.02.06.05.06.16.01.31-.08.46-.09.1.03.2.06.26.16.02.06-.05.08-.05.15.04.01.06-.03.1-.03.07 0 .13.06.1.13-.09.17-.01.32.04.46.02.07.04.11-.04.14-.06.02-.07.07-.05.11.06.1.1.23.21.28.08.05.09.11.1.18.01-.01 0-.03 0-.04q.01-.24-.22-.34s-.08-.05-.09-.09c0-.05.02-.07.06-.09.08-.03.08-.09.03-.14-.07-.07-.06-.13 0-.2.05-.04.01-.08 0-.12-.01-.08 0-.15.05-.21.06-.08.1-.07.14.02.04.09.12.14.16.23v-.03c-.03-.08-.12-.16-.07-.23.06-.08.13.07.21.04.08.04.19.03.24.12 0 .01 0 .02.02.02.04.04.12.05.1.11-.02.06-.09.01-.13 0-.06-.01-.09.02-.07.07.06.2.05.41.15.6.05.08.07.18.02.27-.05.09.04.19-.02.28q-.23.05-.34-.05c.04.06.11.12.22.1.05 0 .1.03.12.08.02.05 0 .09-.05.11-.08.04-.02.07 0 .1.16.18.37.3.58.42.22.12.46.19.69.28.09.03.18.06.28.09.01 0 .03 0 .04.02.06.05.14.03.21.05.02 0 .03.03.04.05z"/><path d="M11.55 9.8h.64c.06 0 .11 0 .14.08.11.38.34.68.61.96.07.07.14.14.2.22-.19.05-.38.06-.54.19-.08.06-.17 0-.22-.06-.07-.08-.11-.08-.15.02-.1.23-.29.33-.52.36-.12.02-.15.12-.19.21-.03-.12-.11-.16-.24-.15-.14 0-.28-.01-.41-.03-.1-.01-.14-.1-.22-.15-.02-.06.02-.1.06-.14.17-.2.32-.41.46-.64.04-.1.09-.21.17-.28.06-.05.03-.12.04-.18.06-.13.08-.29.18-.41z" style="fill:#f8ebe8;stroke-width:0"/><path class="cls-51" d="m19.98 11.71-.51-.3c-.22-.06-.39-.23-.58-.34-.03-.02-.03-.05 0-.08.07-.07.15-.1.24-.1-.12 0-.23.07-.35.05-.05-.04-.01-.11-.05-.16a.457.457 0 0 1-.15-.28c0-.03-.01-.07.03-.09.05-.02.07.02.09.05.01.03.02.06.03.08.03.06.06.07.12.04.14-.08.31-.05.46-.08.06.04.09.12.2.05.07-.05.16.05.25.06.02 0 0 .08-.02.12-.1-.07-.18.11-.29.01-.04-.04-.23.1-.21.15.02.04.05.11.12.06.04-.03.07-.02.09 0 .05.05-.02.05-.03.07-.03.04.01.05.04.06.06.04.14.05.21.07.01-.07-.08-.03-.07-.09.13-.04.26-.06.24-.26 0-.07.07-.07.12-.02.06.05.11.11.17.17.04.04.08.05.12 0 .04-.05 0-.08-.04-.11l-.15-.12c-.08-.07-.08-.07 0-.14.02-.02 0-.03 0-.05-.02-.09.01-.19.07-.23.05-.03.15 0 .23 0 .08 0 .17.02.25 0 .07-.02.12-.01.17.02.06.04.11.08.19.09.05 0 .11.08.08.12-.05.07-.11.15-.21.13-.13-.02-.21-.11-.3-.21.12.15 0 .32.03.49.08-.06.04-.13.06-.19.03-.08.06-.08.13-.06.11.04.02.09 0 .11-.08.09-.09.17 0 .26.05.05.03.12-.06.1-.09-.02-.1.02-.08.09 0 .04 0 .07-.04.08-.04 0-.07 0-.08-.05-.01-.07-.06-.12-.13-.08-.06.03-.04.12-.03.17 0 .06.07.05.13.04.14-.02.29-.03.43-.06.1-.02.14-.05.16-.13s.07-.06.09-.11c.06-.14.13-.26.33-.22.06.01.07 0 .04-.08-.02-.06-.02-.12.02-.17.06-.06.08-.13.1-.2.01-.03 0-.08.05-.08.04 0 .07.03.08.08 0 .09.1.13.11.22 0 .02.04.04.08.04l.02-.02c0-.05-.1-.11-.01-.13.08-.02.14.05.14.13 0 .12.05.12.12.05.09.14.1.3.18.44-.19 0-.4.04-.55-.13-.04-.05-.14-.07-.19 0-.08.12-.19.12-.31.1.03-.11.15-.06.19-.12q-.21.04-.22.12c-.1.06-.23.08-.21.24 0 .05-.06.07-.1.08-.18.04-.3.2-.48.23-.13.02-.24.02-.36-.04-.08-.04-.16-.07-.19.06z"/><path d="M21.06 17.23c.18.04.29-.07.38-.2.14-.21.27-.42.37-.65.08-.19.09-.39.11-.58.06-.59.06-1.17-.08-1.75v-.06c.07.07.15.13.22.2.12.14.28.24.43.36.23.19.36.42.32.72-.08.17-.08.32.06.46.06.06.09.13.04.2-.05.08-.12.15-.22.15-.09 0-.14-.03-.16-.12-.01-.05-.06-.12-.12-.09-.09.04-.22.01-.26.14-.04.14-.06.28-.14.41-.01.02-.01.05.01.07.03.02.05 0 .07-.03.03-.04.06-.1.12-.05.05.04.03.1 0 .15-.05.1-.12.2-.22.26s-.12.14-.12.25c0 .12 0 .23-.16.26h-.07c-.15-.16-.22 0-.29.08-.05.05-.09.12-.15.07-.07-.06-.19-.12-.14-.25z" style="fill:#fbeded;stroke-width:0"/><path d="M2.19 18.64c-.27-.54-.34-1.11-.33-1.71 0-.13.04-.16.16-.11 0 0 .02 0 .03.01.1.04.2.17.3.03.06-.09.16-.17.15-.3 0-.04.02-.08.06-.09.06 0 .08.04.1.08.07.15.14.3.33.3.13 0 .25.07.38.09.18.02.35-.04.52-.11.06-.02.11-.07.19-.07-.03.07-.09.08-.13.1-.56.29-1.04.68-1.43 1.19-.13.17-.16.38-.26.57H2.2z" style="fill:#faf1ef;stroke-width:0"/><path d="M3.87 13.75c.16-.2.31-.42.51-.58.22-.19.42-.39.63-.6.03-.03.07-.06.09-.1.03-.04.05-.08-.03-.1-.22-.07-.24-.11-.09-.28.12-.14.28-.25.43-.36.06-.04.11.02.13.08.03.06.04.12.05.19 0 .07.03.11.12.06-.2.21-.42.37-.63.54-.03.03-.07.06-.1.09-.01.01-.05.03-.02.06.14.11.05.23 0 .33a.55.55 0 0 1-.24.26c-.04.03-.09.07-.06.12.09.12.03.23-.01.34-.02.05-.06.09.02.13.08.05.01.1-.03.12-.13.09-.29.15-.37.31-.02.04-.06.03-.09.02-.12-.06-.2 0-.26.1-.02.03-.05.06-.06.1-.03.1-.08.13-.19.1-.05-.02-.11 0-.16.02-.03.02-.07.05-.11.02-.04-.04 0-.08.02-.12.01-.03.03-.06 0-.12-.14.08-.28.17-.41.25-.03.02-.06.05-.09 0l.39-.27c.25-.17.41-.42.54-.69z" style="fill:#f7e2e5;stroke-width:0"/><path d="M18.12 12.25c-.1.08-.21.15-.11.32-.21-.13-.32-.11-.46.04-.07.09-.15.14-.27.07-.05-.03-.09-.01-.14.01-.22.12-.3.11-.49-.05-.05-.05-.13-.05-.19-.03-.1.04-.15 0-.22-.06-.15-.12-.28-.26-.41-.39.24-.02.48 0 .73-.01.46-.01.92-.04 1.38 0 .05 0 .11 0 .16.02s.06.05.01.09z" style="fill:#f9e2e4;stroke-width:0"/><path d="M15.87 12.85c.16.02.28.08.39.21.06.07.11.13.07.22-.04.1-.13.12-.21.11-.12-.02-.23-.07-.35-.03-.05.02-.07-.03-.09-.07-.05-.15-.01-.29.03-.43.05.07.1.04.15 0z" style="fill:#f8e7e8;stroke-width:0"/><path d="M18.12 12.25c.02-.12-.07-.06-.11-.06-.44-.01-.88-.03-1.33 0-.28.02-.57.03-.85-.03.04-.05.1-.02.15-.03.06-.06.13-.04.2-.04h2.19c.5 0 .98.12 1.46.23.04.01.08.03.11.07.02.03.02.05 0 .08-.17-.11-.37-.1-.55-.14-.36-.09-.74-.08-1.11-.12-.07 0-.1.06-.17.06z" style="fill:#e7cbd3;stroke-width:0"/><path d="M19.95 12.47v-.06c.05-.06.11-.14.19-.03-.09.1-.07.22 0 .32.13.21.17.44.2.68.03.22.06.44.04.67 0 .06 0 .12-.04.17 0 .25-.08.48-.19.71-.04.08-.08.16-.17.2.06-.14.18-.26.21-.42.06-.3.1-.6.09-.9 0-.42-.13-.8-.29-1.18-.02-.05-.04-.09-.04-.14z" style="fill:#e2adbc;stroke-width:0"/><path d="M13.08 12.71c0 .14-.08.17-.19.17-.13 0-.21-.08-.21-.2 0-.12.07-.19.2-.19s.2.08.19.22z" style="fill:#f7e3e4;stroke-width:0"/><path d="M14.43 14.07c0 .17-.11.28-.26.28-.08 0-.12-.04-.13-.12 0-.11.13-.3.2-.29.08.02.17.04.18.12z" style="fill:#f7e5e8;stroke-width:0"/><path d="M20.97 16.18h-.03c-.16-.2-.29-.42-.51-.55-.18-.11-.35-.23-.57-.23l-.12-.03c-.02-.04-.08-.01-.11-.07.33 0 .62.08.87.28.18.14.32.32.45.51.01.02.01.06.02.09z" style="fill:#f0d4db;stroke-width:0"/><path d="M15.31 13.68c.06 0 .13.02.18.08.04.05.05.11 0 .17-.04.05-.1.04-.15.03-.03 0-.06-.06-.09-.03-.07.05-.13.04-.15-.03-.02-.09.04-.15.11-.19.02-.01.06-.01.1-.02z" style="fill:#f4e1e5;stroke-width:0"/><path class="cls-102" d="M21.33 11.14s-.08-.01-.08-.07c0-.04.04-.05.08-.05.08-.01.17-.02.24-.07.03-.02.06-.03.08 0 .02.03-.02.05-.04.07-.06.08-.17.06-.25.11h-.03z"/><path class="cls-51" d="m20.34 11.95-.3-.21c.15-.05.23 0 .3.21z"/><path d="M15.18 15.49c.03-.05.07-.11.14-.12.05 0 .05.04.05.09-.01.07-.04.09-.12.09-.04 0-.06 0-.07-.05z" style="fill:#d4a5b5;stroke-width:0"/><path d="M14.59 13.56c-.07 0-.15.06-.2-.03 0-.01.02-.07.04-.07.07-.01.13.03.16.1z" style="fill:#e0b4c3;stroke-width:0"/><path d="M15.87 12.85c0 .05-.03.1-.08.1-.06 0-.08-.05-.07-.1.05-.03.1-.06.15 0z" style="fill:#e197ab;stroke-width:0"/><path d="M14.37 14.91s-.02.07-.07.07c-.04 0-.06-.03-.06-.07 0-.03.02-.06.06-.06.04 0 .06.03.07.07z" style="fill:#cdabb7;stroke-width:0"/><path class="cls-42" d="m13.68 6.43.27-.21c.03.02.09-.01.09.05 0 .03-.02.05-.04.05.1-.11.24-.18.37-.26.04-.03.09-.07.15-.04 0 .1.03.15.13.07.11-.08.25-.12.35-.24.11-.14.25-.1.38-.03.11.06.19.07.29-.03.07-.07.16-.1.25-.02.03.02.06.02.1 0 .07.12.02.22-.05.32-.06.07-.06.13-.01.2.06.1.12.19.18.29.12.2.22.41.3.63.04.11.07.22.04.34 0 .03 0 .06.02.08.02.02.05 0 .07-.02.11-.14.26-.14.42-.14.09 0 .17 0 .26-.05.1-.06.11.07.15.12v.06c.05.19.12.21.27.08.03.08.03.18.13.21.03.01.04.06.01.09-.1.11-.06.24-.06.37-.15-.05-.25.03-.34.15-.05.06-.11.15-.19.09-.09-.06-.03-.15.02-.23q.08-.13.11-.4c-.08.03-.14.07-.2.12-.05.04-.08.06-.13.01-.05-.05-.02-.09.02-.13.06-.05.1-.11.14-.17.02-.03.04-.07.02-.11-.03-.05-.07-.05-.12-.05-.12 0-.21.08-.3.15-.06.05-.13.11-.2.16-.06.03-.12.07-.18.11-.16.08-.3.18-.46.27-.2.13-.44.2-.66.31-.04.02-.09.03-.13 0-.04-.05-.06-.1-.04-.17.01-.03.04-.04.07-.05q.14-.07.03-.18c.06-.14.1-.15.25-.07 0-.06-.04-.06-.07-.07-.04-.01-.1-.02-.08-.08.01-.05.06-.06.1-.07.05-.01.13.06.15 0 .02-.11.09-.19.1-.29 0-.09-.19-.2-.29-.16-.22.06-.23.07-.24-.16a1.51 1.51 0 0 0-.28-.79c-.06-.09-.11-.1-.17 0-.03.04-.03.08-.05.12-.03.04-.07.11-.11.09-.11-.04-.18.08-.28.06-.02 0 0-.01-.01 0-.04.14-.2.12-.28.21-.04.11-.1.17-.22.14-.05-.01-.09.01-.12.05-.05.06-.1.11-.19.04-.1-.08-.13-.18-.08-.28.07-.12.16-.22.25-.32.05-.06.1-.11.08-.2z"/><path class="cls-5" d="M5.52 8.65a.634.634 0 0 1-.08-.55c.03-.09-.04-.14-.09-.19-.05-.06-.11-.11-.1-.19-.01-.1.07-.15.13-.18.14-.08.25-.27.24-.42a.35.35 0 0 1 .2-.36c.04-.02.09-.04.07-.11-.03-.13.07-.07.1-.05.13.07.26.1.39 0 .05-.04.11 0 .15.03.07.03.14.03.17-.04.07-.17.17-.11.26-.03.02.03 0 .06-.01.08-.04.14.02.23.16.27.14.04.29.09.41.19.03.15-.04.28-.07.42-.03.12-.08.23-.12.35-.1.28-.26.52-.39.78-.03.06-.08.09-.15.08-.11-.02-.22 0-.32-.03-.09-.06-.19 0-.29 0-.05 0-.11 0-.16.01-.17 0-.34.04-.5-.07z"/><path class="cls-18" d="M7.5 7.09c-.17-.03-.3-.15-.48-.16-.12 0-.15-.24-.06-.38.04 0 .07.04.11.05.06.02.14.03.16-.06.03-.1.09-.14.19-.15.05 0 .12-.04.15-.09.1-.12.25-.16.37-.24.17-.12.39-.1.59-.09.08 0 .18 0 .26.04.08.04.13.08.06.17-.03.04-.03.07 0 .11.12.16.22.34.41.43.05.03.1.02.11-.06.01-.07.06-.11.14-.11.2 0 .4-.02.6-.03.2 0 .35.08.47.24.14.18.28.34.54.3.03 0 .08 0 .09-.03.08-.23.32-.14.46-.26.05-.04.11.02.16.06.18.16.2.37.18.59-.05.04-.1 0-.13-.03-.12-.11-.28-.13-.42-.17a.22.22 0 0 0-.16 0c-.35.14-.7.13-1.05.05l-.33-.18c-.11-.02-.21-.06-.31-.1-.33-.14-.69-.16-1.04-.21H7.74c-.05 0-.1 0-.12.06-.07.06-.07.14-.07.22 0 .01-.01.02-.02.03z"/><path d="m23.94 8.53-.06.12c-.07-.05-.14 0-.21 0-.04.04-.09.04-.14.04-.18-.02-.36.02-.54 0-.13-.04-.27-.02-.41-.02h-.69c-.24 0-.47.02-.71.05-.1.05-.19-.07-.3-.02h-.05c-.3.01-.61-.02-.91.01-.1.05-.19.1-.3 0-.03-.03-.09 0-.13 0-.11 0-.19-.05-.18-.18.07-.03.14-.11.22 0 .01.02.05 0 .05-.02-.01-.09.06-.16.02-.25-.01-.03-.03-.06 0-.08.04-.02.06.02.08.05 0 0 0 .02.02.03.04.03 0 .13.08.1.07-.03.04-.1.02-.16-.07-.19-.19-.33-.42-.36.2-.03.39-.08.58.01.14.06.26.14.38.23.02.01.02.03.02.05 0 .09.04.09.09.05.11-.1.15-.07.15.07 0 .02.01.04.02.05.21-.1.37-.28.55-.42.14-.1.31-.08.46-.16.03-.02.08-.02.12-.05.07-.06.12-.07.19.03.04.07.15.12.09.22-.05.08-.15.03-.22.04-.03 0-.06.01-.08-.02 0-.03.02-.03.04-.04.04-.02.1-.04.07-.09-.02-.05-.08-.02-.12-.01-.16.02-.27.06-.26.26 0 .06.01.17-.08.22-.05-.07.04-.24-.15-.22-.09 0-.14.07-.14.15 0 .13.11.13.21.12-.02.08-.07.1-.12.13-.02.01-.04.03-.03.06.01.02.04.02.07.02.12-.04.22-.1.27-.22.09-.23.57-.3.75-.17.1.07.13.16.16.26.05.17.07.18.24.13.1-.03.21 0 .3-.05.04-.03.08-.02.12 0 .07.14.12.15.22.04.15-.16.31-.18.49-.06.05.03.1.07.16.08z" style="fill:#f8ebe9;stroke-width:0"/><path class="cls-43" d="M13.68 6.43c.07.06.06.11 0 .17-.11.1-.21.23-.29.35-.05.07.02.25.11.27.05.01.08-.03.09-.06.03-.07.1-.09.16-.07.12.04.16-.02.18-.12.22-.06.44-.03.65.05.1.03.26.26.25.37-.01.11.08.33.17.35.14.03.18.1.11.23.02.02.03.02.05.02.06-.01.13-.01.16.05.04.07-.04.09-.07.13-.07.08-.16.14-.2.24-.03.08-.1.07-.14.02-.08-.11-.17-.13-.28-.04-.04.03-.1.04-.16.02a.854.854 0 0 0-.24-.09c-.04 0-.08 0-.1-.05-.02-.05.02-.08.06-.11.08-.07.16-.15.19-.27.02-.06.04-.12-.06-.12-.04 0-.06-.03-.08-.06a.15.15 0 0 0-.14-.09c-.19 0-.39-.01-.56.1-.05.03-.1.06-.15.03-.06-.04 0-.09 0-.13.02-.06.03-.1-.06-.08h-.03c-.07-.02-.07-.14-.15-.11-.06.02-.09.1-.14.15-.06.07-.1.15-.16.21-.12.11-.07.27-.13.4-.02.04.02.05.05.05.04 0 .09 0 .12.05-.01.17-.16.13-.26.16-.03 0-.06.01-.09.01-.17 0-.2-.04-.13-.19v-.06c.01-.13.12-.2.19-.29.22-.32.44-.65.67-.97.13-.18.25-.36.41-.5z"/><path d="m12.6 7.9-.18.3c-.03.09-.07.16-.18.11a.89.89 0 0 0-.48-.08c-.17 0-.34.01-.48.11-.08.05-.09-.02-.12-.06-.17-.27-.36-.52-.6-.73-.11-.1-.22-.19-.33-.28.02-.04.06-.02.09-.02.33.05.65.07.96-.08.04-.02.08-.02.13 0 .22.04.41.13.59.25.07.06.13.11.22.13.11.02.14.1.14.21 0 .13.12.19.24.14z" style="fill:#fae8e8;stroke-width:0"/><path d="M17.4 7.54c-.06-.05-.09-.15-.2-.04-.05.05-.18.02-.27 0a.357.357 0 0 0-.34.15c-.02.03-.04.09-.09.04-.04-.03-.08-.06-.06-.12.05-.21-.05-.39-.13-.59-.11-.28-.29-.51-.43-.77-.03-.05-.02-.07.02-.1.11-.09.13-.22.12-.35l.03-.03c.18.05.4 0 .51.21.02.03.06.04.09.06.11.38.38.67.57 1.01.01.02.02.04.03.07.05.15.15.26.31.23.21-.03.11.1.12.17-.06-.07-.1-.15-.21-.12-.1.03-.06.11-.07.17z" style="fill:#f6dae0;stroke-width:0"/><path class="cls-8" d="M16.41 8.02c.06-.04.11-.09.18-.09.17-.08.33-.02.48.06-.03.03-.07.05-.01.09.05.04.04 0 .06-.03.06-.06.17-.05.2-.16 0-.01.04.02.06.03.03.03.06.05.03.1-.07.14-.04.31-.17.42-.03.03-.03.09 0 .12.05.04.08 0 .11-.04.05-.05.09-.11.13-.16.08-.09.18-.11.27-.02l.27.33c-.03.04-.07.04-.11.03-.39-.02-.77 0-1.16-.02h-.26c-.05-.01-.11-.02-.12-.09 0-.06.03-.1.08-.13.11-.07.23-.14.29-.27.02-.04.07-.09.04-.14-.03-.05-.1-.02-.15-.02-.05 0-.11.03-.16.03-.03 0-.06 0-.06-.05z"/><path class="cls-32" d="M16.62 8.66c.47 0 .94.02 1.41.03.11.05.21-.02.31-.03.27-.03.54.03.81 0h.07c.04-.12-.13-.18-.09-.33.07.09.1.18.18.22.05.12.12.18.26.13.04-.01.09-.03.12.05.05.09.12-.01.18-.03.03 0 .06 0 .07.03 0 .16 0 .16-.16.15-.06 0-.12 0-.17-.03-.05-.01-.12-.07-.13.05 0 .04-.05.05-.09.06h-.04c-.07-.06-.13-.16-.25-.08-.01.02 0 .04.02.05.04.02.1.03.09.09-.01.06-.08.06-.13.08-.17.07-.34.01-.51 0-.04 0-.07-.02-.09-.05-.05-.07-.12-.1-.19-.14-.1-.06-.13 0-.19.04-.04 0-.05-.02-.06-.05-.02-.07-.08-.09-.13-.06-.07.04-.17.01-.22.13-.03.08-.12 0-.18 0-.04 0-.09-.03-.06-.09 0-.01.04-.03.01-.03-.1.01-.19-.06-.28-.02-.09.04-.17.04-.25-.03-.04-.04-.09-.05-.14-.02-.05.02-.1 0-.15-.02-.03-.02-.07-.04-.06-.09z"/><path d="M14.52 6.01c-.18.11-.36.22-.53.33.08-.07 0-.09-.04-.12.32-.19.64-.39.97-.55.4-.2.82-.34 1.27-.39.01 0 .03.01.09.04-.67.1-1.24.34-1.76.69z" style="fill:#f0d7dd;stroke-width:0"/><path class="cls-42" d="M16.65 6.01c-.14.07-.14-.1-.22-.14-.05-.03-.07-.07-.14-.04-.1.04-.16-.06-.24-.08.04-.05 0-.1 0-.16 0-.09.02-.14.13-.14.18 0 .27.06.3.24.02.12.15.2.16.33z"/><path d="M23.07 8.47h-.12c-.09-.04-.19-.08-.28-.12-.1-.03-.11-.1-.11-.19 0-.05 0-.11.07-.11s.02.06.03.09c.02.11.1.16.19.2.1.05.13-.02.18-.07.11-.1.23-.05.37 0-.12.07-.23.13-.33.19z" style="fill:#f3e0df;stroke-width:0"/><path class="cls-42" d="M15.55 5.74s-.06-.02-.05-.05c.02-.06.05-.13.12-.15.03 0 .06.02.05.05-.02.07-.08.11-.13.14zM15.98 5.58s-.04.08-.08.06c-.04-.02-.07-.06-.07-.1 0-.03.03-.03.06-.03.05 0 .08.03.1.07z"/><path d="M10.44 10.87c.06.17.02.3-.16.37-.09.04-.14.13-.15.23 0 .11-.05.13-.14.11-.13-.04-.24-.02-.34.09-.1.11-.27.08-.38.19-.07.07-.14.12-.12.23.02.12-.07.19-.11.29-.02.04-.13 0-.21.02-.08.02-.16 0-.21.11-.03.07-.09.03-.1-.03-.02-.11-.05-.11-.18-.09-.34.05-.69.08-.95-.22a.38.38 0 0 0-.13-.09c-.08-.02-.15-.05-.2-.12-.07-.09-.18-.11-.28-.11-.08 0-.07-.02-.07-.08 0-.12.1-.1.16-.14.07-.04.08.03.11.06.07.08.14.07.2-.02 0 0 .01-.02.02-.02.05-.26.28-.32.46-.44.03-.02.08-.03.09 0 .08.15.25.09.36.18.05.04.12.01.16-.06-.02-.05-.07 0-.1-.05.12-.05.24-.03.36-.04.09 0 .13-.05.16-.13s.07-.16.12-.24c.1-.16.26-.22.44-.23.22-.01.25.02.21.23-.01.06-.07.15.03.18.09.02.17-.02.18-.13.01-.11.08-.18.15-.25.05-.05.11-.09.18-.02.07.05.13.01.2-.02.08-.04.15-.09.23-.02.07.07.04.15 0 .22 0 .02 0 .04.02.05z" style="fill:#f9dbe0;stroke-width:0"/><path class="cls-67" d="M6.87 11.17c-.15-.04-.13-.21-.21-.3-.03-.04 0-.08.07-.06.19.05.26-.15.4-.21.02 0 .01-.04 0-.05-.01-.02-.03-.02-.05-.01-.07.04-.1 0-.12-.05-.03-.11-.11-.16-.21-.18-.05-.01-.1-.05-.11-.09-.02-.05.04-.07.08-.09h.01c.06-.08.21-.13.18-.24-.03-.1-.16-.03-.24-.05-.02 0-.03-.02-.05-.03.03-.04.07-.04.11-.04h.19c.1.02.19.06.24.16 0-.09.02-.14.1-.16.31-.02.61 0 .92 0 .2 0 .38.07.58.09.18.06.36.14.56.1.05-.01.11.01.16.04.03.02.07.06.05.08-.12.1-.05.3-.25.36-.27.09-.55.17-.82.26-.19.06-.37.14-.55.22-.07.03-.15.03-.22.08-.06.04-.1-.02-.12-.07-.02-.04-.04-.09-.09-.09-.07 0-.04.07-.06.1-.03.12-.34.35-.45.35-.07 0-.06-.08-.09-.1z"/><path class="cls-52" d="m8.76 9.88-.57-.09c-.04-.05-.13 0-.16-.07-.18-.07-.38-.11-.57-.17-.12-.03-.24-.07-.34-.14-.12-.15-.11-.15.03-.28.11-.1.22-.11.34-.1.18.01.37 0 .53.11 0 .03-.02.07.04.08.11.02.21.07.32.04.07-.02.14.01.2.03.32.1.66.18.99.21.29.02.58.04.86-.02.13-.03.24.02.35.05.07.02.13.02.2-.02.14-.07.18-.05.24.09.03.06.05.11.11.13.1.04.1.11.07.2-.05.18-.15.33-.24.5 0 .01-.01.02-.02.03-.07.05-.14.11-.24.09-.02-.05.05-.06.05-.11a.488.488 0 0 0-.44.03c-.09.06-.15.09-.2-.04-.02-.07-.08-.1-.16-.09-.05 0-.09 0-.13-.02-.05-.03-.11-.01-.13.03-.06.11-.17.16-.24.26-.03.04-.07.11-.12.08-.07-.04 0-.11.01-.17-.09.07-.19.12-.29.15-.3.01-.44.2-.52.47-.03.09-.08.16-.2.1.07-.11.17-.21.22-.34.05-.13.18-.22.32-.26.13-.03.26-.04.36-.16.11-.1.26-.15.38-.23.27-.17.52-.37.77-.53-.14.06-.29.17-.43.27-.06.04-.11.09-.19.08-.05-.03-.02-.06 0-.09.04-.05.09-.07.08-.17-.01-.08.13-.04.18-.08-.35.09-.71.14-1.08 0 0 .03 0 .07-.04.09 0 0-.29-.05-.3-.06-.02-.02-.01-.05 0-.07.02-.04.07-.06.1-.09-.17-.05-.29 0-.36.14.16.01.33.03.48.08.03 0 .09 0 .08.06-.01.06-.07.05-.11.05-.08-.01-.14-.06-.23-.06z"/><path class="cls-45" d="M3.21 9.85c-.22-.05-.45-.04-.67-.06h-.1c-.04-.07.02-.09.06-.13.27 0 .55.01.82 0-.06-.02-.12-.01-.18 0-.22.05-.38-.06-.53-.18-.03-.02-.07-.06-.05-.1.02-.04.06-.02.09-.03.23-.03.47-.02.68-.13.07-.03.15-.03.21.03.05.05 0 .11-.01.15.02-.1.08-.1.18-.08.14.03.23-.03.23-.16 0-.08-.02-.15-.13-.13-.06.01-.11.02-.14-.05-.03-.07.04-.08.07-.11.08-.12.13-.1.21 0 .17.21.18.2.27-.07.02-.03.04-.04.07-.04.15.04.08.2.15.29.06-.1-.02-.23.09-.3h.06c.03.03.03.07.03.11 0 .07 0 .1.09.09.11-.01.09.08.07.15.09.02.16-.02.24-.03.08-.01.14 0 .16.09.01.05.03.08.07.11.06.03.07.08.04.14-.02.04-.03.08.03.1.03.01.06 0 .08-.02.04-.04 0-.07-.02-.1-.03-.04-.05-.09-.07-.13-.02-.05-.05-.1 0-.15.05-.05.12-.08.18-.05.21.11.47.06.67.19.05.04.16.01.15.11 0 .1-.1.11-.17.13.06.02.13.01.19.04.05.03.08.06.08.12s-.06.07-.11.08h-.21c-.39.02-.78.05-1.17.04-.45 0-.91.02-1.36.03-.03 0-.06 0-.08.03 0 .02-.02.04-.03.05-.03.07-.04.17-.14.17s-.13-.09-.16-.17c.01 0 .02-.02.03-.03.07-.02.07.09.15.08 0-.08-.1-.06-.12-.11z"/><path class="cls-63" d="M6.12 9.7h.15c.04 0 .1.02.11-.04 0-.06-.04-.1-.1-.11A.64.64 0 0 1 6 9.48c.1-.02.17-.04.24-.06.03 0 .05-.03.05-.07 0-.04-.03-.04-.06-.05-.19-.06-.37-.18-.59-.14-.05 0-.09-.07-.15-.08-.06-.02-.11 0-.15.04-.05.04 0 .08.02.12.02.06.03.12.09.16.05.03.06.09.01.13-.05.04-.13.06-.19.03-.05-.03-.05-.07-.02-.11.06-.08.07-.14-.05-.15-.05 0-.03-.04-.03-.07 0-.12-.06-.13-.16-.1s-.2.06-.3.02c-.02-.05.03-.04.05-.06.02-.03.05-.06.01-.09-.03-.02-.05-.02-.08 0-.02.02-.03.07-.08.03-.04-.03-.04-.06-.03-.1.01-.05 0-.11.01-.16.21-.07.43-.08.65-.05.05 0 .1 0 .13-.05.04-.04.1-.02.15-.03.18.03.36.04.54.03.12.02.24.03.36.03.1 0 .2 0 .28.06.02.02.06.03.08.01.13-.07.12.02.12.1v.04c-.03.21.03.37.23.47.29.12.6.19.9.28v.02c-.09.06-.18 0-.27 0-.12-.02-.24-.05-.36-.1.05.11-.01.14-.1.14-.13 0-.27.02-.4.01-.06 0-.13 0-.18.04h-.54c0-.05-.08-.03-.06-.09zM8.76 9.88c.11-.05.2.07.34 0-.22-.05-.41-.08-.61-.09.02-.19.31-.33.47-.22.04.03.04.06-.01.07-.07 0-.11.05-.15.11.09 0 .2-.06.25.06.02 0 .04 0 .05-.02.04-.06-.06-.06-.04-.13.4.2.81.11 1.25.03-.1.08-.19.09-.3.13.13.04.1.07.03.12-.04.03-.11.04-.09.11v.03c-.17.13-.35.25-.57.3-.23.14-.5.17-.75.26-.33.12-.66.21-.96.39-.12.07-.25.12-.39.15-.36.11-.71.24-1.03.44-.05.03-.11.07-.17.1-.01.01-.02.01-.03 0 .03-.05.07-.09.12-.12.16-.16.38-.25.57-.36.04-.02.09-.03.12-.06v-.03c.06 0 .09.11.19.04.07-.04.14-.06.16-.15 0-.03.04-.04.07-.05.07-.02.1-.06.1-.13 0-.05-.03-.13.05-.13.07 0 .13.04.15.11 0 .04 0 .09.05.1.04 0 .07-.02.08-.07 0-.02.02-.05.03-.03.09.11.18 0 .24-.03.32-.14.65-.25.98-.34.13-.04.26-.1.39-.16.02 0 .06-.02.05-.05-.05-.11-.03-.18.09-.22.03-.01 0-.07-.04-.07-.08 0-.14-.03-.23-.02-.16.02-.32-.04-.46-.11z"/><path d="M4.2 14.77c-.07.07-.07.16-.09.25-.05.25-.13.34-.38.38-.07.01-.08.06-.03.08.13.05.13.25.3.25.02 0 .02.02.02.03-.03.07 0 .14-.02.23-.01-.18-.15-.21-.29-.24-.17-.04-.18-.19-.23-.32-.03-.08-.05-.09-.12-.07-.1.02-.2.03-.29.04-.06 0-.1.03-.15.06-.06.04-.11.11-.19.06.01-.01.04-.03.04-.04-.03-.16.08-.15.17-.16.09-.01.16-.02.15-.15 0-.07.05-.11.13-.1.1 0 .21.03.18-.14-.01-.05.05-.06.1-.07.1-.02.2-.04.31-.06.08-.01.14-.05.19-.11.04-.06.09-.12.17-.09.08.03.03.11.04.17z" style="fill:#f5bec7;stroke-width:0"/><path d="M9.24 10.66c.11-.07.22-.16.38-.21-.05.08-.11.14-.09.27.07-.18.22-.23.29-.37.04-.07.12-.17.23-.06.01.01.04.03.05.02.19-.08.23.07.28.19.22-.17.42-.19.63-.07-.01.07-.1.06-.13.11-.12 0-.1.17-.17.16-.11-.01-.16.02-.2.12 0 .02-.06.01-.08.05-.02 0-.04.07-.06 0-.02-.05 0-.1.03-.14.03-.05.02-.09-.02-.12s-.09-.05-.13 0c-.06.06-.13.06-.2.09-.02 0-.05.01-.07 0-.04-.01-.02-.14-.1-.07-.09.07-.19.14-.19.27 0 .07-.01.13-.09.15-.07.02-.17.05-.21 0-.03-.04-.01-.14 0-.21.04-.19.05-.19-.16-.19z" style="fill:#f5cdd3;stroke-width:0"/><path class="cls-33" d="M11.16 10.66c-.04.19-.17.33-.28.47-.08.1-.17.19-.23.3-.35.36-.79.62-1.16.96-.1.09-.26.12-.37.21-.1.08-.2.13-.35.14.34-.25.76-.36.95-.77.04.09.08.09.17.02.3-.24.61-.47.84-.77.12-.16.23-.32.35-.49.02-.03.03-.07.08-.08z"/><path d="M6.12 9.7c-.03.06.16-.03.06.09-.59.02-1.18.04-1.77.03-.03.02-.06.04-.1.04H4.1c-.1.01-.2-.06-.3-.01h-.12s-.06.03-.09 0h-.12c0-.08.06-.05.1-.06.43-.04.86-.02 1.3-.03.42 0 .83-.01 1.24-.06z" style="fill:#e1c4c6;stroke-width:0"/><path class="cls-45" d="M3.6 9.85h.09c.14.08.27.15.38.26.03.03.08.04.06.09-.02.04-.05.08-.09.09-.05.01-.09-.07-.09-.08-.02-.15-.09-.09-.16-.04-.04.03-.11.16-.14-.01 0-.01-.03-.03-.04-.03-.25.03-.1-.09-.07-.17l.06-.12z"/><path class="cls-67" d="M9.39 10.4c.19-.11.39-.2.57-.33.16-.1.32-.21.47-.32.05-.04.1-.06.2-.03-.41.26-.76.59-1.21.76 0-.03-.02-.06-.03-.08z"/><path class="cls-45" d="M4.32 9.83h.09c0 .09.09.12.14.18.02.03.05.05.03.09-.02.04-.05.02-.09.02-.12 0-.21-.04-.3-.11-.11-.09-.23-.17-.39-.16.1-.06.2-.02.3-.03.05.07.13.08.22.13-.02-.05-.04-.09 0-.13z"/><path class="cls-67" d="M6.06 11.74h.03c-.08.06-.16.12-.23.19s-.13.09-.18-.01c-.01-.03-.09 0-.06-.06.02-.03.06-.04.09-.02.04.03.08.11.14.02.05-.08-.04-.1-.07-.14-.02-.03-.05-.05-.08-.09.13-.03.21-.09.21-.22 0-.03 0-.05.04-.04.03 0 .05.04.02.06-.05.04-.03.1-.07.15-.08.1-.09.17.07.15.02 0 .05.01.07.02z"/><path class="cls-33" d="M11.13 10.45v-.03c.05-.12.16-.17.27-.21.02.09-.02.16-.08.23s-.09.16-.16.22c-.02-.02.03-.11-.05-.05-.04.03-.07.07-.1.11-.02.02-.03.06-.07.04-.02 0-.03-.04-.04-.06-.01-.03 0-.06.04-.07.08-.04.17-.08.19-.19z"/><path class="cls-67" d="M6.87 11.2c-.07.11-.2.15-.29.2-.13.07-.25.18-.4.22.01-.16.16-.18.26-.25.13-.08.28-.14.43-.17zM7.29 11.2c.12-.08.25-.13.39-.15-.04.06-.08.1-.16.11-.06 0-.14.04-.19.1-.02.03-.05.03-.08 0-.04-.05.07-.02.03-.07z"/><path class="cls-33" d="M10.83 10.9s-.02.09-.07.08c-.04 0-.08-.05-.08-.1 0-.04.03-.07.07-.07.06 0 .08.04.08.09z"/><path d="M9.52 11.99s.08.02.08.07c0 .04-.02.07-.06.07-.05 0-.08-.03-.08-.07 0-.04.02-.06.06-.07z" style="fill:#eaafbf;stroke-width:0"/><path d="M9.3 12.17s0-.06.04-.05c.04 0 .07.04.07.08 0 .03-.02.06-.06.05-.04 0-.05-.04-.05-.08z" style="fill:#e3a1b3;stroke-width:0"/><path class="cls-57" d="M4.23 8.8v.09c-.04.06.01.16-.1.19-.12.03-.08-.09-.14-.12a.335.335 0 0 1-.15-.18c-.04.05-.02.12-.09.14-.03 0-.08 0-.05.06.02.04.06.05.09.02.14-.11.16.04.2.1.05.07-.06.26-.13.27-.08.01-.17-.03-.25-.03-.06 0-.05.15-.15.17-.02-.04 0-.06.02-.08.04-.05.1-.1.05-.15-.05-.06-.14-.05-.21-.01-.15.07-.58.15-.77.12.2.15.35.32.61.23.05-.02.11 0 .16-.02.05 0 .09.02.08.06 0 .04-.04.07-.09.06a2.58 2.58 0 0 0-.68 0c-.04 0-.09-.03-.14-.05v-.02c.01-.06.07-.06.12-.06-.06-.06-.1-.14-.17-.19-.15.04-.26-.07-.39-.12a.108.108 0 0 1-.08-.1c0-.04.04-.05.08-.04.03 0 .05-.01.06-.03.07-.1.1-.04.11.03 0 .04-.02.08.05.08.03 0 .07 0 .08-.02.03-.05-.02-.07-.05-.1-.04-.05-.12-.1 0-.13.1.02.17.1.24.16.15.13.31.15.49.11.19-.05.34-.14.48-.27-.03.06-.1.08-.16.09-.19 0-.37.07-.56.07-.19 0-.37-.05-.49-.21-.01-.03-.02-.06-.03-.1.02 0 .04-.02.06-.03.08-.11.2-.08.3-.08.17 0 .33-.03.49-.03h.03c-.06-.02-.15.05-.22-.02.21-.06.44-.04.65-.02.17.01.35.01.52.02l.12.12z"/><path d="M4.23 8.8c-.09 0-.11-.05-.12-.12h1.26a.11.11 0 0 1-.13.1.753.753 0 0 0-.59.03c-.01 0-.04-.02-.06-.04h-.06c-.08.06-.16.03-.24 0l-.06.03z" style="fill:#e5b3bc;stroke-width:0"/><path d="M2.94 8.68h.27c-.09.01-.16.14-.26.04-.19.13-.42-.02-.62.08 0-.09.04-.12.13-.12h.47z" style="fill:#e3b4bb;stroke-width:0"/><path class="cls-97" d="M4 8.08c.04.09.03.16-.03.2h-.04c-.01-.07.01-.13.07-.2z"/><path class="cls-92" d="M19.32 10.51c-.08.05-.16.07-.26.06-.06 0-.12 0-.17.03-.13.08-.16.06-.2-.1 0-.04-.01-.07-.07-.07-.02.15.07.25.16.35-.06.15-.09.15-.23.09-.16-.07-.34-.08-.5-.14-.38-.15-.78-.24-1.17-.35-.04-.01-.1-.01-.11-.06-.01-.05.04-.07.07-.11.13-.14.3-.17.47-.19.08-.01.13.02.16.12a.71.71 0 0 1 .1-.3c.03-.04.06-.07.11-.06.05.01.06.05.06.09 0 .06.03.11.07.16.02.03.05.05.03.09-.02.04-.05.03-.09.02-.04-.01-.06 0-.05.06.07-.02.14-.05.2-.07.16-.05.28 0 .35.15.06.13.16.06.24.05.13-.05.23.05.34.08-.1-.07-.25-.08-.32-.2a.868.868 0 0 0-.12-.34c-.02-.04-.06-.08-.01-.12.04-.03.08 0 .11.02.07.05.13.05.21.03.09-.03.2-.05.28.04.01.01.03.03.05.02.05-.03.1-.04.13.02.03.07-.03.11-.07.15-.07.03-.14.07-.22.06.09 0 .16-.03.23-.07.05-.05.08-.1.09-.17 0-.07.02-.15.08-.2.04-.02.11-.03.12.01.02.14.14.12.22.17-.02.21-.23.41-.47.43h-.13c.08.09.18 0 .27.02.1.06.02.14.03.21z"/><path class="cls-100" d="M20.91 8.65c.1-.05.16.04.24.06.08 0 .21-.08.2.11 0 .02.07.08.14.04.02 0 0-.02 0 0h-.01c-.08.03-.1-.03-.11-.08-.01-.06.02-.1.08-.1.25 0 .5-.04.75.02.04.01.04-.02.07-.03.06-.02.12-.06.16 0 .05.06 0 .12-.04.17-.04.05-.11.09-.1.17-.1.06-.19.13-.29.18-.14.07-.29.11-.43 0 .05.04.1.07.15.09.18.1.34.05.44-.13.02-.04.04-.08.09-.1h.04c.07.05.03.11 0 .17a.55.55 0 0 1 .09-.07c.13-.06.13-.06.16.08 0 .01.02.02.04 0 .11-.02.18.1.29.1.04 0-.02.05 0 .07.03.05.04.12.1.16-.03.04-.08.05-.12.05-.51-.03-1.02.05-1.54.02h-.9c.03-.1.13-.05.18-.09.33-.03.66 0 .99.01h-.22c-.13-.02-.14-.05-.09-.18.02-.03.04-.05.09-.06-.03 0-.05.02-.07.03-.13.14-.17.13-.23-.03V9.3c-.14 0-.14-.12-.17-.2v.03c.05.19-.01.31-.2.38-.05.02-.09.02-.12-.03-.03-.06.02-.08.06-.1.05-.03.11-.06.17-.13-.21 0-.39.09-.58 0-.07-.08-.04-.13.06-.13.08 0 .16 0 .23-.03.22-.08.42-.17.37-.46z"/><path d="M20.61 9.58c-.05.06-.13 0-.18.06-.04.03-.18-.07-.12.1 0 .03-.07.03-.09 0-.08-.13-.18-.04-.27-.04.16.05.19.22.31.3.03.02.02.05-.01.07-.02.01-.05.01-.07.03-.11.12-.21.18-.35.04-.04-.04-.12.01-.16.07-.03.04-.03 0-.04-.02-.06-.06-.05-.12-.01-.19.02-.03.04-.07.05-.1.01-.03.04-.05.04-.09-.04 0-.05.05-.08.05-.05 0-.09-.03-.15 0-.05.02-.11 0-.08-.07.04-.11-.04-.1-.1-.1v-.03c.07-.07.15-.05.22-.04.11.03.22 0 .29.02h-.2c-.03 0-.06 0-.04-.05.04-.03.08-.04.13-.03.26.01.51-.01.77 0 .05 0 .11 0 .15.05z" style="fill:#f5d6d7;stroke-width:0"/><path class="cls-100" d="M21.72 10.06c-.17 0-.2-.13-.26-.24-.02-.05-.02-.13-.09-.11-.07.02-.08.09-.06.16.02.09.04.17.13.26-.17-.08-.2-.24-.15-.49.37-.01.74-.03 1.11-.03.06 0 .11 0 .14.06-.07.08-.13.15-.24.17-.11.02-.15.15-.23.22-.12.11-.24.12-.37 0 .03-.03.03-.06 0-.09-.06-.06-.09-.14-.14-.23.01.09.05.15.1.2.03.03.08.05.04.11z"/><path d="M22.56 9.68c-.34-.07-.69-.02-1.04-.03h-.22c.04-.04.09-.02.14-.03.51-.02 1.02-.04 1.54-.03h.48c.04 0 .07.02.07.06 0 .04-.05.03-.07.03h-.89z" style="fill:#de94a6;stroke-width:0"/><path class="cls-51" d="M19.62 9.85s.03-.05.04-.07c.02-.06.06-.05.09-.03.04.03.01.06 0 .09-.07.1-.16.2-.12.35-.03.08-.11.07-.17.08-.05.01-.11 0-.16.04-.13.1-.25.06-.38-.04.34.03.57-.11.71-.41zM21.06 11.23c-.07.06-.17.08-.26.11-.02 0-.05 0-.06-.02v-.06c.04-.09.25-.11.31-.04z"/><path class="cls-57" d="m2.49 9.67-.06.12c-.18.05-.35.06-.53 0-.07-.03-.14 0-.2 0-.32-.01-.63-.01-.95-.02-.17 0-.34.05-.51-.02h.21c.07 0 .17.04.12-.11-.02-.05.08-.1.13-.15.17-.18.18-.18-.04-.31-.04-.02-.07-.04-.05-.09.01-.05.04-.08.09-.09.12-.01.27.1.31.21.04.1-.04.14-.09.19.01 0 .03.02.03.02.11-.13.19-.1.29.03.13.15.29.04.43.02.02.03-.03.06 0 .11.07-.03.13-.12.11-.15-.05-.14.04-.11.11-.13.01 0 .02-.02.03-.03.07.04.12.11.2.12.03 0 .07.02.05.06-.05.08-.05.12.05.15.11.03.1-.05.13-.1-.04-.03-.08.05-.09 0-.02-.08.08-.05.11-.09.14.03.14.13.12.24z"/><path class="cls-99" d="M22.98 8.65h.69c0 .04.02.08.03.12-.09.05 0 .09 0 .14q-.13-.04-.11-.17c-.2 0-.39-.03-.59.03-.04.01-.04 0-.04.04-.01.06.01.12-.04.17h-.01c-.06-.12-.1-.27-.27-.31.12-.03.23-.04.34-.01z"/><path class="cls-100" d="M22.98 8.65h-.3c.23 0 .2.2.24.33-.05.06-.09.13-.09.21-.02.04-.06.03-.09.03-.14-.01-.24-.13-.38-.14-.03 0-.05.01-.07-.01s-.01-.02 0-.02v-.01c.06-.16.09-.17.23-.07.02.01.04.03.07.03.07.01.16.04.2-.04.04-.08-.04-.13-.1-.18-.05-.04-.16-.04-.1-.16.13.01.26-.03.39.03z"/><path class="cls-99" d="M22.83 9.19c-.11-.13.04-.15.09-.21.03.02-.1.12.04.08.05-.01.09 0 .12.03.02.02.01.09-.02.09-.05 0-.08.09-.14.04-.03-.03-.06-.03-.09-.03zM22.35 9.04c.11-.02.17.12.28.1 0 .07.09.03.11.08-.05.01-.11-.03-.15.03-.04.02-.07.02-.08-.01q-.03-.09-.1-.05l-.06-.15z"/><path d="M2.31 8.93c.23.18.48.23.76.12.06-.02.13 0 .19 0 .09-.01.2 0 .24-.13 0-.02.02-.05.05-.03.03.02 0 .03 0 .06-.07.23-.29.27-.47.34-.27.1-.48-.01-.67-.2-.04-.03-.07-.07-.11-.1v-.06z" style="fill:#f9f7f2;stroke-width:0"/><path class="cls-45" d="m2.49 9.67-.04-.02c.07-.11-.01-.16-.08-.22.02 0 .05 0 .06-.03.05-.03.06.02.09.04.06.06.08.14.17.16-.05.11-.16-.06-.2.06z"/><path class="cls-61" d="M3.21 9.85h.07c.06 0 .1.02.1.08 0 .04 0 .07-.04.09-.06.03-.09-.02-.11-.07-.01-.03-.03-.05-.05-.07 0-.01.02-.02.03-.03z"/><path d="M20.13 12.37c-.08-.08-.12.04-.18.03-.32-.11-.64-.15-.97-.21-.3-.05-.61-.06-.92-.06h-2.07c-.06-.06-.15 0-.23-.05.12-.04.12-.12.07-.2-.05-.09-.12-.02-.18 0 .07-.16.13-.18.25-.06.01.01.03.02.05.03.06-.11.19-.07.27-.13.07-.05.12-.06.16.01.03.05.06.06.11.04h.03c.11.17.27.09.42.1.02 0 .06.02.06.04.02.19.14.12.23.09.17-.06.32.05.49 0 .13-.03.26-.06.38-.13.09-.05.16-.08.23.01.03.04.07.06.11.03.02-.01.05-.01.07 0 .03.03.04.09.11.04.07-.05.11-.1.11-.18 0-.1-.05-.18-.07-.27-.02-.08-.02-.13.09-.09.14.05.17-.1.26-.15.01-.09.06-.07.12-.04.13.06.24.15.36.23.08.13.23.17.35.24.39.24.76.48 1.09.79.22.21.43.44.54.73-.11.02-.2-.01-.25-.13a.142.142 0 0 0-.08-.09c-.17-.06-.27-.23-.46-.27-.04 0-.07-.04-.08-.08-.02-.05-.05-.07-.1-.06-.05.01-.09-.01-.11-.05-.03-.05-.07-.08-.13-.07-.06 0-.09-.03-.1-.09z" style="fill:#f3f1f3;stroke-width:0"/><path class="cls-88" d="M19.47 11.44c-.15-.03-.24-.16-.38-.2-.05-.02-.07 0-.09.02-.03-.09-.08-.11-.16-.15-.14-.08-.22-.06-.32.04-.04.04-.05-.02-.06-.05-.05-.07-.08-.11-.15 0-.07.12-.14 0-.2-.05.11-.05.22-.09.35-.1-.02-.01-.04-.02-.06-.02-.13.05-.24.06-.29-.11-.01-.04-.08-.03-.12-.04-.07-.01-.13-.02-.15-.1-.02-.04-.06-.03-.09-.03-.07.05-.12.2-.21.01-.01-.02-.06-.02-.09-.04-.11-.08-.25-.06-.37-.1-.09-.03-.17-.04-.26-.06-.08-.01-.16-.05-.22.05-.02.03-.07.02-.11.02-.01 0-.03 0-.04-.01-.08-.06-.19-.04-.27-.11-.13-.07-.27-.08-.41-.13-.16-.05-.17-.09-.07-.23.05-.02.09.02.12.05.22.15.48.14.72.18.1.02.19-.03.26-.15-.09.11-.17.11-.26.06-.1-.06-.21-.03-.31-.04-.09 0-.2.01-.26-.1.02-.05.03-.1.01-.15-.02-.08-.04-.17.03-.25h.04c.04.01.04.06.07.08.01-.04.02-.09.07-.1.22-.01.44-.03.66.01.11.02.23 0 .34 0 .62 0 1.25-.03 1.87-.02.08 0 .17-.05.23.04l-.06.23c-.02.06-.03.13-.12.13s0-.01 0-.02c0-.05.1-.09.03-.14-.08-.05-.04.09-.12.07-.03-.17-.19-.15-.28-.11-.12.06-.19.02-.27-.05-.01-.01-.03-.02-.06-.02.06.11.08.23.15.33.04.06 0 .07-.02.11.04.06.02.11-.03.15-.19.08-.18.07-.3-.13-.05-.09-.17-.1-.28-.07-.1.03-.19.07-.28.15 0-.09 0-.17.02-.21.05-.1.09.05.16.02.02-.07-.07-.07-.08-.12 0-.02-.02-.04-.03-.05-.05-.04.06-.16-.05-.15-.09 0-.11.13-.13.21-.02.1-.06.14-.14.19-.03-.05.08-.07.01-.13-.04-.04-.08-.02-.12-.02-.2 0-.36.1-.52.26.15.04.29.08.43.12.37.09.73.23 1.09.34.11.03.22.01.32.1.08.07.11-.05.16-.09.05.05-.02.1 0 .15.05.02.13 0 .12.09.12.14.31.19.45.31.04.03.08.06.12.08v.03z"/><path class="cls-95" d="M16.44 10.51s.18.07.15-.1c0-.02.02-.01.03-.01.25.05.51.09.75.17.02 0 .04.04.06.06-.05 0-.1-.06-.14.02.02.04.13-.02.1.07-.02.06-.06.09-.13.08-.07-.01-.09-.06-.05-.12.04-.06-.01-.05-.04-.06-.03-.01-.05-.06-.08 0-.08.13-.13.1-.18-.02-.03-.06-.06-.06-.12 0-.17.17-.32.37-.51.52-.05.04-.1.05-.16.07-.09.02-.18.03-.27.09-.09.06-.24 0-.32-.15-.1-.2-.26-.35-.4-.51-.11-.12-.18-.27-.32-.36-.13-.09.01-.11.07-.15.06-.02.1.03.14.04.43.24.89.38 1.38.43.06 0 .03-.02.04-.04z"/><path d="M13.41 10.76a.47.47 0 0 1 0-.31c.06-.14-.05-.25-.09-.36-.06-.17-.03-.35-.11-.52-.02-.05.04-.13.13-.07.03.02.06.05.13.05-.06-.05-.11-.08-.15-.12v-.01h.03c.18 0 .21.18.31.27.06.05.1.11.18.04.03-.03.08-.01.11.02.1.09.21.18.31.27l-.04.04c-.09-.08-.18-.15-.27-.23-.11-.1-.17.02-.24.06-.08.04-.06.11 0 .16.2.2.19.46.21.71 0 .11.02.22.09.31.08.1.17.09.23-.02.08-.16.17-.2.33-.18.04 0 .07.01.08.05 0 .05-.04.06-.07.06-.08 0-.12.06-.18.09-.06.04-.09.1-.08.17.01.06.08.05.13.05.04 0 .08.02.1.06-.01.08-.06.12-.15.11-.07 0-.12.02-.17.08-.08.09-.11.08-.18-.02-.02-.03-.03-.07-.05-.11-.05-.1-.12-.16-.23-.13-.09.02-.16 0-.17-.11-.01-.16-.15-.25-.2-.39z" style="fill:#f4c6cf;stroke-width:0"/><path class="cls-77" d="M12.27 8.29c.09.05.11-.04.15-.08.03.02.08.05.04.07-.06.02-.09.06-.07.1.02.06.08.03.13.04h.09c0 .08-.08.06-.12.08-.08.03-.17.15-.17.23v.03c.12 0 .12.19.25.17.27.14.53.11.81.02.08-.03.17-.02.25-.03.36-.03.71-.15 1.07-.2.07 0 .15.03.22 0 .03 0 .08 0 .09.04 0 .04-.02.06-.06.08-.12.05-.23.09-.33.16-.02.01-.04.02-.06 0-.21-.13-.42 0-.62 0-.19.01-.38.06-.54.15.08.02.18.07.28.11.17.06.34.09.52.02.08-.03.18-.03.24.06.01.09-.04.11-.11.12-.05 0-.11 0-.16.03-.02.04 0 .05.03.07.03.02.08.03.06.08.01.02.03.05.05.09-.45-.19-.85-.44-1.32-.57.02.08.09.09.13.12-.08.05-.12-.05-.2-.04.04.09.08.17.12.26 0 .02.02.05 0 .07h-.05c-.04-.12-.17-.18-.21-.29 0-.01 0-.03.02-.08-.14.09-.15.2-.11.32.01.04.06.09-.04.07-.08-.05-.14-.12-.09-.22.04-.09.02-.15-.06-.2-.04-.02-.06-.06-.09-.09-.06-.08-.16-.1-.24-.15-.07-.13-.05-.28-.05-.42 0-.03.03-.05.06-.06.11 0 .05-.12.12-.15z"/><path d="M13.41 10.76c.13.1.23.22.24.39 0 .08.03.09.1.08.19-.03.24 0 .31.16.02.06.04.12.11.16.06-.11.13-.2.27-.15.06.02.06-.07.11-.08.12-.01.21.02.24.15.02.07.06.07.12.04.05-.03.12-.06.15-.01.11.13.28.2.39.33.03.03.02.06 0 .09-.02.04-.06.05-.09.02-.11-.09-.12.02-.16.07l-.03-.03c-.02-.03 0-.08-.03-.13-.05.09-.12.14-.21.07s0-.07.02-.11c.03-.03.07-.06.02-.14-.05.22-.19.19-.34.15a3.35 3.35 0 0 1-1.16-.55c-.1-.07-.16-.17-.24-.28.04 0 .07 0 .09-.01.03 0 .06-.02.06-.05 0-.04-.04-.07-.06-.07-.17.04-.24-.12-.35-.19.06.01.14-.03.17.07.01.04.06.03.09.01.05-.02.11-.02.16-.02z" style="fill:#fbf1f2;stroke-width:0"/><path class="cls-77" d="M15 10.15c-.05 0-.08-.04-.12-.06-.15-.13-.36-.18-.45-.39.13-.09.27-.04.41-.04.03 0 .08.03.07.06-.03.16.11.19.2.25.02.01.04.02.06.04.02.02.06.04.04.07-.02.03-.05.03-.08.02-.07-.02-.12-.06-.19-.09.04.04.11.06.06.13z"/><path d="M14.88 9.71h-.45l-.18-.06c-.03-.04-.08-.05-.13-.07-.04-.02-.07-.04-.02-.09.05-.03.11-.03.17-.02.23.15.5.09.75.12.18.02.37-.01.55.04.02.02.04.03.02.06-.11.06-.23.02-.34.03-.1 0-.2-.01-.3 0-.03 0-.05 0-.07-.02z" style="fill:#d78497;stroke-width:0"/><path class="cls-95" d="M17.82 10.69s.1.06.16.06c.07 0 .18-.02.17.13 0 .02.07.11.11.05.12-.14.19.01.28.03-.16-.02-.3.09-.46.08-.03-.1-.02-.23-.19-.23-.03.04.09.05.03.1-.02.02-.04.04-.06.03-.05-.02-.07-.05-.08-.1 0-.06 0-.11.03-.16zM17.43 10.63s.17-.07.15.09c0 .04.06.02.06-.02 0-.07.05-.06.09-.04.04.11-.06.13-.12.16s-.1-.03-.13-.07c-.03-.03-.04-.08-.05-.12z"/><path d="M20.13 12.37s.06.07.11.06c.07-.02.13-.02.14.08 0 .02.03.04.04.04.2-.11.21.25.41.16.02 0 .05.03.05.06 0 .08.05.09.13.1.07.01.18.08.2.14.04.14.15.15.25.2.21.14-.07.16-.07.25-.03-.04-.07-.07-.08-.11-.05-.2-.27-.23-.36-.4-.03-.06-.16-.06-.25-.09-.01 0-.03 0-.04.01-.03.02-.01.32.01.34.2.22.22.48.08.74-.01.02-.03.04-.04.06-.02.08.03.17-.12.19-.08.01-.15.02-.22-.02 0 0-.02 0-.03.01.01-.44 0-.88-.15-1.3-.04-.12-.13-.22-.16-.35-.03-.11 0-.16.1-.18z" style="fill:#f7c0cf;stroke-width:0"/><path class="cls-18" d="M9.84 7.12c.31.18.58.4.84.64.19.18.37.35.22.65-.03-.02-.08-.03-.12-.07-.14-.14-.36-.07-.49-.21-.08-.04-.11-.12-.12-.2a.921.921 0 0 0-.32-.63c-.05-.05-.08-.06-.14-.01-.05.05-.1.09-.17.09-.15-.01-.2.08-.25.2-.06.16-.14.3-.36.3-.13 0-.16.11-.12.31.05.15 0 .28-.11.39-.04.04-.05.06-.04.12.03.28-.03.34-.3.29A.68.68 0 0 1 8 8.84c-.01-.13.04-.26-.04-.38-.03-.05 0-.11.02-.16.08-.16.09-.34.06-.51v-.06c0-.07.04-.21 0-.21-.1 0-.21-.06-.32.01-.12.08-.23.05-.27-.04-.04-.09.04-.23.15-.27l.1-.03c-.02-.01.01 0 0 0-.18-.07-.12-.23-.1-.35.02-.15.16-.07.25-.08.14.05.3.05.44.06.08 0 .16-.1.27-.07.24.03.48.09.72.13.19.04.38.11.54.22z"/><path d="M8.79 8.2c-.08-.23 0-.36.22-.36.07 0 .13-.01.16-.08.02-.05.07-.1.09-.16.05-.15.11-.28.31-.25.07.01.13-.07.18-.12.04-.04.07-.07.1.01.02.06.08.1.13.14.16.13.2.32.23.5.01.09.06.17.08.25-.02.05-.06.1-.11.11-.08.03-.11.05-.04.13.05.05 0 .06-.05.07-.03 0-.07 0-.08.04-.02.06.17.02.05.12.06.05.11.11.19.13.03 0 .07.02.1.03.06.01.14 0 .15.09.01.1-.05.13-.15.14.07.03.1.08.12.13.02.07-.03.09-.08.11h-.1c-.21.02-.24 0-.27-.21 0 .02-.01.05-.03.07-.06.09-.13.12-.24.07a.662.662 0 0 0-.48-.02c-.14.04-.3-.09-.27-.22.04-.27-.09-.49-.2-.72z" style="fill:#f4d6dc;stroke-width:0"/><path d="M8.79 8.2c.06.04.11.08.13.16.04.2.19.37.1.6-.02.06.15.19.22.16.14-.06.28-.05.42-.02.11.02.23.1.33-.02.12.2.16.21.39.15.04-.02.07-.05.09-.09.05-.06.09-.13.15-.19.12-.13.32-.11.46.07.05.06.09.08.16.07 0 .06-.12.07-.05.14-.14.18-.35.21-.54.24-.48.08-.96.07-1.44 0-.15-.02-.29-.07-.44-.1-.19-.05-.38-.11-.58-.12-.06 0-.13-.01-.17-.07-.23-.08-.47-.09-.71-.09-.1 0-.11.1-.19.13-.13.06.01.13.03.2-.19-.04-.27-.13-.27-.32v-.16c.11.08.19.08.28-.04.05-.07.13-.07.2-.02.08.05.15.05.21-.03.04-.05.09-.06.14-.07.06 0 .1-.02.14-.07.02-.04.06-.07.11-.06.06.02.04.07.04.11 0 .03.02.06.02.09.16.08.33.12.5.15.08.01.16-.1.12-.23-.02-.1-.04-.15.08-.22.07-.04.13-.2.07-.33z" style="fill:#f9eceb;stroke-width:0"/><path d="M8.01 9.16c.37.05.73.19 1.1.25.71.12 1.41.18 2.08-.19l.12-.06c.02 0 .04-.02.04-.04 0-.04.04-.05.09-.03.12.05.23.14.39.1-.25.05-.19.27-.27.42-.02.04 0 .05.02.07.1.06 0 .07-.03.11-.03.15-.09.28-.15.42-.07.1-.19.13-.27.21.01-.1.08-.18.13-.27.06-.1.07-.21.12-.3.02-.05 0-.08-.05-.08-.11 0-.14-.1-.16-.17-.02-.11-.09-.13-.15-.07-.12.12-.24.05-.34.02a.576.576 0 0 0-.26-.02c-.44.04-.88.04-1.32-.06-.16-.04-.33-.07-.49-.13-.19-.07-.39.01-.57-.08-.04-.02-.09-.03-.14-.04.02-.06.07-.04.1-.05z" style="stroke-width:0;fill:#e798aa"/><path class="cls-43" d="m12.12 8.5.03.42c-.19.04-.36.14-.56.09-.02 0-.04 0-.06-.01l-.02-.02c.02-.04.08 0 .11-.05-.07-.01-.08-.17-.2-.06-.05-.05-.04-.1 0-.15.08-.1.19-.18.32-.17.13.02.25.01.37-.05z"/><path d="M12.39 9.07c.18.09.22.16.17.33-.03.09.09.1.08.18-.03.07-.05.13.03.2.07.06.03.13-.04.17-.03.02-.1-.02-.07.05.01.04.05.07.1.07s.1.03.15.05c.06.02.09.07.09.13s-.03.12-.03.17c0 .05.02.1-.01.19-.03-.09-.09-.14-.06-.21 0-.03 0-.04-.02-.04-.16-.04-.2-.2-.27-.31-.03-.05-.09-.17.07-.17.02 0 .04-.03.04-.04-.11-.06-.02-.21-.13-.26-.05-.02-.02-.05 0-.07.03-.05.07-.09 0-.14-.01 0-.02-.02 0-.03.08-.03.12-.07.04-.14-.04-.04-.07-.01-.13.09q-.09-.09.02-.23z" style="fill:#fae0e3;stroke-width:0"/><path d="M12.12 8.5c-.08.12-.19.13-.33.09-.17-.05-.35.1-.36.27 0 .02 0 .06-.04.02-.13-.13-.07-.3-.11-.45-.01-.07.06-.05.1-.03.11.06.22.08.35.07.09-.05.21-.05.29-.14.04-.04.08-.02.12 0 .05.03.09.07.04.13-.02 0-.05 0-.06.03z" style="fill:#fbf1ed;stroke-width:0"/><path d="M9.84 7.12c-.16-.04-.31-.13-.47-.16-.1-.02-.22-.13-.34 0-.09-.2-.3-.1-.45-.17-.02-.02-.02-.04 0-.06.33.06.67.07.98.2.11.05.24.07.33.15-.02 0-.05 0-.06.03z" style="fill:#efdcdf;stroke-width:0"/><path class="cls-43" d="M12.18 8.47c-.04-.13-.07-.15-.17-.06-.08.07-.18.08-.28.07.04-.08.16-.11.16-.23-.04-.03-.09 0-.13-.02.18-.05.35-.05.51.06.02.09.02.16-.09.18z"/><path class="cls-55" d="M14.64 11.83h.18c.05 0 .11-.01.09-.1 0-.05 0-.09.06-.1.03 0 .06 0 .07.03.02.05.03.1 0 .14-.03.04-.1.05-.1.12-.11 0-.2-.05-.3-.09z"/><path class="cls-55" d="M14.94 11.92s.12.06.15-.04c.01-.04.03-.1.08-.09.04.02.05.08.04.13 0 .02-.02.04-.02.05-.08-.01-.18.04-.24-.06z"/><path class="cls-92" d="M18.9 11.02c-.01-.06-.09-.05-.12-.09.12-.04.23-.05.4-.06-.12.06-.2.11-.28.15z"/><path d="M14.46 8.38c.07 0 .14 0 .18-.06.1-.11.17-.06.24.03.06.08.1.11.14-.01.05-.13.19-.18.27-.31-.06 0-.09-.07-.15 0-.03.03-.06.02-.09 0-.03-.03-.03-.07 0-.09.11-.11.04-.13-.06-.15a.15.15 0 0 1-.14-.14c0-.05-.03-.08-.06-.12-.02-.03-.05-.08-.04-.09.13-.18-.09-.24-.13-.36-.02-.05-.15-.04-.24-.07-.09-.04-.21-.13-.31.02-.03.05-.08-.08-.15-.06 0-.02.01-.05.03-.05.1-.04.24-.03.24-.2 0 0 .03-.01.04 0 .12.1.13-.01.16-.09.15.1.22.08.25-.1.02-.12.13-.09.18-.15.01-.01.03 0 .04.03.18.31.34.62.33 1 0 .12.08.1.14.06.13-.09.22-.03.32.06.07.07.16.13.03.23-.01 0-.02.04-.02.06-.02.13-.02.29-.23.17-.03-.01-.07 0-.07.05 0 .04.04.03.07.03.06 0 .11 0 .12.08 0 .04 0 .07-.04.09-.03.01-.06 0-.08-.02-.08-.14-.12-.03-.17.03-.03.07-.12.12-.09.21 0 .06.02.12.03.18v.02c-.09.08-.21.03-.31.08a.157.157 0 0 0-.16-.03c-.06.02-.11.03-.16-.03 0-.09-.03-.15-.13-.15-.04-.04-.08-.08-.05-.14.03-.02.06-.01.09 0z" style="fill:#f7d9df;stroke-width:0"/><path class="cls-84" d="M15.57 9.64c-.34 0-.68-.02-1.03-.03-.11 0-.18-.07-.27-.11.04-.06.11-.04.16-.06.26-.06.5-.17.73-.31.06-.03.11-.05.18-.05.15-.01.27-.12.39-.2.16-.1.31-.2.48-.27-.26.11-.48.29-.73.42-.13.07-.13.07-.14-.09.03-.09.12-.05.18-.08.18-.09.35-.22.52-.32.02-.01.03-.02.04-.04.03-.05.07-.1.04-.17-.03-.08-.1-.02-.15-.03-.01 0-.03-.01-.03-.02.14-.1.29-.19.45-.27.12.03.22-.05.34-.03.1.01.12.04.08.13-.06.16-.17.28-.32.36-.05.03-.12.05-.1.12.02.06.09.05.14.05h.07l.06.06v.02c-.04.05-.11.08-.12.16 0 .04-.04.04-.08.02-.03-.02-.03-.06-.08-.06.05.08.04.14-.02.21-.2.06-.39.11-.58.01.03.01.07.04.11.07.05.03.13-.02.14.04.01.05.01.12 0 .17 0 .07-.19.12-.29.09-.07-.02-.14-.06-.23-.06.06.08.21.09.16.23-.04.04-.08 0-.12.02z"/><path d="M17.07 8c-.16-.01-.31-.09-.48-.06.11-.11.22-.21.36-.28.07-.04.14-.06.21-.05.11.02.15.09.09.18-.05.08-.1.16-.18.21z" style="fill:#eb9cb0;stroke-width:0"/><path class="cls-43" d="M15.15 8.44c-.07-.08-.05-.13.09-.21.06.02.15.02.13.1-.03.1-.14.1-.22.11z"/><path d="M15.96 8.29h.03c0 .06-.05.09-.09.11-.19.11-.39.19-.6.27-.05.02-.12.05-.13-.05.25-.07.48-.19.71-.3.02-.01.05-.02.07-.03z" style="fill:#d5a0aa;stroke-width:0"/><path d="M8.01 8.83s-.09-.04-.07-.1c.01-.03.06-.06 0-.08-.03 0-.05.02-.07.05v.03c-.04.15-.21 0-.27.12-.07.13-.15.12-.25.04-.09-.07-.15-.01-.2.05-.12.14-.17.14-.26-.02v-.03c.1-.32.26-.61.41-.91.02-.04.03-.07.01-.11.05-.22.16-.42.19-.65 0-.04.01-.09.02-.13v-.03c.03-.07-.02-.16.06-.21 0-.09.04-.12.13-.12h.35c-.03.11-.1.1-.18.06h-.04c-.05.05-.13-.05-.16.03a.6.6 0 0 0-.02.23c0 .09.04.11.15.11a.15.15 0 0 1-.14.09c-.11 0-.13.09-.16.17-.02.05.01.08.06.11.08.05.14 0 .2-.04.05-.04.09-.06.15-.02.08.06.14.02.2-.05.05.23 0 .44.01.66 0 .09-.05.18-.08.27-.02.06-.02.11.02.18.05.09.03.2-.01.3z" style="fill:#f5d7dd;stroke-width:0"/><path d="M7.29 7.87c.1-.03.05.04.04.07-.12.25-.23.49-.35.73-.04.07-.02.17-.11.22v-.12c-.08.1-.15.1-.22.02-.07-.07-.16-.04-.23-.04-.13 0-.25-.01-.36-.07.04-.05.08.01.12 0 .09-.01.18-.04.27 0 .11 0 .23-.02.34.02.05.02.08 0 .11-.05l.39-.78z" style="fill:#eab6bf;stroke-width:0"/><path class="cls-63" d="M6.45 8.68h-.27c.09-.01.18-.1.27 0z"/><path class="cls-5" d="M7.86 6.79c.07 0 .13 0 .18-.06h.54v.06c-.07.01-.16-.03-.2.08-.02.06-.08.01-.12 0-.1-.01-.2-.05-.31-.03-.04 0-.07-.02-.09-.06zM7.56 6.85c-.03.07 0 .15-.06.21 0-.07-.08-.17.06-.21z"/><path class="cls-90" d="M20.91 8.65c.08.24.04.32-.19.42-.14.06-.26.15-.43.1-.07-.02-.06.04-.04.08-.01.02-.03.03-.05.02-.12-.02-.17.05-.2.15a.37.37 0 0 1-.05.11c-.02.02-.05.04-.06.03-.08-.12-.2-.02-.3-.06a.579.579 0 0 0-.32-.03c-.09.02-.12-.06-.13-.13 0-.03 0-.06.02-.09.05-.08.11-.12.21-.11.06.06.11.13.22.09-.06-.03-.11-.06-.07-.14.05-.09.13-.09.31-.01-.12-.08-.24-.07-.36-.02-.03.01-.06.04-.1.03-.07-.08-.03-.13.03-.19h.03c.07.02.13 0 .17-.07.02-.02.02-.07.07-.05.07.09.19-.04.26.08.02-.06.05-.11.04-.17.1-.06.21-.03.32-.02.17.01.34 0 .5 0 .04 0 .08-.01.11-.04h.03z"/><path class="cls-99" d="M22.59 8.62c-.01.09.06.08.11.11.09.06.19.12.14.24-.03.08-.26.1-.33.02-.11-.13-.16-.05-.22.05v-.02c-.02-.04-.04-.08-.05-.12.07 0 .21-.11.2-.17 0-.04-.05-.06-.06-.05-.12.12-.27.02-.4.04-.15.02-.31 0-.46 0-.03 0-.06 0-.09.01-.05.03-.02.07 0 .1.01.02.03.03.06 0 .01-.02-.01-.06.03-.05.01 0 .03.04.02.06 0 .03-.03.05-.06.05-.07 0-.13-.02-.2-.04-.02-.06.07-.06.05-.11-.05-.06-.13.08-.17-.03.03-.05.07-.06.13-.06.44-.03.88-.03 1.31-.03z"/><path class="cls-97" d="M22.28 8.41c-.02.08-.06.11-.12.09-.03-.01-.06-.05-.09-.08-.15-.14-.24-.13-.34.04-.04.06-.1.13-.16.08-.05-.04 0-.13.02-.18.07-.13.37-.2.5-.15.1.04.11.15.19.19z"/><path d="M20.88 8.66c.01.09-.05.08-.11.09-.27.02-.54-.04-.81-.03-.02 0-.05 0-.06-.03.07-.06.15-.03.23-.03h.76z" style="fill:#e1abb5;stroke-width:0"/><path class="cls-97" d="M20.05 8.49c.12-.12.19-.26.36-.22.07.01.13.05.13.12 0 .09-.08.05-.13.05-.11.02-.22.03-.36.05z"/><path d="M14.46 8.38h-.09c-.01.02-.03.03-.05.03-.05.01-.09.03-.14.06-.14.11-.29.12-.45.04-.24-.12-.49-.1-.74-.07h-.15c-.15.01-.23.1-.24.25 0 .08 0 .17-.06.24-.02 0-.04.03-.05.02-.1-.03-.1-.19-.23-.18v-.06c.04-.14.07-.3.27-.29.02 0 .04-.02.06-.03.04-.05.09-.03.14-.03.09 0 .1-.06.13-.12-.04-.1.03-.16.08-.23.12-.17.29-.32.37-.52 0-.04 0-.1.07-.06.04.02.1.05.06.11-.03.05-.05.09-.08.14.05.03.09 0 .13-.02.21-.15.45-.14.69-.11.05 0 .06.04.07.09 0 .05.02.09.09.06.1-.04.1.03.09.09-.03.14-.09.26-.21.35-.03.02-.09.03-.07.08.02.05.07 0 .09.02.07.04.18.02.22.11z" style="fill:#efb4c5;stroke-width:0"/><path d="M13.32 7.51c.02.16-.11.25-.19.35-.1.12-.21.23-.26.39h-.04c-.19 0-.14 0-.13-.17.02-.36.3-.52.46-.79.06.08.11.14.16.21z" style="fill:#f6e7e7;stroke-width:0"/><path class="cls-41" d="M19.38 8.92c0 .06-.07.11-.03.18.02.02.01.04 0 .06-.06.04-.15.04-.18.12-.11.1-.25.1-.38.07-.16-.05-.34-.08-.45-.24-.02-.03-.06-.05-.1-.06-.04-.04-.16 0-.13-.12.02-.05.05-.11.08-.17.08.09.15.19.3.08-.06.11 0 .2.07.21.04 0 .09-.03.13.03.07-.08.15.06.24 0 .07-.05.19 0 .27-.06 0-.04-.03-.04-.06-.05-.05 0-.11 0-.08-.08.02-.04.02-.07.1-.08.13-.01.17.05.22.13z"/><path class="cls-8" d="M16.83 8.74c.05-.07.11-.04.15 0 .06.06.13.09.2.02 0 0 .03-.02.04-.02.12.05.25.03.37.05 0 .09-.09.04-.1.09q.23.09.23-.11c.08.09.16.03.22 0 .11-.06.13 0 .15.08-.11.2-.37.32-.59.3-.22-.08-.41-.2-.59-.33-.03-.03-.07-.05-.08-.09z"/><path d="M17.49 9.13c.27.05.41-.17.6-.27 0 .02 0 .05.03.06.01.09.11.04.15.09-.03.09-.1.08-.16.06-.1-.03-.17 0-.22.09 0 .01-.01.03-.03.04-.07.05-.33.03-.41-.03 0-.03 0-.05.04-.04z" style="fill:#e4adb6;stroke-width:0"/><path class="cls-41" d="M18.71 8.83c.08-.08.18.06.26-.04.02-.03.05.01.05.05 0 .05.02.11-.06.11-.11 0-.21-.04-.32-.01-.04.01-.04-.04-.02-.07.02-.03 0-.13.09-.04z"/><path class="cls-84" d="m16.83 8.74.09.06c0 .11-.02.17-.14.11-.05-.03-.1-.01-.16 0-.02 0-.04-.02-.04-.04 0-.07.11-.07.1-.15.05.03.1.03.15.03z"/><path class="cls-41" d="M19.65 8.8c-.07.16-.14.2-.24.12.07-.03.1-.07-.02-.13.11-.01.19-.04.26.01z"/><path class="cls-61" d="M8.09 11.85c.06.05.09.12.14.17.07.07.02.15-.03.22-.03.04-.07.06-.11.03-.06-.05-.12-.1-.07-.19.03-.07.02-.15.08-.22z"/><path d="M6.72 9.79c.03-.1.13-.09.18-.08.12 0 .24-.02.35 0 .04 0 .1.02.13-.02.04-.06-.05-.07-.06-.15.23.08.47.15.71.17.03.06.14-.01.15.09h-.99c-.09.06-.18.01-.27 0h-.21z" style="fill:#e7b2bc;stroke-width:0"/><path class="cls-63" d="M6.93 9.79h.27c-.06.07.03.13.01.2-.13-.02-.16-.18-.28-.2zM4.29 8.77h.24c-.05.07-.02.16-.03.23 0 .04.03.11-.05.12-.07 0-.07-.06-.08-.11-.01-.06-.01-.12-.02-.17 0-.03-.04-.05-.05-.07z"/><path class="cls-67" d="M9.9 9.93c-.06.1-.17.11-.24.18-.03.04-.08 0-.1-.03-.04-.05.01-.11.04-.11.1.01.18-.08.3-.04z"/><path class="cls-52" d="M9.52 10.75c.08.14.07.18-.09.3.04-.11.1-.19.09-.3z"/><path class="cls-61" d="M4.32 9.83c-.02.08.07.12.06.2-.07-.1-.24-.04-.27-.2h.21z"/><path class="cls-51" d="m18.51 10.36.03-.15c.1.04.18.14.3.13.04 0 .1.04.07.11-.03.06-.08.05-.12 0-.08-.07-.17-.12-.28-.1z"/><path class="cls-88" d="M19.11 10.03c-.09.1-.2.1-.31.06.11 0 .21-.06.31-.06z"/><path class="cls-102" d="M19.14 9.34c.04.08.08.16.2.08.03-.02.1.02.16.02.11.01.21.07.34 0 .12-.06 0 .08.07.1.08-.13.06-.4.34-.29.18.03.35.03.52-.04.03-.01.06-.02.08.01.03.03.02.06-.01.09-.07.07-.15.11-.24.15.09.05.09.05.28-.09.13-.1-.06-.2.02-.3.07.07.04.24.21.22 0 0 0 .01.01.02.05.13.05.13.15.05.02-.01.04-.01.06-.02.03.06-.08.11-.02.16.07.05.16.06.24.05.06-.01.11-.03.18.03h-2.17c-.19.06-.38.03-.57.04-.23.01-.46 0-.68 0-.14 0-.28-.04-.41-.05-.05 0-.11-.01-.11-.08s.06-.07.11-.08c.11-.03.22.02.31-.02-.03-.03-.07.02-.12.02-.07 0-.13-.02-.14-.1 0-.08.04-.12.13-.1.04.01.07.01.1-.01.07-.06.15-.08.23-.03.09.05.03.13.01.22.09-.05.16-.14.23 0 .01.03.03 0 .04-.02.01-.02.04-.05.06-.03.09.09.24.02.32.12-.07-.09-.03-.13.07-.12z"/><path class="cls-28" d="M22.29 9.02v.06c-.06 0-.07.05-.09.09-.09.18-.28.27-.46.17-.09-.05-.24-.07-.24-.25.1.08.18.17.29.14.1-.02.21-.04.3-.13.05-.05.12-.06.19-.07z"/><path class="cls-28" d="M22.35 9.04c.07.03.06.09.06.15-.06.02-.08.1-.15.11-.04-.08.1-.14.03-.23.03 0 .05 0 .06-.03z"/><path class="cls-102" d="M21.68 9.35c-.01.14-.14.06-.18.13-.01 0-.03-.02-.03-.03 0-.02 0-.04.02-.05.05-.06.12-.02.19-.06zM21.33 9.34c0-.06.03-.1.1-.08.03 0 .05.03.03.05-.03.05-.08.06-.13.03z"/><path d="M18.27 9.59h1.29c.08.06.18 0 .28.05-.18.04-.37-.02-.55.04h-.89c-.31 0-.62.03-.94.03-.44 0-.88-.02-1.32-.03-.03.02-.06.02-.09 0h-.03c-.14.04-.28.09-.42 0l-.03-.03c.03-.04.08-.02.12-.03.05-.05.12-.05.18-.05h.56c.38.01.77 0 1.15 0 .16 0 .33.02.49.03.06 0 .13.02.19-.01z" style="fill:#dda6ae;stroke-width:0"/><path class="cls-102" d="M21.72 10.06c-.08-.12-.21-.21-.18-.38.05-.02.06.02.08.05.05.09.09.18.16.25s0 .07-.05.08zM21.97 9.94c-.04-.08-.02-.12.04-.14.03 0 .05 0 .06.03.01.08-.1.04-.1.11z"/><path class="cls-55" d="M16.47 12s-.03.07-.08.07c-.06 0-.07-.04-.07-.09 0-.04.02-.09.07-.08.04 0 .07.05.08.09zM16.21 11.95s-.02.06-.06.05c-.02 0-.06-.01-.05-.04 0-.03.03-.06.07-.06.03 0 .04.02.04.05z"/><path class="cls-15" d="M15.6 9.67h.42c-.06.08-.05.18-.01.25.04.08.01.11-.05.14-.08-.01-.12-.07-.17-.13-.04-.04-.08-.11-.14-.06-.09.06.02.09.04.14 0 .02.02.04 0 .06-.1.14-.02.18.11.21s.25.07.37.1v.02c-.08.07-.15 0-.23 0-.11-.02-.22-.04-.29-.09.23.11.52.12.79.21.02.04.08.02.1.05-.2.11-1.15-.15-1.54-.41 0-.09-.09-.1-.14-.16.13 0 .21.09.36.11-.1-.06-.16-.1-.22-.14-.1-.06-.18-.12-.11-.25h.06c.1-.02.2 0 .3-.03h.36z"/><path class="cls-95" d="M15.69 10.06s-.04-.06-.07-.08c-.04-.03-.11-.05-.05-.12.05-.05.11-.1.19-.02.06.07.13.14.2.21.11.07.23.06.34.06.1 0 .2 0 .28.07.04.04.08.02.12-.01.04-.03.06-.08.11-.09 0 .18-.18.29-.38.24-.15-.03-.31-.04-.46-.07-.1-.02-.21-.1-.29-.19zM16.44 10.51c-.29-.03-.58-.1-.85-.22.2 0 .38.1.58.1.08.07.21.02.27.12z"/><path class="cls-15" d="M16.05 9.67h.09c-.02.04.05.11-.01.12-.07.01-.08-.06-.08-.12z"/><path d="M15.18 8.63s.03.05.07.04c.25-.12.52-.19.74-.37.07-.01.15-.08.19.04.04.11-.02.21-.1.25-.17.09-.32.21-.49.3-.08.04-.16.03-.23.07-.13.05-.23.19-.4.13-.05-.02-.11.04-.16.08-.12.09-.26.15-.4.19a.474.474 0 0 0-.33.02c-.12.05-.24 0-.37-.04-.16-.05-.31-.12-.47-.19.38-.13.76-.19 1.13-.24.02 0 .05-.03.05-.02.24.23.35-.15.55-.1-.09-.04-.19.02-.28-.04.03-.09.09-.06.15-.03.09-.09.23-.03.33-.09z" style="fill:#f7c5c9;stroke-width:0"/><path class="cls-42" d="M14.85 8.71c-.05 0-.11-.02-.15.03-.36.07-.71.18-1.08.21-.22-.02-.34-.16-.46-.33-.05-.07-.18-.09-.17-.21.1 0 .2-.01.31-.04.12-.03.25.03.36.08.19.08.36.1.53-.01.07.04.1 0 .12-.06h.06l.06.12c.01.01.04.03.04.04-.05.1.06.07.08.11.06.05.12.02.18 0 .07-.03.11-.02.12.06z"/><path class="cls-90" d="M12.99 8.42c.14.14.29.26.39.43.02.03.05.05.09.03.08-.04.12 0 .15.07-.09.01-.19.01-.28.04-.28.1-.54.11-.8-.04 0-.11 0-.23.03-.33.04-.17.13-.21.42-.2z"/><path d="M14.4 9.34c.16-.12.37-.17.53-.31a.06.06 0 0 1 .08 0c.07.05.12.04.17-.03.04-.07.12-.04.18-.05.08.02.02.08.02.11.32-.15.58-.42.94-.49-.32.15-.59.41-.92.52-.23.07-.41.21-.62.28-.17.06-.33.11-.51.12h-.17c.04-.08.12-.05.18-.05s.12 0 .11-.09z" style="fill:#fae2e4;stroke-width:0"/><path d="M13.94 11.38c-.01.05-.05.06-.09.06-.06 0-.1-.04-.1-.1 0-.04.04-.04.08-.04.06 0 .1.03.12.09z" style="fill:#eac0c9;stroke-width:0"/><path d="M13.47 11.17s-.06-.03-.06-.07c0-.04.02-.07.06-.07.04 0 .05.04.06.07 0 .04-.01.07-.06.07z" style="fill:#e6b8c2;stroke-width:0"/><path class="cls-77" d="m15.24 9.68-.12.03c-.04 0-.07 0-.11.05-.06.09-.04-.05-.07-.06.1-.06.2-.02.3-.03z"/><path class="cls-79" d="M10.38 9.22c-.15.12-.32.06-.39-.15-.01-.03-.02-.06 0-.09.01-.02 0-.06.04-.05.04 0 .03.03.03.07 0 .22.03.23.2.21.05 0 .09 0 .13.02zM12.81 10.22s-.02.07-.07.08c-.05 0-.08-.02-.08-.07 0-.04.02-.07.06-.07.05 0 .07.03.08.06z"/><path class="cls-43" d="M14.85 8.46s-.04.09-.09.09c-.05 0-.06-.04-.06-.09 0-.04.03-.08.07-.08.05 0 .07.03.07.07zM14.55 8.65c-.13.03-.09-.09-.12-.15.15-.03.17 0 .12.15z"/><path class="cls-96" d="M16.44 9.61h-.75c-.02-.07-.06-.14-.13-.14s-.09-.01-.07-.07c.01-.05.04-.1.12-.07.11.04.23.14.36.05.03-.02.15 0 .03-.09-.04-.02.03-.07.04-.13-.15.09-.2-.08-.31-.12.22.07.44.02.66 0v.02c0 .04-.05.06-.06.09.01.01.02.01.03 0 .2-.11.28-.08.36.14.01.04 0 .07-.03.09-.03.03-.09.05-.11.01-.06-.1-.05.02-.07.02-.02 0-.05.02-.1 0 .12.04.21.04.3.03.05 0 .1 0 .1.06 0 .05-.05.05-.09.05-.09 0-.18 0-.26.03z"/><path class="cls-96" d="M16.68 8.72c.05.1-.05.1-.09.15 0 .17 0 .18-.21.18-.03-.05.08-.15-.07-.16-.01 0 .03-.05.05-.08.03-.03.06-.04.09 0 .02.03.01.08.07.1-.02-.13.07-.16.16-.19z"/><path class="cls-32" d="M19.14 9.34c-.08.03-.12.07 0 .12.03.01.06.03.05.11-.12-.16-.33-.08-.45-.21-.08.01.04.09-.03.1-.1.02-.1-.08-.15-.13-.02.02-.03.04-.05.06-.03.03-.07.09-.12.06-.05-.03-.02-.09 0-.13.03-.05.05-.1-.01-.13-.06-.03-.15-.03-.18.04-.03.08-.07.05-.12.04-.03 0-.06-.07-.1-.02-.02.03-.03.06-.01.08.02.04.06.07.11.04.07-.03.12 0 .18.03-.12.06-.25 0-.36.05-.04-.02-.09-.03-.14-.02-.04 0-.1 0-.1-.06 0-.05.04-.09.09-.08.17.02.13-.07.09-.17.07-.1.15-.15.27-.09.05.02.1.01.15-.03.04.02.08.04.11.07.22.25.49.29.79.2l-.03.06z"/><path d="M19.35 9.16V9.1c.1-.11.23-.1.36-.08.07.01.15.04.09.17-.02-.14-.12-.13-.2-.13-.04 0-.09.05-.09.11s.06.03.1.03c.03 0 .06.02.06.05 0 .03-.03.03-.06.03-.12.02-.23.04-.26-.12z" style="fill:#eeb3c0;stroke-width:0"/><path class="cls-43" d="M14.31 8.38c.03.07 0 .12-.06.16-.05-.01 0-.08-.06-.1.03-.04.07-.05.12-.06z"/><path class="cls-96" d="M16.62 8.89s.09-.08.14-.03c.09.09.13.02.16-.06l.45.27c.04.02.09.03.11.06l-.03.03c-.11.1-.24.01-.35.03-.05 0-.02-.1-.05-.16 0 0-.03.03-.01.02h.01c.02.03.01.07 0 .1-.04.08-.05.16 0 .24.03.04.02.07-.01.1-.04.03-.09.04-.14.03-.05-.01-.05-.05-.04-.09.03-.08-.04-.09-.09-.11-.16-.1-.23-.23-.2-.38 0-.03.02-.04.04-.06z"/><path d="M16.62 8.89c-.07.21-.01.33.2.42.11.04.12.08.04.18.05.02.09.03.14 0 .03-.02.07-.02.01-.08a.188.188 0 0 1-.02-.23c.02-.04.11-.09 0-.14-.01 0 0-.03.02-.03s.05 0 .07.02c.11.12.16.14.32.14.02 0 .04 0 .06-.01.11.07.24-.03.35.04.02.01.04-.04.04-.07.12.03.06.11.06.18-.01.08-.07.03-.1.02-.07-.02-.08.02-.11.07.07.04.17-.02.22.07-.04.01-.1-.03-.1.04 0 .06.06.03.09.03.12 0 .24.05.37.04-.04.04-.08.03-.13.03h-1.7c.1-.06.22-.06.33-.06 0-.06-.04-.06-.07-.05-.11.05-.21-.01-.32-.01-.03 0-.06-.01-.05-.05 0-.03.04-.04.06-.03.16.05.11-.06.09-.13.08 0 .05.05.07.08.01.03.04.05.07.04.03 0 .06-.03.07-.05.02-.04-.03-.04-.04-.05-.04-.06-.07-.13-.1-.2-.05.04-.12.04-.16.09-.02.03-.04.06-.08.03a.068.068 0 0 1-.04-.06c0-.04 0-.08.07-.08.03 0 .04-.02.05-.05.02-.02.04-.05.05-.04.14.05.13-.07.16-.14 0 .01.02.02.03.03z" style="fill:#f7dddf;stroke-width:0"/><path class="cls-77" d="M14.23 9.24c0-.08-.02-.16-.02-.23.07.07.09.15.02.23z"/><path class="cls-84" d="M16.82 8.99s-.04.06-.08.05c-.05-.01-.08-.04-.08-.09 0-.03.03-.05.06-.04.04.01.09.02.1.08z"/></svg>