<svg width="81" height="80" viewBox="0 0 81 80" fill="none" xmlns="http://www.w3.org/2000/svg">
<path d="M40.0763 52.6714C39.4611 67.1089 28.3728 75.3138 21.0735 79.1402C19.3641 80.0355 17.3763 80.2406 15.5201 79.7132C13.6639 79.1857 12.081 77.966 11.0978 76.3056C2.02473 60.813 2.84119 47.7008 19.2911 40.1399H9.57985C8.33026 40.1388 7.12607 39.6714 6.20298 38.8291C5.2799 37.9869 4.70439 36.8304 4.5891 35.5862L0.0209558 5.47783C-0.054884 4.65044 0.0758475 3.81716 0.401423 3.05275C0.726999 2.28834 1.23724 1.6167 1.88636 1.09808C2.53549 0.579462 3.3032 0.230091 4.12063 0.0813044C4.93806 -0.0674819 5.77964 -0.0110294 6.56987 0.245599C20.1306 4.64988 32.4378 14.5854 35.5973 25.4868C35.2724 26.1768 35.1229 26.93 35.1229 27.5941V47.6663C35.1229 47.8522 35.1354 48.04 35.1603 48.2298C35.297 49.4423 35.8721 50.5631 36.7775 51.3811C37.683 52.1992 38.8561 52.6581 40.0763 52.6714ZM70.7021 40.1399H60.9909C72.1942 45.2831 81.4138 55.6325 69.1842 76.3056C68.201 77.966 66.618 79.1857 64.7619 79.7132C62.9057 80.2406 60.9178 80.0355 59.2084 79.1402C51.9063 75.3167 40.818 67.1089 40.2057 52.6714C41.5243 52.6585 42.7846 52.1255 43.7122 51.1881C44.6399 50.2508 45.1599 48.9851 45.159 47.6663V27.5826C45.159 26.8639 44.9837 26.125 44.6818 25.4839C47.8557 14.5854 60.1485 4.64988 73.7121 0.245599C74.5037 -0.0112631 75.3467 -0.067718 76.1656 0.0812961C76.9844 0.23031 77.7534 0.580138 78.4038 1.09943C79.6889 2.12863 80.4392 3.7443 80.2581 5.47783L75.6929 35.5862C75.5776 36.8304 75.0021 37.9869 74.079 38.8291C73.1559 39.6714 71.9517 40.1388 70.7021 40.1399Z" fill="#2E3ECD"/>
<path d="M35.1258 47.6634V40.4159C27.6023 41.1289 14.5965 43.676 17.6927 52.7634C15.4848 53.0534 13.4697 54.1717 12.0556 55.8918C10.6415 57.6119 9.93402 59.8053 10.0766 62.0275C10.2191 64.2497 11.201 66.3347 12.8233 67.86C14.4456 69.3854 16.5871 70.2371 18.8139 70.2426C30.1063 70.2426 34.4444 64.0817 40.1424 52.6829C39.4834 52.6829 38.8308 52.5531 38.222 52.3008C37.6131 52.0485 37.06 51.6787 36.5941 51.2126C36.1282 50.7464 35.7588 50.1931 35.5068 49.5841C35.2549 48.9751 35.1254 48.3225 35.1258 47.6634Z" fill="#6BAFFF"/>
<path d="M20.0702 66.4793C20.5767 66.4992 21.0821 66.4165 21.5559 66.2363C22.0298 66.0561 22.4624 65.7821 22.8278 65.4307C23.1932 65.0793 23.4839 64.6577 23.6824 64.1913C23.881 63.7249 23.9834 63.2231 23.9834 62.7162C23.9834 62.2092 23.881 61.7075 23.6824 61.241C23.4839 60.7746 23.1932 60.353 22.8278 60.0016C22.4624 59.6502 22.0298 59.3762 21.5559 59.196C21.0821 59.0159 20.5767 58.9332 20.0702 58.953C19.0976 58.991 18.1775 59.4041 17.5028 60.1057C16.8281 60.8073 16.4512 61.7428 16.4512 62.7162C16.4512 63.6895 16.8281 64.6251 17.5028 65.3266C18.1775 66.0282 19.0976 66.4413 20.0702 66.4793Z" fill="#2E3ECD"/>
<path d="M35.1258 30.101C28.1686 16.8651 20.6739 10.9286 12.8083 10.1092C12.4584 10.0721 12.1046 10.1091 11.7699 10.2176C11.4352 10.3261 11.127 10.5037 10.8654 10.739C10.6038 10.9743 10.3946 11.262 10.2514 11.5834C10.1082 11.9048 10.0341 12.2527 10.0341 12.6046V33.0621C10.0341 34.2551 10.8793 35.2872 12.0522 35.5201C18.2044 38.4007 25.8515 39.9761 35.1258 40.1371V30.101ZM62.5921 52.7606C65.6912 43.676 52.6825 41.1289 45.159 40.4159V47.6606C45.159 50.4348 42.9138 52.6801 40.1424 52.6801C45.8404 64.0789 50.1756 70.2454 61.4681 70.2454C63.6987 70.2455 65.8456 69.3963 67.4726 67.8703C69.0996 66.3444 70.0845 64.2563 70.2273 62.0302C70.37 59.8042 69.6599 57.6074 68.2412 55.8861C66.8225 54.1648 64.8016 53.0483 62.5893 52.7634" fill="#6BAFFF"/>
<path d="M54.5397 2.65473C51.386 0.932689 48.6232 0.78607 46.3262 2.21775C40.8381 5.63882 40.128 17.2389 40.0993 22.5775L40.1424 22.5746C41.048 22.5746 41.8817 22.8333 42.6148 23.2502C42.6004 17.6241 43.4427 6.97275 47.6573 4.34514C49.1465 3.41656 51.0065 3.5833 53.3409 4.85686C53.4855 4.93577 53.6442 4.98542 53.808 5.00298C53.9717 5.02055 54.1374 5.00568 54.2954 4.95923C54.4535 4.91278 54.6008 4.83566 54.729 4.73226C54.8573 4.62887 54.9639 4.50123 55.0428 4.35664C55.1217 4.21205 55.1713 4.05332 55.1889 3.88954C55.2065 3.72576 55.1916 3.56012 55.1451 3.40208C55.0987 3.24404 55.0216 3.0967 54.9182 2.96847C54.8148 2.84024 54.6872 2.73363 54.5426 2.65473" fill="#2E3ECD"/>
<path d="M37.67 23.2502C38.4031 22.8304 39.2397 22.5717 40.1424 22.5717L40.1826 22.5775C40.1539 17.236 39.4438 5.63882 33.9557 2.21774C31.6616 0.786065 28.896 0.935559 25.7423 2.65472C25.4502 2.81408 25.2335 3.08291 25.1397 3.40208C25.0459 3.72125 25.0827 4.06461 25.242 4.35664C25.4014 4.64866 25.6702 4.86541 25.9894 4.95923C26.3086 5.05304 26.6519 5.01621 26.9439 4.85686C29.2783 3.5833 31.1384 3.41943 32.6275 4.34513C36.8421 6.97275 37.6873 17.6241 37.67 23.2502Z" fill="#2E3ECD"/>
<path d="M45.159 27.5912C45.159 26.2603 44.6303 24.984 43.6893 24.0429C42.7482 23.1018 41.4718 22.5731 40.141 22.5731C38.8101 22.5731 37.5337 23.1018 36.5927 24.0429C35.6516 24.984 35.1229 26.2603 35.1229 27.5912V47.6634C35.167 48.9645 35.7148 50.1976 36.6508 51.1024C37.5868 52.0073 38.8377 52.5131 40.1395 52.5131C41.4414 52.5131 42.6923 52.0073 43.6283 51.1024C44.5643 50.1976 45.1121 48.9645 45.1561 47.6634L45.159 27.5912ZM60.2146 66.4793C60.7212 66.4992 61.2265 66.4165 61.7004 66.2363C62.1742 66.0561 62.6068 65.7821 62.9722 65.4307C63.3376 65.0793 63.6283 64.6577 63.8269 64.1913C64.0255 63.7249 64.1278 63.2231 64.1278 62.7162C64.1278 62.2092 64.0255 61.7075 63.8269 61.241C63.6283 60.7746 63.3376 60.353 62.9722 60.0016C62.6068 59.6502 62.1742 59.3762 61.7004 59.196C61.2265 59.0159 60.7212 58.9332 60.2146 58.953C59.242 58.991 58.3219 59.4041 57.6472 60.1057C56.9725 60.8073 56.5957 61.7428 56.5957 62.7162C56.5957 63.6895 56.9725 64.6251 57.6472 65.3266C58.3219 66.0282 59.242 66.4413 60.2146 66.4793ZM16.9337 23.8309C17.7655 23.8309 18.5633 23.5004 19.1515 22.9122C19.7397 22.324 20.0702 21.5263 20.0702 20.6944C20.0702 19.8626 19.7397 19.0648 19.1515 18.4766C18.5633 17.8884 17.7655 17.558 16.9337 17.558C16.1019 17.558 15.3041 17.8884 14.7159 18.4766C14.1277 19.0648 13.7972 19.8626 13.7972 20.6944C13.7972 21.5263 14.1277 22.324 14.7159 22.9122C15.3041 23.5004 16.1019 23.8309 16.9337 23.8309Z" fill="#2E3ECD"/>
<path d="M45.159 30.1009C52.1162 16.8651 59.6109 10.9285 67.4765 10.1092C67.8262 10.0726 68.1797 10.1098 68.514 10.2185C68.8484 10.3272 69.1562 10.5049 69.4175 10.7402C69.6788 10.9755 69.8877 11.263 70.0308 11.5842C70.1738 11.9053 70.2478 12.253 70.2479 12.6046V33.062C70.2489 33.6418 70.0485 34.204 69.6809 34.6523C69.3133 35.1007 68.8013 35.4074 68.2326 35.52C61.0167 38.7341 53.2719 40.0882 45.159 40.1371V30.1009Z" fill="#6BAFFF"/>
<path d="M62.0948 23.8309C62.9266 23.8309 63.7244 23.5004 64.3126 22.9122C64.9008 22.324 65.2313 21.5263 65.2313 20.6944C65.2313 19.8626 64.9008 19.0648 64.3126 18.4766C63.7244 17.8884 62.9266 17.558 62.0948 17.558C61.263 17.558 60.4652 17.8884 59.877 18.4766C59.2888 19.0648 58.9583 19.8626 58.9583 20.6944C58.9583 21.5263 59.2888 22.324 59.877 22.9122C60.4652 23.5004 61.263 23.8309 62.0948 23.8309Z" fill="#2E3ECD"/>
</svg>
