<?xml version="1.0" encoding="UTF-8"?><svg id="Capa_1" xmlns="http://www.w3.org/2000/svg" viewBox="0 0 24 24"><defs><style>.cls-1{fill:#f8c7d1;}.cls-1,.cls-2,.cls-3,.cls-4,.cls-5,.cls-6,.cls-7,.cls-8,.cls-9,.cls-10,.cls-11,.cls-12,.cls-13,.cls-14,.cls-15,.cls-16,.cls-17,.cls-18,.cls-19,.cls-20,.cls-21,.cls-22,.cls-23,.cls-24,.cls-25,.cls-26,.cls-27,.cls-28,.cls-29,.cls-30,.cls-31,.cls-32,.cls-33,.cls-34,.cls-35,.cls-36,.cls-37,.cls-38,.cls-39,.cls-40,.cls-41,.cls-42,.cls-43,.cls-44,.cls-45,.cls-46,.cls-47,.cls-48,.cls-49,.cls-50,.cls-51,.cls-52,.cls-53,.cls-54,.cls-55,.cls-56,.cls-57,.cls-58,.cls-59,.cls-60{stroke-width:0px;}.cls-2{fill:#eea4bb;}.cls-3{fill:#ea9bb3;}.cls-4{fill:#fbdce1;}.cls-5{fill:#d4648a;}.cls-6{fill:#f1b3c4;}.cls-7{fill:#fcf1f5;}.cls-8{fill:#f2b0c2;}.cls-9{fill:#f2aab9;}.cls-10{fill:#efaec1;}.cls-11{fill:#dc7a9a;}.cls-12{fill:#fdeff6;}.cls-13{fill:#e99ab4;}.cls-14{fill:#eea7ba;}.cls-15{fill:#f7ccd6;}.cls-16{fill:#eba1b7;}.cls-17{fill:#ea99b5;}.cls-18{fill:#eeb2c5;}.cls-19{fill:#eea5ba;}.cls-20{fill:#fceff6;}.cls-21{fill:#fdeef5;}.cls-22{fill:#f2bcc9;}.cls-23{fill:#f0a7b7;}.cls-24{fill:#f6c7d6;}.cls-25{fill:#f7d3e1;}.cls-26{fill:#d5688c;}.cls-27{fill:#e58fae;}.cls-28{fill:#e68eac;}.cls-29{fill:#f2bccf;}.cls-30{fill:#fceef5;}.cls-31{fill:#f5c0d2;}.cls-32{fill:#e186a7;}.cls-33{fill:#f2b8c6;}.cls-34{fill:#e996ad;}.cls-35{fill:#f6d3e1;}.cls-36{fill:#e083a4;}.cls-37{fill:#f7b9c8;}.cls-38{fill:#fcdde2;}.cls-39{fill:#eca1b7;}.cls-40{fill:#f8c4ce;}.cls-41{fill:#f4c4d5;}.cls-42{fill:#e289a6;}.cls-43{fill:#fbeef3;}.cls-44{fill:#eeb4ca;}.cls-45{fill:#da7796;}.cls-46{fill:#ea9cb4;}.cls-47{fill:#e797b2;}.cls-48{fill:#f4bbc9;}.cls-49{fill:#fdf6f8;}.cls-50{fill:#e28aa3;}.cls-51{fill:#f2b6c5;}.cls-52{fill:#de7e9c;}.cls-53{fill:#f9c7d2;}.cls-54{fill:#e590ad;}.cls-55{fill:#d36489;}.cls-56{fill:#e896ab;}.cls-57{fill:#f2b9ce;}.cls-58{fill:#f3b0c3;}.cls-59{fill:#efb4ca;}.cls-60{fill:#f9d4e0;}</style></defs><path class="cls-32" d="M14.68,15.43c-.43-.99-.85-1.99-1.31-2.97-.27-.57-.54-1.15-.81-1.72-.02-.05-.04-.1-.05-.14.05-.08.12-.04.18-.01.15.05.3.11.45.18.56.25,1.15.45,1.74.61.86.24,1.74.43,2.63.56.26.04.53.09.8.1.66.57,1.35,1.09,2,1.66.53.47.98,1.02,1.3,1.66.01.09.05.17.1.24.06.16.14.31.17.48-.07.16-.26.27-.46.24-.21-.03-.43-.02-.63-.13-.12-.07-.27-.04-.4-.03-.15.02-.27-.01-.39-.09-.16-.25-.3-.5-.42-.77-.02-.09.01-.17.07-.23.16-.17.35-.31.42-.55.02-.07.12-.09.15-.16-.17.14-.32.29-.49.44-.1.09-.18.19-.33.2-.06-.03-.09-.1-.13-.15-.4-.65-.86-1.26-1.35-1.85-.2-.24-.42-.45-.66-.64-.4-.33-.86-.46-1.36-.51-.45-.04-.91-.03-1.36-.14-.16-.04-.29.14-.27.36.04.29.13.57.22.84.2.62.44,1.23.68,1.85.04.1.09.2.13.3.02.12.13.21.09.35-.21.12-.19-.12-.28-.2-.06.05-.08.1-.05.17.05.1.08.2-.03.27-.11.07-.19-.02-.27-.08-.05-.03-.08-.08-.1-.13Z"/><path class="cls-23" d="M22.43.56c.42.17.6.54.75.93.19.5.27,1.03.31,1.57.05.53.07,1.06.06,1.59,0,.22-.02.44-.03.66-.02.66.15,1.3.33,1.92.24.79.18,1.56-.16,2.31,0,.01-.02.03-.03.04-.19-.03-.25-.2-.34-.33-.08-.13-.13-.28-.13-.44,0-.1,0-.17-.13-.09-.03.02-.07.01-.08-.03-.04-.17,0-.34-.03-.51-.04-.31-.14-.6-.22-.91-.17-.59-.31-1.19-.24-1.82.05-.24.01-.49.02-.74,0-.58-.03-1.16-.12-1.73-.06-.39-.1-.79-.28-1.15-.03-.08,0-.14.06-.2.11-.14.2-.29.3-.43.11-.16.12-.33,0-.49-.03-.04-.08-.08-.04-.15Z"/><path class="cls-16" d="M6.41,1.44c.96.64,1.78,1.43,2.53,2.3.11.12.22.24.31.38-.15.18-.31.36-.49.52-.06.05-.1.11-.19.07-.09-.04-.12-.12-.1-.21.04-.15.1-.28.26-.34.09-.03.15-.08.16-.18,0-.03-.02-.04-.04-.04-.09,0-.15.06-.18.14-.09.18-.23.24-.42.23-.07,0-.13.01-.19.06-.07.07-.15.1-.24.06-.28-.13-.59-.17-.88-.27-.69-.25-1.36-.54-2.04-.81-.07-.03-.13-.07-.21-.04-.02.08.08.13.05.21-.06.05-.12,0-.17-.02-.62-.29-1.21-.63-1.8-.98-.18-.11-.37-.23-.5-.41-.06-.1-.08-.21-.04-.32.03-.07,0-.14-.01-.22-.02-.09,0-.15.1-.14.07.01.1.06.13.12.04.24.25.28.41.39.17.07.31.2.45.31.22.16.46.28.68.43.25.17.53.24.8.32.08.02.12,0,.13-.08.01-.16.1-.26.22-.35.09-.07.15-.17.22-.26.22-.3.44-.62.83-.73.08-.03.09-.18.22-.12Z"/><path class="cls-58" d="M9.53,20.61c.07.25.06.52.1.77.03.21.05.43.11.63,0,.07-.06.07-.09.05-.27-.13-.56-.09-.84-.13-.2-.03-.4-.04-.59-.09-.45-.12-.92-.1-1.37-.19-.02,0,0,0-.02,0-.49-.04-.59-.26-.33-.66.02-.03.05-.05.06-.1-.05,0-.08.02-.09.05-.11.18-.3.26-.48.34-.07.03-.13.06-.19.12-.05.06-.12.07-.18.03-.35-.19-.67-.43-.97-.69-.46-.39-.84-.85-1.14-1.38-.05-.09-.1-.19-.12-.3.15.06.3.06.46.08.08.01.12.1.15.17.04.09.09.11.15.02.08-.11.19-.17.32-.22.13-.05.23-.14.29-.27.05-.01.07.02.1.05.51.6,1.08,1.13,1.74,1.56.19.12.38.23.6.29.25.08.46.02.65-.15.16-.16.27-.35.34-.57.02-.05,0-.13.1-.13.07.04.06.11.06.17,0,.1.05.15.15.14.29-.02.55.16.84.13.08,0,.11.09.14.16.01.03-.04.12.07.1Z"/><path class="cls-8" d="M20.36,20.3c-1.42,1.28-2.97,2.38-4.72,3.24.06-.24.11-.44.16-.64.19-.84.21-1.69.17-2.55,0-.23-.05-.46-.06-.69.18-.09.31-.24.45-.38.07.11.03.23.04.35.02.4.08.79.34,1.11.26.32.45.38.78.25.42-.17.78-.43,1.12-.71.17-.14.35-.27.5-.43.04-.04.08-.07.14-.05.06.04.03.09.02.14-.03.22.04.3.27.31.17,0,.33-.05.49-.03.11,0,.22.01.29.11Z"/><path class="cls-48" d="M6.41,1.44c-.38.25-.78.47-1.01.89-.07.13-.17.24-.3.32-.1.07-.13.17-.12.28,0,.13-.07.13-.17.11-.56-.14-1.03-.44-1.5-.77-.15-.11-.29-.24-.46-.32-.15-.13-.31-.23-.41-.41-.03-.03-.07-.07-.1-.1-.36-.44-.26-.84.2-1.03.14-.05.28-.09.42-.14.81-.04,1.58.17,2.31.51.4.18.8.39,1.15.66Z"/><path class="cls-46" d="M20.36,20.3c-.25-.13-.51-.05-.76-.03-.28.03-.39-.09-.31-.43,0-.02,0-.04-.02-.06-.02-.1.06-.14.12-.2.25-.29.52-.56.68-.91.23-.51.28-1.04.2-1.58-.04-.28-.12-.56-.23-.82-.03-.07-.08-.14-.04-.23.18.12.39.07.59.07.13,0,.24.02.35.09.24.14.69.08.94-.12.13.39.17.79.13,1.19-.11,1.24-.75,2.2-1.64,3.02Z"/><path class="cls-14" d="M15.81,2.95c.24-.25.49-.49.75-.71.5-.43,1.03-.82,1.61-1.14.11,0,.22.02.32-.07.07-.07.19,0,.19.09,0,.2.13.31.26.42.21.18.39.37.45.65.02.09.08.15.16.19.17.08.32.22.51.27,0,.11-.1.13-.16.17-.32.2-.67.36-1,.55-.34.17-.7.31-1.04.48-.06.03-.12.04-.18.05-.15.02-.29.05-.42.13-.03.02-.07.03-.11.04-.15.03-.21-.02-.18-.17.02-.09.02-.17-.05-.22-.2-.15-.32-.37-.49-.54-.11-.12-.3-.09-.38-.23,0-.01-.05.02-.08.03-.05.03-.09.07-.16.03Z"/><path class="cls-9" d="M2.95.28c-.12.12-.29.13-.43.19-.27.11-.43.37-.35.6.04.13.11.25.16.37-.07,0-.11.01-.08.1.04.1.05.2,0,.31-.04.08.04.16.05.24-.08.02-.13-.03-.18-.08-.14-.12-.28-.24-.41-.37-.13-.13-.15-.13-.23.04-.18.38-.3.79-.36,1.21-.13.88-.19,1.77-.13,2.66.05.71-.1,1.37-.28,2.04-.13.49-.23.99-.14,1.5.04.38.17.73.35,1.06.04.07.11.14.05.23-.53-.47-.8-1.08-.92-1.77-.1-.59.03-1.15.19-1.71.16-.57.31-1.16.25-1.76-.06-.59,0-1.17.01-1.76.03-.69.13-1.37.37-2.02.23-.63.7-.93,1.33-1.03.25-.04.5-.08.76-.07Z"/><path class="cls-36" d="M6.06,12.79c.32-.37.64-.75.97-1.12.59-.1,1.19-.15,1.78-.28.89-.19,1.74-.47,2.57-.84.1-.05.18-.18.32-.08-.11.35-.21.71-.33,1.06-.34,1.07-.66,2.14-.95,3.22-.05.19-.11.37-.16.55-.11.07-.16.01-.18-.09-.01-.06,0-.13-.04-.2-.07.05-.05.11-.05.17-.02.11-.08.16-.19.15-.07-.01-.15-.01-.22-.02-.21-.02-.28-.12-.25-.32.02-.11.08-.2.15-.29.07-.08.15-.07.23-.01.09.07.12.01.13-.07,0-.07-.01-.13-.05-.2-.07-.12-.03-.22.09-.29.03-.02.07-.04.1-.06.03-.02.05-.06.04-.09-.01-.04-.05-.03-.09-.03-.07.01-.15.03-.2-.05-.02-.08,0-.15.03-.22.17-.45.32-.9.46-1.36.06-.2.12-.39.1-.6-.01-.2-.12-.29-.32-.24-.39.08-.78.11-1.17.13-.61.04-1.17.22-1.63.65-.19.18-.35.39-.55.56-.13.03-.19.14-.25.24-.05.08-.12.14-.19.19-.04.03-.08.04-.13,0-.04-.03-.05-.09-.03-.12.08-.11.04-.22.02-.34Z"/><path class="cls-48" d="M20.06,2.64c-.3,0-.66-.27-.74-.55-.06-.2-.19-.35-.35-.48-.1-.08-.19-.16-.26-.26-.05-.07-.12-.12-.07-.22.02-.04-.01-.08-.05-.09-.03-.01-.08-.02-.09.01-.09.18-.21.1-.32.04.71-.44,1.47-.7,2.3-.79.23,0,.46.04.68.12.1.03.2.07.29.13.28.18.34.4.22.7-.1.25-.29.42-.47.6-.3.28-.62.51-.96.73-.05.03-.1.08-.17.05Z"/><path class="cls-3" d="M9.74,13.89c.05.06.11.04.17.02.05-.02.1-.05.15.02.05.07,0,.12-.03.17-.02.03-.06.05-.1.06-.18.08-.18.1-.08.27.06.1.05.2.02.3-.02.08-.09.12-.16.03-.1-.13-.17-.1-.24.03-.02.04-.06.07-.07.12-.08.25-.02.38.22.36.02,0,.05,0,.07,0,.24,0,.24,0,.26-.22,0-.05.01-.11.08-.11.08,0,.09.05.09.12.01.08-.04.17.04.24.02.02.07,0,.1.01-.12.47-.24.93-.35,1.4-.13.54-.23,1.1-.3,1.65-.04.07-.03.14-.07.21-.03.05-.06.09-.12.08-.07-.02-.1-.07-.1-.14,0-.03.01-.07.02-.1.02-.07.02-.14-.05-.18-.08-.05-.17-.06-.22.01-.16.2-.38.11-.57.12-.1,0-.13-.09-.16-.18-.04-.15-.04-.3-.04-.46.03-.44.17-.85.32-1.25.16-.44.37-.85.55-1.29.06-.1.1-.21.14-.32.07-.17.12-.35.21-.52.05-.08.07-.18.1-.27.02-.07.03-.16.13-.17Z"/><path class="cls-47" d="M7.14,11.53c-.14-.08-.27,0-.41.02-.4.05-.8.12-1.21.12-.15.03-.31,0-.46.01-.07,0-.12-.03-.11-.1,0-.08.07-.14.14-.11.26.13.41-.07.6-.17.09-.05.17-.1.26-.12.23-.04.43-.15.65-.22.09-.03.17-.09.22-.18.07-.12.2-.14.32-.17.15-.04.32-.02.45-.15.33-.13.67-.22,1.01-.32.48-.15.95-.33,1.42-.51.08-.03.15-.08.23-.12.13.05.18.18.28.26.17.14.36.24.57.3.03,0,.06.01.08.02.04.02.09.04.1.09,0,.05-.04.08-.08.1-.14.07-.29.12-.44.18-.8.29-1.6.57-2.43.78-.4.1-.8.19-1.2.27Z"/><path class="cls-37" d="M5.62,21.44s.1,0,.11-.02c.13-.17.34-.2.5-.29.07-.04.11-.09.15-.16.03-.05.06-.11.13-.13.05-.02.11-.04.14,0,.04.05-.02.08-.05.11-.05.05-.09.1-.12.16-.15.3-.05.46.29.5.52.06,1.04.08,1.55.21.37.09.76.09,1.14.13.07,0,.13,0,.18.07.03.04.07.04.1,0,.09.32.17.64.27.96.07.22.16.43.25.65.03.07.03.12-.06.09-.6-.22-1.21-.43-1.78-.72,0,0,0,0-.01-.01-.11-.1-.24-.13-.38-.17-.27-.09-.5-.25-.74-.38-.43-.22-.85-.45-1.25-.72-.05-.07-.12-.12-.21-.14-.07-.04-.16-.06-.21-.14Z"/><path class="cls-2" d="M4.77,18.86c.02.18-.13.23-.24.28-.14.07-.28.13-.38.27-.05.09-.13.09-.17-.03-.09-.24-.14-.26-.37-.18-.06.02-.09,0-.1-.04-.02-.06-.04-.11-.11-.1-.16-.28-.22-.6-.27-.91-.12-.77.04-1.49.35-2.2.01-.03.04-.06.06-.08.09.12.09.12.07.41.06-.05.12-.08.19-.06.07.01.1.07.13.12.11.16.31.14.39-.04.06-.13.11-.26.05-.41,0-.02,0-.04,0-.07,0-.14.33-.41.49-.4.03.07,0,.12-.04.18-.19.35-.31.72-.39,1.11-.09.46-.1.93.03,1.38.05.19.13.38.25.54.05.06.1.13.07.22Z"/><path class="cls-54" d="M15.81,2.95c.06,0,.11-.04.15-.07.09-.07.09-.07.14.04.01.03.03.02.05.03.25.04.39.21.51.4.04.07.1.12.16.17.13.1.27.19.16.4-.04.08.01.12.11.09.16-.04.29-.15.46-.17.03,0,.07,0,.1-.01,0,.09-.07.09-.13.11-.36.16-.73.28-1.1.43-.58.23-1.14.5-1.68.83-.01,0-.03.02-.04.03-.13.07-.26.14-.37.25-.12.1-.26.18-.39.27-.19.13-.37.27-.54.41-.05.04-.11.11-.18.01.26-.45.57-.86.89-1.27.52-.69,1.07-1.35,1.69-1.95Z"/><path class="cls-42" d="M4.73,3.5s-.03-.06-.05-.09c-.03-.05-.12-.09-.07-.15.05-.06.14-.03.21,0,.48.19.96.38,1.44.59.43.19.88.33,1.34.45.06.02.12.04.17.07.11.06.21.07.28-.05.04-.06.09-.07.16-.06.23.04.31,0,.41-.2.06-.12.15-.18.29-.16.04,0,.08.03.06.06-.06.1-.06.23-.22.25-.12.02-.26.25-.25.37,0,.07.05.1.11.12.06.02.08-.02.11-.06.06-.09.14-.17.24-.22.07-.04.12-.1.13-.17.01-.11.08-.13.17-.12.59.67,1.11,1.4,1.59,2.16-.25.13-.35.09-.4-.17,0-.05-.03-.08-.07-.11-.17-.11-.33-.24-.52-.33-.33-.17-.63-.41-.97-.58-.05-.03-.1-.05-.16-.07-.06-.02-.11-.03-.17,0-.09.05,0,.1,0,.14,0,.03,0,.07-.02.1-.07.03-.12-.01-.17-.05-.75-.52-1.59-.84-2.44-1.14-.38-.14-.74-.3-1.1-.47-.04-.02-.1-.03-.1-.1Z"/><path class="cls-47" d="M12.31,10.19c-.19-.04-.36.02-.54.07-.16.01-.3-.02-.44-.1-.09-.05-.18-.11-.27-.14-.38-.11-.6-.39-.76-.73-.06-.12-.12-.16-.24-.09-.07-.04-.08-.12-.09-.19-.09-.45,0-.87.22-1.27.19-.23.4-.45.69-.56.07.01.11.05.12.13,0,.08-.07.11-.12.16-.15.13-.3.27-.38.45-.04.08-.07.17-.03.25.11.17.07.35.08.53,0,.09.03.16.12.19.1.03.18,0,.25-.06.07-.06.1-.15.15-.23.04-.05.08-.08.15-.07.07.02.08.08.08.14,0,.16.02.32.03.48.03.24.12.35.35.38.24.03.49,0,.73.04.13.02.17-.09.19-.2.02-.17,0-.34,0-.51,0-.08,0-.16.02-.24.05-.13.15-.2.28-.15.15.06.27.04.39-.06.07,0,.08.06.08.11.03.42-.05.82-.36,1.14-.04.05-.1.09-.16.09-.13.02-.22.08-.26.21-.02.06-.07.1-.12.14-.06.03-.11.07-.17.1Z"/><path class="cls-17" d="M16.36,19.27s-.02.01-.02.02c-.05.23-.22.31-.42.35-.09-.7-.23-1.39-.43-2.06-.21-.71-.49-1.39-.78-2.07-.01-.03-.01-.05-.02-.08.06.05.13.09.19.14.06.05.12.09.18.04.07-.06.05-.14,0-.2-.03-.05-.11-.1-.03-.17.05-.04.05-.14.12-.12.06.01.06.09.07.15.03.1.07.15.18.13.07,0,.1.06.12.11.37.77.73,1.55.87,2.4.07.42.08.84.02,1.26,0,.04-.01.08-.05.11Z"/><path class="cls-28" d="M4.83,15.43c-.15.07-.25.21-.39.29-.07.04-.06.13-.02.2.1.2-.04.35-.1.51-.05.12-.35.09-.42-.03-.12-.2-.14-.2-.3-.04,0,0-.03.01-.06.02.02-.18.05-.34-.01-.5.14-.39.4-.72.65-1.05.43-.55.96-1.02,1.42-1.55.15-.17.29-.35.46-.5.09.1.15.2.03.32-.03.03-.04.09,0,.12.04.03.07-.01.1-.03.12-.06.16-.19.24-.29.05-.06.09-.12.18-.11.02.08-.04.13-.08.18-.47.6-.91,1.21-1.3,1.86-.1.14-.18.3-.27.45-.03.06-.06.12-.13.15Z"/><path class="cls-39" d="M7.61,10.5c-.1.17-.28.12-.43.16-.14.04-.29.05-.36.23-.04.08-.17.13-.27.15-.23.05-.43.16-.66.22-.16.04-.32.15-.46.26-.1.08-.18.09-.27.01-.04-.03-.09-.05-.14-.02-.03.02-.05.05-.04.09.02.07.09.06.14.06.13,0,.26,0,.39,0-.03.03-.07.03-.11.03-.89.03-1.77-.02-2.64-.27-.15-.04-.3-.11-.44-.17-.04-.05-.03-.11-.05-.16-.05-.13,0-.19.12-.24.19-.08.38-.12.59-.06.11.03.24,0,.36,0,.51.11,1.03.11,1.55.1.7,0,1.38-.14,2.06-.28.17-.04.34-.08.51-.13.05-.01.1-.03.14.02Z"/><path class="cls-19" d="M8.33,17.7c0,.15,0,.31.04.46.02.1.05.2.19.14.05-.02.11,0,.17.01.1.03.19.02.25-.08.08-.13.21-.13.33-.06.12.06.11.18.06.28-.03.07-.04.13.03.16.09.04.08-.05.11-.09.04-.05.02-.13.09-.16-.09.75-.06,1.51-.06,2.26-.01.04.02.1-.04.12-.04.01-.07-.03-.06-.06.05-.28-.15-.29-.34-.29-.24,0-.45-.17-.7-.11-.08.02-.1-.05-.1-.13,0-.07.03-.15-.03-.21-.05-.05-.04-.11-.04-.18.04-.51.02-1.01,0-1.52,0-.14.02-.28.02-.43,0-.05,0-.11.08-.11Z"/><path class="cls-55" d="M12.31,10.19c.01-.08.07-.09.14-.1.08,0,.14.05.21.07.66.28,1.33.53,2.02.74.47.15.95.29,1.43.39.04.01.09.03.13.04.37.06.74.15,1.11.19.14.03.28.04.41.06.07.01.14.04.17.12.13.11.25.23.38.34-.07.07-.17.04-.24.03-.45-.06-.9-.11-1.34-.21-.83-.17-1.66-.37-2.47-.63-.54-.17-1.06-.41-1.59-.61-.05-.02-.09-.05-.14-.02-.07-.14-.14-.27-.21-.41Z"/><path class="cls-13" d="M17.94,11.7c-.11-.09-.24-.07-.37-.1-.07-.01-.14-.02-.22-.04-.06-.1-.14-.16-.26-.17-.05,0-.09-.02-.13-.04-.17-.07-.34-.09-.51-.03-.07.02-.15.06-.23.03l-.1-.03c-.07-.09-.02-.17.02-.25.08-.15.06-.18-.1-.23-.14-.04-.29-.07-.42-.13-.06-.03-.16-.05-.1-.16.09-.03.17,0,.25.03.52.14,1.04.28,1.57.37.63.11,1.25.17,1.89.15.06,0,.12,0,.18,0,.07,0,.14,0,.2,0,.17.04.34.03.51.06.17.03.36.23.39.42-.74.15-1.49.13-2.24.08-.11,0-.22-.05-.33.02Z"/><path class="cls-15" d="M11.39,7.14c.06.04.11,0,.17,0,.32-.06.63,0,.92.13.02,0,.04,0,.07,0,.11.04.21.11.28.21.03.12.12.22.17.33.08.18.02.26-.14.36-.12.07-.22.08-.34.09-.17,0-.26.13-.26.3,0,.16,0,.32-.06.47-.12.25-.32.28-.49.06-.08-.11-.12-.23-.16-.36-.05-.18-.04-.36.02-.54.03-.09.03-.16-.06-.22-.26-.17-.34-.4-.24-.71.01-.04.03-.07.05-.11.02-.02.04-.04.07-.04Z"/><path class="cls-51" d="M3.33,10.84c-.19-.02-.4.05-.58-.06-.04-.02-.09.01-.12.04-.06.04-.12.07-.19.08-.14.01-.2.05-.1.19.04.05-.01.11,0,.17-.34-.1-.64-.28-.93-.48-.16-.11-.32-.21-.44-.37-.05-.21-.19-.38-.26-.59-.09-.23-.14-.46-.18-.69.14.02.14.15.19.23.05.09.07.11.17.03.22-.19.51-.12.69.13.1.19.23.36.38.52.05.09.12.16.22.2.33.22.66.41,1.06.5.05.01.12.02.12.1Z"/><path class="cls-5" d="M10.08,9.19s.03-.12.1-.12c.07,0,.08.07.1.12.08.18.23.32.3.51.01.03.06.06.09.07.25.13.51.24.76.39.1.06.24.02.34.09-.02.07-.05.13-.07.2-.17-.01-.29.12-.43.18-.9.39-1.83.68-2.8.85-.42.08-.85.1-1.27.19-.05.01-.11.02-.16-.03.04-.05.07-.09.11-.14.06-.06.13-.09.21-.1,1.11-.21,2.18-.54,3.23-.94.2-.08.41-.14.6-.23.03-.01.07-.02.08-.08-.42-.08-.77-.29-1.01-.64-.14-.08-.19-.19-.17-.34Z"/><path class="cls-10" d="M20.5,11.59c-.08-.1-.14-.22-.24-.31-.12-.11-.29-.07-.44-.1-.07-.01-.15,0-.22-.04,0-.05.03-.06.06-.07.34-.06.68-.11,1.01-.24.57-.22,1-.6,1.32-1.12.12-.2.17-.21.37-.1.12.07.25.07.38.07.06.09,0,.16-.04.23-.28.54-.69.97-1.21,1.29-.17.1-.34.19-.52.27-.16.05-.32.09-.49.1Z"/><path class="cls-11" d="M11.39,7.14s-.02.03-.04.04c-.12.06-.21.21-.38.13-.02-.05-.06-.08-.1-.1-.09-.03-.14-.1-.2-.16-.41-.43-.87-.8-1.32-1.18-.02-.02-.05-.03-.07-.04-.23-.15-.45-.31-.67-.47-.03-.03-.08-.05-.07-.1,0-.03,0-.07-.02-.1-.02-.05-.1-.09-.04-.14.05-.04.12-.08.2-.05.15.05.29.11.42.2.38.28.82.47,1.2.75.11.08.22.1.18.28-.02.08.08.13.17.11.06-.01.12-.02.18-.03.21.27.36.58.55.86Z"/><path class="cls-34" d="M21.16,1.86c.11-.15.26-.26.36-.41.28-.43.21-.75-.28-.94-.22-.08-.44-.14-.68-.16-.03,0-.07,0-.09-.04.67-.08,1.32-.01,1.95.24.03.13.18.19.17.34,0,.12-.01.22-.09.32-.14.19-.27.38-.4.57-.02.1-.1.15-.17.2-.12.1-.24.2-.37.29-.05.04-.11.09-.18.06-.04-.06-.01-.11,0-.16.07-.2.03-.28-.18-.29-.02,0-.04,0-.06-.03Z"/><path class="cls-56" d="M20.99,11.5c0-.08.07-.06.11-.08.05-.03.1-.06.15-.09.47-.24.85-.57,1.17-.98.15-.19.27-.41.35-.64-.03-.04-.02-.08,0-.11.1-.24.15-.5.19-.76,0-.04.02-.09.05-.12.07-.01.08-.16.16-.11.09.05.04.16.06.24.05.29.18.54.43.72-.21.49-.56.86-.99,1.17-.51.37-1.07.62-1.68.76Z"/><path class="cls-26" d="M12.79,7.48c-.07-.09-.19-.11-.24-.21.23-.37.44-.74.7-1.09.11.07.15-.05.21-.09.28-.23.58-.43.88-.63.13-.08.26-.15.38-.24h0c.12-.05.14.01.11.11,0,.02-.01.03-.03.04-.15.11-.12.25-.04.38-.09.17-.26.25-.4.36-.48.4-.94.82-1.37,1.27-.05.04-.09.1-.16.11-.02,0-.03,0-.04-.02Z"/><path class="cls-31" d="M8.02,22.81c.15,0,.31,0,.38.17-.14-.02-.26-.09-.38-.17Z"/><path class="cls-46" d="M21.71,15.61c-.1-.05-.14-.13-.1-.24.06.07.1.15.1.24Z"/><path class="cls-31" d="M5.83,21.57c.1,0,.19.01.21.14-.09-.02-.14-.09-.21-.14Z"/><path class="cls-29" d="M16.36,19.27c-.02-.18.03-.35.03-.53.02-.89-.23-1.72-.6-2.52-.13-.28-.22-.57-.39-.83,0-.13-.11-.21-.11-.34-.08-.19-.11-.4-.22-.59-.07-.13-.03-.27.03-.39.06-.13.23-.12.34.02,0-.18-.02-.36-.04-.55,0-.08.03-.14.13-.14.06.05.07.13.08.2.11.85.37,1.64.73,2.42.13.29.28.57.43.85.27.52.56,1.03.72,1.6.08.3.07.6.07.9,0,.09,0,.18.12.22-.08-.09-.06-.18-.03-.27.27-.69.15-1.37-.06-2.04-.22-.73-.59-1.39-.97-2.05-.32-.56-.65-1.13-.93-1.72-.05-.1-.11-.19-.08-.31.09-.04.11.04.13.09.14.32.37.59.52.9.04.09.11.13.21.08.23-.1.46-.07.69-.03.05.01.12.05.16,0,.04-.05-.02-.1-.04-.14-.06-.15-.15-.28-.26-.4-.06-.06-.09-.13-.05-.22.07-.06.1.02.13.05.08.09.13.2.21.28.01.01.02.03.03.04.23.38.47.75.67,1.15.28.58.6,1.15.76,1.79.06.23.08.47.09.71,0,.1-.01.2.02.34.1-.23.16-.43.19-.64.08-.69-.02-1.35-.36-1.97-.26-.49-.59-.92-.98-1.31-.04-.04-.1-.08-.09-.16.19-.02.28.14.4.24.02.02.03.05.05.07.09.12.2.21.38.17.13-.03.25-.01.24.17,0,.06.04.09.1.1.22.02.36.15.48.32.06.03.07.09.1.14.13.06.15.2.2.31.11.26.28.49.38.75.18.42.31.85.35,1.31.06.78-.16,1.44-.7,2.01-.13.14-.25.28-.37.42-.38.35-.77.68-1.21.96-.21.13-.43.25-.68.32-.31.08-.49-.09-.66-.28-.28-.33-.36-.74-.37-1.16,0-.11,0-.23,0-.34Z"/><path class="cls-44" d="M17.01,13.48c0,.09,0,.15.08.23.14.14.22.33.31.5.05.09-.03.15-.15.12-.15-.04-.3-.07-.45-.06-.1,0-.19,0-.28.06-.13.09-.22.04-.28-.09-.16-.35-.42-.64-.56-1,0-.01-.03-.02-.04-.03-.05,0-.06.03-.06.08,0,.04,0,.09-.04.12-.2.11-.05.28-.05.42,0,.12-.05.26.04.38.01.01,0,.05-.03.05-.02,0-.04-.02-.05-.03-.01-.03-.01-.07-.03-.1-.04-.08-.11-.1-.19-.09-.08,0-.1.05-.11.12-.04.17-.05.32.07.47.1.13.06.3.1.44-.19-.32-.3-.69-.44-1.03-.21-.55-.42-1.11-.56-1.68-.05-.19-.11-.37,0-.56.07-.11.14-.17.28-.12.26.09.54.09.81.11.49.04.98.05,1.43.26.42.19.75.49,1.05.83.46.52.86,1.09,1.26,1.66.07.11.16.21.19.34-.1-.08-.21-.15-.31-.23-.04-.03-.08-.05-.12-.04-.14.01-.22-.02-.19-.19.02-.11-.08-.1-.14-.09-.25.06-.39-.05-.52-.25-.08-.12-.22-.21-.36-.26-.09.02-.14-.05-.2-.1-.17-.12-.31-.28-.5-.39.01.07.09.11.05.18Z"/><path class="cls-46" d="M19.61,15.3c-.07-.1-.14-.21-.2-.31.27-.14.46-.37.68-.58.07-.06.12-.11.23-.1-.02.03-.03.06-.05.08-.22.21-.32.52-.57.7-.07.05-.1.12-.09.21Z"/><path class="cls-53" d="M21.4,2.34c.27-.15.48-.36.72-.55.17.12.16.32.2.49.12.57.21,1.15.22,1.73,0,.23.02.46.02.7-.05.18-.03.36-.02.54,0,.07.02.15-.01.22-.05.54.07,1.07.17,1.59.02.08.08.14.07.23.03.08,0,.17-.08.1-.24-.16-.51-.27-.74-.45,0-.29.04-.57.06-.85.03-.38,0-.76-.04-1.14,0-.08-.04-.17,0-.25.11-.03.11.06.13.12.1.32.13.65.1.98-.02.22-.03.43-.03.65.04-.56.06-1.11.07-1.66,0-.05,0-.1,0-.15,0-.05-.01-.11-.07-.13-.07-.02-.08.05-.11.09-.02.02-.03.05-.06.06-.1-.04-.08-.14-.11-.21-.16-.55-.67-.92-1.23-.87-.25.02-.5.1-.73.23-.55.32-1.1.62-1.68.88-.35.16-.73.24-1.09.35-.41.12-.79.3-1.16.49-.18.09-.36.22-.57.27-.04-.04-.02-.07,0-.11.04-.06.03-.11-.01-.15-.07-.07-.07-.14-.03-.22.13-.17.33-.24.5-.34.57-.33,1.16-.6,1.78-.82.49-.17.97-.37,1.44-.59.24-.09.48-.21.71-.33.07-.03.13-.07.21-.08.09.03.14-.02.17-.1.04-.05.09-.06.15-.07.14.01.22-.08.3-.18.24-.16.47-.35.74-.45Z"/><path class="cls-1" d="M21.98,6.97c.14-.05.24.07.33.13.12.07.26.13.37.24.08.08.08,0,.09-.06.16.47.27.94.24,1.44-.02.35-.12.67-.24.99-.15.07-.29.03-.42-.06-.13-.1-.21-.07-.29.07-.26.43-.6.8-1.06,1.03-.41.2-.85.32-1.31.36-.1-.02-.19,0-.27.03-.06,0-.11,0-.17,0-.02-.01-.04-.03-.06-.03-.33-.03-.6-.2-.88-.38-.25-.17-.55-.3-.87-.34-.1-.01-.19-.04-.28-.08-.05-.02-.13-.06-.04-.13.31-.04.62-.02.93-.02.33.09.66,0,.98-.05.52-.08,1-.28,1.44-.56.14-.09.28-.11.42-.04.13.06.15.19.14.33,0,.08-.01.15.08.18.09.03.19.06.27-.02.07-.06.13-.1.23-.07.09.03.14-.04.18-.1.27-.39.4-.81.32-1.28-.06-.34-.14-.67-.17-1.01-.02-.2-.06-.41.03-.6Z"/><path class="cls-1" d="M22.53,5.46c.02-.17-.05-.33-.04-.5,0-.09,0-.18.07-.25,0,.2,0,.4,0,.59,0,.05.02.11-.03.16Z"/><path class="cls-40" d="M8.54,5.25c.25.18.5.37.75.55.1.11.1.23,0,.34-.07.09-.05.16.03.22.1.08.19.18.28.28.07.08.18.16.12.3-.08.01-.11-.05-.15-.09-.26-.29-.53-.57-.84-.8-.49-.36-1.01-.67-1.56-.92-.48-.22-.99-.36-1.48-.52-.64-.2-1.2-.55-1.78-.88-.26-.15-.52-.3-.83-.36-.55-.11-1.23.16-1.39.83-.09.35-.12.71-.14,1.06-.04.53.04,1.05.06,1.57.02.38-.02.75-.12,1.12-.08.29-.1.6-.08.9.01.16.05.32.1.48.02.07.07.13.02.21-.12-.2-.3-.24-.52-.18-.07.02-.13.04-.16.1-.07.13-.11.11-.16-.02-.04-.11-.1-.22-.19-.31-.11-.63.05-1.22.22-1.81.13-.48.26-.97.22-1.47-.03-.43-.03-.85-.02-1.28.02-.77.07-1.54.27-2.29.07-.25.18-.49.3-.72.04-.09.1-.12.17-.02.18.23.4.4.62.57.53.45,1.15.75,1.76,1.09.22.12.44.24.67.32.57.28,1.16.51,1.76.73.69.25,1.35.57,1.96.98.03.02.06.03.09.04Z"/><path class="cls-9" d="M2.44,1.55c.15.12.29.26.41.41-.15-.12-.42-.13-.41-.41Z"/><path class="cls-31" d="M8.33,17.7c-.07.15-.06.33-.05.48.03.49.02.97.02,1.46,0,.1-.02.19-.03.29-.08.28-.19.55-.42.74-.18.16-.39.22-.63.15-.49-.14-.88-.45-1.26-.76-.28-.22-.54-.47-.78-.73-.14-.15-.29-.29-.4-.46-.17-.27-.33-.54-.4-.86-.09-.43-.09-.87,0-1.3.09-.41.22-.8.42-1.16.02-.03.03-.07.04-.11.11-.22.23-.42.38-.62.07-.03.11-.09.16-.15.08-.09.15-.19.29-.18.04,0,.07-.03.09-.06.11-.16.28-.26.37-.44.02-.04.07-.08.13-.05.03.05,0,.1-.01.15-.08.17-.2.32-.3.48-.29.45-.46.94-.56,1.46-.09.31-.12.63-.12.97.09-.08.09-.15.11-.22.18-.56.47-1.06.78-1.55.23-.37.43-.75.67-1.11.04-.07.06-.17.18-.14.05.09.03.18-.03.26-.04.07-.09.13-.13.2-.05.09-.02.14.08.14.18,0,.35.05.53.04.11,0,.22-.01.31-.06.06-.03.13-.05.2-.04.18.02.3-.11.45-.19.06-.03.06-.09.06-.15,0-.12.04-.22.06-.34.01-.08.06-.09.12-.04.09.08.15.17.16.29.01.12.03.24.06.35.03.13.11.16.23.1.1-.05.14-.14.21-.22.09-.12.15-.11.21.03-.07.17-.14.34-.21.51-.07.09-.1.2-.14.31-.14.43-.36.82-.52,1.24-.15.42-.31.84-.34,1.29Z"/><path class="cls-2" d="M5.14,19.49c-.17-.05-.27-.03-.35.1-.03.05-.12.04-.13-.06,0-.09.2-.32.29-.33.05,0,.07.03.09.07.03.06.06.12.1.21Z"/><path class="cls-45" d="M19.13,3.57c-.59.31-1.22.52-1.84.76-.55.21-1.07.47-1.57.79-.1.06-.23.09-.29.2-.18.16-.39.28-.58.42-.03.02-.07.05-.11.02q-.16-.2.01-.4c.07-.08.1-.14-.05-.15.2-.18.45-.28.68-.41.7-.38,1.46-.62,2.2-.92.03-.01.05-.03.07-.05.22-.04.41-.17.61-.25.21-.09.42-.18.62-.27.07-.04.14-.11.21-.03.06.07.09.17.03.27Z"/><path class="cls-50" d="M19.13,3.57s-.01-.07-.01-.1c0-.16-.08-.2-.22-.14.14-.14.32-.18.48-.28.23-.13.47-.25.68-.41.4-.22.75-.5,1.1-.79.12-.02.24-.07.3.1.02.06.04.11,0,.17-.03.06-.08.13-.07.21-.24.16-.48.32-.72.48-.09.08-.19.15-.31.17-.05.02-.09.04-.14.07-.04.06-.09.11-.17.1-.28.13-.55.26-.83.39-.03.01-.06.02-.1.03Z"/><path class="cls-59" d="M6.24,13.93c-.15.17-.3.35-.45.52-.03.04-.06.1-.11.09-.17-.05-.21.09-.29.18-.05.06-.09.11-.18.1.35-.64.79-1.21,1.23-1.79.06-.08.12-.15.18-.23.32-.38.66-.74,1.11-.96.35-.18.73-.24,1.12-.27.4-.03.79-.05,1.18-.14.18-.04.32.07.33.27.02.38-.13.71-.24,1.06-.12.38-.25.76-.38,1.15-.13.12-.08.32-.2.45-.08-.12-.14-.1-.2.02-.07.15-.18.26-.37.25-.07,0-.11-.03-.12-.1-.02-.15-.05-.29-.07-.44-.01-.13-.1-.21-.2-.33.02.18-.09.31-.04.46.01.05,0,.09-.05.12-.11.07-.21.17-.33.2-.44.09-.88.16-1.32.08-.11-.02-.09-.1-.06-.16.03-.07.08-.14.13-.2.09-.09.1-.18.09-.3-.02-.11.05-.16.11-.23.1-.06.15-.17.2-.27.03-.06.05-.13.11-.18.11-.04.13-.14.16-.23.19-.26.34-.54.52-.78-.46.32-.91.7-1.33,1.1-.14.13-.26.29-.38.44-.04.05-.07.13-.15.11Z"/><path class="cls-59" d="M9.19,15.16c-.01-.13.03-.23.14-.31-.03.11-.06.22-.14.31Z"/><path class="cls-41" d="M1.54,9.54c-.07-.23-.16-.45-.17-.69.08,0,.1.06.1.11.03.21.16.36.26.53.07.12.34.11.46,0,.15-.14.27-.14.43-.04.42.27.88.45,1.35.62.3.1.6.19.91.22.27.03.54,0,.8-.05.4-.08.78-.23,1.16-.37.33-.12.65-.27,1-.38-.37-.05-.72.02-1.07.08-.52.09-1.05.18-1.58.2-.4.02-.81,0-1.21-.11-.02,0-.04-.01-.07-.02-.06-.03-.14-.05-.15-.13,0-.09.08-.12.15-.14.2-.06.36-.18.52-.29.11-.07.22-.12.35-.12.18,0,.37-.03.54-.08.17-.05.31-.15.47-.23.3-.15.62-.22.96-.24.2-.01.39-.03.5-.25.07-.13.24-.13.37-.11.26.04.38-.01.52-.24.07-.11.16-.17.28-.12.13.04.16.14.07.25-.04.04-.09.07-.13.12-.04.05-.08.1-.03.17.05.06.11.05.17.02.07-.04.13-.09.19-.14.08-.08.2-.11.29-.17.14-.09.14-.17.01-.28-.04-.03-.1-.05-.08-.12.02-.07.09-.07.14-.07.2,0,.4-.05.59-.06.15-.01.19-.11.25-.21.22.09.25.3.3.49,0,.01,0,.02,0,.03-.05.22-.2.39-.22.62-.03.29-.07.58.08.86.03.13.1.24.17.34-.08.16-.25.17-.38.22-.71.29-1.45.5-2.19.73-.02,0-.05,0-.07,0-.31.07-.62.15-.92.22-.89.21-1.8.26-2.71.22-.22,0-.44-.06-.65-.1-.11-.08-.25-.07-.36-.12-.29-.13-.59-.25-.84-.46-.08-.06-.15-.13-.21-.21-.18-.13-.3-.31-.38-.51Z"/><path class="cls-45" d="M14.71,5.22c-.1.13-.23.19-.38.24.11-.1.23-.2.38-.24Z"/><path class="cls-18" d="M12.79,7.48s.02,0,.03,0c.28.14.54.63.48.92-.08.14-.18.18-.34.11-.21-.08-.3,0-.31.23,0,.19,0,.39,0,.58,0,.25-.12.33-.35.27-.17-.04-.34-.03-.51-.02-.15,0-.27-.05-.39-.12-.07-.04-.13-.1-.12-.19,0-.2-.06-.39-.04-.6,0-.04.02-.1-.04-.12-.06-.02-.1.03-.12.08-.05.08-.07.18-.15.24-.1.08-.2.1-.32.06-.12-.05-.14-.14-.13-.25.02-.03.03-.06.04-.09.05-.14.13-.16.24-.08.18.13.18.13.27-.07.05-.11.09-.22.1-.34,0-.05.03-.11.09-.1.05,0,.05.07.06.11,0,.02,0,.05,0,.07-.02.2.04.37.22.48.03.02.05.06.08.09.05.13.08.27.19.38.14.14.27.11.36-.06.09-.16.07-.33.07-.5,0-.28.26-.43.51-.3.03-.04-.04-.14.09-.14.19,0,.24-.11.15-.29-.06-.11-.17-.21-.17-.35Z"/><path class="cls-33" d="M10.22,7.72c-.08-.18-.12-.38-.28-.51-.1-.07-.17-.16-.21-.27-.07-.23-.26-.36-.42-.51-.14-.13-.16-.18-.04-.31.09-.11,0-.2.01-.3.18.07.3.23.45.35.4.32.79.67,1.13,1.06-.25.13-.45.33-.65.51Z"/><path class="cls-22" d="M11.59,8.75c-.35-.13-.36-.42-.36-.73-.04.17-.09.32-.15.47-.08.21-.15.23-.3.07-.1-.11-.17-.1-.21.04-.01.04-.03.06-.07.07,0-.17,0-.34-.07-.51-.1-.2.06-.36.18-.5.11-.14.25-.25.38-.37.14,0,.24-.12.38-.13-.1.16-.08.34-.06.52,0,.11.06.2.19.24.16.04.22.13.14.29-.08.17-.07.35-.03.53Z"/><path class="cls-52" d="M13.31,8.4c-.05-.36-.21-.67-.48-.92.05-.04.09-.07.14-.11.21.08.33.27.44.44.05.08.09.16.12.25.21.61.11,1.15-.31,1.64-.17.19-.4.3-.59.48-.06-.04-.14-.02-.17-.1.06-.08.15-.14.15-.26,0-.06.08-.12.13-.11.25.01.34-.17.43-.33.17-.3.23-.63.15-.98Z"/><path class="cls-27" d="M12.62,10.19c.01-.11.1-.14.18-.19.13-.09.25-.19.38-.29.1-.03.18.02.26.05.59.24,1.18.46,1.79.65.1.03.23.03.28.16.15.19.38.17.58.23.18.06.21.09.12.25-.05.08-.1.16-.08.27-.35-.05-.69-.16-1.02-.26-.84-.24-1.66-.54-2.47-.88Z"/><path class="cls-27" d="M16.22,11.35c.06-.02.12-.04.17-.06.21-.08.42-.07.62.03.05.02.1.03.15.03.13,0,.21.06.19.2-.38-.03-.76-.12-1.13-.2Z"/><path class="cls-57" d="M15.5,10.57c-.26-.14-.54-.19-.82-.28-.51-.18-1.01-.38-1.51-.57.4-.49.52-1.04.31-1.65.16-.05.28.03.33.17.07.2.22.29.41.33.16.04.28.15.41.24.07.05.14.13.1.23-.04.1-.13.1-.22.09-.02,0-.05,0-.07.03.07.19.24.23.41.29.06.03.12.07.17.12.37.31.83.41,1.29.51.19.04.38.07.57.09.07,0,.14,0,.19.06.1.1.23.11.36.13.37.08.72.21,1.03.45.17.13.35.23.57.24.08,0,.16.03.2.1-.76.02-1.51-.07-2.25-.22-.5-.1-.98-.27-1.49-.36Z"/><path class="cls-57" d="M19.41,11.15c.08-.1.18-.08.27-.03-.03,0-.05,0-.07.03h-.21Z"/><path class="cls-40" d="M1.92,10.05c.08.05.15.12.21.21-.11-.03-.18-.1-.21-.21Z"/><path class="cls-6" d="M13.37,7.82c-.12-.16-.26-.31-.41-.45.5-.54,1.04-1.02,1.62-1.47.06-.05.11-.09.17-.14.24-.14.43-.34.69-.45-.02.05-.06.11,0,.14.19.1.07.21,0,.31,0,.04-.04.05-.07.07-.05.02-.11.03-.16.07-.56.43-1.12.85-1.54,1.43-.12.16-.17.35-.29.5Z"/><path class="cls-25" d="M15.53,13.41v-.28c.09-.02.06.07.1.08.13.47.39.87.62,1.29.29.53.6,1.05.88,1.58.32.61.55,1.25.68,1.92.09.45.05.89-.11,1.33-.03.09-.12.2.05.26.03,0,.03.05.01.07-.03.04-.07.05-.11.03-.08-.05-.15-.09-.15-.21.03-.48-.02-.94-.2-1.39-.02-.06-.04-.12-.07-.17-.27-.52-.55-1.02-.8-1.55-.38-.77-.69-1.57-.84-2.43-.03-.17-.05-.35-.08-.52Z"/><path class="cls-35" d="M17.01,13.48c-.05-.08-.09-.15-.17-.27.35.14.55.42.82.58.28.3.57.61.8.95.4.59.68,1.23.68,1.97,0,.39-.05.76-.18,1.12-.02.05-.03.13-.1.12-.06-.01-.03-.09-.03-.13,0-.4-.02-.8-.14-1.18-.1-.32-.23-.62-.37-.91-.29-.6-.58-1.19-.95-1.74-.02-.04-.03-.08-.05-.13.11,0,.14.1.19.17.44.58.83,1.2,1.15,1.86.09.19.15.39.17.6.1-.44-.06-.86-.27-1.22-.28-.49-.65-.91-1.08-1.28-.06-.05-.07-.15-.18-.14-.14-.1-.19-.27-.31-.38Z"/><path class="cls-43" d="M17.36,20.24c-.09,0-.15-.05-.15-.14,0-.09.06-.13.14-.14.1,0,.15.06.15.15,0,.1-.09.1-.15.13Z"/><path class="cls-4" d="M15.36,5.8s.05-.02.07-.03c.5-.3,1.02-.55,1.57-.75.3-.11.62-.17.93-.27.38-.12.72-.33,1.08-.5.25-.12.47-.26.72-.39.22-.11.44-.22.67-.3.6-.22,1.54.21,1.58,1.07,0,0,.01.02,0,.02,0,0,0,.01,0,.01.07.41.12.82.1,1.23-.02.36-.07.71-.1,1.06-.03.53.07,1.05.18,1.57.08.35,0,.69-.13,1.01-.07.16-.15.3-.27.43-.03.03-.07.08-.09.06-.14-.11-.2-.02-.3.07-.08.06-.2,0-.3-.02-.15-.03-.1-.14-.09-.23,0-.12,0-.25-.12-.3-.12-.05-.25-.04-.37.04-.47.31-.98.5-1.53.58-.23.04-.47.07-.71.07-.06,0-.13,0-.18-.04,0-.09.09-.08.14-.09.42-.06.81-.19,1.2-.33.16-.06.29-.15.44-.23-.12.01-.21.09-.32.13-.61.17-1.23.22-1.86.18-.59-.04-1.17-.14-1.76-.16-.32,0-.62-.11-.93-.15-.05-.03-.09-.07-.14-.1-.04-.1.03-.13.1-.15.04,0,.08,0,.12.01.21.11.42.09.65.06.26-.04.51.04.77.03.64-.04,1.28,0,1.91.05.54.04,1.03-.08,1.52-.25.13-.05.14-.09.03-.19-.07-.07-.15-.12-.24-.16-.07-.03-.14-.07-.2-.13-.16-.16-.29-.17-.47-.04-.06.04-.11.1-.18.13-.06.02-.12.03-.18-.01-.06-.05-.05-.11-.03-.17.06-.22.04-.26-.17-.35-.03-.01-.07-.02-.09-.04-.17-.21-.41-.27-.66-.33-.14-.04-.25-.14-.34-.25-.12-.15-.28-.19-.47-.19-.28,0-.55-.07-.68-.35-.04-.08-.1-.09-.17-.06-.35.16-.72.27-1.02.51-.08.06-.15.12-.23.18-.06.04-.13.1-.2.04-.06-.06-.02-.13.01-.19.11-.2.2-.41.36-.58.03-.03.06-.07.09-.11.06-.08.16-.16.02-.26-.04-.03-.02-.1-.02-.15,0-.08-.02-.16-.1-.21-.12-.07-.08-.17,0-.22.14-.08.23-.22.38-.28Z"/><path class="cls-1" d="M21.98,4.67s0-.02,0-.03c.02-.03.04-.07.05-.1.03-.06.03-.15.13-.13.08.02.13.08.13.16,0,.22.02.44,0,.65-.03.2-.02.4-.02.6,0,.23-.03.46-.06.69,0,.04,0,.11-.07.09-.05-.01-.02-.06-.02-.1,0-.47.1-.94,0-1.41-.03-.14-.03-.29-.13-.41Z"/><path class="cls-1" d="M20.37,2.99c.09-.07.2-.13.31-.17-.08.09-.14.23-.31.17Z"/><path class="cls-1" d="M20.75,3.35s.05.02.05.04c0,.05-.03.07-.08.07-.03,0-.06-.02-.06-.04,0-.05.05-.05.08-.07Z"/><path class="cls-1" d="M20.06,3.15c.06-.03.12-.07.17-.1-.03.09-.05.18-.17.1Z"/><path class="cls-21" d="M14.98,9.57c.01-.09.07-.04.11-.04.2.02.39.08.58.11.33.04.65.05.98.09.6.08,1.21.15,1.82.1.42-.03.85-.07,1.23-.28.08-.05.23-.11.26-.05.05.12-.11.14-.18.17-.52.26-1.06.44-1.64.51-.03,0-.05.02-.07.03-.33,0-.66,0-.99,0-.62-.06-1.24-.17-1.81-.44-.11-.05-.2-.12-.29-.21Z"/><path class="cls-38" d="M9.74,6.93c.09.08.15.17.21.27.02.23-.15.21-.3.25-.22.05-.45.06-.67.06-.02.07.03.07.05.09.21.12.22.27,0,.37-.18.08-.31.2-.46.31-.09.06-.18.09-.26,0-.09-.1-.03-.19.05-.27.02-.02.06-.03.08-.06.04-.04.12-.07.1-.14-.02-.05-.08-.09-.14-.09-.06,0-.15,0-.17.08-.04.15-.18.22-.29.31-.06.05-.13.07-.21.04-.27-.09-.35-.06-.5.18-.09.13-.25.13-.38.14-.37.02-.73.08-1.06.27-.11.07-.27.06-.34.2-.01.02-.07.02-.11.02-.22.02-.44.06-.66.08-.17.01-.29.16-.44.25-.1.06-.19.11-.31.14-.05.01-.12.03-.12.08,0,.06.07.09.12.1.15.04.3.08.45.09.4.02.8.07,1.21,0,.46-.07.93-.11,1.39-.2.29-.06.58-.06.87-.06.04,0,.09-.01.14.05-.19.07-.37.14-.55.21-.36.14-.71.29-1.07.41-.43.14-.86.27-1.31.25-.48-.02-.93-.17-1.38-.34-.29-.11-.55-.28-.85-.36-.07-.02-.12-.07-.16-.12-.08-.1-.2-.09-.31-.12-.05-.01-.07.03-.08.07-.03.09-.1.1-.18.13-.26.08-.38-.03-.5-.25-.09-.17-.12-.35-.21-.51-.02-.38.05-.74.13-1.11.09-.42.1-.84.05-1.27-.05-.5-.06-1.01-.02-1.52.03-.32.08-.64.18-.95.19-.54.86-.78,1.33-.69.39.07.72.27,1.05.47.63.38,1.28.72,2,.91.81.21,1.55.59,2.25,1.03.5.32.93.71,1.31,1.16.02.03.04.05.08.05Z"/><path class="cls-60" d="M6.24,13.93c.11-.07.16-.19.24-.29.3-.37,1.29-1.22,1.74-1.47-.2.3-.41.6-.61.9-.06.08-.09.18-.17.24-.03.06-.07.11-.1.17-.07.09-.13.19-.21.27-.05.07-.09.14-.14.21-.17.15-.26.36-.37.55-.25.44-.54.87-.79,1.32-.18.31-.33.64-.43.98-.03.09-.04.26-.14.24-.11-.02-.06-.18-.05-.27.03-.26,0-.52.13-.76.03.03.03.07.04.1.41-.95.96-1.81,1.51-2.68-.18.18-.36.36-.54.54-.04.04-.08.1-.16.08.01-.05.02-.09.03-.14Z"/><path class="cls-30" d="M8.57,15.16c-.11.32-.21.7-.4,1.04-.16.29-.32.59-.49.87-.19.32-.19.68-.32,1.01-.03.08-.01.19-.02.29,0,.04,0,.08-.05.08-.04,0-.07-.03-.08-.06-.05-.24-.18-.47-.07-.73.02-.05,0-.1,0-.15.03-.35.2-.66.29-.99.03-.11.14-.2.22-.26.29-.25.39-.6.57-.91.07-.13.17-.25.19-.42,0-.06.07-.07.11-.01.04.05.05.11.04.23Z"/><path class="cls-7" d="M6.21,14.06l.78-.75s.02.02.03.03c-.59.94-1.22,1.86-1.64,2.93-.05-.09-.02-.17-.04-.25.04-.44.2-.84.39-1.22.13-.26.3-.49.46-.73Z"/><path class="cls-12" d="M5.93,19.1c.08.01.14.06.13.14,0,.09-.06.13-.15.13-.1,0-.12-.05-.13-.14,0-.1.06-.12.14-.14Z"/><path class="cls-31" d="M7.44,13.31c.03-.1.1-.17.17-.24-.03.1-.03.22-.17.24Z"/><path class="cls-31" d="M7.13,13.75c.04-.11.11-.2.21-.27-.04.11-.09.22-.21.27Z"/><path class="cls-24" d="M15.36,5.8c-.13.08-.18.25-.36.3-.04.01-.14.11,0,.17.12.05.11.16.11.26,0,.1-.01.2.17.15-.11.15-.18.27-.28.38-.17.18-.27.41-.37.62-.01.03-.04.07,0,.09.03.02.06,0,.09-.02.04-.03.09-.06.12-.09.35-.32.8-.47,1.23-.66.12-.05.2-.03.21.12,0,.06.03.09.08.12.19.13.38.22.63.17.14-.03.29.04.39.17.15.2.33.32.59.34.04,0,.08.02.11.03.21.1.36.29.58.39.08.04.11.15.04.25-.04.05-.1.12-.02.18.08.06.16.02.21-.04.1-.11.23-.16.37-.19.1-.02.17-.01.21.09.04.1.14.15.24.19.13.05.22.13.32.22.09.09.08.14-.03.18-.45.16-.9.34-1.38.29-.28-.03-.57-.03-.85-.04-.22-.01-.44-.02-.66-.02-.45,0-.89.02-1.34-.03-.11-.01-.21,0-.32.04-.11.05-.2-.05-.3-.07-.11-.03-.25-.15-.31.06-.18-.02-.32-.1-.43-.24-.03-.04-.06-.09-.03-.14.03-.05.08-.03.12-.01.08.03.15.02.19-.06.04-.08-.03-.13-.08-.17-.18-.15-.37-.26-.6-.3-.1-.02-.15-.06-.18-.15-.06-.18-.16-.31-.37-.33-.04-.08-.07-.16-.11-.24.12-.42.4-.73.7-1.03.33-.34.71-.63,1.09-.91.06-.05.12-.08.2-.08Z"/><path class="cls-20" d="M17.58,18.22c-.07-.5-.31-.92-.57-1.33-.42-.66-.83-1.34-1.06-2.1-.04-.14-.08-.28-.12-.42.01,0,.03-.01.04-.02.11.18.21.36.32.54.26.41.55.8.78,1.22.28.5.61,1,.67,1.59.02.17.05.35-.07.51Z"/><path class="cls-30" d="M17.32,13.86s.01-.07.05-.03c.41.35.8.72,1.1,1.19.22.34.4.69.44,1.1.01.15,0,.3-.01.45,0,.03-.02.06-.05.06-.04,0-.04-.03-.04-.06-.02-.56-.35-.99-.6-1.45-.24-.43-.54-.83-.83-1.22,0-.01-.03-.02-.04-.03,0,0,0,0,0,0Z"/><path class="cls-49" d="M15.22,7.24c0-.1.07-.14.12-.19.52-.43,1.12-.71,1.72-.99.53-.24,1.09-.4,1.62-.65.19-.09.39-.17.58-.28.13-.07.28-.09.42-.14.2-.06.4-.15.57-.29.03-.03.06-.05.09-.07.04-.03.1-.06.14-.02.05.06-.03.09-.06.12-.5.58-1.14.97-1.85,1.24-.27.1-.53.24-.8.33-.34.12-.7.2-1.05.3-.5.15-.98.36-1.44.61-.01,0-.03,0-.07.01Z"/></svg>