<svg width="192" height="192" viewBox="0 0 192 192" fill="none" xmlns="http://www.w3.org/2000/svg">
<path d="M24.6 47.595C24.6 47.595 14.925 48.36 13.635 50.535C12.33 52.71 12.255 56.055 12.255 59.73C12.255 63.42 12.105 71.88 12.105 71.88L14.415 76.845C14.415 76.845 14.85 140.13 14.85 142.095C14.85 144.045 14.85 146.43 17.67 147.945C20.49 149.46 92.16 184.08 94.395 185.01C97.77 186.405 99.375 185.88 99.375 185.88L179.01 52.695C179.01 52.695 178.755 49.05 175.44 48.18C173.535 47.7 24.6 47.595 24.6 47.595Z" fill="#E9BC45"/>
<path d="M98.52 91.38C97.305 94.725 97.86 129.315 98.07 154.47C98.28 179.61 97.425 184.815 98.07 185.685C98.715 186.555 100.47 185.715 105.435 183.51C114.66 179.43 158.97 157.5 162.225 155.55C165.48 153.6 173.43 149.565 174.735 147.39C176.04 145.215 176.745 124.98 177.18 108.735C177.615 92.475 178.05 79.47 178.05 79.47L180 73.62C180 73.62 179.58 57.81 179.505 56.07C179.37 53.19 179.055 51.705 178.32 52.065C177.27 52.56 168.51 59.745 145.32 71.025C130.755 78.09 99.36 89.07 98.52 91.38Z" fill="#E0A812"/>
<path d="M98.73 16.815C92.235 16.515 74.46 26.79 57.33 32.415C40.2 38.04 14.34 49.35 14.115 50.01C13.905 50.655 24.525 55.41 31.305 58.665C39.36 62.52 70.11 77.085 75.735 79.47C81.375 81.855 94.815 87.435 96.975 87.27C100.005 87.06 128.625 75.78 143.145 68.85C157.665 61.92 175.815 51.18 176.055 48.57C176.16 47.4 149.355 37.395 135.99 31.35C110.19 19.665 103.485 17.04 98.73 16.815Z" fill="#C1A65F"/>
<path d="M12.18 74.655C12.405 77.475 13.95 78.48 17.88 80.19C21.81 81.9 96.105 120.495 97.815 120.495C99.525 120.495 100.035 114.375 98.16 114.54C97.14 114.63 72.735 103.035 49.935 91.455C30.585 81.645 12.06 71.85 12.06 71.85L12.18 74.655Z" fill="#D49E10"/>
<path d="M180.015 73.485C180.015 73.485 100.68 113.835 99.9 114.225C99.12 114.615 97.875 114.48 97.875 114.48L97.815 120.495C97.815 120.495 98.55 120.66 99.375 120.405C99.855 120.255 177.72 79.95 178.065 79.83C178.41 79.71 179.91 78.81 180.225 76.905C180.495 75.375 180.015 73.485 180.015 73.485Z" fill="#9D7408"/>
<path d="M43.29 146.13L58.815 169.23L65.61 171.555C65.61 171.555 66.165 146.355 66.39 127.68C66.705 100.395 66.585 75.51 66.975 74.1C67.62 71.715 97.815 61.92 97.815 61.92C97.815 61.92 131.925 72.615 133.005 75C133.485 76.05 133.11 93.72 133.005 114.315C132.87 140.325 132.915 170.355 132.915 170.355C132.915 170.355 136.44 170.34 136.86 169.035C137.295 167.73 139.035 157.665 139.035 157.665L152.265 69.48L158.985 60.81L149.655 43.05L111.375 24.21L98.22 27.165L83.985 24.99L38.835 57.435L44.1 68.115L57.015 74.7L43.29 146.13Z" fill="#050730"/>
<path d="M136.92 74.085C136.095 75.9 136.575 169.425 136.575 169.425C136.575 169.425 140.7 167.145 146.01 164.595C151.29 162.06 155.085 160.485 155.415 159.165C155.745 157.845 156.33 65.355 156.33 65.355L136.92 74.085Z" fill="#151B4C"/>
<path d="M62.025 72.15C62.52 72.69 61.71 169.74 60.705 169.965C59.91 170.16 41.835 162.09 41.835 161.265C41.835 160.44 43.29 67.695 43.29 67.695C43.29 67.695 60.555 70.5 62.025 72.15ZM97.845 21.375C92.85 21.375 87.33 22.8 85.725 26.985C84.12 31.17 83.76 37.395 83.76 42.045C83.76 46.5 83.04 57.9 96.765 57.72C110.49 57.54 110.895 52.455 111.105 41.235C111.285 31.875 110.04 27.33 108.795 25.38C107.685 23.625 103.995 21.375 97.845 21.375Z" fill="#1D2564"/>
<path d="M89.91 44.535C93.03 44.715 94.365 37.86 96.765 34.11C99.165 30.375 101.67 27.87 100.77 25.92C100.035 24.3 93.51 23.775 89.985 28.68C87.51 32.145 87.075 44.37 89.91 44.535Z" fill="#EDEEE8"/>
<path d="M109.995 24.63C109.995 24.63 114.42 29.13 115.575 37.95C116.73 46.77 115.395 53.625 115.395 53.625C115.395 53.625 137.385 52.965 144.975 54.42C152.46 55.875 155.07 59.175 155.07 61.575C155.07 63.975 150.15 65.91 145.155 65.55C140.16 65.19 136.785 64.92 136.155 66.18C135.525 67.44 136.425 69.39 143.37 69.915C150.315 70.455 158.34 69.465 160.83 60.825C163.32 52.185 163.41 37.215 162.525 26.43C161.64 15.645 159.69 9.48 154.86 7.14C149.775 4.695 137.04 4.28999 125.01 11.055C112.98 17.82 109.995 24.63 109.995 24.63Z" fill="#1D2564"/>
<path d="M134.91 14.37C133.35 12.36 128.325 12.42 125.64 15.525C122.79 18.825 122.16 31.38 125.82 32.1C129.96 32.91 129.21 26.13 132.24 21.945C135.21 17.85 136.425 16.335 134.91 14.37Z" fill="#EDEEE8"/>
<path d="M84.57 25.065C84.57 25.065 67.725 5.43 48.48 5.73C36.9 5.91 33.96 12.585 33.33 15.345C32.7 18.105 27.9 45.555 34.305 60.42C40.71 75.285 54 71.43 56.085 70.95C58.755 70.32 64.44 68.37 63.9 66.315C63.36 64.26 44.475 71.655 44.295 63.195C44.115 54.735 57.66 53.835 63.9 53.655C70.14 53.475 80.835 54.9 80.835 54.9C80.835 54.9 78.96 44.655 80.205 37.35C81.45 30.045 84.57 25.065 84.57 25.065Z" fill="#1D2564"/>
<path d="M43.32 12.855C40.92 15.345 39.93 29.7 41.445 36.825C42.96 43.95 44.295 46.98 47.415 46.365C50.025 45.84 51.6 31.86 52.845 26.94C54.18 21.69 57.48 16.11 56.145 13.665C54.105 9.91499 45.825 10.26 43.32 12.855Z" fill="#EDEEE8"/>
</svg>
