<svg width="192" height="192" viewBox="0 0 192 192" fill="none" xmlns="http://www.w3.org/2000/svg">
<path d="M184.2 141L132.6 89.7L172.5 35.1C174.3 37.5 175.8 40.8 176.1 44.4L186 131.4C186.3 135 185.7 138.3 184.2 141ZM11.4 25.8L86.1 92.1L27.3 168C24 165.3 21.9 161.4 21.3 156.6L8.09999 38.1C7.19999 33 8.69999 28.8 11.4 25.8Z" fill="#050730"/>
<path d="M86.1 92.1L11.4 25.8C13.8 23.1 17.1 21.6 21 21.9L166.5 31.5C168.6 31.5 171 33 172.5 35.1L132.9 89.7L184.2 141C183 143.4 181.2 144.9 179.1 145.5L37.5 171C33.6 171.6 30 170.7 27 168.3L86.1 92.1Z" fill="#1D2564"/>
<path d="M74.1 68.4C79.2 41.7 105.3 54 108.9 66.6C110.4 53.1 131.1 43.8 139.8 67.5C149.4 93.3 117.6 120.3 115.2 124.8C112.2 122.1 68.4 98.1 74.1 68.4Z" fill="#F2CD6D"/>
</svg>
