<svg id="Capa_1" xmlns="http://www.w3.org/2000/svg" viewBox="0 0 24 24"><defs><style>.cls-101,.cls-130,.cls-133,.cls-134,.cls-146,.cls-152,.cls-156,.cls-158,.cls-171,.cls-182,.cls-189,.cls-193,.cls-201,.cls-209,.cls-210,.cls-22,.cls-221,.cls-222,.cls-226,.cls-252,.cls-260,.cls-262,.cls-292,.cls-295,.cls-298,.cls-307,.cls-308,.cls-34,.cls-38,.cls-4,.cls-51,.cls-54,.cls-58,.cls-59,.cls-63,.cls-65,.cls-66,.cls-68,.cls-71,.cls-74,.cls-76,.cls-84{stroke-width:0}.cls-4{fill:#f8e0e0}.cls-22{fill:#eaa9b2}.cls-34{fill:#7f5647}.cls-38{fill:#8c7a55}.cls-51{fill:#e9e1c8}.cls-54{fill:#f8dcd7}.cls-58{fill:#f3d3d2}.cls-59{fill:#eaacb2}.cls-63{fill:#946f5f}.cls-65{fill:#dcbcc6}.cls-66{fill:#ac887d}.cls-68{fill:#e8afbc}.cls-71{fill:#f3cbce}.cls-74{fill:#dba6a2}.cls-76{fill:#c9afaf}.cls-84{fill:#f6f4e7}.cls-101{fill:#b4b699}.cls-130{fill:#eee0da}.cls-133{fill:#d19cad}.cls-134{fill:#ca9a7f}.cls-146{fill:#d3bfbf}.cls-152{fill:#e5b7c1}.cls-156{fill:#de9197}.cls-158{fill:#f1c8cb}.cls-171{fill:#7d674e}.cls-182{fill:#a49872}.cls-189{fill:#e6abb3}.cls-193{fill:#c4ba91}.cls-201{fill:#f4ddd5}.cls-209{fill:#f6e0d8}.cls-210{fill:#faf4ef}.cls-221{fill:#c3c5a2}.cls-222{fill:#efcac5}.cls-226{fill:#f5d3d2}.cls-252{fill:#dbd5b5}.cls-260{fill:#e5cfd0}.cls-262{fill:#d2909f}.cls-292{fill:#bbb48d}.cls-295{fill:#8e9a76}.cls-298{fill:#be9498}.cls-307{fill:#f8e7d1}.cls-308{fill:#f3cccb}</style></defs><path class="cls-307" d="M13.24 6.01c-.1.32.02.63.09.94.03.15.03.28-.05.41-.04.04-.08.07-.13.06-.11-.02-.15-.09-.15-.2 0-.16-.03-.31-.04-.47-.16.03-.18.12-.15.26.05.19-.01.38.05.57.01.18.04.35-.03.52-.07.18-.18.2-.32.07-.06-.14-.1-.29-.1-.45 0-.12-.05-.15-.16-.11-.12.04-.24.06-.26.24-.01.12-.15.17-.27.2-.08.03-.08.1-.1.16-.02.1.03.23-.08.31-.06 0-.07-.05-.08-.1-.03-.16-.11-.25-.28-.28-.16-.03-.13-.21-.22-.3-.07-.6-.02-1.19-.04-1.79 0-.19-.04-.38-.04-.57 0-.06-.03-.1-.06-.14-.11-.16-.01-.37.17-.34.33.05.63-.08.95-.05 0 0 .01.02.02.02 0 .02-.01.03-.03.05-.05.03-.1.01-.2.05.21.1.39.17.59.14.05 0 .11-.02.13-.08.02-.07-.06-.07-.1-.09-.03-.02-.06-.03-.05-.07.3 0 .6-.01.89.07.12.03.2.1.23.21.03.1-.07.14-.13.19-.05-.03-.05-.08-.06-.12 0 .18-.05.32-.21.41-.05.03-.11.03-.17.02-.08-.01-.13 0-.15.1-.04.15-.11.16-.24.07-.05-.04-.1-.07-.16-.02-.14.12-.24.06-.34-.05-.03-.03-.06-.05-.1-.01-.06.12 0 .19.09.26.12.08.22.06.31-.04.05-.08.1-.12.2-.06.07.05.17.05.26.15.02-.22.15-.24.3-.23.1 0 .17.05.23.13z"/><path d="M11.54 8.5c.05-.1-.03-.22.04-.32.12.01.11.11.13.19.07.42.29.74.62.99.21.16.42.31.53.57.04.1.13.1.22.09.09 0 .16 0 .15.12-.06.23-.05.46-.05.69 0 .11-.01.21-.13.26-.08.03-.08.1-.07.17.02.24.09.48.09.72 0 .03 0 .07.03.09.19.14.19.35.22.54v1.63c0 .26-.16.38-.37.5-.15.09-.31.25-.31.48 0 .1-.08.09-.14.09-.21.01-.42 0-.63 0-.04 0-.08 0-.11-.01-.05-.01-.09-.03-.1-.08-.01-.06.05-.07.09-.08.05-.01.07-.03.03-.08-.2-.22-.3-.48-.34-.77-.01-.09-.03-.23-.15-.22-.11.01-.16.13-.18.25-.02.1.06.24-.09.3-.01-1.13.02-2.27-.04-3.4.15-.09.25-.04.32.1.12.24.2.5.2.76-.01.56.08 1.12.08 1.67 0 .11-.02.24.13.28.1.03.33-.08.37-.18.13-.37.41-.7.35-1.13-.01-.1.11-.21.02-.33-.06-.4-.04-.81-.09-1.21 0-.06 0-.13.03-.19.07-.1.17-.14.29-.12.1.02.12-.03.14-.11.03-.13.04-.25-.03-.36-.14-.21-.26-.43-.45-.6-.22-.19-.42-.4-.55-.67-.04-.09-.11-.16-.17-.24-.09-.12-.14-.25-.08-.4z" style="fill:#f2ded0;stroke-width:0"/><path d="M11.54 8.5c0 .2.13.34.21.51.23.47.67.76.96 1.18.17.24.17.46.15.71 0 .09-.1.06-.14.04-.11-.05-.19-.01-.27.05-.07-.08-.04-.15.04-.2.09-.06.09-.14.06-.22-.06-.2-.22-.32-.38-.44-.06-.04-.1-.02-.12.04-.02.05-.07.1-.08.16-.05.31-.21.59-.29.89-.02.08.02.15.03.23 0 .41 0 .81.03 1.22 0 .07-.03.14-.06.21-.08.23.07.53.3.62.11.04.13-.03.14-.11.02-.24.06-.47.12-.7.03-.13.09-.25.25-.27.06.09.19.15 0 .27-.06.04-.04.29-.04.44 0 .11-.03.21-.1.29a1 1 0 0 0-.21.44c-.04.13-.34.29-.48.25-.1-.03-.13-.1-.13-.2.02-.53-.11-1.06-.08-1.59.02-.3-.05-.6-.15-.88-.06-.16-.14-.24-.32-.21 0-1.13-.07-2.27-.04-3.4.14.13.24.3.45.35.07.01.09.21.14.33z" style="fill:#f1ebdf;stroke-width:0"/><path d="M6.79 23.3c-.11.06-.21.12-.34.2.01-.36-.09-.66-.29-.92-.02-.05-.02-.09.02-.13.11-.12.26-.11.4-.13.33-.03.65-.11.99-.07.24.03.45.13.69.15.13 0 .25 0 .36-.09-.18-.12-.33-.26-.5-.39-.18-.13-.33-.3-.46-.48h.19c.14-.01.26.03.37.11.17.12.36.15.56.15h.77c.16 0 .31.02.47.05.16.03.28.09.33.26.05.17-.04.27-.15.38-.13.07-.28.07-.42.08-.51.04-1.01.15-1.5.3-.44.13-.89.25-1.31.43-.07.03-.14.04-.19.1z" style="fill:#edd8db;stroke-width:0"/><path d="M7.66 21.43c.32.27.61.57.96.8.1.06.12.1-.02.16-.23.12-.45.05-.67 0-.31-.08-.61-.15-.93-.06-.16.04-.32.03-.49.05-.14.02-.26.04-.36.13-.26 0-.52.03-.78-.01-.33-.05-.65-.06-.98-.07-.06 0-.13.02-.18-.04 0-.07.07-.1.12-.11.61-.08 1.14-.35 1.71-.55.52-.18 1.07-.22 1.61-.29z" style="fill:#f5e4e0;stroke-width:0"/><path class="cls-4" d="M18.14 15.27a.68.68 0 0 0-.19.19c.21-.05.4-.02.59 0 .07.01.13.02.19.06.25.16.42.43.72.54-.03.06-.09.09-.15.08-.38-.03-.74.11-1.1.18-.08.03-.16.08-.24.11-.02 0-.04 0-.06.01-.27.08-.51.21-.71.43-.15.17-.29.35-.51.45-.19-.05-.32-.2-.45-.33-.05-.05-.02-.12-.05-.17-.03-.31.09-.58.32-.62.23-.04.44-.18.69-.1-.12 0-.14-.06-.08-.15.07-.09.16-.15.25-.22.04-.03.05-.05.02-.09.1-.21.27-.36.48-.47.1-.05.24-.1.29.09z"/><path d="M11.34 2.93c.04-.42.13-.83.29-1.22.16-.4.35-.79.51-1.21.06.22.14.44.19.66.09.41.18.83.22 1.25.04.42.08.85.06 1.28 0 .02-.02.05-.03.07-.05.05-.08.1-.13.15-.16.18-.27.17-.38-.05-.02-.03-.02-.08-.08-.11-.04.17-.11.33-.33.28-.02 0-.04 0-.06-.02-.26-.14-.28-.18-.24-.47.03-.2 0-.41 0-.61z" style="fill:#f9f0d6;stroke-width:0"/><path d="M6.67 13.84c.14-.03.26-.06.34-.2.06-.11.17-.1.28-.05.29.14.58.14.85-.06.04-.03.09-.04.1-.09.12-.31.35-.33.66-.17.15.08.22.08.35-.05.3-.32.71-.22.98.21.04.06.08.12.08.2-.09.04-.15.1-.15.21 0 .05-.02.09-.03.13-.09.32-.2.36-.5.2-.05-.1-.13-.17-.13-.29.06-.15.18-.28.16-.45 0-.06 0-.15-.08-.16-.08-.02-.1.07-.13.12-.06.1-.05.21-.05.33-.02.06 0 .12 0 .18 0 .16-.09.21-.23.14-.09-.04-.14-.12-.2-.19-.03-.04-.08-.08-.13-.05s-.03.08-.02.13c.01.14.05.27.09.4.01.04.02.09-.01.13-.05.05-.1.01-.15 0a.47.47 0 0 1-.25-.21c-.02-.04-.05-.1-.11-.1-.07 0-.07.07-.08.12-.02.06-.03.13-.12.08-.07-.04-.12-.09-.08-.18.02-.06.07-.09.11-.14.04-.05.06-.1.02-.16-.03-.03-.06-.05-.11-.04-.06.02-.1.06-.11.12v.08c0 .06.06.13-.01.16-.08.03-.12-.06-.16-.12-.03-.06-.05-.13-.09-.19-.02.09-.02.2-.12.25-.07 0-.14-.03-.21.03-.08.07-.16.08-.26.04-.06-.02-.12-.03-.16.02-.07.1-.16.1-.26.06-.11-.05-.07-.15-.08-.24v-.1c0-.04 0-.07.01-.11z" style="fill:#f5e5de;stroke-width:0"/><path class="cls-210" d="M15.26 13.76c.15.02.3.04.46.07-.05.08-.11.08-.17.09-.07.01-.09.06-.09.13s.03.13.09.16.13.03.19 0c.02 0 .03-.05.03-.06-.08-.09-.04-.16.05-.21.1-.05.2-.05.3 0 .15.09.27.21.37.35.05.07.1.14.2.12.05.1.01.2-.01.29-.08.04-.15.08-.12.2.02.07-.01.14-.07.19-.17-.05-.37.04-.53-.1-.03-.03-.08 0-.11 0-.19.07-.42.02-.57.2-.02.02-.06.03-.09.01-.18-.1-.36-.07-.55-.06-.08-.24-.22-.48-.08-.75.04-.03.05-.07.08-.11.16-.2.19-.21.37-.04.02.02.05.04.08.06.06.04.12.08.22.12-.19-.24 0-.48-.04-.7z"/><path d="M19.45 16.1c.33.06.63-.14.98-.17-.11.22-.21.4-.26.61-.06.02-.04.07-.04.11-.01.13-.08.17-.2.14-.19.03-.28.2-.4.32-.07.07-.12.15-.23.17-.08.02-.09.08-.1.15 0 .07-.05.12-.12.14-.08.01-.12-.04-.16-.09-.03-.04-.05-.09-.07-.14-.08-.2-.19-.22-.36-.08-.04.03-.07.07-.11.11-.05.04-.1.11-.17.07-.07-.04 0-.1 0-.16 0-.04 0-.09-.06-.09-.05-.29-.04-.58.15-.82q-.07 0-.1-.07s.08-.03.11-.02c.41.1.76-.12 1.14-.2z" style="fill:#c9d1b1;stroke-width:0"/><path d="M1.06 16.73c.23-.05.47-.07.71 0 .08.02.14.04.18.12.06.12.16.14.28.07.15-.1.28-.08.37.08.04.07.11.07.17.07.14.02.26.08.38.14.13.04.28 0 .4.1.03.07-.07.16.05.21-.05.06-.14.1-.03.19.04.03.09.07.04.13-.04.04-.09.05-.14.03-.03 0-.06-.02-.08-.05-.12-.18-.27-.16-.42-.06-.17.12-.31.1-.45-.04a.572.572 0 0 1-.15-.16c-.04-.07.05-.15 0-.22q-.08.1.02.23c.08.09.04.15-.06.19-.08.04-.19.04-.19-.05-.01-.23-.19-.33-.34-.45-.03-.03-.07-.06-.08-.07.06.05.13.13.22.19.17.13.17.23 0 .37.15 0 .28.02.37.15 0 .02.01.04 0 .06-.03.08-.08.15-.17.18-.08 0-.13-.06-.19-.1-.37-.06-.5-.39-.72-.63-.06-.12-.12-.24 0-.38.06-.07 0-.12-.07-.15-.05-.03-.12-.04-.15-.09-.03-.07.01-.08.07-.05z" style="fill:#cac9a8;stroke-width:0"/><path class="cls-65" d="M16.48 21.12c.79.07 1.58.17 2.37.2-.15.15-.35.18-.54.22-.3.07-.6.16-.89.24-.15.04-.28.11-.34.26-.06.04-.13.02-.19 0-.38-.12-.76-.23-1.16-.26-.1-.01.13-.07 0-.07-.1 0-.2-.03-.28-.09-.1-.07-.12-.2-.02-.24.2-.09.2-.27.26-.44.02-.02.05-.03.08-.03.24.06.46.17.71.2z"/><path class="cls-210" d="M18.14 15.27c-.09-.13-.2-.1-.3-.03-.18.11-.31.27-.45.42-.03.07-.07.09-.13.02.02-.12.12-.2.16-.32.01-.02.04-.02.06-.05-.03.02-.06.04-.08.06-.23.04-.28.02-.34-.19.06-.11-.04-.22 0-.33.05-.12.09-.24.15-.36.1-.21.06-.28-.18-.33-.04 0-.08-.01-.1-.05.03-.16.17-.14.28-.16.19-.03.38.02.57.04.18.02.36 0 .54.02.13.01.19.04.2.17.01.29-.11.56-.14.85-.01.09-.12.16-.22.22z"/><path d="m16.22 16.85.03.11c-.1.19-.28.31-.4.48-.26.06-.5.18-.77.18-.1-.06-.11-.18-.17-.27-.06-.14-.25-.18-.24-.36.06-.37.09-.76.36-1.06.02-.02.05-.02.08-.01.06.08.04.17.04.26 0 .26.1.33.34.23.12-.05.21-.13.3-.21.06-.05.11-.11.19-.13.05 0 .09.04.13.06.04.02.09.02.13.03.11.03.12.08.07.17-.1.16-.16.32-.08.51z" style="fill:#fad5d5;stroke-width:0"/><path class="cls-146" d="M10.59 16.69c.09.09.18-.01.27-.01.09 0 .18-.04.26-.06.07-.01.18 0 .18-.09 0-.11.04-.26-.13-.3.18-.07.51.02.62.16 0 .08-.04.14-.11.17-.06.01-.11-.05-.17-.03-.07.06 0 .1.02.15.02.04.07.06.03.12-.04.03-.09.03-.11.01.18 0 .36.15.58.1.1-.02.15.04.07.15-.03.04-.09.08-.04.13.07.07.15.07.24.04.06-.02.14-.07.11-.14-.09-.21.04-.27.2-.31.07-.01.11-.05.15-.11.06-.08.15-.13.17.04-.17.16-.19.28.04.42.1.06.06.17-.04.25-.12.1-.27.11-.41.13.12.01.24-.08.37-.05.07.03.07.08 0 .11-.17.06-.34.11-.51.06-.08-.03-.15-.02-.23-.02-.23.03-.46.05-.66-.1-.07-.07-.16-.06-.25-.08-.06-.13-.23-.09-.3-.21.03-.13.16-.2.21-.32-.08 0-.11.11-.2.1-.14-.09-.28-.1-.41 0-.12.1-.13.27-.04.42-.02.13-.14.15-.25.18.07.08.17.09.24.13.1.04.19.07.3.03.11-.04.18.05.25.13v.06c-.05.06-.11.06-.18.05-.24-.04-.5 0-.73-.1-.11-.09-.15-.23-.25-.33.1-.13.11-.3.18-.44.09-.18.21-.31.4-.37.03-.03.04-.08.1-.07z"/><path d="M13.2 10.12c0-.08-.06-.06-.11-.05-.15.03-.24 0-.31-.17-.09-.24-.33-.37-.53-.53-.3-.25-.53-.55-.59-.95-.01-.08 0-.17-.08-.23 0-.08.02-.15.08-.2.02.02.04.03.07.03.37-.03.38-.03.5.33.07.2.21.35.3.53.04.08.11.08.19.05.13-.05.22-.02.27.11 0 .02.01.04.01.06-.02.16-.01.29.2.31.08 0 .12.1.17.16-.08-.15-.1-.31-.12-.47-.01-.12 0-.13.11-.15 0 .17.04.3.16.42.16.16.17.34 0 .49-.1.09-.05.23-.16.31-.07.04-.12.02-.16-.04z" style="fill:#ecdac0;stroke-width:0"/><path d="M5.14 20.44s.08 0 .11.03c.09.04.2.1.15.21-.05.12-.16.14-.28.09-.07-.02-.16-.13-.22.02-.15 0-.28-.09-.42-.14-.09-.03-.09-.11-.03-.17.09-.09.09-.18.06-.29.01-.08.1-.1.12-.19-.15-.03-.26-.1-.23-.29-.06.04-.05.09-.08.13-.08.14-.14.09-.18-.02-.05-.15-.17-.19-.29-.23-.09-.03-.19-.04-.13.12.01.03-.01.06-.05.08h-.06c-.08-.02-.11-.09-.15-.15a2.16 2.16 0 0 0-.22-.49c-.09-.15-.04-.21.13-.23.04 0 .08-.01.12 0 .19.11.39.08.59.04.13.02.2.11.24.23.04.11.09.22.18.28.02-.16.08-.32.14-.47.02-.06.07-.11.15-.11a.6.6 0 0 0 .39.27c.02.06.07.1.11.14.04.01-.07.1.04.07.08-.02.16-.05.24-.02.03.01.04.03.04.07l-.12.18c-.08.1-.13.08-.17-.05-.06.2-.17.36-.33.49-.08.07.04.08.06.13 0 .11-.09.11-.16.13.1 0 .16.1.24.15z" style="fill:#e3c4b2;stroke-width:0"/><path d="M11.85 15.27h.81c-.17-.07-.14-.14-.07-.21.09-.08.17-.18.22-.3.06-.12.19-.14.28-.18.12-.06.18-.1.14-.24-.01-.05.03-.08.07-.1v.26c-.01.11.03.17.12.22-.06.31-.3.43-.56.52-.03 0-.02.02-.01.02.11-.07.21.12.32.03.15-.03.27-.12.35-.25.02-.01.03 0 .05 0 .04.16.05.32.04.48-.03.11-.11.17-.18.24-.22.14-.46.24-.72.26-.07-.02-.16-.02-.23-.05-.13-.09-.28-.05-.42-.05-.11 0-.22.01-.2-.16.01-.09-.09-.1-.14-.14-.06-.05-.19-.07-.16-.17.02-.07.11-.12.2-.14.03 0 .05-.02.07-.03z" style="fill:#eab7bd;stroke-width:0"/><path d="M21.19 22.1c-.35.05-.64.25-.91.46-.18.14-.35.12-.55.06-.25-.08-.49-.17-.75-.2-.02-.04-.07-.07-.06-.13.1-.31.35-.45.64-.55.14-.01.29-.01.43-.04.16-.03.31.04.44.13s.25.11.38 0a.46.46 0 0 1 .26-.1c.13-.01.26 0 .31.14.05.15-.1.16-.18.22z" style="fill:#f6d1d8;stroke-width:0"/><path d="M5.44 21c.09-.21.16-.43.26-.63.2-.42.53-.69.97-.82.13.17.14.58.04.66.26-.1.36.22.57.27.04-.02.08-.08.13-.12.07-.06.13-.07.15.05 0 .02-.01.03-.03.05-.14.22-.3.42-.55.51-.03-.08-.1-.11-.17-.14-.12-.05-.25-.07-.33-.19-.06-.09-.15-.05-.22 0-.18.14-.36.29-.55.42-.1.07-.21.1-.27-.05z" style="fill:#cdba9e;stroke-width:0"/><path d="M18.93 22.3s.03.08.04.12c-.23-.1-.49-.06-.73-.12-.05-.01-.11 0-.15-.04-.25-.04-.5-.12-.76-.12-.1-.02-.21 0-.27-.12-.02-.13.03-.2.16-.24.33-.1.65-.22.99-.28.21-.04.42-.12.62-.19.18-.03.34.04.52.04-.06.12-.21.17-.25.3-.05.17-.13.32-.27.44-.12.11 0 .16.09.2z" style="fill:#ead7dc;stroke-width:0"/><path d="M15.69 20.96c.04.19-.04.36-.21.43-.05.02-.08.05-.08.1 0 .06.03.1.09.12.09.03.19.06.28.09.02 0 .06 0 .04.04-.01.01-.05 0-.07.01-.04.04-.1.04-.15.03-.24-.05-.49-.05-.74-.1-.33-.07-.58-.22-.73-.53-.03-.06-.05-.12-.12-.15-.01-.01-.02-.03-.04-.04-.09-.1-.22-.17-.26-.32.02-.09.08-.16.17-.17.1.03.15.11.21.19.09.11.17.23.34.21.25-.05.51-.03.71-.21.24 0 .42.12.57.3z" style="fill:#efdbd9;stroke-width:0"/><path d="M10.19 22.38c0-.06.04-.09.07-.13.13-.17.04-.36-.16-.42-.4-.12-.81-.06-1.21-.07-.26 0-.5 0-.72-.18-.09-.07-.21-.1-.32-.14.03-.05.08-.04.12-.03.16 0 .3.04.45.11.18.09.31-.05.46-.11.27-.03.55.02.82-.07h.06c.2.13.44.11.65.18.24.08.48.18.72.26.11.04.24.07.24.22s-.12.19-.24.21c-.01 0-.02.01-.02.03-.27.11-.56.1-.83.19-.02-.02-.06 0-.08-.03z" style="fill:#dbc4d0;stroke-width:0"/><path d="M22.01 21c-.3-.05-.58-.14-.83-.32-.09-.07-.18-.15-.19-.28.21-.03.39-.12.5-.32-.12-.07-.16-.24-.32-.29-.05-.01-.03-.06.01-.09.06-.03.13-.02.19-.04-.18-.2-.42-.29-.66-.36-.35-.1-.7-.17-1.05-.23-.04-.03-.04-.07 0-.11.06-.04.13-.03.19-.03.3.09.63.04.93.15.11.05.23.1.3.21.17.13.39.07.57.18.13.08.25.17.33.3.07.12.15.17.29.16.01 0 .02.02.01.03 0 0 0 .01-.01.01-.06.05-.24-.11-.19.11.01.04.04.09.03.13-.06.23-.07.44.07.65.05.08-.02.16-.14.13z" style="fill:#ccc9a6;stroke-width:0"/><path d="M21.19 22.1s.04-.05.07-.07c.05-.03.11-.07.08-.14a.138.138 0 0 0-.13-.1c-.14-.01-.3 0-.39.1-.13.15-.27.1-.37.02a.67.67 0 0 0-.62-.14c-.09.02-.2 0-.3 0 0-.03 0-.06.03-.07.29-.12.57-.25.88-.29.9.05 1.8.08 2.65.41-.65.01-1.27.18-1.9.26z" style="fill:#f6dddf;stroke-width:0"/><path class="cls-54" d="M14.62 15.19c.16-.1.33-.11.5 0 .08.05.15.06.18-.06.01-.05.04-.09.09-.09.2.03.38-.04.55-.11h.05c.1.22.36.02.48.18.12.29.08.57-.05.84-.1.09-.1.09-.15 0 0 0 0-.02-.01 0l-.02.04c-.07.09-.11.06-.12-.03 0-.09.03-.18.06-.26.01-.07.14-.12.06-.21-.09-.01-.15-.09-.25-.08-.09.01-.06-.12-.11-.17-.02.14-.11.15-.22.13-.1-.03-.09.02-.07.09 0 .06.02.1.07.13.07.04.1.1.11.18.01.06.04.13-.02.16-.07.04-.09-.04-.13-.09-.05-.05-.1-.1-.13-.16.02.08.13.12.12.22-.14.11-.27.21-.45.08 0-.06.03-.08.1-.04-.2-.14-.4-.15-.61-.12-.2-.03-.29-.28-.16-.45.03-.05.07-.09.11-.13z"/><path d="M21.93 16.77c-.12.4-.37.61-.81.6-.25 0-.43.18-.65.27-.03.01 0 .03 0 .03h.06c.06-.02.11-.02.18 0-.07.12-.2.12-.29.16-.18.08-.36.14-.49.32-.05.07-.12.15-.23.14-.12-.12.05-.2.04-.3.13-.1.31-.13.43-.23.12-.11 0-.3.07-.45.07-.19.16-.36.29-.5.13-.01.22.07.31.14.07.05.11.04.16-.02.13-.15.26-.29.4-.44.12-.13.18-.12.25.03.05.13.21.13.27.25z" style="fill:#c2c39e;stroke-width:0"/><path d="M20.68 20.52c.09.16.06.38-.08.48-.1.07.04.16-.04.25-.39-.28-.88-.17-1.31-.3-.35-.1-.62-.3-.83-.59.01-.11.08-.18.16-.24.05-.04.1-.07.12-.13.02-.06.02-.13.1-.13s.1.07.13.13c0 .25.13.39.36.47.15.05.27.17.45.26-.23-.19-.47-.31-.62-.55 0-.03.02-.05.05-.07h.06c.19.14.36.29.56.42.11.08.22.11.36.12.16.02.23-.02.25-.18.14-.03.17.07.21.16 0 .03.04 0 .01.01 0-.06 0-.11.07-.14z" style="fill:#d8d2b2;stroke-width:0"/><path d="M.81 19.93c.02-.07.06-.12.12-.16.15.04.24.18.38.23.05.02.12.07.1.1-.13.14-.02.29-.04.44.11-.31.45-.38.64-.62.03-.04.08-.06.14-.07.12-.03.18 0 .14.13-.03.08-.03.15.03.22-.1.23-.26.41-.5.49-.3.1-.59.22-.85.4-.09.06-.2.09-.3.13-.03.02-.05 0-.06-.02-.04-.06-.17-.02-.17-.11s.04-.18.1-.25c.12-.14.21-.32.41-.38.08-.02.09-.1.1-.18 0-.09-.06-.1-.13-.11-.16-.03-.13-.15-.1-.26z" style="fill:#aeae84;stroke-width:0"/><path d="M21.07 19.3c-.09-.05-.18-.1-.28-.16-.02-.14-.05-.26-.16-.36-.09-.08-.05-.19.1-.26.14-.06.28-.11.43-.14.45-.04.9-.04 1.35-.08.06 0 .13 0 .18.05-.19.24-.44.41-.72.52-.28.11-.54.28-.85.33-.04 0-.05.05-.05.1z" style="fill:#f8f4e7;stroke-width:0"/><path class="cls-51" d="M21.3 17.68c.28.02.49.21.75.27.27.06.52.22.81.21.05 0 .07.03.02.07-.6.14-1.21.1-1.81.14-.16.01-.33.03-.49.06-.26.01-.52.03-.79 0-.09-.09 0-.1.05-.12.3-.1.57-.27.87-.36a.21.21 0 0 0 .11-.08c.12-.16.29-.17.47-.18z"/><path class="cls-295" d="M19.76 17.99c.06.12-.05.19-.08.28-.03.1-.13.06-.2.1-.02 0 0 .03 0 0l.02-.01c.04-.02.09-.02.13 0 .06.03.16.02.17.1 0 .08-.08.12-.15.12-.11 0-.04.14-.12.15-.03 0-.06 0-.07-.02-.23-.3-.47-.17-.72-.03-.1.05-.2.14-.32.03.03-.12.23-.16.18-.33-.15-.11-.33-.14-.5-.2-.1-.03-.19-.06-.17-.19 0-.03 0-.06-.04-.08-.05-.02-.14-.01-.13-.09 0-.08.09-.1.15-.13.25.09.5.01.76.05a.7.7 0 0 0 .25 0c.04-.02.09-.04.14-.03.11.07.22.13.3.23 0 .05.06.05.09.07h.09c.1.03.02.07 0 .09-.1.08-.21.12-.3.22.18-.1.31-.25.51-.31h.03z"/><path d="M13.08 21.12c-.11.07-.23.04-.34.03-.12 0-.18.04-.22.14-.07.17-.16.33-.3.46-.09.05-.15.07-.27 0-.17-.09-.39-.05-.58-.11-.12-.12-.12-.23-.02-.37.18-.26.41-.45.7-.57 0 0 .01 0 .01.01.08.07.14.21.26.17.14-.05.26-.15.29-.32.02-.11.04-.22.05-.33 0-.06 0-.14.1-.11.06.11.09.23.06.36-.02.09-.06.17-.08.25-.08.19-.08.19.12.19h.13q.19 0 .32.07c-.08.07-.17.06-.25.06h-.32.29c.02 0 .03.02.04.04z" style="fill:#edd8d7;stroke-width:0"/><path d="M6.67 13.84s.02.06.04.08c-.04.13-.11.24-.19.34-.06.08-.08.16-.1.24-.02.18.09.08.16.07.06-.06.12-.1.19 0 .04.07.13.08.19.13.11.09.21.18.2.34-.04.06-.1.06-.16.06-.11-.02-.24-.14-.32.04-.12.11-.22-.05-.34-.02-.03.05-.03.12-.09.15-.05.09.08.05.08.11.02.05 0 .09-.03.13-.09.09-.19.1-.29.01-.03-.03-.09-.09-.05-.11.13-.07-.17-.26.09-.28.06 0 .09 0 .06-.07-.03-.13-.16-.16-.23-.25-.15-.25-.08-.41.2-.48.05-.01.07-.05.08-.1.06-.25.26-.4.51-.4z" style="fill:#f2cdcf;stroke-width:0"/><path d="M11.38 21.63c.19.02.37.04.56.07.09.01.17.1.28.06-.21.3-.53.36-.85.43-.09.02-.18.03-.27.04h-.02s-.02-.02-.03-.02c.04-.02.08-.04.12-.05.12 0 .13-.11.15-.17.03-.09-.07-.12-.14-.14l-.54-.18c-.12-.04-.23-.14-.34-.13a.842.842 0 0 1-.54-.16c-.02-.01-.05 0-.08 0-.26.1-.53.06-.8.06-.19 0-.37-.1-.57-.03-.06.02-.09-.04-.02-.09.02-.02.05-.03.07-.05.08-.12.18-.07.28-.04.26.07.52.13.79.07.08 0 .15-.05.24-.05.18 0 .34-.11.53-.06.18.05.33.16.5.21.08.02.16.06.25.04.17 0 .3.08.42.18z" style="fill:#c7a2b7;stroke-width:0"/><path d="M6.91 19.46H6.6v-.05c.06-.04.12-.03.19-.01 0-.04 0-.08-.05-.11-.06-.05-.02-.08.03-.09.15-.03.23-.15.34-.22.04-.03.07-.06.1-.09.03-.02.07-.04.11-.02.07.05.08.13.1.21-.03.12.02.21.11.29.19.19.35.41.4.69.03.18.18.32.19.51 0 .05-.03.09-.07.12-.2.23-.2.23-.33-.05l-.12-.24c-.16-.29-.37-.54-.59-.79-.04-.04-.07-.09-.1-.14z" style="fill:#e7babe;stroke-width:0"/><path d="M1.93 18.03c.08-.01.13.04.19.08.13 0 .18.1.26.18.08.09.1.22.2.3.03.03.07.06.06.11 0 .02-.01.03-.02.05-.05.09.01.21-.08.28-.13 0-.25.07-.38.03-.07-.02-.11.06-.13.13-.03.12-.09.23-.14.34-.02.03-.05.04-.08.05-.08.02-.17.07-.24-.01-.07-.08 0-.16.04-.23.03-.04.05-.08.08-.11.02-.09.1-.13.14-.21.01-.02.03-.04.04-.06-.17-.08-.33-.06-.5 0-.2-.1-.17-.24-.07-.4.1-.03.14-.14.24-.17.1 0 .16.06.21.14.04.06.18-.04.18.11 0 .03.06 0 .08-.01.06-.04.1-.09.14-.21-.17.24-.25 0-.37 0-.02-.02-.02-.05-.02-.08 0-.05.03-.09.07-.12.04-.05.2-.01.12-.16z" style="fill:#f1b9bd;stroke-width:0"/><path class="cls-201" d="M9.64 14.16c.08.06.18.03.26.07.05.02.11 0 .12-.06.02-.13.1-.24.09-.38-.01-.16.06-.2.2-.14 0 .11-.02.22.04.31.01.14-.06.25-.09.38-.04.16-.05.32.01.48 0 .14.05.29-.05.42-.07.04-.15.05-.23.06-.2.03-.32-.07-.31-.27 0-.14-.04-.2-.18-.15-.1.04-.18.01-.24-.08-.03-.26.19-.53.44-.54-.04-.03-.13-.02-.07-.11z"/><path class="cls-4" d="M17.43 15.35c.02.14-.06.23-.15.32-.06.03-.12-.03-.18 0-.23.05-.37-.05-.47-.26-.11-.23-.07-.43.01-.64 0-.11 0-.22.04-.32.06-.12.14-.23.24-.32h.19c.14.02.23.14.18.28-.06.16-.14.32-.21.47-.07.02-.09.06-.05.13.03.04.05.09.04.15.03.22.19.21.35.2z"/><path d="M9.48 21.35c-.32.06-.62 0-.92-.1-.07-.03-.13 0-.19.02-.07-.04-.13-.07-.2-.11-.26-.19-.25-.18.02-.36.32-.21.66-.23 1.01-.08.19.08.27.27.38.43.05.07-.05.14-.1.19z" style="fill:#ead7c5;stroke-width:0"/><path d="M5.44 21c.08.08.17.08.26 0l.54-.42c.1-.08.21-.13.28 0 .09.15.25.18.38.21.13.04.11.09.09.17-.37.23-.78.27-1.2.32-.17.02-.35.04-.52.07-.07 0-.14.02-.17-.06s.05-.1.09-.13c.08-.06.16-.11.25-.16z" style="fill:#decfb6;stroke-width:0"/><path d="M11.85 15.27c-.05.11-.17.11-.25.19.08.05.17.1.24.16.06.04.24.03.08.19-.04.04.05.07.1.07.11 0 .22 0 .33-.01.06 0 .12 0 .13.08-.21.11-.43.05-.65.04-.07 0-.14-.02-.21-.02h-.04c0-.02-.03-.03-.02 0q.08.16-.16.17c-.06 0-.12 0-.18-.03-.02-.01-.03-.03-.03-.04.03-.11 0-.18-.12-.22-.09-.03-.19-.07-.23-.16 0-.06-.06-.1-.07-.16.08-.08.03-.17.05-.26.02-.02.05-.03.08-.02.14.13.33.14.5.2-.14-.11-.33-.12-.48-.22-.08-.19-.07-.2.09-.2.04.01.06.05.09.07.08.07.16.14.25 0 .03-.05.11-.06.18-.07.1 0 .2 0 .29.07.05 0 .1.02.1.07 0 .07-.06.04-.1.05-.04 0-.09-.02-.13.02.03.08.11.05.17.06z" style="fill:#dfa6b2;stroke-width:0"/><path d="M17.2 20.93c-.13.1-.28.11-.44.11-.11 0-.22.02-.31.07-.18-.02-.35-.09-.51-.15-.06-.02-.13-.04-.13-.12 0-.07.05-.12.11-.15.07-.04.15-.06.22-.08.35-.07.69-.17 1.05-.25.14-.03.29-.08.39.06.07.1-.01.24-.18.37-.06.05-.14.07-.19.13z" style="fill:#ccbfcc;stroke-width:0"/><path d="M21.93 16.77c-.14-.06-.28-.09-.32-.28-.03-.12-.1-.03-.14 0-.15.16-.29.31-.43.48-.07.08-.11.1-.19.01-.08-.08-.2-.13-.3-.19.23-.28.53-.44.86-.57.23-.09.46-.19.67-.4-.03.34-.02.65-.14.93z" style="fill:#d6d8b9;stroke-width:0"/><path d="M9.48 21.35c.13-.17 0-.26-.1-.38-.07-.08-.09-.2-.22-.21-.2-.03-.39-.14-.61-.06-.19.07-.37.17-.54.29 0 .11.17.06.16.18-.22-.07-.38-.18-.45-.42-.03-.11-.06-.23-.18-.3v-.04c.02-.03.04-.04.08-.04.1.14.15.31.22.46.09-.04.08-.16.17-.19.13.01.14-.13.24-.18.26-.14.53-.22.83-.18.12.34.42.48.71.63.11.06.18.13.18.25-.08.08-.16.14-.28.12-.07.02-.14.05-.21.07z" style="fill:#dab9ab;stroke-width:0"/><path d="M10.43 15.3c-.03.06-.03.12 0 .19.1.27.06.52-.08.77-.12.1-.22.21-.29.36-.06.12-.18.15-.3.19-.04 0-.08 0-.12-.01-.06-.04-.08-.09-.07-.16.03-.13.14-.01.2-.06-.04-.17-.19-.32-.14-.52.02-.09.04-.16.15-.16.1 0 .07-.15.16-.17.09-.08.14-.18.19-.29.04-.08.08-.16.18-.19.05 0 .09.02.13.06z" style="fill:#f1e5da;stroke-width:0"/><path d="M19.65 18.98s0 .06.04.08c.28.12.59.18.85.36.05.1-.05.12-.09.17v.02c.01.04.03.1-.01.12-.06.04-.12 0-.18-.04-.18-.14-.39-.24-.58-.35-.02 0-.03-.02-.05-.03-.11-.07-.47-.07-.54.02-.09.12-.21.16-.35.19-.19-.12-.2-.36 0-.49.07-.05.15-.11.24-.13 0-.04-.06-.05-.05-.09 0-.09.06-.14.14-.17.24.04.44.15.6.34z" style="fill:#ab9d70;stroke-width:0"/><path d="M13.2 10.12c.05.01.11.03.16.04-.05.08-.04.16-.04.25v2.2c-.07-.18-.08-.38-.27-.52-.12-.09-.02-.3-.07-.45-.04-.11-.02-.25-.05-.37-.03-.14-.06-.24.14-.25.09 0 .05-.11.06-.17.02-.25-.05-.5.08-.73z" style="fill:#e2cfbb;stroke-width:0"/><path d="M11.41 16.06c.07 0 .14 0 .2-.01.04-.06-.13-.04-.03-.12.03-.02.06-.02.09 0 .3.16.62.1.93.09.07.08.16.1.26.07.18-.06.38-.07.55-.17.17-.1.18-.11.01-.22l.19-.19c.09.05.21.07.21.22 0 .14-.09.21-.18.27-.14.1-.32.14-.45.26-.22.04-.44.04-.65.08-.19.03-.38.01-.56.01-.08-.02-.13.07-.21.06 0-.06-.04-.09-.08-.1-.18 0-.34-.11-.52-.1-.28-.06-.53-.15-.66-.44.05-.05.12-.05.18-.08.01 0 .02.02.03.02.08.06-.04.18.08.23.19.07.36.19.57.17.04 0 .09.02.13 0-.04 0-.09.02-.1-.04z" style="fill:#bfa6a0;stroke-width:0"/><path d="M3.71 20.17s.07 0 .03-.03c-.05-.04-.13-.03-.18-.08-.05-.04-.07-.08 0-.11.05-.02.1 0 .15.01.07.01.13.04.19.06.14.1.29.18.45.23 0 .03 0 .07-.04.08-.15.05-.18.2-.25.32-.11.23-.25.38-.54.36-.16-.01-.32.05-.49.04-.06 0-.13 0-.15-.07-.03-.08.02-.14.08-.16.26-.12.49-.33.81-.33.15-.05.11-.19.15-.31 0 0-.05-.01-.03 0 .01 0 .01 0 0 .01-.08.06-.15.1-.2-.03z" style="fill:#ebbfc0;stroke-width:0"/><path d="M7.62 20.37s-.05.03-.08.04c0-.05-.02-.1-.08-.04-.07.08-.14.15-.25.27.02-.11.05-.17-.04-.21-.4-.22-.4-.22-.57-.12l-.01-.03c.27-.22.1-.49.09-.74.08-.03.17-.01.23-.09.3.26.53.56.72.91z" style="fill:#b59b80;stroke-width:0"/><path d="M13.36 8.94c-.1.01-.09.1-.07.15.05.14 0 .3.13.42.04.04.05.15-.02.18-.09.04-.08-.06-.1-.1-.05-.12-.14-.19-.26-.16-.14.03-.15-.04-.11-.12.03-.08 0-.17.03-.25-.06-.14-.02-.28 0-.42.01-.08.02-.17.02-.25 0-.08 0-.16.02-.24.05-.19 0-.39.06-.58.02-.06 0-.15.1-.17.04-.01.08-.03.12-.04-.04.47-.1.95.07 1.41.02.05 0 .12.01.17z" style="fill:#f9f1e4;stroke-width:0"/><path d="M20.44 21.43c-.3.12-.61.24-.91.36-.25.11-.47.25-.59.51-.07 0-.17.03-.21-.02-.05-.07.02-.17.07-.21.19-.12.22-.34.31-.5a.5.5 0 0 1 .25-.21c.33-.01.65.07.98.04.03 0 .06.02.09.04z" style="fill:#f4eee8;stroke-width:0"/><path class="cls-58" d="M4.98 15.66c.08-.05.16-.11.24-.16.08-.06.16-.12.25 0 .03-.12-.06-.15-.09-.21-.04-.07-.08-.15.07-.14.04.04.06.09.09.15.03.11.12.2.1.32-.01.04-.04.07-.08.08-.13.02-.2.11-.26.21-.03.05-.05.13-.12.1-.07-.02-.03-.1-.03-.14q-.11.36-.04.48c.06.05.13.09.14.17 0 .07.02.13.02.2 0 .02-.01.04-.02.05-.17.05-.2-.16-.35-.19.01.16.09.31-.02.45-.02.01-.03.02-.05.02-.03 0-.05-.02-.08-.04-.06-.05-.1-.12-.14-.18-.04-.07-.01-.14.01-.21.03-.11.06-.21.06-.32 0-.16.03-.31.18-.41.09-.06.03-.18.11-.24z"/><path d="M4.07 16.61v-.03c-.07-.13-.23-.14-.31-.25-.06-.08-.12-.15-.14-.24-.02.08.09.13.06.22-.14-.09-.16-.38-.04-.45.11-.06.17.05.24.11.04.03.04.14.12.09.07-.04 0-.11 0-.16 0-.02-.02-.05-.03-.07-.02-.07 0-.13.07-.16.04-.02.08-.05.12 0 .05.06.08.12.03.19-.03.04-.06.09-.1.14.05.07.15.07.18.15.09-.02.07-.27.23-.09.07.08.06.15-.01.22-.05.05-.1.1-.11.17-.02.09.02.17.03.26 0 .07 0 .16-.08.18-.08.02-.12-.06-.17-.11a.864.864 0 0 1-.1-.16z" style="fill:#dfe0c8;stroke-width:0"/><path d="M19.33 17.96c-.06-.12-.22-.12-.28-.24 0-.14.14-.18.21-.26.21-.25.4-.52.66-.72.19.08.16-.09.19-.18.02-.06.02-.1.06 0-.02.35-.21.63-.36.92-.06.11-.13.22-.2.33-.1.04-.14.19-.28.17z" style="fill:#b7b289;stroke-width:0"/><path class="cls-222" d="M11.82 15.07c-.11.02-.21-.04-.32-.04-.3 0-.39-.08-.47-.36v-.04c.07-.1.03-.22.04-.32 0-.07.01-.13.07-.19.18-.18.29-.18.34.09.06.32.16.6.34.86z"/><path d="M14.66 17c.09.11.18.22.27.32-.14.08-.08.24-.14.35.07-.03.13-.03.18.03.01.1-.07.1-.13.12-.1.04-.19.08-.28.14-.08.04-.16.09-.25 0-.04-.03-.06.04-.1.05a.55.55 0 0 1-.24.07c-.1-.01-.21.05-.31-.01-.06-.21.04-.34.28-.36.12 0 .25 0 .28-.17 0-.06.09-.06.15-.08.09-.04.19-.07.24-.16.05-.12-.08-.15-.12-.21-.06-.09-.06-.1.06-.13.04.01.08.02.12.04z" style="fill:#b9a5aa;stroke-width:0"/><path class="cls-182" d="M2.6 18.71h.05c.16 0 .3.09.44.13.07.02.17.07.13-.08-.04-.13-.03-.2.15-.18.23.03.46 0 .69.05.16.03.18.07.07.18-.08.08-.05.14-.02.22-.09.02-.18-.02-.25.08-.05.08-.11 0-.15-.03a.49.49 0 0 0-.35-.09c-.12 0-.14.03-.08.14.1.17.17.35.24.54-.1.02-.12-.05-.13-.12-.06-.27-.22-.36-.55-.34-.01-.12.12-.08.16-.16-.06-.07-.15-.09-.23-.13-.08-.05-.17-.07-.17-.19z"/><path class="cls-252" d="M19.64 18.39c-.06 0-.11 0-.18-.02.05-.1.16-.05.22-.11.13.01.2-.1.25-.16.18-.27.49-.28.74-.41-.03-.03-.08 0-.12-.02.25-.08.5-.07.76 0-.17.07-.36.11-.49.27-.06.08-.21.1-.31.15-.15.06-.32.05-.4.23-.02.04-.08.02-.13.03-.07 0-.15-.03-.2.04-.04.03-.08.03-.12 0z"/><path d="M.81 19.93c.03.11-.02.28.2.21.05-.02.09.05.08.11-.01.11.01.24-.12.28-.26.08-.38.27-.46.5 0 .02-.05.04-.07.08.13-.03.19.02.22.12-.1.08-.21.13-.34.17.05-.55.1-1.07.49-1.48z" style="fill:#c5c3a1;stroke-width:0"/><path d="M4.92 20.84c.09.07.28.1.17.29-.03.05-.06.09-.12.1-.24.07-.49.08-.74.04-.16-.03-.22-.14-.18-.31.03-.11.09-.2.09-.32.08-.05.14-.04.13.03-.01.13-.02.2.15.19.07 0 .12.13.21.16.04-.07-.08-.15 0-.19.09-.05.19 0 .28.02z" style="fill:#ecbcb9;stroke-width:0"/><path d="M18.06 19.81c-.09.02-.06.1-.07.16l-.09.51c-.12-.04-.13.06-.17.13-.06.12-.08.12-.16.04.14-.32.1-.63-.03-.94.08-.16.11-.17.32-.12-.03-.12-.07-.24-.09-.36-.01-.08.02-.16.09-.2.07-.04.14-.07.2.02.04.17.02.34.02.5-.04.08 0 .16 0 .24l-.02.02z" style="fill:#919774;stroke-width:0"/><path class="cls-22" d="M5.5 15.31s-.06-.1-.05-.16h.23c.1-.01.07.09.12.12.11-.11-.05-.21 0-.32 0-.06.02-.1.08-.12.14.02.23.11.28.24-.02.05-.03.1-.09.12-.13 0-.09.06-.04.11.08.08.09.13-.06.14.11.09.19.18.31.06.03.09.07.18.1.27 0 .02 0 .04-.01.05a.18.18 0 0 1-.07.05c-.08 0-.18-.11-.22.06 0 .04-.07.04-.12.02a.536.536 0 0 1-.15-.15c-.01-.23-.22-.32-.32-.49z"/><path d="M14.54 16.96c-.13.04-.05.08 0 .12.07.06.21.09.12.24-.03.02-.07.03-.11.02-.16-.27-.42-.32-.7-.33-.1.02-.1.11-.12.18-.04.11-.11.19-.21.24-.04.02-.08.04-.11.01-.05-.04 0-.08.02-.12.02-.04.06-.07.08-.11.04-.09.14-.18.04-.26-.1-.08-.21-.22-.38-.09-.05.04-.11.02-.15-.05v-.08c.02-.06.04-.11.11-.13.49.06.98.13 1.42.36z" style="fill:#dad0ce;stroke-width:0"/><path d="M9.76 16.77c.15-.06.26-.15.33-.3.05-.11.13-.2.26-.21 0 .02 0 .05.01.07.05.19-.03.31-.2.39-.06.03-.11.05-.05.12.02.02.01.06-.01.07-.17.05-.07.17-.08.26-.03.09-.1.16-.19.18-.1.03-.19.07-.27.15-.09.09-.2.02-.3.02-.05 0-.04-.07-.02-.11.03-.07.08-.12.13-.17.09-.06.12-.18.21-.24.09-.05.12-.15.18-.23z" style="fill:#c67f8c;stroke-width:0"/><path class="cls-193" d="M19.64 19.3c.07 0 .13 0 .2.06.14.14.35.17.5.33.06.07.11 0 .11-.08.05.31.13.62.23.91-.08.07.01.18-.07.26-.08-.1-.05-.27-.21-.3a.248.248 0 0 1-.08-.15c0-.27-.16-.46-.37-.6-.11-.13-.27-.24-.31-.43z"/><path class="cls-307" d="M11.62 4c.17.01.3-.02.29-.24 0-.04.02-.11.09-.11.06 0 .06.06.07.1.02.04.03.09.05.13.07.15.16.16.26.03.05-.07.1-.14.19-.15-.01.21-.02.43-.1.63-.03.07-.07.13-.13.16-.14-.2-.33-.33-.56-.41-.07-.02-.16-.04-.16-.15z"/><path d="M2.32 20.21c-.25-.07-.02-.21-.07-.35-.34.23-.69.43-.89.81-.08-.07-.07-.13-.04-.19.08-.15 0-.15-.12-.12.03-.09.1-.13.15-.18.08-.09.02-.11-.06-.12 0-.01-.01-.02-.01-.03v-.02c.05-.04.11-.08.16-.03.14.13.25.05.36-.03.09-.06.19-.09.27-.16.06-.04.12-.07.19-.1.04-.02.08-.02.1.02.03.05 0 .08-.03.12.08-.07 0-.25.18-.25.05.25-.05.45-.19.63z" style="fill:#93885d;stroke-width:0"/><path d="M4.92 20.84c-.09.03-.18.08-.25-.02-.01.03-.02.05-.02.05.04.07.16.14.07.21-.07.06-.15-.04-.21-.1-.07-.08-.13-.2-.25.03 0-.15-.07-.23-.01-.33.02-.04-.03-.09-.1-.04h-.08c-.09-.08.22-.21-.07-.28.18.06.26-.02.34-.11 0 0-.01-.02-.01-.03v-.02a.34.34 0 0 1 .2 0c.09.1.11.19-.02.28-.13.1-.04.18.04.18.14 0 .23.08.34.14 0 .01.01.03.02.04z" style="fill:#e0ad8e;stroke-width:0"/><path d="M21.39 19.69c-.05.07-.13.02-.24.07.28 0 .27.28.48.36-.23.1-.34.39-.63.28a.823.823 0 0 1 0-.67c0-.05.02-.06.06-.08.12-.02.24-.05.34.04z" style="fill:#aea077;stroke-width:0"/><path d="M13.04 21.04c.08 0 .16 0 .27-.02-.14-.05-.24-.01-.35-.03.05-.15.14-.28.25-.39.14-.15.31-.05.46 0 .02 0 .03.01.05.03.06.12.21.17.24.32-.29.05-.57.14-.87.16-.01 0-.03 0-.04-.01a.048.048 0 0 1 0-.07z" style="fill:#b5998f;stroke-width:0"/><path class="cls-84" d="M4.34 16.45c-.01-.09.04-.15.1-.19.07-.05.09-.12.06-.2.18-.02.29-.15.39-.28.03-.03.03-.1.08-.12-.02.14-.05.26-.17.35 0 0-.01 0-.01.02-.07.27-.1.55-.14.82 0 .11-.08.12-.16.13-.13.01-.26 0-.39-.03-.07-.01-.14 0-.18-.08.04-.12.11-.18.25-.14.03.06.07.11.14.14l.06-.18c-.02-.05 0-.09.03-.12.08-.11.01-.12-.07-.12z"/><path d="m10.43 15.3-.12-.04c-.07-.15 0-.32-.08-.47-.14-.3 0-.57.12-.83.02.01.05.03.07.04.03.04.06.08.05.13-.07.28.04.57-.06.88.09-.23.03-.43.05-.63 0-.07 0-.18.1-.19.08 0 .11.08.13.15.06.18.06.36-.06.53-.11.12-.21.25-.2.43z" style="fill:#e8b9be;stroke-width:0"/><path d="M15.26 13.76c.04.13.11.26 0 .4-.08.1.04.16.07.24.01.03.06.06.02.1-.04.05-.09.01-.12 0-.14-.09-.31-.15-.38-.32-.14.06-.18.21-.31.25.08-.26.3-.43.46-.63.07-.09.18.03.26-.04z" style="fill:#f5dbd5;stroke-width:0"/><path d="M11.62 4c.14.14.35.15.5.26.1.08.19.16.21.29-.08.08-.2.13-.17.29.02.08.05.11.12.11.07.08.27 0 .23.17-.04.14-.2.15-.32.14-.2-.02-.42-.05-.59-.27h.32c.12.08.18.07.15-.09-.01-.08 0-.17 0-.25 0-.06 0-.13-.01-.19-.05-.15-.2-.2-.35-.13-.1-.05-.14-.14-.18-.23-.04-.07-.02-.13.08-.1z" style="fill:#f1c3b3;stroke-width:0"/><path d="M22.01 21c.13-.03.16-.09.07-.19-.13-.15-.15-.31-.05-.48.05-.08-.05-.17.02-.24.27.28.37.62.39.99 0 .08 0 .14-.11.08-.11-.06-.22-.11-.33-.16z" style="fill:#dad8bb;stroke-width:0"/><path class="cls-307" d="M11.62 4s-.1.03-.06.07c.07.07.09.19.18.24.1-.04.18 0 .23.1.05.12.06.25.05.38 0 .07 0 .15-.09.17h-.01c.03-.17-.02-.27-.18-.39-.36-.27-.53-.67-.45-1.14.02-.16 0-.33.05-.49.07.24.12.48.03.72-.04.11.01.18.08.24.05.04.11.07.16.11z"/><path class="cls-74" d="M5.05 20.17c-.07 0-.15 0-.17-.07-.03-.07.07-.08.1-.12.1-.11.24-.18.24-.37 0-.1.11-.12.17-.16.07.07-.02.11 0 .17.13-.01.07-.22.22-.21.08-.01.08.06.1.11 0 .05-.03.1 0 .15.02.03.05.06.06.1-.1.05-.04.18-.11.25-.06-.04-.06-.14-.15-.14-.13.13-.23.3-.45.29z"/><path d="M16.13 20.64c-.09.07-.29.04-.28.19.01.11.19.1.29.15.1.05.2.09.31.13h.03c-.14.05-.27-.01-.4-.05-.1-.03-.21-.07-.31-.11-.06-.07-.15-.09-.22-.15-.05-.04-.13-.07-.1-.16.03-.08.1-.12.18-.14.25-.05.5-.06.75-.11.04 0 .09 0 .13.02.06.1-.03.11-.08.14-.09.05-.2.02-.29.08z" style="fill:#9e8a99;stroke-width:0"/><path class="cls-292" d="m19.17 20.13-.04.04c-.11-.01-.14-.13-.24-.16-.05-.02-.03-.12-.1-.11-.09.01-.02.08-.03.12-.03.07-.09.09-.14.13-.07.06-.13.14-.2.21-.08-.12-.16-.24-.24-.35.01-.05.05-.08.1-.09.1-.01.19-.03.2-.17 0-.06.07-.09.14-.08.12.02.24.04.35.12.08.1.25.15.21.33z"/><path d="M10.19 22.38s.05.02.08.03c-.36.12-.74.11-1.1.17-.74.13-1.45.37-2.15.63-.07.03-.15.05-.22.08.14-.19.37-.21.57-.28.74-.24 1.48-.46 2.25-.59.19-.03.39 0 .58-.05z" style="fill:#d7b7bf;stroke-width:0"/><path d="M22.25 19.97v-.04c.59-.29.99.12 1.42.42-.48-.08-.92-.36-1.42-.39z" style="fill:#bfba93;stroke-width:0"/><path class="cls-252" d="M20.59 18.39c.14-.07.29-.07.44-.07.4 0 .79-.07 1.19-.05.16 0 .33 0 .48-.06.06-.03.13-.04.18.02-.07.04-.13.08-.2.12-.53.03-1.05.06-1.58.08-.14.01-.27.07-.41.04a.155.155 0 0 1-.11-.08z"/><path d="M1.61 19.34c0 .07-.06.18 0 .22.09.05.19-.01.28-.05.01-.01.04-.03.05-.02.06.07.11.03.18.02.08 0 .19-.09.26.04-.05.11-.16.09-.25.12-.07.03-.14.05-.21.09-.11.05-.23.11-.36.12h-.18c-.2 0-.24-.05-.28-.25.17-.09.37-.13.51-.27z" style="fill:#f5e9dd;stroke-width:0"/><path d="M16.13 20.64c.05-.07.13-.08.21-.08.08 0 .15-.04.19-.12q.07-.06.18-.04s-.1 0-.11-.06c.04-.07.11-.07.17-.07.19-.02.38-.06.57-.04h.06c.29.08.32.13.19.4-.05.08.05.12.05.19a.65.65 0 0 0-.43.09c.05-.12.18-.14.25-.24.05-.08.15-.16.07-.26-.07-.09-.18-.07-.29-.04-.36.1-.73.2-1.1.25z" style="fill:#b59fab;stroke-width:0"/><path class="cls-101" d="M3.67 16.3c-.04-.11-.15-.23.02-.39-.1.26.05.35.18.47.07.06.21.05.19.2-.19-.03-.34-.16-.56-.14-.12.01-.25 0-.38.02a.185.185 0 0 1-.2-.13c-.03-.07 0-.13.06-.17.08-.05.16-.04.24.02.16.12.37.13.53.26 0-.1-.07-.09-.09-.13z"/><path d="M4.22 22.38h.36c.53-.02 1.05.09 1.58.12 0 .03.04.05 0 .08-.06-.01-.11-.04-.17-.04-.68.04-1.34-.14-2.02-.08-.08 0-.16.05-.24-.03l.49-.06z" style="fill:#d9c3c0;stroke-width:0"/><path d="M10.63 14.87c.04-.23.08-.45-.1-.71-.05.33.03.64-.14.92.03-.38-.05-.73.03-1.09.19.09.33.2.38.43.04.2-.02.33-.17.43z" style="fill:#f7e4e2;stroke-width:0"/><path d="M18.93 19.81c-.09.05-.1-.09-.18-.07-.1.03-.3-.1-.26.16 0 .06-.06.02-.09.03-.07.02-.15.05-.22.07a.51.51 0 0 1-.12-.2v-.02c.11-.28.32-.36.6-.25.04.02.07.03.11.04.04 0 .07.02.1.05.03.05.09.1.06.17z" style="fill:#a3a27b;stroke-width:0"/><path d="M1.06 16.73c-.11.04-.01.06.01.07.07.03.16.04.2.11.02.02.03.08.02.09-.14.12-.09.27-.08.41-.01 0-.03-.01-.03-.02-.11-.27-.27-.49-.5-.67-.03-.02-.07-.08-.03-.12.03-.03.08-.03.11 0 .09.06.22.06.3.14z" style="fill:#e3e4d1;stroke-width:0"/><path d="M19.45 16.1c-.33.12-.62.38-1.01.25-.08-.03-.17 0-.26 0-.04 0-.06 0-.04-.04.35-.08.7-.22 1.07-.2.08 0 .16 0 .23-.03v.03z" style="fill:#b7a192;stroke-width:0"/><path d="M13.2 15.31c-.08.01-.16.13-.24-.02-.04-.07-.14.01-.25-.01.17-.09.31-.17.46-.25.09-.04.15-.09.13-.2-.02-.09.04-.12.12-.11.14.06.19.17.16.31h-.02c-.07.15-.27.15-.36.28z" style="fill:#be8288;stroke-width:0"/><path d="M2.6 18.71c.07.11.2.14.31.2.08.04.16.07.2.16-.08.07-.2.04-.27.13a.3.3 0 0 0-.08.04c-.08.03-.16.08-.26.08-.08-.1-.04-.19.03-.28.08-.09-.02-.23.07-.32z" style="fill:#fbf9f4;stroke-width:0"/><path d="M3.4 20.48c-.16.01-.33.03-.47-.07-.05-.03-.12-.09-.04-.13.19-.09.36-.24.6-.16-.01.08-.01.17 0 .25.01.07-.03.09-.09.11z" style="fill:#e7bbc0;stroke-width:0"/><path d="M13.12 16.61s-.05.08-.07.12c-.05 0-.09 0-.12-.04-.02-.12-.12-.05-.12-.02.03.15-.09.11-.16.14-.05-.04-.1 0-.15 0-.09-.01-.16-.04-.11-.15.01-.01.03-.03.04-.03.09-.03.18-.02.27-.07-.1-.03-.21.02-.29-.05 0-.03 0-.05.03-.07a.37.37 0 0 1 .21-.06c.17.01.34-.02.52-.03-.01.09-.05.18-.04.28z" style="fill:#c4aea2;stroke-width:0"/><path d="M3.4 20.48c.12-.09-.04-.21.03-.31l.05-.05c.08.02.15.03.23.05.06.03.12.1.15-.02 0 0 .04-.01.05 0 .05.04.08.12.06.15-.04.08-.03.23-.2.19-.13-.11-.25.03-.38 0z" style="fill:#d49ea5;stroke-width:0"/><path d="M9.99 17.16v-.04c-.13-.14-.13-.23.1-.24-.02-.07-.1-.07-.1-.16.21-.04.36-.16.37-.4.06.13.24.19.23.36l-.08.08c-.15-.05-.23.03-.31.14-.07.09-.08.22-.21.26z" style="fill:#d7a2a6;stroke-width:0"/><path d="M3.95 16.85c.04.06.1.04.15.04.01.04 0 .05-.03.07-.11.03-.21.09-.28.17-.19.12-.39.1-.59.07-.01-.15.11-.18.2-.24.14-.03.22-.11.27-.24.04.16.17.11.28.12z" style="fill:#cdceae;stroke-width:0"/><path d="M5.05 20.17c.15-.1.34-.14.39-.35.01-.05.04 0 .05.04.03.15.04.29-.03.43-.1 0-.2.03-.29.07-.05.02-.05.05-.02.09-.1 0-.17-.09-.25-.12.01-.11.13-.09.17-.15z" style="fill:#f2d7ca;stroke-width:0"/><path d="M15.57 21.75h.16c.18.08.37.05.55.09.27.05.51.19.79.19.09.05.18.07.28.08-.03.11-.1.05-.16.04-.26-.02-.5-.11-.74-.18-.29-.09-.58-.16-.89-.14-.08 0-.15-.02-.23-.04.06-.12.16-.04.24-.04z" style="fill:#c7a5b0;stroke-width:0"/><path class="cls-65" d="M15.57 21.75c-.08.02-.17-.03-.24.04-.26 0-.51-.05-.75-.13-.32-.11-.46-.38-.6-.66.09 0 .12.08.15.14.19.36.51.47.88.53.18.03.38 0 .55.08z"/><path d="m5.76 19.77-.07-.07c.02-.07.08-.1.14-.13.24-.11.47-.25.72-.33.09 0 .16.04.21.11-.03.09-.12 0-.16.07v.03c-.3.05-.54.27-.84.32z" style="fill:#b9af93;stroke-width:0"/><path d="M8.3 21.32s-.03.09.02.06c.21-.13.39 0 .57.06-.19.15-.39.22-.62.06-.08-.06-.19-.06-.29-.09.1-.03.21-.05.31-.08z" style="fill:#c6b7c8;stroke-width:0"/><path d="M3.38 19.53c.06.03.06.11.13.12.04.04.05.1.12.12 0 .09.12.13.08.23-.04.05-.16-.14-.16.05-.19-.07-.34-.32-.3-.49.02-.09.09-.02.13-.03z" style="fill:#e1a5af;stroke-width:0"/><path d="M13.24 6.01c-.09 0-.14-.1-.24-.08-.06-.08-.06-.16 0-.24.21-.12.13-.36.27-.52 0 .08.01.17.02.25-.09.19-.02.39-.05.59z" style="fill:#e5b29e;stroke-width:0"/><path d="M1.53 18.39c-.08.06-.09.21-.24.15 0-.02.02-.04.02-.05-.04-.12-.06-.25.07-.31.13-.05.29-.12.43 0 0 .05 0 .09-.05.12-.07.05-.19-.06-.23.08z" style="fill:#f4e0dd;stroke-width:0"/><path d="M1.89 19.7c.13-.12.32-.1.47-.18.03-.07.04-.15.15-.16.05.04.04.08.02.13 0 .02 0 .05-.01.07-.11.06-.09.19-.16.28-.06-.04.03-.11-.03-.15-.08.04-.16.07-.24.11-.1.03-.16-.01-.19-.11z" style="fill:#675133;stroke-width:0"/><path d="M11.03 14.67c.11.19.25.32.47.36-.02.06-.16.01-.11.14.01.03-.24.02-.3-.05a.55.55 0 0 1-.07-.09.427.427 0 0 1-.02-.35h.03z" style="fill:#c68d8f;stroke-width:0"/><path d="M13.16 16.33c-.14.1-.3.07-.46.08-.08 0-.17.02-.25.03a.076.076 0 0 1-.02-.05c-.02-.11.1-.06.13-.11.21-.02.42-.11.64-.03-.01.03-.03.05-.04.08z" style="fill:#827d71;stroke-width:0"/><path d="M17.63 20.83s-.17-.03-.08-.14c0-.03.02-.03.04 0 .13 0 .1-.12.13-.19.05-.11.11-.15.17-.01 0 .17-.18.31-.07.52-.09-.07-.14-.12-.2-.17z" style="fill:#a3a88d;stroke-width:0"/><path d="M3.39 16.96c-.21-.04-.28-.14-.18-.26.07-.09.17-.14.28-.06.11.08 0 .16-.03.23-.02.03-.05.06-.07.09z" style="fill:#c5c8ab;stroke-width:0"/><path d="M3.19 17.2c.19-.08.42.02.6-.12l.02.02c0 .08.01.17 0 .26-.01.01-.03.03-.04.03-.08.02-.15 0-.21-.07-.12-.07-.29 0-.39-.12h.04z" style="fill:#efecdc;stroke-width:0"/><path d="M1.1 19.61c.07.27.29.2.48.21 0 .07-.06.08-.11.08-.08 0-.13.05-.17.11v.04c-.13-.08-.26-.16-.36-.28l.16-.16z" style="fill:#948c67;stroke-width:0"/><path class="cls-101" d="M3.95 16.85h-.04c-.2.12-.22.11-.24-.13.04-.06.1-.15.16-.07.14.2.17 0 .24-.05.06.02.09.07.12.12-.09.02-.16.08-.24.12z"/><path class="cls-222" d="M11 14.68c.05.11.03.23.02.35-.22-.04-.01.12-.07.15 0 .03-.02.04-.05.04h-.07c-.07-.26-.01-.44.17-.55z"/><path d="M5.45 20.28c0-.14-.04-.29.03-.43.19-.08.15.07.16.17-.03.12-.02.26-.2.26z" style="fill:#e0a0a6;stroke-width:0"/><path d="M19.73 18c-.2.14-.38.3-.61.39a.7.7 0 0 1 .3-.29c.04-.02.13-.01.11-.1.07-.08.14-.03.2 0z" style="fill:#e2e3ce;stroke-width:0"/><path d="M14.67 15.78c.18-.05.36-.1.53.02.12.08.05.11-.03.14-.02.02-.05.03-.08 0h-.08c-.08-.13-.2-.17-.35-.16z" style="fill:#e7abb0;stroke-width:0"/><path class="cls-58" d="M5.8 14.95c.07.13.17.27 0 .41-.11-.02-.05-.16-.13-.21-.04-.11-.04-.2.12-.2z"/><path d="m1.89 18.99-.03.03c-.1.11-.25.11-.36.19-.19-.07-.19-.1-.05-.23.17-.09.36-.08.44 0z" style="fill:#efbdbf;stroke-width:0"/><path class="cls-156" d="M1.89 18.99c-.15-.07-.29.03-.44 0-.03 0-.06 0-.08-.04.12-.08.23-.16.38-.07.06.04.15-.04.23 0 0 .06-.05.08-.09.11z"/><path class="cls-65" d="M17.19 22.15c.05-.01.12.02.16-.04.29 0 .57.14.87.12-.03.06-.09.03-.12.04-.31 0-.61-.08-.91-.12z"/><path class="cls-193" d="m21.03 19.69-.05.05c-.17-.08-.34-.17-.55-.15.01-.06.1-.08.07-.16.21 0 .39.09.52.26z"/><path d="M10.67 15.7c-.01.11-.1.05-.15.08.01-.16.12-.24.26-.29.05.02.14.02.09.12-.07.02-.14.04-.2.09z" style="fill:#8e6f74;stroke-width:0"/><path class="cls-156" d="M1.5 19.21c-.04-.13.08-.08.13-.11.07-.04.15-.06.23-.08-.02.1-.08.16-.17.2H1.5z"/><path class="cls-182" d="M2.53 19.5s0-.09-.04-.12c-.02-.04 0-.07.03-.09.07-.07.15-.08.24-.07-.08.09-.15.18-.23.28z"/><path d="M19.33 17.96a.63.63 0 0 0 .23-.2c.05-.06.03.01.04.03l-.17.2c-.03-.04-.11.11-.11-.03z" style="fill:#686c55;stroke-width:0"/><path d="M13.04 8.39c.01.23-.07.45-.08.67-.07-.09-.13-.16-.25-.06-.06.05-.17.04-.21-.04-.1-.23-.29-.4-.34-.65-.05-.24-.12-.28-.38-.25-.07 0-.1 0-.13-.06.16-.03.33-.06.28-.3-.01-.05 0-.09.08-.08.14.02.27-.16.39-.07.11.08.02.25.05.37.02.07.05.14.07.21-.04.11.04.14.12.14.08 0 .14.03.17.1.06.12.14.1.23.03z" style="fill:#e4cfb3;stroke-width:0"/><path d="M13.16 7.4c-.05.17-.07.34-.08.51 0 .08.03.17-.04.24-.05-.23-.22-.43-.22-.68 0 .03 0 .06-.02.08-.07-.25-.03-.52-.07-.77 0-.03.01-.09.03-.08.16.11.14-.07.22-.16.02.23.05.43.05.63 0 .11.03.17.12.22z" style="fill:#eed5ba;stroke-width:0"/><path d="M13 5.7v.24c-.11 0-.26-.05-.22.16 0 .03-.07.08-.11.04-.07-.09-.19-.07-.26-.13-.1-.1-.08.04-.13.05-.09.06-.18.1-.29.07-.17-.06-.21-.14-.19-.34.08-.13.14-.05.19.02.08.12.15.15.26.03.08-.09.17-.05.22.04.03.04.05.08.1.05.04-.02.08-.05.07-.08-.06-.24.08-.17.2-.15h.14z" style="fill:#f5d2bc;stroke-width:0"/><path d="M12.8 7.56v-.15c.06.15.06.31.2.43.08.07.02.21.04.32v.23c-.06.04-.02.11-.05.17-.07 0-.11-.05-.15-.1-.06-.08-.12-.15-.24-.17-.07 0-.16-.06-.08-.17.01.06.04.12.11.11.07 0 .1-.06.12-.12.07-.18.04-.36.04-.55z" style="fill:#dfc0a0;stroke-width:0"/><path d="M11.94 4.95c.07-.19.02-.37 0-.56.17 0 .15.14.2.24 0 .11 0 .22.01.33 0 .06.06.13-.05.15-.09.02-.17 0-.16-.12v-.03z" style="fill:#c28a81;stroke-width:0"/><path d="M11.81 5.77c.05.31.15.37.48.28-.12.16-.26.14-.41.04-.13-.09-.14-.19-.07-.32z" style="fill:#dab09b;stroke-width:0"/><path d="M12.49 12.42c-.3.23-.23.59-.31.89-.03.1.03.25-.09.27-.11.02-.22-.08-.3-.16-.18-.17-.29-.37-.13-.62.1-.17.03-.37.02-.53-.02-.23.02-.45-.01-.68-.01-.1-.03-.2-.03-.29 0-.18.04-.37.15-.52.06-.09.1-.17.09-.28-.02-.18.16-.3.17-.47 0-.03.06-.03.08 0 .21.17.46.31.5.62 0 .08.03.14-.07.16-.1.02-.11.1-.1.19-.07.09-.05.19-.03.28.06.38.05.76.07 1.14z" style="fill:#f9f6e9;stroke-width:0"/><path d="M18.93 17.76c-.1.06-.2.03-.3.01a.915.915 0 0 0-.33 0c-.11.02-.23.07-.31-.06 0-.01-.06 0-.09 0-.03-.09.07-.13.09-.2-.15.05-.22-.06-.24-.4-.08.14-.2.21-.32.28-.05.03-.11.08-.18.03-.03-.07 0-.12.04-.16.2-.24.36-.5.5-.78.02-.04.05-.08.1-.09h.03c.11 0 .09.09.06.14-.09.2-.08.39.08.55.02.02.02.06.03.09.01.05.01.05.07 0 .02-.02.06-.06.06-.04-.01.09.08.19-.05.26.09.02.1-.05.15-.06.05 0 .09.04.11.07.1.14.23.23.39.26.04 0 .07.03.09.07z" style="fill:#a5ac8d;stroke-width:0"/><path d="M17.91 16.41c-.17.37-.4.69-.64 1.02 0 .02-.02.03-.04.04-.14.01-.27 0-.4-.02-.05-.06-.16-.06-.16-.17.18-.09.33-.23.43-.38.17-.26.47-.32.69-.51.04-.03.07 0 .11.02z" style="fill:#e2dadb;stroke-width:0"/><path d="M17.11 15.62c.08-.07.11.04.17.04.04.08.08 0 .11 0 .04 0 .09-.01.15-.02-.16.14-.31.26-.48.41.1.01.15.02.23.02-.15.06-.29.04-.42.08-.14.04-.29.07-.43.13-.25.11-.24.35-.23.58-.15-.23.02-.42.09-.62-.09-.03-.18 0-.25-.06-.02-.09.05-.12.11-.13.08 0 .05-.08.08-.11 0-.06 0-.13.09-.15.06.07-.09.14 0 .21h.02l.01-.01c.18.09.29.07.44-.08.1-.1.25-.14.31-.28z" style="fill:#d1989f;stroke-width:0"/><path d="M18.18 17.2c-.03.06-.07.11-.16.14.09-.16.02-.29-.08-.36-.11-.08-.07-.14-.05-.23.03-.11.13-.22.05-.34.07-.04.13-.08.2-.12l.04.04c.04.06.11.02.17.06-.24.23-.18.53-.17.81z" style="fill:#bbbd9e;stroke-width:0"/><path d="M16.67 17.28c.02.09.16.05.16.16-.19.04-.38 0-.56.02-.14-.02-.29.05-.42-.06.09-.18.24-.31.39-.43.15.1.26.25.43.32z" style="fill:#fdf9fa;stroke-width:0"/><path d="M12.29 3.05v.2c0 .25 0 .26-.24.21-.11-.02-.18 0-.2.12 0 .04 0 .1-.07.09-.06 0-.08-.06-.09-.11-.03-.15-.06-.3-.04-.45.05-.35.11-.7.24-1.02.02-.06.04-.14.12-.13.06.01.08.08.1.14.1.32.19.65.17.96z" style="fill:#fdfefa;stroke-width:0"/><path class="cls-59" d="M9.64 14.16c0 .12.12.05.16.1-.3.05-.46.25-.52.53h-.05c-.05-.1-.01-.19.04-.28-.09.12-.19.15-.3.03-.02-.02-.01.03-.03.04a.37.37 0 0 0-.05.11c-.03.08-.09.14-.14.21-.05.09-.11-.07-.16.03-.04.09-.14.06-.23.05-.17-.02-.33 0-.43.16-.05.07-.1.13-.2.14-.16.01-.2-.08-.2-.22 0-.06.03-.13.02-.19 0-.17.14-.25.22-.38.07-.11.09-.21-.08-.23-.05-.03-.1-.06-.08-.13.08-.08.05-.2.12-.29.14.08.11.28.28.36-.04-.13-.14-.24-.01-.36.09-.07.18-.11.26-.02.08.08.08.17-.02.26-.08.07-.24.15-.03.26.04-.01.03-.04.02-.07 0-.08 0-.16.1-.19s.14.05.16.11c.07.16.2.22.36.27-.02-.2-.12-.37-.11-.56 0-.06-.08-.13.03-.16.08-.02.17-.02.22.08.04.07.09.14.17.19.05.03.1.06.15.03.06-.03.04-.09.03-.14 0-.05-.06-.11 0-.16.09.02.15.06.16.16 0 .11.14.16.12.28z"/><path d="M7.62 14.12s.05.08.08.12c-.11.12-.27.18-.4.27-.01.01-.03.02-.04.03-.05.02-.05.16-.18.04.09.11.13.21.2.29.03.06.04.13 0 .19-.06.09-.11.08-.14-.02-.08-.16-.17-.3-.35-.35-.03 0-.07-.01-.08-.05-.05-.21-.08.02-.12 0-.08-.02-.16-.05-.21-.13 0-.25.19-.4.32-.58v.2c0 .04-.04.13.04.12.06 0 .15.1.18-.03 0-.02.02-.05.03-.04.22.03.43-.09.65-.05z" style="fill:#d89fa7;stroke-width:0"/><path d="m9.52 13.88-.16-.16c-.05-.17.01-.31.1-.45.09-.14.15-.09.2.02.09.18.03.4-.15.6z" style="fill:#edcac9;stroke-width:0"/><path d="M17.11 15.62c.02.1-.01.16-.11.2-.09.04-.17.09-.21.19-.04.1-.17.02-.25.08-.14.11-.12-.07-.17-.11.15-.28.12-.58.11-.87 0-.09.07-.18 0-.29-.02-.04-.01-.1.04-.12.05-.02.08.04.12.05-.04.25-.04.51.05.75 0 .02.03.05.03.05.14-.05.24.15.39.06z" style="fill:#e1c0ba;stroke-width:0"/><path d="M18.93 17.76a.74.74 0 0 1-.59-.4c.06-.06.11-.13.17-.19.13-.11.3-.06.36.1.02.06.04.13.07.18.03.05.06.11.13.08.05-.02.1-.07.07-.14-.04-.1.01-.15.11-.15.09 0 .13-.06.19-.12.14-.16.25-.34.47-.4-.27.35-.55.68-.87.99-.04.01-.08.03-.12.04z" style="fill:#b9c3a0;stroke-width:0"/><path class="cls-182" d="M2.57 18.63c-.12-.07-.12-.22-.21-.31.05-.16.24-.13.31-.23-.12-.05-.28 0-.38-.13v-.04c.08-.13.2 0 .29-.06q-.09-.11-.05-.19c.15.14.29.13.46.02.15-.1.31-.14.42.08.04.08.12.09.21.02-.07-.06-.18-.07-.17-.19 0-.09.09-.08.15-.09.12 0 .18.09.24.17.08.09.1.02.14-.02.09-.03.11.07.18.08.03.01.04.03.05.06.02.15-.08.26-.11.39 0 .04-.04.07-.09.06-.06 0-.11-.04-.13-.1 0-.02 0-.04-.01-.06-.16.16-.36.11-.54.1a.889.889 0 0 1-.51-.21c.05.07.17.06.19.16.02.09.1.15.1.23 0 .11-.12.1-.18.15-.04.04-.05.09-.09.13-.1.07-.18-.04-.28-.01z"/><path d="M2.52 17.67c-.04.12.12.12.12.22-.12.05-.24 0-.37.02-.12-.12-.28-.13-.43-.12-.02-.07 0-.12.06-.14.24-.08.08-.18 0-.24-.13-.1-.25-.22-.35-.36.2.12.39.26.55.43.03.03.05.06.03.1-.03.08-.03.16.08.14.08-.01.19-.04.14-.18.05.04.11.08.16.12z" style="fill:#b6b38f;stroke-width:0"/><path d="M3.98 17.68c-.04.08-.08.12-.16.05-.07-.07-.15-.14-.22-.21-.13-.04-.09-.11-.04-.19.08.01.16.02.24.04.13.07.31.08.33.28-.04.04-.1 0-.14.03z" style="fill:#d9d7b9;stroke-width:0"/><path d="M2.29 17.95c.14.06.32 0 .44.14-.11.1-.25.15-.37.22-.08-.07-.16-.13-.23-.2l.16-.16z" style="fill:#bcb693;stroke-width:0"/><path d="M2.36 17.56c-.06 0-.15-.01-.15-.1 0-.07.02-.14.08-.2.03-.03.07-.03.11 0 .07.06.02.12 0 .18-.01.04-.03.07-.04.11z" style="fill:#9e9773;stroke-width:0"/><path d="M15.45 20.68c.08.12.28.1.32.28h-.08c-.18-.1-.34-.25-.55-.28-.26-.04-.51-.13-.75-.22-.02 0-.03-.02-.05-.03a.219.219 0 0 1-.03-.05.877.877 0 0 0-.42-.43c-.1-.05-.27-.09-.11-.26.02-.03-.02-.07-.02-.11 0-.07-.02-.15.07-.18.08 0 .12.06.16.11.11.15.28.25.37.4.17.29.46.38.74.51.11.1.27.12.35.26z" style="fill:#ce9aa0;stroke-width:0"/><path d="M17.07 15.15s-.04-.1-.1-.13c-.05-.02-.06-.07-.02-.11.04-.04.07-.11.13-.03-.01.05 0 .1.04.14.06.06 0 .1-.04.13z" style="fill:#d4aaa8;stroke-width:0"/><path class="cls-4" d="M17.43 15.34c0-.07.04-.13.13-.11.03 0 .04.05.02.08-.04.08-.09.05-.15.02z"/><path class="cls-68" d="M15.85 17.4h.43c.01.02.01.04 0 .05-.31.1-.56.3-.79.53-.09.09-.16.19-.27.26-.1.07-.09.13.02.19.1.06.21.08.32.06.19-.04.38-.03.57-.07.07-.02.16-.06.2.04.03.09-.09.26-.21.28.15.02.3-.05.42.05 0 .02 0 .04-.02.06-.1.05-.23.02-.33.06-.38.02-.76.03-1.13 0-.23-.05-.46-.04-.69-.07-.1-.01-.2 0-.29-.03-.09-.09 0-.12.06-.14.05-.02.12 0 .17-.01-.05 0-.12.02-.15-.05-.03-.08.04-.1.08-.13l.04-.04c.02-.21.18-.32.28-.48.11-.15.3-.14.44-.23 0-.06.11-.05.08-.13.26-.07.52-.13.79-.2z"/><path d="M15.1 15.94h.08c.16.06.29-.05.44-.08.12.08.31.05.35.24-.17.15-.31.33-.55.4-.21.06-.36-.02-.34-.23 0-.11-.01-.22.02-.32z" style="fill:#fbefe9;stroke-width:0"/><path d="M15.97 16.1c-.12-.08-.24-.16-.35-.24-.07-.1-.16-.19-.2-.37.13.16.23.27.36.43-.05-.16 0-.3-.18-.35-.08-.02-.05-.09-.02-.15 0-.02.05.04.04-.01 0-.04 0-.08.03-.1h.16c.03-.08-.09-.11-.03-.17.01-.01.05-.02.07-.01.1.04.11.13.11.24.16-.2.2.11.32.06.03.09-.05.16-.04.24-.02.09-.07.18-.07.28 0 .11.04 0 .07 0 .06.18-.15.14-.19.24-.03-.02-.06-.05-.08-.07z" style="fill:#ddb0af;stroke-width:0"/><path d="M15.06 17.6c.04.09-.04.1-.08.13-.07-.02-.15-.06-.24-.02.16-.09-.13-.38.2-.38.09.07.1.18.13.27z" style="fill:#b17b6c;stroke-width:0"/><path class="cls-260" d="M10.15 17.84c.16.07.34.08.51.08.08 0 .17-.03.24.04.21.04.44.03.57.25-.04.13-.13.22-.26.23-.53.05-1.04-.03-1.54-.24.07-.16-.09-.24-.13-.36-.02-.06-.12-.1-.04-.18.22.04.45.03.65.18z"/><path d="M9.99 17.16c.1-.14.14-.32.28-.42.08-.06.17-.12.23.02 0 .03.01.08-.02.08-.19.03-.48.31-.43.49.05.17-.13.12-.14.22-.12.11-.27.09-.42.1-.14-.03-.29-.02-.38-.15.01-.09.03-.18-.06-.25-.03-.03-.06-.07-.05-.1.05-.27-.08-.57.11-.82.04-.05.03-.16.13-.15.09 0 .15.07.2.15.02.03.02.06.02.09a.7.7 0 0 0 0 .25c.04.2.02.39-.05.58-.05.08-.13.13-.15.25.29-.03.52-.15.74-.33z" style="fill:#e0a6ae;stroke-width:0"/><path d="M11.5 17.44c.25.14.52.17.79.06.03-.01.05 0 .07.01.19.18.37 0 .56 0v-.02c-.01 0-.02 0-.04-.01.04-.12.12-.08.19-.05.07.18-.1.16-.18.21-.1.05-.22.06-.37.12.21.04.38.02.56 0 .09-.01.2-.06.24.08-.06.09-.16.11-.25.12-.16.03-.32.06-.48.08-.32.07-.63.02-.95 0a.36.36 0 0 1-.22-.07c-.03-.11.06-.09.12-.11h.64c-.14-.03-.22-.09-.3-.14a.334.334 0 0 0-.24-.02c-.09.02-.15-.04-.18-.12-.02-.05-.07-.12.04-.15z" style="fill:#b68780;stroke-width:0"/><path class="cls-66" d="M12.41 16.65c-.04.07 0 .11.07.12.06 0 .12-.02.16.04-.06.02-.12.03-.16.06-.04.03-.09.08-.03.13.2.17-.03.21-.09.27-.09.08-.33 0-.37-.08-.05-.13.09-.14.14-.24-.31.04-.57-.04-.8-.22.09 0 .16.07.25.05h.03c.16.01.31.12.48.05.04-.01.08-.02.11-.03-.19 0-.38-.06-.56-.13-.09-.03-.16-.08-.14-.2.07-.01.12 0 .16.07.24.08.5.09.75.12z"/><path d="M11.43 17.95c.39.06.78.1 1.17.05.02.13-.04.22-.16.27-.27.04-.53.02-.8.01-.07 0-.14-.02-.18-.09-.16-.13-.38-.15-.56-.24.06 0 .11-.01.16-.04.13-.09.25-.03.37.03z" style="fill:#f2e6de;stroke-width:0"/><path d="M11.5 17.44c-.02.18.03.24.18.2a.25.25 0 0 1 .22.04c-.14.11-.29.18-.43.11.1.02.1.03.07.11-.16.02-.32.02-.47-.02-.14-.15-.32-.01-.47-.08-.03-.01-.06-.03-.09-.04.08-.1.22-.1.31-.19.04-.04.09.02.13.05.13-.02.16-.17.28-.21h.03c.08 0 .18-.09.24.04z" style="fill:#b69798;stroke-width:0"/><path d="M10.95 17.68c-.06-.05-.1-.19-.18 0-.04.08-.18.04-.26.08-.12-.06-.26-.08-.36-.21.12-.05.29 0 .36-.15.03-.07.07-.1.15-.09.07.02.13 0 .18-.02.06-.02.09-.06.14-.09.09.07.28 0 .27.2-.13.06-.2.2-.32.28z" style="fill:#a67c7c;stroke-width:0"/><path d="M10.87 17.32c-.07.03-.12.12-.21.04-.07-.05-.1.02-.15.04-.16-.05-.09-.18-.08-.27.01-.11.12-.26.16-.25.13.03.31-.13.39.09 0 .13-.06.24-.12.35z" style="fill:#b2959a;stroke-width:0"/><path d="M13.08 17.44c-.07 0-.14-.03-.2.04-.13 0-.25.08-.4.03.13-.08.29-.07.41-.16.15-.11.15-.15 0-.26-.02-.01-.04-.03-.07-.04-.13-.08-.27-.15 0-.25.04-.02.07-.07.11-.11.05 0 .1 0 .12.04 0 .02 0 .05-.01.07-.04.06-.09.06-.14.06.09 0 .15.04.17.13.04.13.09.23.25.22.04 0 .06.05.05.09-.02.04-.07.06-.11.08-.06.03-.12.05-.18.04z" style="fill:#a68481;stroke-width:0"/><path class="cls-63" d="M12.41 16.65c-.27.05-.52.04-.75-.12.06-.01.07-.08.12-.11.04-.05.06-.15.16-.11.17.04.33.1.51.11v.03c-.01.01-.02.03-.04.04.03.05.02.11 0 .16z"/><path class="cls-63" d="M11.5 16.46c.12.24.37.21.58.26.08.02.16.02.25.08-.09.02-.17.03-.24.04-.18.06-.34-.05-.51-.08-.08-.05-.14-.11-.16-.21 0-.06 0-.11.08-.1z"/><path d="M9.49 17.64c.13-.07.28-.06.43-.09.15.03.15.19.24.28-.22-.07-.46-.07-.67-.17h-.01l.02-.03z" style="fill:#a67665;stroke-width:0"/><path d="M10.87 17.32c-.02-.14.04-.25.12-.35.09-.07.2-.24.26-.17.08.07-.09.17-.14.27a.57.57 0 0 1-.13.14c0 .07-.03.12-.11.11z" style="fill:#e6dcd9;stroke-width:0"/><path class="cls-66" d="M12.25 17.38c-.21-.02-.44 0-.59-.19.18.13.4.11.59.19z"/><path class="cls-260" d="M11.07 17.88h.51s.01.02 0 .02c0 0 0 .01-.01.01-.05.02-.11-.02-.15.04l-.37-.03v-.04z"/><path class="cls-38" d="M2.84 18.62c-.04-.2.15-.17.24-.24-.09-.18-.17-.36-.36-.46.18.07.33.16.52.19.13.02.27 0 .39 0 .17 0 .22-.09.29-.19.02.02.04.03.04.03-.01.08-.13.2.03.24.13.03.07-.12.11-.18.04-.06.09-.14.09-.22.19 0 .23.06.14.22-.06.1-.13.2-.13.32 0 .17.05.23.22.24.08 0 .16-.02.22.05.07.15.21.15.34.14.05.02.11.05.13.11-.08.12-.19.05-.29.03-.18.1-.15.3-.23.45-.03.05 0 .15-.08.15-.07 0-.12-.07-.15-.14-.06-.13-.07-.3-.25-.35-.29-.15.04-.21.04-.33-.29-.09-.61-.03-.92-.08-.03.04.14.1 0 .15-.16.05-.29 0-.39-.13z"/><path d="M4.34 20.21v.04q-.2-.03-.43-.2c-.1-.07-.23-.12-.24-.27.03-.01.04-.03.03-.06-.01-.05-.12-.08-.06-.14.05-.06.14-.05.21-.03.15.05.32.08.36.28.01.06.04.12.11.03.08.11.11.23.04.36z" style="fill:#e3aaae;stroke-width:0"/><path class="cls-171" d="M5.68 19.53s-.05-.07-.07-.11l-.03-.05c-.09-.03-.19-.06-.28-.08-.08.01-.13-.01-.11-.11.03-.1.07-.2.19-.23.04 0 .07.02.1.05.11.13.25.16.4.07.06-.03.12-.06.19-.05.08.03.19-.01.23.1-.02.03-.05.05-.08.05-.19 0-.32.1-.41.26-.03.04-.06.09-.12.09z"/><path class="cls-134" d="M4.34 20.21c-.01-.12-.03-.24-.04-.36 0-.03 0-.07.02-.1.03-.05.01-.15.11-.13.09.02.03.1.03.15 0 .07-.01.15.1.15.05 0 .14-.03.15.04.02.07-.04.13-.1.18-.03.02-.05.04-.08.06-.06.05-.13.04-.19 0z"/><path d="M5.37 18.98c-.09.04-.1.16-.19.21-.16.04-.23-.13-.36-.17-.05-.02 0-.07 0-.11.08-.09.19.04.28-.04.13-.05.23-.03.28.11z" style="fill:#c3a68f;stroke-width:0"/><path class="cls-134" d="M4.8 19.9c0-.23.08-.32.28-.37-.04.16-.13.27-.28.37z"/><path class="cls-74" d="M5.29 19.29c.13-.09.2.03.28.08-.13 0-.24.06-.37.09 0-.08.08-.1.09-.16z"/><path d="m3.66 19.78.24.27c-.07.01-.13-.03-.19-.04 0-.08-.18-.11-.08-.23h.03z" style="fill:#c47882;stroke-width:0"/><path d="M4.64 19.46c.04.15-.03.26-.04.37-.04-.15-.03-.19.04-.37z" style="fill:#b99586;stroke-width:0"/><path d="M13.44 15.7c.07.02.17-.05.19.08.02.12-.07.13-.14.18-.23.14-.49.15-.73.21-.08.02-.17.02-.11-.11-.03-.08 0-.11.08-.08.25-.05.5-.12.71-.27z" style="fill:#ab7976;stroke-width:0"/><path d="M12.72 15.98s-.08.03-.08.08c-.37.07-.73.09-1.06-.12.05-.06.12-.04.18-.03.24.06.48.02.72.03.08.02.17-.03.24.04z" style="fill:#ecd6d5;stroke-width:0"/><path d="M13.2 15.31c-.13-.05-.01-.09.01-.1.13-.04.23-.11.35-.18-.05.19-.19.25-.36.28z" style="fill:#914654;stroke-width:0"/><path d="M14.39 20.41c.24.11.52.13.75.27a.47.47 0 0 1-.37.19c-.13.01-.26.03-.39.04-.09-.17-.11-.34 0-.51z" style="fill:#d6c7cf;stroke-width:0"/><path class="cls-152" d="M13.71 20.64h-.03c-.17-.09-.21-.28-.3-.43a.32.32 0 0 1-.01-.27.12.12 0 0 1 .13-.06c.17.13.23.34.36.5.01.04.03.07 0 .11-.06.04-.11.09-.15.15z"/><path d="m13.86 20.49-.03-.08c.13-.22.34-.23.51-.04v.04c-.06.14-.16.23-.31.27l-.17-.19z" style="fill:#a38fa0;stroke-width:0"/><path d="M14.03 20.68c.1-.09.21-.18.31-.27h.04c-.03.17 0 .34 0 .51-.19.02-.26-.12-.35-.24z" style="fill:#b9acba;stroke-width:0"/><path class="cls-51" d="M20.67 18.43h.44c-.11.04-.23.08-.34.12-.07.02-.12.06-.14.12-.02.07.05.1.1.13.16.09.12.21.07.34-.27-.09-.55-.06-.82-.12-.04 0-.09-.03-.13-.04-.01-.02-.01-.03 0-.05.06-.2.23-.33.35-.5.16-.04.32-.03.48 0z"/><path d="M21.03 19.69c-.16-.11-.34-.2-.52-.26-.27-.13-.58-.17-.83-.36.29-.03.56.09.83.14.37.07.7.24 1.01.48h-.49z" style="fill:#fcfbf4;stroke-width:0"/><path d="M19.84 18.95v.04h-.19c-.2-.11-.36-.27-.59-.32-.11 0-.23.06-.32-.04.39-.23.41-.23.79.08.08.03.15.07.21.13.03.04.08.06.1.11z" style="fill:#fbf9f1;stroke-width:0"/><path d="M15.65 15.3v.1c0 .02-.01.05-.02.07-.02-.02-.04-.03-.06-.05-.02-.04-.13-.05-.07-.13.04-.05.1-.04.15 0z" style="fill:#bf8981;stroke-width:0"/><path d="M16.24 15.66c-.04-.09 0-.17.04-.24.13.11 0 .16-.04.24z" style="fill:#ba8078;stroke-width:0"/><path d="M19.96 19.69c.34.16.4.46.44.79.03.25.02.24-.23.23-.44-.01-.68-.33-.96-.58.08-.19.27-.3.39-.47.06-.08.14.01.2.07.08.08.13.07.16-.03z" style="fill:#f1ebd3;stroke-width:0"/><path d="M19.96 19.69c-.02.06.06.14-.02.18-.08.04-.11-.05-.15-.09-.1-.11-.16-.14-.25.02-.08.13-.22.22-.33.33h-.04c-.03-.14-.17-.2-.24-.32-.02-.05-.08-.09-.08-.16.08-.08.19-.12.29-.15.1-.03.22-.04.15-.2-.02-.04.02-.06.06-.06.1 0 .21-.04.29.06.11.13.21.26.32.39z" style="fill:#e3d9b6;stroke-width:0"/><path d="M18.89 20.01c0-.06.03-.07.07-.03.06.06.11.12.17.18.2.24.47.39.75.62-.16 0-.26-.03-.33-.1a.984.984 0 0 0-.34-.2c-.26-.07-.33-.24-.33-.48z" style="fill:#eae3c7;stroke-width:0"/><path d="M19.72 18.87c-.07-.05-.15-.08-.2-.16-.02-.12-.03-.23.15-.17.05.01.08-.03.1-.08-.05-.02-.09-.04-.13-.06h.95c.03 0 .06 0 .08.04-.17 0-.34-.02-.51.04-.11.07-.2.18-.33.23-.09.03-.05.12-.1.17z" style="fill:#c1bb95;stroke-width:0"/><path d="M17.24 17.44h.03c.23-.08.4-.24.56-.42-.11.18.1.32.03.5.1.03.11-.11.22-.08.01.14-.13.18-.17.28-.04.03-.09.05-.14.08.04.06.09.03.13.04.07.01.14.02.07.12-.04.06-.02.15.04.14.16-.02.26.14.42.12.1-.01.13.11.22.13-.03.06-.09.08-.15.09-.12-.03-.2.1-.31.09-.03-.12-.13-.13-.23-.12-.1 0-.15.07-.16.16-.02.05-.02.13-.11.1-.13-.39-.26-.79-.47-1.15-.02-.03 0-.05.02-.07z" style="fill:#878668;stroke-width:0"/><path d="M18.73 18.63c.11.02.22-.03.32.04-.04.05-.11.08-.12.16-.08.09-.19-.01-.27.04-.02 0-.04.01-.06.01-.14.01-.27.02-.41 0-.04-.01-.08-.03-.1-.07.02-.14.15-.12.24-.15.03 0 .06 0 .08.03.12.12.21-.04.31-.04z" style="fill:#c3b991;stroke-width:0"/><path d="M18.42 18.67h-.09c-.04.01-.09.03-.12-.02s.01-.08.05-.11c.07-.07.14-.13.25-.15.05-.02.1-.03.15-.05 0 .16-.06.29-.23.33z" style="fill:#f9f6eb;stroke-width:0"/><path d="M11.38 21.63c-.15-.05-.29-.1-.44-.15-.17.03-.27-.1-.34-.21-.03-.05-.02-.12-.1-.16-.07-.03-.03-.1.03-.11.16-.04.24-.17.32-.3.05-.03.1-.06.16-.04.09.04.07.19.2.19.22 0 .39-.12.59-.18.08-.03.2-.11.25.05-.1.12-.24.19-.37.28-.14.1-.23.24-.33.37-.06.08-.01.17.03.25z" style="fill:#e6a4b0;stroke-width:0"/><path d="M12.05 20.73c-.18-.12-.31.05-.46.1-.13.04-.26.1-.4.06.03-.1.13-.1.21-.13.17-.07.34-.16.52-.21.31-.02.52-.19.66-.46.03-.06.05-.17.17-.08.02.04.06.08.01.13-.06.11-.03.24-.06.36-.03.17-.1.29-.23.39-.19.15-.35.09-.42-.16z" style="fill:#c68ca3;stroke-width:0"/><path d="M13.43 20.21c.08.14.17.29.25.43-.07.06-.12-.01-.17-.03-.18-.06-.29-.02-.36.17-.03.08-.12.15-.19.22h-.12q-.26 0-.12-.25c.06-.06.13-.09.21-.13.12-.06.1-.12-.02-.15-.02 0-.03-.02-.04-.04 0-.25.03-.29.29-.36.03 0 .05.02.07.04.05.09.14.06.21.09z" style="fill:#9b7363;stroke-width:0"/><path d="m13.2 20.13-.04-.04c-.25 0-.31.08-.27.35.06.04.06.08 0 .11-.04.02-.09.04-.08-.04-.01-.13-.03-.26-.04-.38a.564.564 0 0 0-.04-.12c0-.1.09-.08.14-.11.04-.01.07-.03.11-.05.1-.05.2-.02.3.01.12.04.11.13.08.22-.02.08-.08.09-.15.05z" style="fill:#643e2f;stroke-width:0"/><path class="cls-34" d="M12.8 20.52c.07.03.12.03.08-.07.07.01.18-.05.19.07 0 .1-.09.2-.16.18-.1-.03-.1.12-.19.07 0-.09.04-.16.08-.24z"/><path d="M13.04 21.04v.07h-.41c-.02 0-.03-.01-.05-.04.15-.04.31-.05.46-.03z" style="fill:#927d74;stroke-width:0"/><path d="m6.32 15.86.04-.04c.11 0 .22.03.34.07.02-.12.01-.25-.14-.32-.09-.12-.1.02-.14.04-.07.05.04.03.03.06 0 .06 0 .12-.09.11-.06-.08-.13-.16-.08-.27.05-.03.04-.08.04-.12-.04-.03-.09-.06-.08-.12.11-.02-.05-.15.08-.16.11.02.21.06.27.16.03.05.09.04.13.06.04.02.07.04.1.06.06.03.32.29.35.36.09-.15.24-.12.37-.11.09 0 .15.06.16.17 0 .13.05.28-.11.34-.14.05-.25.15-.38.21-.09.04-.11.1-.07.19 0 .12-.03.22-.18.22-.02 0-.03-.02-.04-.04.03-.09.07-.18-.05-.25-.03.09-.04.2-.18.19-.05-.19-.2-.26-.37-.29-.18-.03-.15-.16-.15-.29a.09.09 0 0 1 .07-.03c.18 0 .15-.09.1-.2z" style="fill:#efb7be;stroke-width:0"/><path d="M7.11 16.53c-.09-.08-.15-.15.02-.2.17-.05.28-.2.47-.25.14-.04.03-.22.03-.34 0-.04-.11-.06-.2-.06-.13 0-.22.02-.22.19-.11-.11-.19-.19-.13-.33.04-.09-.04-.08-.09-.07-.12.02-.22-.01-.28-.12-.07-.06-.1-.12-.04-.2.02-.2.11-.22.32-.08 0 .17.15.22.26.31.14.1.19.08.22-.08v-.14c0-.09-.01-.18.04-.26a.16.16 0 0 1 .09-.07c.08.07 0 .14 0 .21 0 .13.02.2.17.19.12.11.04.25.06.38-.04.16-.07.31-.02.47-.03.12.05.17.12.22-.05.12-.17.06-.25.1-.07.02-.14.03-.21 0-.13 0-.19.19-.34.13z" style="fill:#da929d;stroke-width:0"/><path d="M7.55 14.9c-.08.08-.02.19-.05.29-.08.07-.13.2-.27.19-.09-.01-.16-.07-.23-.13-.08-.06-.07-.12-.01-.19.05 0 .12.02.16-.04.03 0 .05.09.09.04a.14.14 0 0 0 0-.19c-.06-.12-.04-.24 0-.36h.04c.19.06.27.2.28.39z" style="fill:#edacb4;stroke-width:0"/><path class="cls-22" d="M6.67 15.15c.08.05 0 .14.04.2-.07 0-.15.07-.17-.06-.02-.13-.19-.06-.23-.18.04-.06.1-.13.16-.03.05.1.13.06.2.07z"/><path d="M6.39 14.51c.09.01.14.08.21.13-.06.07-.15-.02-.22.03-.02.01-.05 0-.06-.03-.02-.06.03-.09.07-.12z" style="fill:#b8707c;stroke-width:0"/><path d="M6.07 15.19c.01-.05.03-.1.09-.12.02.04.06.09.02.14-.04.05-.08.02-.11-.01z" style="fill:#b77880;stroke-width:0"/><path class="cls-22" d="M6.24 15.27s.05.08.08.12c-.06 0-.14 0-.16-.07-.01-.04.05-.05.09-.05z"/><path d="M9.69 21.28c.1-.02.18-.08.27-.12.16-.19.42-.23.58-.37-.14.05-.3.22-.49.05-.03-.03-.07.01-.11.03-.14.06-.29-.01-.28-.16.01-.17-.09-.18-.2-.21-.07-.03-.15-.04-.22-.09-.04-.03-.08-.06 0-.1.18-.01.34.07.51.11.17.04.34.07.52.06.33.03.63-.05.94-.15.07-.02.15-.06.23-.05.02 0 .04.01.04.04 0 .1-.08.11-.14.14-.17.08-.34.17-.49.28-.19.19-.42.33-.61.51-.14 0-.29-.01-.42.06-.04.02-.09.03-.12-.02z" style="fill:#a47169;stroke-width:0"/><path d="M10.24 21.24c.14-.24.38-.36.59-.51.01-.02.03-.02.04 0-.04.19-.18.29-.36.33.01.07.06.06.11.07.06 0 .16-.02.16.07 0 .1-.11-.02-.16.06.14.04.18.22.34.23-.17.08-.3-.07-.44-.1a.604.604 0 0 1-.26-.14z" style="fill:#d58d9b;stroke-width:0"/><path d="M7.39 19.06c-.03-.06-.05-.12-.08-.19.04-.09.12-.11.21-.11.02 0 .03.02.05.03.05.09.11.17.13.27 0 .07.05.07.09.09.11.05.23.06.33.13.08.07.19.1.28.16.23.14.5.23.69.42.13.13.11.26-.03.41-.19.02-.39.03-.58.08-.17-.16-.3-.35-.41-.55-.12-.23-.28-.41-.53-.5-.12-.04-.14-.14-.16-.24z" style="fill:#f2e8e4;stroke-width:0"/><path d="M7.23 18.92s-.05.04-.08.06c-.1-.01-.08-.09-.09-.15.02-.17.04-.33.09-.5.05-.11.12-.2.21-.28.1-.05.08-.17.13-.25.18.09.26.27.35.43.05.09.11.13.2.16.04.06.05.13.05.2-.13.23-.33.3-.54.2-.13-.03-.25 0-.32.13z" style="fill:#e0a7b2;stroke-width:0"/><path d="M7.39 19.06c.06.11.13.2.26.23.18.05.3.19.39.34.13.2.22.41.4.58.04.04.03.08.02.12-.09.13-.23.17-.36.23-.07-.23-.21-.43-.26-.67-.04-.21-.2-.37-.35-.51-.11-.1-.15-.19-.09-.32z" style="fill:#eed4d3;stroke-width:0"/><path class="cls-171" d="M7.1 18.82c.01.05-.02.12.04.16-.12.1-.18.28-.4.24.04.07.16 0 .14.1-.01.07-.07.11-.16.09h-.16l-.02-.02c.05 0 .11-.02.16-.03-.06-.03-.11-.07-.17-.1-.06 0-.13 0-.17-.06v-.02c-.01-.08-.17-.08-.13-.17.05-.11.16-.04.25-.04s.16-.04.24-.06c.1-.02.19-.16.31-.04 0-.03.01-.06.05-.05z"/><path d="M8.09 20.56c.12-.08.24-.15.36-.23.21-.06.41-.11.63-.08 0 0 0 .01.01.02v.02c-.07.05-.15.04-.23.04-.26 0-.48.12-.69.26-.04.03-.07.14-.15.05.03-.02.07-.04.07-.08z" style="fill:#b2908c;stroke-width:0"/><path d="M7.23 18.92c.06-.19.13-.22.32-.13-.08.03-.16.06-.23.09-.03.01-.06.03-.08.04z" style="fill:#987679;stroke-width:0"/><path d="m2.52 19.29-.03.09c-.06.04-.05.13-.13.15-.05-.05-.1 0-.14 0-.11 0-.22 0-.32-.04.03-.15.08-.3.16-.44.02-.04.05-.08.11-.06.12.05.22.03.33-.03.02-.01.03.03.04.05.01.09-.04.18-.01.26z" style="fill:#e8a6b0;stroke-width:0"/><path d="M2.84 18.62c.13.04.26.08.39.13.04.02.07.04.11.07-.18.13-.28.11-.7-.12-.03-.02-.05-.05-.08-.07.09-.1.18.03.27 0z" style="fill:#fbf7ee;stroke-width:0"/><path d="M1.78 18.39c.08 0 .22-.12.17.1.05 0 .07-.02.09-.05.03-.05.06-.13.12-.1.09.04.02.12 0 .17-.03.07-.09.13-.16.17-.03.02-.15.11-.13-.07.01-.11-.1.01-.14-.03h-.02c-.03-.04.02-.03.03-.04.02-.05-.02-.11.04-.15z" style="fill:#f9dfda;stroke-width:0"/><path d="M1.78 18.39c0 .05.02.11-.04.15-.07-.05-.11-.13-.2-.15-.03-.02-.07-.04-.07-.08s.05-.03.08-.04c.08 0 .15-.01.22.04 0 .03 0 .05.01.08z" style="fill:#c1908a;stroke-width:0"/><path class="cls-308" d="M9.25 14.79h.04c.08.06.15.09.26.02.12-.08.22 0 .22.14-.02.3.02.34.32.28h.12c.04.06 0 .09-.03.13-.09.05-.18.08-.27.12-.22.08-.34 0-.38-.22-.01-.06-.01-.12-.04-.17-.03-.07-.06 0-.09 0-.04.01-.08.01-.12-.02-.04-.09-.1-.18-.03-.28z"/><path d="M10.15 15.34s.03-.08.05-.11c.07-.14.03-.29.04-.43.13.14.09.31.08.47-.11.06-.15.18-.2.28-.04.08-.07.15-.16.19-.06 0-.05-.03-.03-.06.07-.12.1-.26.23-.34z" style="fill:#ca858d;stroke-width:0"/><path d="M17.02 15.26c-.02.09-.02.17-.11.19-.03 0-.04-.03-.04-.05 0-.08.04-.13.15-.14z" style="fill:#a57b75;stroke-width:0"/><path d="M10.67 15.7c.03-.13.09-.15.2-.09.06.12.18.15.28.18.17.05.15.12.07.22-.06.06-.12 0-.19-.01.07.03.13.05.19.07.06 0 .11 0 .15.07-.15.04-.6-.1-.66-.22-.03-.07.03-.16-.05-.22z" style="fill:#e8cbce;stroke-width:0"/><path d="M10.9 15.22s.03-.03.05-.04c.2.03.39.11.57.21-.16.1-.52 0-.61-.17z" style="fill:#b16a70;stroke-width:0"/><path d="M11.38 16.14c-.05-.02-.1-.03-.15-.05-.01 0-.01-.02-.01-.03v-.01c.06 0 .13 0 .19.01.03.02.06.03.13.06-.07 0-.12.01-.16.02z" style="fill:#6d5052;stroke-width:0"/><path d="M11.22 16.05v.04c-.09-.03-.17-.05-.28-.09.12-.05.2.03.28.01v.03z" style="fill:#ab888a;stroke-width:0"/><path d="M9.2 20.32c.12.13.3.12.44.19.04.02.14.01.06.11-.06.08 0 .13.06.2.08.08.12.03.18-.02.07-.05.13-.09.18.03.03.08.1.05.15.03.13-.05.26-.11.4-.15-.2.21-.46.33-.72.45-.09-.24-.33-.29-.52-.38-.17-.08-.23-.23-.34-.34-.03-.03 0-.1 0-.15.05-.03.1-.05.12.03z" style="fill:#c29388;stroke-width:0"/><path d="M10.15 15.34c-.06.13-.13.26-.19.4-.01.06-.15.09-.02.17.04.03-.01.06-.06.06-.06 0-.16-.1-.18 0-.02.09-.07.19-.01.29.05.08.08.16.12.25.02.04.1.07.05.13-.04.04-.11.03-.16 0-.03-.02-.05-.05-.08-.01-.14-.11-.1-.28-.12-.43-.04-.28.01-.57-.01-.84-.02.08.02.17.01.25 0 .06 0 .15-.11.08-.04-.2-.07-.41.03-.6.01-.05-.02-.12.04-.14.07-.02.06.06.08.1.06.13-.02.33.14.41.15.07.27-.06.4-.1h.08z" style="fill:#efacb2;stroke-width:0"/><path d="M9.41 15.7c.08-.14 0-.29.06-.46.1.46 0 .93.13 1.37 0 .06.01.1.05.15 0 .04-.01.08-.06.1a.534.534 0 0 1-.15-.43c-.02-.12-.1-.18-.2-.22-.11.23-.22.45-.16.74.03.13-.05.28.11.38.02.01.02.13-.06.16-.17.04-.32-.05-.44-.14-.11-.08.04-.15.09-.22.15-.15.2-.33.17-.53s.09-.34.17-.5c.03-.06.09-.07.15-.06.08.02.1.08.13.15a.71.71 0 0 1-.05-.29c0-.06 0-.13.06-.17z" style="fill:#cf8a94;stroke-width:0"/><path d="M9.6 16.85s0-.08.05-.09h.11c.01.13-.06.19-.16.24-.04-.05-.04-.1 0-.15z" style="fill:#874c4b;stroke-width:0"/><path d="M18.77 19.62s-.04.02-.05.01c-.29-.19-.48-.04-.66.17 0-.06-.15-.1-.04-.18.04-.06 0-.13.04-.18 0-.01.02-.02.02-.03q.13-.24.39-.14c-.07-.35-.07-.35.17-.43v-.02c.15-.01.27.03.4.09-.13.1-.33.08-.39.3-.04.14-.02.2.07.28.04.03.07.06.04.12z" style="fill:#8d865f;stroke-width:0"/><path class="cls-292" d="M18.77 19.62s-.03-.08-.04-.12c.12-.07.28-.08.33-.24.01-.04.07-.03.11-.04.12 0 .23.01.35-.03.08-.03.12.03.12.11-.1 0-.2-.07-.31-.03.09.18.07.24-.13.26-.13.02-.22.14-.36.12-.03-.01-.05-.03-.08-.04z"/><path d="m19.05 18.91-.39-.09c.09-.09.19.03.28 0 .02.05.13 0 .11.09z" style="fill:#f4ecc8;stroke-width:0"/><path d="M12.45 16.41c-.19.06-.36 0-.51-.11.21 0 .42 0 .62-.01 0 .07-.12.04-.12.12z" style="fill:#695648;stroke-width:0"/><path d="M7.46 16.34s.11.06.17.03c.16.02.34 0 .45.17.05.14.22.17.27.32-.16.24-.37.41-.68.4-.05-.09.03-.12.08-.17.11-.1.2-.22.22-.32 0 .08-.09.16-.16.25-.11.11-.25.19-.37.29-.16.09-.34.13-.46.28-.04.05-.11.02-.17.01-.09 0-.15.06-.23.1-.03.02-.07.04-.11.02-.03-.01-.05-.03-.05-.06 0-.04.03-.07.05-.07-.12.05-.26.09-.4.08-.08 0-.13.03-.2.07-.09.05-.18.13-.3.1-.09-.13-.15-.26-.06-.41.02-.04.02-.09 0-.13a.318.318 0 0 0-.26-.17c-.05 0-.11 0-.16-.03.03-.12.1-.22.15-.33v-.04c.23.15.43.08.61-.1.05-.05.11-.06.18-.03.15.14.09.32.08.49-.07.11-.23.16-.2.31.05-.22.32-.28.53-.17.09.05.11.02.18-.02.13-.07.16-.2.22-.32.02-.02.04-.04.06-.05.07-.02.09.02.11.08.05.15.16.14.27.1.1-.03.19-.09.13-.23-.04-.1 0-.22-.04-.32-.02-.06.04-.09.08-.12z" style="fill:#f4bfc2;stroke-width:0"/><path class="cls-209" d="M5.56 17.28s.03.02.03.03c-.05.18-.09.35-.02.53.1.05.17-.04.25-.08.1-.05.19-.07.31-.05.08.01.2-.08.31-.03.01.01.02.03.04.04 0 .06-.07.09-.09.15-.05.15-.14.19-.28.12-.1-.05-.18-.03-.25.07-.03.04-.07.11-.14.04-.05-.13-.12 0-.19-.02-.11.03-.23.06-.34 0-.07-.04-.11 0-.14.06-.04.05-.1.08-.16.1-.16.06-.2.15-.15.32.04.12-.01.14-.11.11-.04-.1-.12-.04-.19-.04-.27 0-.32-.06-.29-.33a.43.43 0 0 1 .1-.25c.13-.13.11-.2-.06-.24-.01-.01-.02-.03-.03-.04-.04-.03-.07-.06-.05-.12-.05-.15-.25-.14-.32-.28.03-.03.07-.04.11-.05h.11c.08 0 .14.04.21.08.03-.04.01-.08.03-.11.14-.19.34-.24.56-.23h.04c.08-.01.17 0 .24.04h.19q.06.18.28.2z"/><path d="M5.84 15.79c.02.06.12.06.12.14 0 .05-.04.08-.07.12-.16.13-.18.12-.3-.03q.02.23.2.39c.04.05.04.11-.01.16s-.12.04-.16 0c-.1-.11-.25-.13-.36-.23-.02-.03-.03-.06-.02-.09-.02.02 0 .05-.01.07-.03.06-.07.12-.15.07-.22-.01-.02-.2-.11-.26.12-.09.07-.29.24-.37.02.09-.08.16 0 .27.06-.22.19-.35.4-.39.13 0 .16.12.23.17z" style="fill:#f4c0c6;stroke-width:0"/><path d="M5.29 16.3c.11.1.29.09.37.24.02.03.06.05.1.02.06-.04.02-.09 0-.14.13-.05.23.03.23.19-.07.04-.15.06-.2.12-.2.21-.26.25-.55 0-.04-.06-.05-.12-.04-.19.16-.04.24.14.36.14-.11-.06-.21-.15-.31-.26-.03-.04-.07-.1.02-.12z" style="stroke-width:0;fill:#dc8895"/><path d="M5.09 17.08c-.08 0-.17.05-.24-.04.06-.13.05-.27 0-.4-.02-.04-.06-.09-.02-.13.05-.05.09.02.14.03.12.04.14.21.28.22-.02.12.05.29-.16.31z" style="fill:#c6858f;stroke-width:0"/><path class="cls-84" d="M4.82 17.05s-.04.06-.05.06c-.21-.06-.34.1-.51.18-.02.01-.03.01-.05 0-.04-.04-.06-.09-.11-.11-.1-.07-.23 0-.32-.09.04-.14.16-.15.28-.16.19 0 .38.06.57.03.05-.01.1.03.14.05l.04.04z"/><path class="cls-22" d="M5.29 16.3c-.06.1.03.14.08.16.13.06.18.2.31.25-.18 0-.32-.1-.47-.17 0-.08-.1-.09-.12-.16.11 0 .12-.09.13-.16.05.02.05.06.07.09z"/><path d="M5.84 15.79c-.1-.02-.15-.12-.23-.17-.04-.1-.08-.21-.11-.31.15.14.35.24.35.48z" style="fill:#d38795;stroke-width:0"/><path class="cls-209" d="M4.78 17.01c-.24 0-.48 0-.71-.08l.03-.03c.13.04.27.04.4.03.07 0 .13 0 .16-.08.04.05.08.11.12.16z"/><path d="M4.34 16.45c.06-.01.11-.12.17-.06.07.07-.01.13-.05.19-.02.04-.06.07-.08.11-.04-.08-.09-.15-.04-.24z" style="fill:#c5c5a6;stroke-width:0"/><path d="M12.49 18.23c.04-.08.08-.15.12-.23.23-.08.49-.05.72-.16.06-.15.13-.3.33-.27.06 0 .02-.03.02-.04.03-.1.12-.14.19-.18.03 0 .05-.01.08 0 .1.05.19-.03.29 0 .1.05.2-.04.31-.01h.13c-.03.05-.05.1-.11.13-.12.07-.28.07-.34.25-.02.07-.13.1-.23.09-.22-.02-.3.06-.31.28-.04.09-.12.08-.2.1-.13.03-.27.04-.41.07-.12 0-.24.03-.37.04-.08 0-.16.01-.22-.05z" style="fill:#d3c2c2;stroke-width:0"/><path class="cls-133" d="M14.54 17.95c0 .09-.03.16-.11.22-.06.04-.1.09-.09.16.01.14-.06.21-.19.24.1.11.2-.04.28.03-.08.18-.31.02-.4.17-.08.08-.18.06-.27.05-.07 0-.09-.1-.15-.11-.09-.09 0-.15.04-.22.05-.03.1-.16.17 0 0 .02.02.01.05-.03.12-.14.23-.28.33-.43 0-.02.02-.03.03-.04.09-.11.22.05.31-.04z"/><path d="M14.23 18.03c-.11.23-.27.42-.47.6-.05-.07.04-.11.01-.18-.03.02-.07.04-.1.06l-.02-.02q-.06-.22-.4-.2c-.06-.01-.15.02-.17-.09l.59-.12c.11.04.21-.08.32 0 0 .05 0 .09-.03.13.09-.07.15-.17.27-.17z" style="fill:#b37b86;stroke-width:0"/><path d="M14.23 18.03c-.12.08-.22.19-.35.28.04-.08.07-.16.11-.23.08-.03.16-.06.24-.08v.04z" style="fill:#f0c1c8;stroke-width:0"/><path d="M17.59 20.68h-.04v-.04q.1-.28-.2-.37a.873.873 0 0 1-.45-.56c-.03-.11-.06-.21.02-.31.11-.03.22-.21.34-.01.03-.1-.07-.24.09-.3.1.19.15.39.2.59.17.33.22.66.03 1z" style="fill:#eab5ba;stroke-width:0"/><path d="M17.56 19.69c-.12-.18-.18-.38-.21-.59-.09-.12-.07-.24 0-.36a.28.28 0 0 1 .25-.07c.12.04.22.1.32.18.05.04.12.08.09.17-.22.04-.22.07-.19.28.02.13.08.24.09.4-.13-.1-.25-.14-.36 0z" style="fill:#857d5b;stroke-width:0"/><path d="M18.02 19.02c-.08-.17-.26-.2-.39-.31.01-.04.03-.07.08-.04.03-.04.05-.08.08-.12.08 0 .15.01.21.07.04.05.08.11.11.17l.07.05c.06.03.13.06.16.13.02.04.03.11-.04.1-.16 0-.15.11-.16.21 0 .06 0 .13-.05.18-.06.04-.01.12-.07.16v-.59z" style="fill:#58502f;stroke-width:0"/><path d="m5.88 16.02.08-.08c.04 0 .1 0 .1-.03.03-.33.17-.06.25-.05.06.05.17.09.14.16-.05.11-.19.07-.29.07-.06-.01-.11-.02-.17 0-.05.01-.11.01-.11-.07z" style="fill:#d68391;stroke-width:0"/><path d="M6.56 15.54c.22.05.25.12.15.44-.08-.14-.26-.03-.35-.16v-.04c.03-.04.05-.08.08-.12.01-.06.05-.1.12-.12z" style="fill:#e28d99;stroke-width:0"/><path class="cls-76" d="M13.87 17.36s-.05.06-.08.08c-.11.05-.09.11 0 .19-.27-.13-.34.09-.47.21-.07-.07-.16-.04-.24-.02-.18.04-.35.01-.53.02-.05 0-.09-.01-.09-.07 0-.06.03-.08.08-.09.12-.02.23-.05.34-.08.15-.03.31-.05.36-.23.04-.02.07-.03.11-.05.06-.04.08-.2.2-.07-.04.06-.09.11-.13.17.13-.04.23-.09.27-.24.02-.08 0-.2.14-.21.04 0 0 .08.09.08.1 0 .12.12.07.22-.02.05-.09.06-.11.11z"/><path class="cls-298" d="M13.55 17.24c-.1-.06-.13.07-.2.07-.2-.05-.31-.18-.36-.37-.03-.11-.13 0-.22-.01.08-.09.18-.09.27-.12.03.04.07.04.1.04.06-.01.02-.04.01-.07 0-.06.04-.04.06-.03.05.01.1.03.15.05.32.11.34.16.19.45z"/><path d="M13.87 17.36s-.02-.05 0-.06c.11-.1.18-.18-.03-.25-.01 0-.01-.06-.02-.09.2 0 .39.02.56.13.07.05.21.08.15.23-.1.05-.19.14-.31.04-.09-.19-.18 0-.28 0h-.08z" style="fill:#b39c91;stroke-width:0"/><path d="M9.6 16.85V17c-.06.08-.09.19-.19.24 0 0-.02 0-.02-.01.07-.27-.03-.54.04-.81.05.14.11.28.16.43z" style="fill:#f8d7d0;stroke-width:0"/><path d="M1.3 20.01c0-.1 0-.17.13-.16.05 0 .1 0 .15-.03.11-.04.21-.08.32-.12.06.04.13.07.19.11-.15.13-.33.22-.52.29-.04.02-.09 0-.1-.03-.02-.13-.11-.07-.18-.07z" style="fill:#7e7245;stroke-width:0"/><path d="M12.13 4.63c-.08-.07-.09-.19-.2-.24a.42.42 0 0 0-.19-.09c0-.15.09-.12.17-.08.17.08.24.22.21.4z" style="fill:#9d5342;stroke-width:0"/><path d="M6.4 19.18c.05.03.1.06.15.08-.29.14-.58.29-.86.43-.17-.05.03-.11 0-.17.03-.04.06-.07.08-.11.1-.23.28-.31.52-.29.05-.02.09 0 .12.05z" style="fill:#fbfaf2;stroke-width:0"/><path d="M15.45 20.68c-.12-.08-.26-.12-.35-.23.03-.04.08-.05.12-.04.38.05.75-.03 1.13-.07.08 0 .17-.04.24.03.04 0 .07 0 .12.01-.06.05-.15 0-.2.06l-.92.12c-.08 0-.09.08-.15.12z" style="fill:#826d71;stroke-width:0"/><path d="M16.6 20.36c-.34.04-.67.11-1.01.12-.16 0-.32-.02-.49-.03-.24-.06-.45-.21-.7-.3.05-.02.09-.03.12-.04-.19-.19-.41-.37-.56-.59.05-.02.1 0 .14.03.16.13.37.15.55.23.23.11.48.17.73.23.02 0 .05.02.07.01-.03 0-.04-.02-.04-.05.04-.13.16-.17.27-.21.16-.06.29-.14.41-.26s.2-.23.12-.41c-.05-.13.01-.18.24-.22.13 0 .26-.05.39.02.05.04.04.1.01.14-.08.16-.04.33-.05.5-.02.27.03.54-.03.8-.05.02-.11 0-.16.05z" style="fill:#f3e2dd;stroke-width:0"/><path d="M16.76 20.32c0-.13-.01-.26-.05-.38 0-.02-.03-.06-.02-.07.15-.19.03-.39.03-.58 0-.15.09-.25.12-.38.03-.05.08-.06.13-.08.1 0 .23-.08.29 0 .06.09-.07.16-.12.25-.06.11-.06.26-.19.34-.07.21.05.57.23.68.08.05.11.13.16.19-.2.01-.39.02-.59.04z" style="fill:#eecfce;stroke-width:0"/><path class="cls-66" d="M12.41 16.65a.122.122 0 0 1 0-.16h.44c-.14.15-.29.17-.44.16z"/><path class="cls-221" d="M3.79 17.08c.12.04.27-.08.36.09 0 .15-.16.13-.23.19H3.8a.342.342 0 0 1 0-.28z"/><path d="M17.71 18.67s-.05.03-.08.04l-.24.03c-.28.1-.57.17-.87.08v-.04c.08-.12.16-.25.18-.4.03-.05.09-.08.07-.15-.05-.18.03-.35.07-.52.05-.13 0-.17-.13-.18-.15 0-.29 0-.43-.09v-.04c.18 0 .37-.04.55.04.13-.03.27.01.4 0 .22.31.3.68.45 1.01.03.06.01.14.02.21z" style="fill:#eec0c8;stroke-width:0"/><path class="cls-308" d="M7.75 16.09c-.09-.18-.03-.35.03-.52.04-.15.07-.31.12-.46.07-.16.27-.24.49-.19.08.02.14-.04.19-.04.22-.01.22-.24.34-.33.07.05.05.15.11.21.03.04.09.08.08.12-.01.12.07.03.1.06.06.05.04.14.08.2 0 .1-.08.18-.12.27-.01.01-.03.02-.05.02-.09.01-.09.1-.13.16-.07.12-.13.24-.23.33-.14.11-.24.27-.39.36-.05.03-.1.08-.16.05s-.06-.1-.06-.16c.02-.21.05-.41.21-.58.12-.12.1-.29.11-.45 0-.03-.04 0-.02 0v.01c.03.2-.06.33-.22.46-.18.14-.33.31-.52.46z"/><path d="M7.55 14.9a1.08 1.08 0 0 0-.28-.39c.11-.15.28-.21.44-.28.08-.05.13-.01.19.05.06.07 0 .1-.02.15-.05.16-.23.23-.28.4 0 .03 0 .06-.04.07z" style="fill:#f5cbcb;stroke-width:0"/><path d="M9.01 14.8c-.11-.05-.07-.16-.08-.25.03-.02-.01-.12.05-.06.12.13.21.1.3-.04.05.13-.04.23-.02.34.01.09.03.18.04.28.02.03.02.05 0 .07-.03-.06-.05-.12-.08-.19-.1-.05-.12-.15-.13-.2 0 0 0 .04-.07.05z" style="fill:#ad636a;stroke-width:0"/><path d="M7.9 15.11c.03.17-.03.32-.12.46 0-.11-.02-.23-.03-.34.08 0 .1-.08.15-.12z" style="fill:#b96772;stroke-width:0"/><path d="M7.23 14.51v.36c-.1-.1-.13-.24-.21-.37.09.01.09.09.14.11.05-.01.02-.06.04-.09h.04z" style="fill:#b87882;stroke-width:0"/><path class="cls-38" d="M4.11 17.64s.03.08.05.12c-.12.1-.1-.09-.18-.08.03-.05.08-.03.13-.04z"/><path d="M14.35 20.36c-.18-.13-.35-.11-.51.04-.13-.15-.22-.33-.32-.51a.064.064 0 0 1 0-.06c.07-.13.11-.27.15-.42.01-.06 0-.13.08-.17.07.03.1.09.1.16-.02.07-.07.14-.01.21.09.11 0 .15-.11.18.27.15.54.26.64.56z" style="fill:#8d5861;stroke-width:0"/><path d="M13.83 19.41c-.06-.04-.09-.09-.08-.16a.662.662 0 0 1-.03-.46c.1 0 .21 0 .31-.01h.31c-.04.14-.17.1-.27.13-.15.04-.18.12-.09.26.08.03.17.03.25.05.13.04.29.07.28.22-.01.15-.19.08-.3.13-.05.02-.1.01-.16 0a.413.413 0 0 1-.11-.07c-.02-.06-.08-.08-.12-.11z" style="fill:#894953;stroke-width:0"/><path d="M16.28 17.44c.18-.02.35.04.53.05.19 0 .13.13.07.23a.52.52 0 0 0-.11.29.74.74 0 0 1-.16.4s.04.03.03.01h.01c.02-.01.05-.03.07-.01.02.17-.02.32-.2.39h-.43c0-.1.16-.05.14-.14-.03-.09.05-.13.07-.2-.22.03-.44.04-.65.09-.2.05-.37-.01-.54-.11-.1-.06-.06-.13.02-.18.3-.2.49-.51.82-.69.11-.06.21-.11.34-.11z" style="fill:#f4cacf;stroke-width:0"/><path d="M14.22 19.26c-.09-.02-.18-.03-.27-.05 0-.11.1-.09.16-.1.23-.05.45-.12.66-.24a.29.29 0 0 1 .24-.02h1.19c.06-.03.12-.01.19-.01.02.01.02.03.01.05-.14.04-.25.09-.13.27.06.08.02.17-.04.23-.16.17-.3.35-.54.4-.11.03-.2.09-.28.17-.15.05-.25-.03-.31-.14-.06-.11.04-.18.11-.24.09-.08.18-.15.23-.27.04-.09.13-.1.2-.13-.12.04-.23.08-.36.11-.36.02-.71.06-1.07-.04z" style="fill:#efcdcd;stroke-width:0"/><path d="M15.02 18.86c-.13-.04-.21.07-.31.12-.24.12-.5.16-.75.24-.12-.04-.08-.14-.08-.22 0-.1.1-.12.17-.13.1-.02.21 0 .29-.08.23 0 .45.02.68.08z" style="fill:#b68399;stroke-width:0"/><path d="M16.4 18.86h-.2c.1-.08.21-.02.32-.04.29.02.58-.01.87-.08-.07.11-.02.24-.04.36-.09.12 0 .27-.07.42-.08-.21-.17-.26-.29-.06-.01.02-.03-.03-.04-.05.08-.2.12-.42.29-.57-.1.03-.2.02-.29.03-.19.02-.37.03-.55 0z" style="fill:#d797a1;stroke-width:0"/><path class="cls-54" d="M15.73 15.46c-.06-.05-.02-.08.02-.1.05-.02.12-.03.17.02.09.09.17.19.12.34.07-.02.04-.1.11-.1.11.21-.09.23-.2.31 0-.15-.23-.17-.17-.35-.02-.03 0-.06.01-.09.02-.04.05-.03.08-.02-.02-.03-.05-.04-.08-.02-.02 0-.04.01-.06.01z"/><path d="M15.73 15.46c.09-.07.21-.03.22.07 0 .02-.01.05-.03.07-.03.02-.05 0-.06-.03-.06-.16-.06 0-.09.02-.05-.03-.04-.08-.04-.12z" style="fill:#b17c77;stroke-width:0"/><path class="cls-130" d="M7.67 17.24c.28-.04.48-.21.67-.4.04-.08-.05-.14-.04-.22.01-.07.02-.14.08-.19.1.02.07.11.09.18.07-.08.15-.14.23-.2.19-.14.2-.14.26.08.09.25-.01.46-.17.66a.87.87 0 0 0-.12.14c.16.06.31.12.46.18.1.11.26.06.36.16v.03c.12.1.14.27.29.36.11.06-.07.08-.1.13-.17.09-.33-.01-.5-.04-.24-.02-.45-.15-.68-.22a.4.4 0 0 0-.19.02c-.13.02-.24-.08-.38-.07-.11 0-.16-.18-.28-.22-.05.06-.06.15-.14.18-.01.1.04.23-.11.27-.12-.14-.01-.3-.02-.45.05-.16.11-.31.29-.38z"/><path d="M9.17 18.07c.17.03.34.05.51.08.5.17 1.01.28 1.54.22.09 0 .16-.12.24-.19.34.08.68.03 1.02.04.2.03.4-.06.6-.03.06.06.13.03.2.04.01.05-.02.08-.05.09-.16.02-.29.1-.43.15-.16-.03-.31-.04-.46.03-.08.02-.17.02-.26.03-.04.01-.08-.04-.13-.01 0 .09.15.1.09.21-.03.02-.05.02-.08.02a.21.21 0 0 1-.11-.04c-.23-.16-.47-.25-.75-.26-.02-.01 0 .04 0 .01 0 0 0-.01.02-.01.26.04.51.11.74.26.04.03.12.04.08.13-.13.06-.24 0-.36-.03s-.24-.05-.36-.08c-.31-.03-.6-.18-.91-.22-.11-.01-.22-.06-.33-.07-.26-.02-.49-.15-.72-.25-.05-.02-.09-.05-.08-.12z" style="fill:#c48c9a;stroke-width:0"/><path d="M11.58 17.91v-.03c-.05-.07-.14-.07-.21-.12.2.08.35-.08.52-.09.13.04.22.17.37.18-.23.11-.46.05-.69.06z" style="fill:#d6c1bf;stroke-width:0"/><path class="cls-298" d="M13.24 17.36c.07.06.05.1-.01.15-.1.08-.22.1-.35.09.06-.07.2-.01.2-.16.05-.03.11-.05.16-.08z"/><path d="M11.58 16.77c.18-.01.33.1.51.08-.19.09-.35 0-.51-.08z" style="fill:#d5bcb7;stroke-width:0"/><path class="cls-146" d="M10.95 17.68c.08-.12.16-.24.32-.28-.1.1-.17.23-.32.28z"/><path d="M4.62 18.66s.16.02.07-.11c-.1-.13-.01-.33.16-.36.07-.01.13-.03.17-.08.17.04.15.16.1.27-.05.1-.16.17-.13.31-.12.02.01.05 0 .08 0 0 0 .02-.01.03-.14.02-.28.06-.35-.12z" style="fill:#ecc5c0;stroke-width:0"/><path d="M5.37 18.98c-.08-.08-.18-.1-.28-.11-.04-.03-.08-.05-.12-.08v-.02c.05-.27.14-.3.38-.15.06.03.11.07.17.1.06.03.15.05.15.13 0 .09-.08.12-.15.16-.03.02-.06.02-.09.01-.02-.02-.05-.03-.07-.05z" style="fill:#ead1c5;stroke-width:0"/><path d="M5.44 19.03c.07-.05.15-.11.24-.17-.16-.09-.3-.19-.46-.26-.06-.03-.24-.11-.17.11.01.05-.03.07-.07.07-.04-.07-.17 0-.18-.12.06-.07.1.03.15.01 0 0 .01-.03 0-.03-.09-.1 0-.14.05-.2.11-.11.17-.22.01-.34.03-.11.07-.19.2-.08.1.09.21 0 .31 0-.05.2-.19.33-.36.43.05.03.09.01.12.02.19.07.37.18.57.24.08.06.23-.03.28.11.02.05 0 .1 0 .15-.02.05-.05.06-.1.06-.16.07-.31.2-.5.08-.05-.03-.09-.05-.1-.11z" style="fill:#d4a7a5;stroke-width:0"/><path d="M6.04 19.06s.06-.05.08-.07c.05-.11.15-.1.24-.09.35.03.57-.12.67-.46.02-.06.05-.11.11-.13h.06c-.03.17-.06.34-.09.52-.02.04-.03.08-.05.12-.05 0 .01-.12-.08-.08-.22.1-.44.22-.7.13.03.09.1.08.15.12.05.04.04.06-.02.07-.05.01-.08-.02-.12-.05-.06-.08-.18.01-.24-.08z" style="fill:#593c32;stroke-width:0"/><path d="M13.52 19.86v.04c-.03.01-.07.03-.1.04-.05-.02-.11-.02-.17-.04-.09-.02-.18-.05-.27 0-.2-.21-.12-.47-.11-.71 0-.06.07-.1.14-.12.08 0 .16 0 .24.02.16.14.26.3.31.51.03.1.01.18-.03.26z" style="fill:#b99cb2;stroke-width:0"/><path class="cls-34" d="M13.24 19.9c.06 0 .12-.02.17.04 0 .09-.02.18.02.27-.11.07-.19.05-.24-.07.07 0 .11-.02.13-.1.03-.09-.05-.1-.09-.13z"/><path class="cls-252" d="M19.72 18.87c-.03-.13 0-.22.14-.24.12-.02.14-.2.29-.16 0 .06-.02.11-.05.16-.06.09-.23.13-.17.3-.03 0-.06.01-.09.02-.05 0-.09-.03-.12-.08z"/><path d="M17.98 18.63c-.06-.03-.15 0-.2-.08-.02-.19.12-.25.36-.18.12.03.08.08.03.14-.04.08-.09.15-.19.12z" style="fill:#bdb283;stroke-width:0"/><path class="cls-295" d="M17.98 18.63c.06-.04.13-.08.19-.12.12-.02.19-.17.33-.11-.07.06-.15.11-.22.18-.1.09-.01.09.05.1-.07.06-.18.02-.23.11-.06-.03-.12-.07-.12-.15z"/><path d="M18.1 19.45v-.25c-.01-.17.06-.23.23-.17-.02-.1-.12-.13-.15-.21h.47c-.21.14-.21.17-.08.47-.07.03-.12.05-.19-.01-.11-.11-.19-.11-.21.07 0 .05-.03.08-.08.1z" style="fill:#7b6f49;stroke-width:0"/><path d="M11.93 20.56c-.24.12-.49.22-.75.32-.21.06-.09-.15-.16-.2 0-.1.09-.1.15-.12.24-.1.48-.19.71-.3.13-.06.26-.08.4-.03.06.11-.04.15-.1.2-.07.07-.16.11-.26.13z" style="fill:#dbb7c5;stroke-width:0"/><path d="M12.3 20.25c-.47 0-.85.3-1.27.44-.05.01-.1.03-.16.04h-.04c.16-.21.42-.27.63-.39.26-.16.54-.27.85-.22.04 0 .1 0 .1.06s-.03.12-.11.08z" style="fill:#b57c8a;stroke-width:0"/><path d="M12.3 20.25c.06 0 .08-.04.08-.09-.27-.02-.53-.01-.77.15-.04.03-.1.02-.15.02v-.03c0-.06.05-.08.1-.1.28-.09.45-.33.68-.51-.11-.01-.27.08-.3-.05-.03-.15.15-.12.24-.16h.04c.06 0 .12-.05.18-.05.02 0 .03.02.04.03.04.09.08.19.06.3-.09.1-.2.19-.26.23.05-.06.32.15.27-.17.03-.06 0-.14.09-.16.08.11.21.18.29.29-.04.06-.13 0-.17.07-.07-.04-.07.02-.08.06-.12.27-.32.45-.62.51-.04 0-.06.01-.08-.02.13-.1.27-.18.36-.32z" style="fill:#995c70;stroke-width:0"/><path class="cls-34" d="M12.88 20.45c-.06-.12-.07-.23.04-.33.07-.07.15-.11.24-.02-.17.06-.29.15-.27.35z"/><path d="M12.89 19.94c-.12-.07-.27-.1-.28-.29-.05-.08-.02-.17-.04-.25-.04.05.07.14-.01.16-.1.03-.09-.11-.15-.15s-.05-.02-.06-.05v-.05c-.04-.21-.22-.32-.32-.49-.03-.03-.07-.06-.06-.12h.08c.11 0 .16.07.22.14.05.05.1.11.18.05.03-.02.05-.05.09-.02.05.16.17.17.31.15.15-.03.15-.02.19.08-.12.02-.17.1-.16.21.03.2-.01.4.08.59-.03.01-.06.03-.08.04z" style="fill:#e9c6c7;stroke-width:0"/><path class="cls-22" d="M5.88 16.02s.1.05.14.02c.09-.08.1.02.14.06 0 0 0 .02.01.02.12.03-.05.18.08.21.09.02.18.04.26.07.13.05.19.13.16.26.07.05.17 0 .24.08s.03.08 0 .12c-.01.01-.02.03-.03.04-.02 0-.03-.05-.04-.02-.06.22-.3.37-.51.32-.08-.02-.17-.02-.25-.06v-.33c0-.08 0-.15-.08-.18-.03-.12-.13-.16-.23-.19-.24-.13-.26-.18-.19-.49.1.2.15.22.31.1z"/><path class="cls-226" d="M6.91 16.85v-.12c.15.02.15-.11.2-.2.14-.02.21-.17.35-.19-.02.03-.05.07-.05.08.12.12.02.29.09.43.07.14-.12.19-.22.23-.16.07-.26 0-.31-.19 0-.02-.04-.02-.06-.04zM6.91 16.73q-.18 0-.24-.08c.15-.05.13-.19.15-.3.06.12.26.21.08.38z"/><path class="cls-22" d="M6.56 15.54c-.03.05-.06.09-.12.12-.03-.01-.11 0-.09-.03.05-.07.08-.2.21-.18.06 0 0 .06 0 .09z"/><path d="M8.92 16.49s-.03-.08-.05-.14c-.14.11-.28.22-.42.32-.08-.06 0-.17-.08-.22-.04.02-.07.06-.08.1-.05.16-.04.16-.19.03-.04-.05-.1-.11-.08-.17.04-.14-.07-.1-.13-.12-.19.04-.19-.07-.15-.2a.37.37 0 0 1 .18-.21c.19-.11.29-.32.48-.44.08-.05 0-.25.07-.37.06.12.04.24.03.37 0 .14-.09.2-.15.28-.13.14-.11.32-.14.48 0 .04-.01.08.03.11.05.02.07-.03.1-.04.17-.09.25-.28.42-.37.02 0 .04-.03.06-.04.05-.04.08-.15.17-.11.08.04.09.14.09.23-.01.18-.1.35-.16.52z" style="fill:#ecb6b8;stroke-width:0"/><path d="M7.9 16.29c.08 0 .13-.06.2-.13-.02.16-.07.29.03.4-.02.03-.05.02-.07 0-.1-.15-.3-.11-.43-.2.08-.08.2 0 .27-.07z" style="fill:#9c575b;stroke-width:0"/><path d="M7.23 15.38c.1-.04.14-.18.27-.19.09.11-.02.2-.04.3-.01.05-.1 0-.15 0-.07 0-.06-.06-.07-.11z" style="fill:#f6cecf;stroke-width:0"/><path class="cls-158" d="M9.2 20.32s-.08-.03-.12-.03v-.04c.09-.29-.06-.52-.4-.59-.09-.02-.15-.04-.19-.12-.02-.04-.06-.09-.1-.08-.17.06-.22-.07-.29-.16-.03-.04-.13-.05-.11-.11.02-.07.11-.06.17-.05.08.01.15-.02.23-.03h.06c.43.02.86.04 1.27.17.06.02.11.03.17.05.09.1.18.19.21.35.01.11.16.21.23.33.09.15.07.38-.04.5-.38.03-.72-.12-1.07-.2z"/><path d="M10.27 20.52c.1-.31.03-.55-.23-.77-.04-.04-.15-.08-.02-.15.05-.03-.01-.07-.04-.08-.05-.04-.12-.06-.08-.15.05-.15.19-.12.3-.13.08 0 .16 0 .23.02.02 0 .03.03.04.05-.01.06-.06.06-.11.07-.05.01-.12 0-.12.07 0 .06.05.09.09.12.14.12.31.16.49.19.13.02.23.08.27.22.06.12.18.14.3.17.06.01.15-.02.17.08-.04.02-.07.04-.11.06-.39.12-.77.28-1.19.23z" style="fill:#f3d9d5;stroke-width:0"/><path d="M8.38 19.14c-.1.13-.24.03-.37.05.03.05.06.08.09.12-.04-.01-.07-.03-.11-.04-.3-.02-.37-.25-.44-.48.21.03.39-.03.52-.2.17.06.28.18.32.36 0 .04.02.07.02.11 0 .03 0 .05-.02.08z" style="fill:#d5b7c8;stroke-width:0"/><path d="M8.34 18.98c0-.19-.19-.26-.28-.39-.04-.06-.04-.13-.04-.2-.08-.13-.08-.25.03-.36.01 0 .03-.01.04 0 .09.17.32.18.39.37.03.08.12.07.18.1.17.08.22.2.13.31-.08.04-.17.05-.26.1-.07.02-.1.11-.19.08z" style="fill:#f4e2db;stroke-width:0"/><path d="M8.1 18.03c-.14.09-.05.24-.08.36-.1.05-.15.04-.2-.08-.08-.18-.2-.34-.31-.51.04-.08.08-.16.14-.27.17.23.42.28.65.35.01.15-.11.14-.2.16z" style="fill:#e8bcc1;stroke-width:0"/><path d="M7.2 18.31h-.05c-.02-.04 0-.07.02-.1v-.02c.01-.01.01-.03 0-.03-.11.04-.23.08-.33-.03-.03-.13.07-.18.14-.26.01-.01.03-.02.04-.03.08-.05.16-.1.23-.16l.04-.04c.03-.03.07-.06.11-.05.04.16-.06.31-.02.47-.07.08-.13.16-.2.24z" style="fill:#c1898a;stroke-width:0"/><path class="cls-201" d="M9.28 15.14v-.07h.11v.63c0 .06 0 .13-.01.19-.03.01-.07 0-.07-.02 0-.17-.14-.29-.17-.45-.02-.12.08-.19.11-.29z"/><path d="M8.92 16.49c0-.11 0-.22.06-.32.08-.13.07-.27 0-.41-.1 0-.1.16-.22.14.11-.14.19-.3.27-.46.02-.03.04-.13.08-.01-.03.23.14.41.17.63-.14.03-.31.31-.29.48.03.24.01.47-.21.63.09-.21.25-.42.13-.67z" style="fill:#a96166;stroke-width:0"/><path d="M9.29 16.06c-.1-.2-.28-.38-.17-.63h.04c.15.12.17.3.23.47 0 .1 0 .21.06.35-.09-.07-.09-.16-.17-.19z" style="fill:#f2c7c1;stroke-width:0"/><path d="M5.73 18.07s.06 0 .07-.03c.09-.19.22-.19.38-.09.08.05.13.02.13-.06 0-.11.09-.14.16-.18.03 0 .06 0 .08-.03a.4.4 0 0 1 .28-.06c.11.03.16-.07.24-.1.11-.05.21-.14.33-.17.08.05.05.1.01.16-.03.05-.09.09-.09.16 0 0-.01 0-.02.01-.09.07-.19.13-.28.2s-.03.02-.05.02c-.11.02-.18.1-.25.17l-.4.4c-.05.05-.09.12-.18.08-.17-.2-.21-.21-.47-.12-.07.02-.14.06-.22.02 0-.19.11-.3.28-.37z" style="fill:#e7b7b3;stroke-width:0"/><path d="M6.08 17.12s.08-.04.13-.02c.17.08.31.05.47-.07.11-.08.14-.15.12-.26.1-.02.07.06.09.11.01.24-.23.31-.33.47-.17-.24-.58-.17-.65.12 0-.15-.09-.34.18-.35z" style="fill:#d98b97;stroke-width:0"/><path class="cls-209" d="M7.43 17.36c-.14.12-.31.19-.47.28-.13.07-.27-.02-.4.04.1-.06.19-.19.34-.1.01 0 .06 0 .07-.02.1-.18.3-.2.46-.28.03.02.03.05 0 .08z"/><path d="M6.44 17.68c-.14.03-.3 0-.4.21 0-.15.01-.23-.12-.16-.11.06-.21.14-.34.14h-.02v-.03h.04c.24-.15.5-.22.77-.24.07 0 .14-.06.22-.1 0 .11-.11.12-.16.18z" style="fill:#dba9aa;stroke-width:0"/><path d="M7.43 17.36v-.08c.1-.12.25-.17.36-.28.09.04.01.08 0 .12-.04.04-.07.08-.11.13-.1.1-.18.23-.25.35-.03.02-.06.05-.08.07-.05-.04-.03-.07 0-.11.05-.05.11-.11.09-.2z" style="fill:#98605f;stroke-width:0"/><path d="M8.06 16.57h.07c.05.03.09.07.14.1-.1-.14 0-.18.11-.21-.03.1-.08.2.02.31.04.04 0 .08-.06.09-.1-.08-.24-.12-.28-.27z" style="fill:#d99a9c;stroke-width:0"/><path d="M5.56 17.28c-.08 0-.14.12-.24.03-.07-.07-.07-.14-.04-.23.13.02.22.09.28.2z" style="fill:#c89695;stroke-width:0"/><path d="M7.78 17.12s.05-.08 0-.12c.1-.11.19-.23.16-.42.11.16.05.35-.16.54z" style="fill:#c98e8f;stroke-width:0"/><path class="cls-22" d="M6 16.83c.07.14 0 .21-.08.27.02-.08.04-.16.08-.27z"/><path d="M4.74 18.08c.04-.11.1-.16-.06-.24-.12-.07-.12-.25-.1-.44.19.14.39.21.61.25.1.02.09.13.01.18-.15.09-.31.17-.46.25z" style="fill:#daa6a7;stroke-width:0"/><path d="m5.73 18.07-.28.35c-.02.07-.07.12-.15.08-.07.03-.15.06-.22-.04.19-.1.32-.27.45-.44.06-.02.11-.04.17-.05.14-.02.02.06.03.09z" style="fill:#b98d91;stroke-width:0"/><path class="cls-221" d="M4.23 17.28h.04c.06.08.01.14-.03.23-.05-.09-.11-.16-.21-.16.04-.11.11-.13.21-.07z"/><path d="M4.23 17.28c-.08 0-.16 0-.21.07h-.11c.04-.11.19-.09.23-.19.11-.02.08.06.08.11z" style="fill:#888a67;stroke-width:0"/><path class="cls-76" d="M13.95 17.36s.05-.08.09-.1c.05-.04.12-.08.18-.05.08.04-.06.1 0 .15-.09-.05-.18.14-.28 0z"/><path class="cls-152" d="M13.52 19.86c.02-.24-.04-.45-.21-.62-.04-.04-.07-.07-.07-.13 0-.17.1-.25.24-.3.13.05.11.17.14.26.02-.11-.07-.24 0-.36.08-.03.06.06.09.08.05.15.04.31.03.46-.04.14-.07.28-.11.41-.02.07-.04.15-.12.19z"/><path d="M13.63 18.71c-.02.13.11.27-.01.4-.09-.08-.04-.22-.14-.29-.07-.05-.1-.13-.16-.19-.04-.05-.11-.1-.07-.16.04-.07.13-.05.2-.03.04.01.09.03.13.04.04 0 .07 0 .11.02.01.07-.14.11-.04.2z" style="fill:#b77c85;stroke-width:0"/><path class="cls-133" d="M13.67 18.51s-.05.03-.08.04c-.12-.15-.26-.17-.43-.1-.1.04-.21.05-.32.04-.03-.01-.05-.03-.04-.06.13-.13.33-.1.48-.2h.14c.22-.03.3.05.26.28z"/><path d="M15.33 19.26c.11-.04.23-.08.39-.07-.12.07-.24.09-.26.23-.01.06-.1.12-.16.17-.25.23-.24.27.11.39.08.07.04.09-.04.08-.26-.05-.52-.1-.75-.23-.04-.08-.21-.07-.15-.19.07-.13.16-.27.33-.31.18-.04.36 0 .54-.06z" style="fill:#e6afb3;stroke-width:0"/><path d="M15.33 19.26c-.08.07-.19.07-.27.07-.2 0-.35.04-.48.21-.08.11-.12.16.02.22.02.01.05.02.02.05-.19-.08-.4-.08-.55-.23.1-.06.21-.07.32-.09.04 0 .1.01.12-.05.02-.06-.06-.05-.08-.09-.04-.08-.14-.03-.19-.09h1.11z" style="fill:#d5949c;stroke-width:0"/><path class="cls-68" d="M16.4 18.86h.55c-.03.04-.08.03-.12.04h-.43v-.04z"/><path d="M16.72 18.39c-.07.01-.07.09-.1.13-.06-.02-.07-.09-.05-.11.16-.19.14-.46.26-.67.01-.02.02-.06.05-.03 0 .19-.15.36-.03.57.05.07-.1.06-.13.1z" style="fill:#fbebe6;stroke-width:0"/><path class="cls-59" d="m9.01 14.8.07-.12c.05.09.05.2.12.27-.09.03-.09.03-.11-.05-.01-.04-.05-.07-.08-.1z"/><path class="cls-71" d="M8.1 18.03c.06-.06.17-.06.2-.16.06-.04.13-.05.2-.04 0 .06.05.07.1.1.19.08.42.12.5.37.03.08.15.1.24.12.14.03.29.05.41.14.08.07.18.13.27.19.16.1.23.24.19.43-.02.02-.05.03-.08.03-.09 0-.18-.04-.25-.09-.11-.1-.25-.14-.38-.2-.06-.03-.17-.05-.15-.13.03-.1.13-.04.2-.02.02 0 .04 0 .05.02-.15-.1-.28-.07-.43.02-.21.13-.46.19-.71.22-.03 0-.05.01-.08.01-.03-.02-.03-.05-.03-.08.05-.04.1-.08.16-.12.1 0 .2 0 .28-.08.12-.18-.1-.17-.14-.26h-.06c-.19.02-.12-.22-.24-.26-.12-.04-.25-.06-.23-.23z"/><path d="M9.72 18.58c-.14-.04-.29-.07-.43-.12a.337.337 0 0 1-.26-.22c-.08-.18-.29-.27-.47-.27-.21 0-.08-.08-.05-.14.07 0 .14.01.18.06.14.13.33.11.49.18.24.16.51.27.79.32.04.07 0 .09-.06.11-.05.01-.11 0-.14.05-.01.01-.02.02-.04.03z" style="fill:#e69eab;stroke-width:0"/><path class="cls-71" d="M9.72 18.55c0-.05-.02-.13.09-.1.06.02.13.03.15-.06.35.06.7.12 1.03.24.08.03.15.03.23.03-.09.16-.07.32 0 .48 0 .01-.02.03-.03.05-.02.01-.03.02-.05.03-.09.02-.17.05-.26.03-.11-.02-.19-.11-.28-.17-.22-.15-.44-.29-.68-.39a.43.43 0 0 1-.19-.14z"/><path d="M11.18 19.17s.02-.06.01-.07c-.16-.16-.18-.3.03-.43.24.05.47.13.72.15.04-.02.07 0 .1.03.05.09.01.2.06.29.02.04-.02.06-.06.08-.29-.01-.57 0-.85-.05z" style="fill:#e5a4b6;stroke-width:0"/><path d="M12.53 18.87s-.05.05-.06.08c-.19-.1-.35-.23-.43-.44.08-.08.19-.02.28-.04.21-.03.35.06.44.32-.07.07-.14.13-.24.09z" style="fill:#e6abb8;stroke-width:0"/><path d="M12.77 18.78c-.14-.11-.19-.34-.43-.32.15-.1.31-.09.47-.04.01.01.02.03.04.04.12.11.23.23.1.4-.09.04-.14 0-.17-.09z" style="fill:#be7383;stroke-width:0"/><path d="M12.01 18.86s-.05-.03-.08-.04c-.14-.15-.34-.19-.52-.25a5.94 5.94 0 0 1-.39-.13c.25-.02.5-.04.72.16.06.05.13.12.22.11.02.03.05.06.07.08.05.05.03.07-.03.07z" style="fill:#7b4753;stroke-width:0"/><path d="M12.05 18.51c.14.15.28.3.43.44-.1.05-.17 0-.24-.07-.05-.06-.12-.11-.19-.17-.03-.03-.07-.06-.1-.09-.06-.05-.12-.12-.06-.18s.11.02.16.06z" style="fill:#ae6878;stroke-width:0"/><path d="M6.98 17.87h.05c-.04.09-.15.13-.16.24-.06.29-.28.44-.45.58.11-.15.37-.19.51-.39.06-.08.14-.14.25-.1v.03c-.01.03-.03.05-.04.08-.02.04-.05.08-.07.12-.15.43-.29.53-.75.52-.07 0-.14-.01-.21.04-.05-.04.01-.08 0-.12-.02-.1.03-.19.08-.26.23-.28.45-.56.78-.74z" style="fill:#f0d6cf;stroke-width:0"/><path d="M5.3 18.51c.05-.03.1-.06.15-.08.11 0 .2-.05.3-.09.2-.08.35 0 .42.2-.06.14-.16.2-.31.21-.21-.03-.38-.13-.55-.24z" style="fill:#f1d3cb;stroke-width:0"/><path d="M5.85 18.75c.1-.07.21-.14.31-.21.22-.17.39-.39.6-.57.06-.05.11-.16.22-.11-.34.29-.69.56-.86.99-.05-.04-.08-.1-.16-.06-.05.03-.1.03-.11-.05z" style="fill:#bb8482;stroke-width:0"/><path d="M12.77 18.78c.05.02.09.08.16.07.19 0 .31-.13.44-.25.07.05.11.12.12.21-.11.07-.19.16-.24.28-.07.05-.13 0-.2 0-.08-.1-.18-.03-.26-.02-.19.02-.24-.01-.25-.21.08-.03.16-.06.23-.09z" style="fill:#f6e9e4;stroke-width:0"/><path d="M11.57 20.24c-.09-.07-.21-.02-.31-.06-.09-.04-.16-.07-.19-.17-.06-.15.02-.23.14-.3.04-.02.11-.03.1-.1-.01-.06-.07-.07-.11-.09-.06-.02-.16-.02-.12-.13.09-.04.18 0 .27-.03.2.02.4.03.61-.01.09-.02.19-.05.29 0 .04.04.07.09.03.15-.09.05-.22.03-.3.13.13.09.26-.03.41.02-.26.21-.44.51-.78.6z" style="fill:#c7b4c2;stroke-width:0"/><path d="M12.53 19.81c.09.1.04.18-.05.21-.12.04-.26 0-.39.03.15-.1.23-.26.4-.32.03.02.04.05.04.08z" style="fill:#622337;stroke-width:0"/><path class="cls-262" d="M12.53 19.81s-.03-.05-.04-.08c-.03-.11-.05-.21-.08-.31.09 0 .06.11.14.14 0-.06-.01-.12-.03-.21.1.12.08.22.08.31-.07.03-.02.12-.08.16zM12.25 19.49s-.02-.07-.04-.11c.05-.05.1-.04.16 0l.04.04c-.06.02-.09.09-.16.07z"/><path d="M12.37 19.38h-.16c-.1-.05-.21 0-.3.01-.21.04-.41.03-.62 0-.07.02-.13 0-.16-.06.02-.04.05-.06.09-.06.2.02.4.02.6.01-.15-.02-.3-.05-.47-.03-.07 0-.18.06-.21-.07h.03c.3-.08.61 0 .91 0 .07-.09.14-.11.2 0 .03.05.07.09.08.15v.04z" style="fill:#9f5e6e;stroke-width:0"/><path class="cls-262" d="m12.37 19.34-.04-.04c-.06-.09-.11-.18-.24-.12-.08-.09-.13-.19-.08-.31.03-.02.03-.04.03-.07.11.18.35.29.33.55z"/><path d="M11.15 19.18c.06.07.14.05.2.02.19-.07.37.02.55.06-.18.11-.37.08-.55.06-.07 0-.14-.05-.2.01-.23.04-.45.06-.68-.03-.19 0-.38-.05-.56.07-.32-.05-.64-.14-.96-.18-.18-.02-.37.05-.54-.05.03-.04.08-.05.12-.06.46-.04.92-.13 1.37.07.06.03.13.07.21.03h.08c.23-.05.45-.02.67.04l.28-.03z" style="fill:#d28f9b;stroke-width:0"/><path d="M10.11 19.18c-.05.06-.1.02-.16.02-.32-.04-.61-.19-.96-.09-.16.05-.38.03-.58.03h-.03c0-.03 0-.05-.01-.08.02-.01.03-.03.05-.04.25-.02.5-.06.76-.06.25 0 .48.03.7.14.08.03.16.06.23.09z" style="fill:#bb7883;stroke-width:0"/><path d="M11.07 19.38c0 .1.09.07.15.08.09.02.15.08.16.18 0 .1-.08.08-.13.1-.11.05-.2.13-.18.27-.04-.15-.15-.18-.29-.2-.19-.03-.37-.09-.51-.22-.05-.05-.13-.09-.1-.17.03-.07.11-.08.18-.08h.12c.2-.04.4-.03.6.04z" style="fill:#ddc0c6;stroke-width:0"/><path class="cls-158" d="M11.07 19.38c-.2 0-.39-.06-.6-.04v-.04c.23-.01.45 0 .68.03.05.02.1.03.15.05-.08.07-.16.03-.23 0z"/><path class="cls-189" d="M8.77 18.78s.08.04.05.05c-.1.04-.21.12-.33.03.09-.04.18-.08.28-.08z"/><path d="M7.19 18.23c-.1-.03-.17 0-.21.09-.07.16-.22.2-.35.27-.12.06-.19.24-.38.16.3-.14.46-.39.62-.64.15.1.28 0 .43-.07-.02.09-.06.14-.11.19z" style="fill:#e0b4af;stroke-width:0"/><path class="cls-130" d="M7.03 17.88c.06-.11.16-.16.28-.2-.07.1-.17.16-.28.2z"/><path d="M13.36 18.61c-.11.23-.26.32-.44.25.1-.16-.06-.26-.09-.39.14-.05.29-.05.43-.1s.31-.04.33.18c-.11 0-.2-.12-.32-.07-.01.07.07.08.09.13z" style="fill:#ebb5be;stroke-width:0"/><path class="cls-189" d="M9.88 19.1c-.48-.11-.98-.06-1.46-.08.26-.06.52-.12.76-.24.23-.12.36-.1.56.11-.07.02-.12-.04-.18-.05-.06 0-.13-.03-.23-.05.19.17.43.15.56.32z"/><path d="M10.86 19.22c-.22 0-.45.04-.67-.04-.02-.24-.17-.38-.37-.48-.04-.02-.07-.07-.11-.11v-.04c.41.17.79.4 1.14.67z" style="fill:#f7dedd;stroke-width:0"/></svg>